<?xml version="1.0" encoding="utf-8"?>
<!-- Generator: Adobe Illustrator 19.2.1, SVG Export Plug-In . SVG Version: 6.00 Build 0)  -->
<svg version="1.1" id="Layer_1" xmlns="http://www.w3.org/2000/svg" xmlns:xlink="http://www.w3.org/1999/xlink" x="0px" y="0px"
	 viewBox="0 0 211.6 110.2" style="enable-background:new 0 0 211.6 110.2;" xml:space="preserve">
<style type="text/css">
	.st0{fill:#537249;}
	.st1{fill:#22262A;}
</style>
<g>
	<path class="st0" d="M20.8,21.4h9.7v17.7c0,2.7-0.2,5.4,0.2,8.2c0.2,1.9,0.7,3.6,2.2,5.1c0.8,0.9,2.3,1.4,3.5,1.4
		c1.6,0,3.1-0.2,4.1-1c1-0.7,1.7-1.7,2-2.7c0.2,2.2,0,4.5,0.2,6.8c-0.6-0.2-0.8-0.2-1.4-0.2c0-0.6,0-1-0.2-1.4
		c-0.2-0.4-0.5-0.5-0.5-0.8h-1.5v0.3c-0.2,0.2-0.4,0.4-0.5,0.5v-0.5c0,0.5-0.2,0.7-0.7,0.5c0.2,1.3,0.2,2.6,0,3.8
		c-0.2,0.2-0.5,0.2-0.7,0.2v-4.1c-0.4-0.2-0.7-0.2-0.9-0.5c-0.8-0.4-1.7,0-2.6,0c0,0.6-0.5,0.3-0.8,0.3v-0.5
		c-0.4-0.2-0.2-0.8-0.3-1.2h-2.2c0,0.4-0.2,0.6-0.2,1.2h-0.5v-1c-0.2,0-0.2-0.2-0.3-0.2v-1.7h-1.4V49c-0.7-0.2-1.6-0.2-2.2-0.2
		C25.3,49,25,49,24.4,49v5.5c-0.2,0-0.4,0.2-0.5,0.2v-0.8c-0.4,0-0.3-0.4-0.3-0.7h-0.7v-1h-0.5v-0.8c-0.4-0.2-0.8-0.5-1.2-0.9
		c-0.4-2.6-0.4-5.3-0.4-7.8V21.4z M21.8,23v-0.7h0.7c-0.4-0.2-0.7-0.2-0.8-0.2C21.7,22.5,21.7,22.6,21.8,23z M23,49.5
		c0,0.3-0.1,0.4-0.4,0.4h0.1c0.1,0,0.1,0.1,0.1,0.2c0.1,0.5,0.5,0.1,0.8,0.2c0-0.3-0.1-0.6-0.4-1c-0.4,0.2-0.5,0.3-0.7,0.3H23z
		 M23.3,26.2c-0.2,0-0.3,0-0.2,0.4C23.3,26.5,23.6,26.5,23.3,26.2z M23.3,35.4c0.2,0,0.4-0.2,0.5-0.2h-0.2c0-0.2,0.2-0.2,0.2-0.3
		l-0.1-0.1c-0.1-0.1-0.1-0.1-0.1-0.3h-0.4c0-0.2,0.2-0.3,0.2-0.5c-0.2,0-0.2,0.2-0.4,0.2C23.2,34.6,23.2,35,23.3,35.4z M23.2,49
		c0.6-0.2,0.8-0.5,1-0.8c-0.2,0-0.4,0.2-0.5,0.2C23.6,48.6,23.3,48.6,23.2,49z M23.6,25.2c0.4,0,0.4-0.7,0-0.5
		C23.2,24.8,23.2,25.3,23.6,25.2z M24.2,45.6v0.5c0.2,0,0.3-0.2,0.5-0.2h-0.3c0.1-0.2,0.2-0.2,0.2-0.3v-0.1c-0.4,0-0.7,0-0.8,0.2
		C23.9,45.7,24,45.6,24.2,45.6z M24.2,23c0.2,0.4,0.3,0.7,0.7,0.8c0-0.2-0.2-0.5-0.4-0.5c0.4,0.2,0.5,0,0.7-0.2h-0.5
		c0.2-0.2,0.4-0.4,0.5-0.5c-0.4,0-0.7,0-0.7,0.4H24.2z M24.7,26c0,0.4,0.2,0.5,0.4,0.8c-0.2,0-0.4,0.2-0.5,0.2
		c0.2,0,0.5,0.2,0.7,0.2c-0.3,0-0.5,0.1-0.7,0.4l0.2,0.2v-0.4c0.2,0,0.5,0,0.7,0.2c0-0.4-0.2-0.5,0-0.9c-0.2-0.2-0.3-0.2-0.5-0.3
		c0-0.1-0.1-0.2-0.1-0.3L24.7,26z M25.2,46.6c0.4,0.4,0.2,0.6,0,1c0.1-0.1,0.2-0.2,0.3-0.2h0.1v-0.5h0.3L25.8,47
		c-0.1,0.1-0.1,0.1-0.1,0.3h0.5c-0.4-0.4-0.1-0.8,0.3-1.2c-0.2,0.4,0.2,0.7,0.5,0.3c-0.2-0.2-0.3-0.1-0.3-0.5
		c-0.4,0.2-0.7,0.3-0.9,0.8h-0.3c0.2-0.7-0.3-1-0.9-1.4C25.1,45.7,25.2,46.1,25.2,46.6z M26.3,42.9c-0.2,0.4-0.7-0.1-0.7,0.3
		c0.2,0,0.5-0.2,0.7-0.2V42.9c0.2-0.4,0.2-1,0.2-1.5c0,0.2-0.2,0.2-0.2,0.3v0.2v0.4h-0.4c0.2-0.2,0-0.5,0-0.8
		C25.9,41.8,25.6,42.5,26.3,42.9z M26.1,36.9c0.1,0.1,0.1,0.2,0.2,0.2h0.1c0.2,0.2,0.3,0.4,0.7,0.5c0-0.4-0.2-0.5-0.5-0.5
		c0-0.2,0.2-0.2,0.4-0.3h-0.7c0-0.2-0.4-0.7-0.5-0.4C25.9,36.6,26.1,36.8,26.1,36.9z M25.9,23v0.5c0-0.2,0.2-0.2,0.4-0.3
		c0,0.2-0.2,0.5-0.2,0.7c0.2,0.2-0.4,0.7,0.2,0.7l-0.2,0.3h0.2v-0.3h0.8c0-0.1,0-0.1,0.1-0.1c0.1-0.1,0.1-0.2,0.1-0.3l0.2,0.5
		c0-0.2,0.2-0.3,0.5-0.5c-0.2,0.6,0.2,0.4,0.5,0.4l-0.2,0.3l0.5,0.2c-0.4,0-0.5,0.2-0.7,0.3h0.2c0.4-0.2,0.7-0.2,0.8,0
		c0,0.2-0.2,0.4-0.2,0.5c0.1-0.1,0.3-0.2,0.5-0.2l0.1-0.1c0.1-0.1,0.2-0.1,0.2-0.1c-0.2-0.2-0.4-0.3,0-0.5c-0.4,0-0.7,0.3-0.8,0.2
		v-0.7c0.2-0.4-0.4-0.7-0.5-0.2L28.1,24v0.5h-0.2c0.2-0.4,0.2-0.7,0.2-1c0,0.3,0.1,0.4,0.2,0.5c0.2,0,0.3,0,0.7-0.2
		c-0.2-0.2-0.4-0.5-0.4-0.7c-0.5-0.2-0.8-0.5-1.4-0.7c0,0.1-0.1,0.2-0.1,0.2h-0.1c-0.2,0-0.3-0.2-0.5-0.2
		C26.2,22.6,26.3,23.2,25.9,23z M25.9,32.5l0.2-0.2v-0.2c0.2-0.2,0.3-0.2,0.3-0.5c-0.2,0-0.2-0.2-0.3-0.4
		C25.9,31.7,25.9,31.9,25.9,32.5z M26.6,31.7V32h-0.2v0.2c0,0.2,0.1,0.3,0.2,0.3v-0.3c0.1,0,0.2,0.1,0.3,0.1
		c0.1,0.1,0.1,0.1,0.1,0.1c0-0.2,0.2-0.5,0.2-0.7H26.6z M27.1,33.3v-0.5h-0.5V33c0,0.1-0.1,0.1-0.2,0.2
		C26.8,33.2,26.9,33.3,27.1,33.3z M26.6,36.4c0.2-0.4,0.5-0.5,0.7-0.3c0.2,0.4,0.4,0.5,0,0.7c0.4,0,0.5,0.2,0.9,0.3h-0.5
		c0,0.3-0.1,0.4-0.2,0.5c0.1,0.1,0.2,0.3,0.2,0.5c0.2,0,0.3-0.2,0.5-0.2c-0.4,0-0.7-0.7,0-0.7c-0.2,0.2,0,0.4,0.2,0.5
		c-0.4-0.4,0-0.5,0.2-0.7h-0.3c0-0.4,0-0.9,0.5-0.5c0.2-0.2,0.5-0.3,0.5-0.7H29c-0.1,0-0.2,0.1-0.2,0.4c0-0.2,0-0.5-0.4-0.5
		c-0.2,0.2-0.2,0.4-0.3,0.4c-0.2-0.2-0.2-0.5-0.4-0.9h0.2h-0.2c0,0.2-0.2,0.4-0.2,0.5c-0.2-0.2-0.2-0.5-0.4-0.5
		C27.1,35.6,26.8,35.8,26.6,36.4z M27.1,23.7h0.2c0.2,0.1,0.2,0.3,0.2,0.5c-0.3-0.2-0.5-0.3-0.5-0.3C26.9,23.7,27,23.7,27.1,23.7z
		 M27.9,35.7c0,0.4-0.5,0.4-0.7,0.2C27.3,35.7,27.8,35.6,27.9,35.7z M27.8,32.3h0.2l-0.2,0.2h-0.3c0.2,0.2,0.3,0.4,0.5,0.2
		c-0.2,0.2-0.2,0.4-0.3,0.5h0.3c0-0.1,0.1-0.2,0.1-0.2l0.1-0.1c0.2-0.4-0.2-0.5-0.4-0.9V32.3z M27.8,42.7l0.2,0.2h-0.5
		c0,0.2,0.2,0.5,0.3,0.8v-0.5c0.3,0,0.4-0.1,0.5-0.2h-0.4v-0.3H27.8z M27.8,41.1c-0.2,0-0.4,0.7,0,0.7
		C28.1,41.7,27.9,41.3,27.8,41.1z M27.8,36.4c0.4-0.2,0.4,0.5,0,0.4V36.4z M28.5,35.4c-0.2-0.5,0.4-0.4,0.5,0.2
		c0-0.2,0.2-0.4,0.2-0.5c-0.1,0.1-0.2,0.1-0.3,0c-0.2-0.2-0.5-0.5-0.7-0.2C28.5,35,28.5,35.2,28.5,35.4z M28.3,44.5h0.2l0.1-0.2
		c0.1-0.1,0.2-0.2,0.3-0.2c-0.2-0.2-0.2-0.4-0.4-0.4C28.1,44.1,28.3,44.2,28.3,44.5z M28.3,29.1 M28.3,38.4 M29.5,26.2
		c-0.4,0-0.9-0.2-0.9,0.4C28.8,26.5,29.1,26.5,29.5,26.2z M29,43.2c0.4,0.2,0.5,0.3,0.5,0.7l-0.9-0.3c0.3,0,0.4,0.1,0.4,0.3v0.5
		h-0.2v0.2H29c0.2-0.4,0.2-0.7,0.2-0.8c0,0.2,0,0.3,0.1,0.3l0.1,0.2l0.4-0.2l-0.2,0.5l0.2-0.2v0.5l0.2-0.2c0-0.6-0.2-1,0-1.6
		c-0.2-0.4-0.3-0.5-0.3-0.8c-0.2,0.2-0.6,0.2,0,0.4C29.7,42.9,29.2,43.7,29,43.2z M29.3,30.3h0.2l0.1-0.1c0.1-0.1,0.2-0.1,0.2-0.1
		c-0.2-0.2-0.2-0.3-0.3-0.7h0.3c-0.2,0-0.4-0.1-0.5-0.2C29.5,29.6,29.7,30.1,29.3,30.3z M30.3,51.2c0.4-0.2-0.2-0.5-0.4-0.4
		C29.8,51,30.2,51.4,30.3,51.2z M30.9,51.5c0-0.1-0.1-0.2-0.1-0.2c-0.1-0.1-0.1-0.1-0.1-0.1c-0.4,0.2-0.4,0.4-0.4,1
		c0-0.2,0.4-0.2,0.5-0.2c-0.2,0.2-0.4,0.3-0.4,0.5c0.4,0,0.8,0,1.2-0.2V52c-0.2,0-0.5,0.2-0.5-0.2H31c0-0.3,0.1-0.4,0.2-0.5
		c0-0.2-0.1-0.3-0.3-0.5V51.5z M30.9,50.8c0-0.3-0.1-0.3-0.4-0.2C30.5,50.8,30.6,50.8,30.9,50.8z M38.1,54.6
		c-0.2-0.4-0.5-0.4-0.7-0.2C37.5,54.6,38,54.7,38.1,54.6z M41.2,53.5c0.2,0.4,0.1,0.9,0.5,0.7v0.2c-0.5-0.2,0.2,0.3,0.2,0.5
		c0.2-0.5,0-1,0-1.4H41.2z M43.4,21.4h9.5v23.8c0,2.5,0,5.3-0.9,7.6c-0.7,0-1.4,0-2,0.2v0.5c-0.1,0-0.2,0.1-0.2,0.1v0.1
		c-0.2,1,0,2,0,3c-0.2,0.4,0,0.8-0.4,1.2c0-2.4-0.2-4.5-0.2-7c-0.6,0-0.8,0.2-1.4,0v-0.1c0-0.1-0.1-0.1-0.2-0.1
		c-0.2,0.2-0.2,0.5-0.4,0.8c-0.1-0.1-0.3-0.2-0.5-0.2v-0.7c-0.3,0-0.5-0.1-0.7-0.2V51c-0.2-0.1-0.2-0.2-0.2-0.2H46
		c-0.4,0-0.5,0.2-0.8,0.2c0,0.6,0.2,1-0.4,1.2c-0.2,1.9,0,3.8,0,5.8c-0.2-0.2-0.2-0.4-0.3-0.4l-0.1,0.1c-0.1,0.1-0.2,0.1-0.3,0.1
		c-0.2-0.4-0.1-0.8-0.7-1.2V21.4z M44.2,34.2h0.2c0.2-0.4,0.3-0.7,0.5-0.9l-0.2,0.2v-0.4c-0.2,0.2-0.3,0.4-0.7,0.5
		C44.2,33.8,44.5,34,44.2,34.2z M44.1,52c0.4-0.4,0.5-0.8,0.4-1.4h0.3c-0.1-0.1-0.3-0.2-0.5-0.2C44.1,51,44.1,51.5,44.1,52z
		 M44.8,49.8c-0.2-0.2-0.5-0.2-0.5,0C44.5,50,44.6,50,44.8,49.8z M44.9,43c0-0.2-0.3-0.3-0.3-0.2C44.5,43,44.8,43.2,44.9,43z
		 M44.6,23 M45.6,43.5c-0.1,0-0.2,0.1-0.2,0.2C45.6,43.8,45.8,43.7,45.6,43.5z M46,24h0.5l0.2,0.2c0,0.3-0.1,0.4-0.2,0.4
		c0.4,0,0.6,0.3,1,0.2c-0.4,0-0.5-0.2-0.5-0.5c-0.5-0.2,0-0.5,0.2-0.7c-0.2,0-0.5,0.2-0.7,0.4C46.3,23.8,46,23.8,46,24z M47.5,24.7
		v-0.5l0.2,0.2c0.3-0.3,0.4-0.4,0.4-0.5c-0.4,0-0.7-0.4-0.8,0.2C47.2,24.1,47.1,24.7,47.5,24.7z M48.4,24.5c-0.3-0.2-0.5-0.2-0.7,0
		C47.6,24.9,48.2,24.7,48.4,24.5z M48,44.7 M49.5,22.6l-0.2,0.2c-0.2-0.2-0.4-0.3-0.7-0.3c0,0.2,0.2,0.2,0.2,0.3h1l-0.2-0.3l0.1-0.1
		c0.1-0.1,0.2-0.1,0.2-0.1c-0.4,0-0.6,0-1,0.2C49.2,22.5,49.4,22.5,49.5,22.6z M49.5,24h-0.3l0.2,0.2H49v0.2h-0.2v0.2
		c0.1,0,0.2,0.1,0.3,0.1c0.1,0.1,0.1,0.1,0.1,0.1v0.7V25c0.4,0,0.3-0.2,0.3-0.5c0.2,0,0.5,0,0.7-0.2v0.5h0.1c0.1,0,0.1-0.1,0.1-0.2
		v-0.3h0.2c0.1,0,0.2,0.1,0.2,0.2L50.6,24l0.3,0.2L51,24c0.1-0.1,0.1-0.2,0.1-0.2c-0.4,0-0.5,0.2-0.7,0.2l0.2,0.4
		c-0.2,0-0.5,0-0.7-0.2l-0.2,0.1c-0.2,0.1-0.3,0.1-0.3,0.1c0.2-0.2,0.4-0.4,0.4-0.5h-0.2c0-0.7,0.4-0.2,0.5,0c0-0.7,0.3-0.2,0.7,0
		c0.2-0.3,0.1-0.5-0.3-0.7h-0.2l0.1,0.1c0.1,0.1,0.1,0.2,0.1,0.2h-0.5c-0.2-0.2-0.2-0.3-0.4-0.3V24z M49.4,24.7
		c-0.2,0-0.3-0.1-0.3-0.3C49.4,24.4,49.4,24.3,49.4,24.7z M49.7,50.3c0,0.3,0.1,0.4,0.3,0.4c0.2,0,0-0.4-0.2-0.5L49.7,50.3z
		 M50,44.4c0,0.2,0.2,0.3,0.2,0.7h0.2c0-0.4,0.1-0.6,0.2-0.7H50z M50.2,22.3 M50.2,52v0.2h1c-0.6,0.2-0.5-0.3-0.7-0.5
		C50.7,51.9,50.6,52,50.2,52z M51,22.4l0.1,0.1c-0.4,0-0.4,0.3-0.5,0.5c0.1,0.1,0.1,0.2,0.2,0.2h0.1c0,0.2,0,0.3,0.2,0.7
		c0-0.4,0.2-0.7,0.2-1c0,0.2,0.1,0.3,0.3,0.5c0.2-0.2,0.7-0.3,0.7,0.2c0-0.3-0.1-0.5-0.2-0.7c-0.2,0.6-0.5,0-0.7-0.2h0.9v-0.2h-0.7
		l-0.1-0.1c-0.1-0.1-0.1-0.1-0.1-0.3c-0.4,0.2-0.5,0.2-0.7,0.2C50.8,22.3,50.9,22.3,51,22.4z M51.4,27.9c0.2-0.2-0.5-0.6-0.5,0
		C50.9,28.1,51.2,28.1,51.4,27.9z M52.1,47.4"/>
	<path class="st0" d="M53.9,21.6c3.1-0.2,6.3-0.2,9.5-0.2v18.1c1.7,0,3.6,0,5.3-0.8c1.2-0.7,2-1.9,2.2-3.1c0.2-1.5,0-3-0.8-4.2
		c-1.4-1.7-3.8-1.9-5.8-1.9v-8c1.5-0.2,3.1-0.2,4.7,0c2.9,0,5.9,0.8,8.2,2.9c2.3,2,3.4,4.9,3.8,8c0.2,3.2-0.4,6.6-2.4,9.3
		c-1.4,1.9-3.4,3-5.6,3.5c2.2,3.1,4.4,6.3,6.6,9.5c-0.4,0.2-0.6,0.3-1,0.5c-0.2,0.2-0.2,0.5-0.2,0.7c-0.2-0.2-0.3-0.4-0.7-0.4v0.8
		c-0.2,0-0.4,0.2-0.5,0.2c0-0.6,0.2-1-0.4-1.4c0,0.2-0.1,0.4-0.2,0.5h-1v1.2h-0.2v-2.6h-0.8v-0.3h-0.2l0.2,0.3c-0.6-0.2-1-0.2-1.4,0
		c-0.2,0.9,0,1.9-0.2,2.9c0,0.1-0.1,0.2-0.1,0.2l-0.1,0.1c-0.3-0.5-0.5-1.1-0.5-1.7c-0.4,0.2-0.5,0.3-0.7,0.3
		c0.2-0.7-0.5-1.4-0.5-2.2c0,0.2-0.2,0.3-0.2,0.5l-0.3-0.4V53c-0.2-0.2-0.2-0.7-0.4-0.5c-0.1,0.1-0.2,0.2-0.2,0.4v-0.4
		c-0.4,0.2-0.3,0.3-0.5,0.7c0,0.7,0.1,1.4-0.3,2h-0.7c-1.6-2.6-2.9-5.1-4.4-7.6c-0.4-0.6-0.5-1-0.8-1.2v10.4c0,0.7,0.2,1.3-0.4,1.9
		c-0.7-0.2-1.2-0.7-1.9-0.7c0,0.3-0.2,0.4-0.5,0.4c0-0.4-0.2-0.8-0.2-1.4h-1.1v-1c-0.8,0-1.4,0.1-1.9-0.3h-1.4
		c-0.2,0.2-0.7,0.1-0.7,0.7c-0.4-0.2-0.5,0.2-0.7,0.5c-0.2,0.2,0,0.7-0.4,0.8v2c-0.2,0-0.4,0.2-0.5,0.2V21.6z M57.3,23.6
		c-0.2-0.2-0.3-0.2-0.5-0.3v0.3l-0.2-0.3c-0.4,0.4-0.8,0.5-1.1,0.3c-0.3-0.4-0.6-0.5-0.9-0.3c-0.2,0.8,0,1.7,0,2.5h0.4
		c-0.6,0.2-0.4,0.6-0.4,1.2c0.1,0,0.1,0,0.1-0.1c0.1-0.1,0.2-0.1,0.3-0.1v0.3c0-0.4,0-0.5-0.4-0.7c0.2-0.2,0.4-0.2,0.5-0.3l0.2-0.4
		h-0.3h0.2c-0.4-0.2-0.5-0.5-0.5-0.8c0.2-0.2,0.4-0.2,0.5-0.3V25c0.4,0,0.7-0.1,0.7,0.5c-0.1,0-0.2,0-0.2-0.1l-0.1-0.1
		c0.2,0.7-0.5,1.4,0,1.8c0.2,0.2-0.2,0.4-0.2,0.5h0.2v0.4h-0.4c0.2,0,0.5,0,0.5,0.2l0.2-0.2h-0.3c0.2-0.2,0.2-0.4,0.3-0.5
		c0,0.2,0.2,0.3,0.2,0.7c0-0.2,0-0.5-0.2-0.7c0.4,0.4,1,0.4,0.8,0.8c0.2-0.1,0.2-0.3,0.2-0.5h0.3c-0.7-0.2-0.3-1-1-1L55.9,27
		c0-0.1-0.1-0.3-0.3-0.5c0-0.7,0.6-0.7,1.2-0.5l0.2,0.2c0-0.3,0.1-0.4,0.2-0.5c-0.2,0-0.3,0.2-0.7,0.2c0-0.4,0.4-0.5,0.5-0.7v-0.5
		c0.2,0.2,0.5,0,0.7,0l0.2-0.2h-0.3c-0.2,0-0.2,0-0.3-0.1l-0.1-0.1c0-0.4,0.2-0.3,0.5-0.3c-0.1-0.2-0.1-0.3,0.2-0.5
		c0,0.2-0.2,0.3-0.2,0.7L58,24c0,0.2,0.2,0.2,0.2,0.3h-0.4c0.2,0.4,0.5,0.4,0.8,0.2c-0.2,0.2-0.3,0.2-0.3,0.4h0.3
		c-0.2,0.2-0.3,0.2-0.3,0.3C58.2,25,58,24.8,58,24.7c0,0.5-0.6,0.3-1,0.5c0.2,0.2,0.5,0.2,0.7,0.2c0,0.2-0.2,0.5-0.2,0.7
		c0.1-0.2,0.2-0.2,0.3-0.2H58h0.2c0.2,0,0.2-0.1,0.2-0.2c-0.2-0.2-0.4-0.2-0.5,0l-0.2-0.3c0.4,0,0.8,0,1.2,0.2V25
		c0.2,0.2,0.3,0.4,0.5,0.5l-0.2,0.2c0.2,0,0.4-0.2,0.5-0.2h0.5c0-0.3-0.1-0.4-0.2-0.4c0.4,0.2,0.6-0.2,1-0.2c-0.2,0-0.3-0.1-0.3-0.3
		c0-0.2,0.2-0.2,0.2-0.4c-0.6,0.2-1.4-0.1-1-0.7v-0.2c0-0.4-0.3-0.2-0.5-0.4v0.4l0.2,0.2c0,0.1,0.1,0.2,0.2,0.4
		c-0.2-0.2-0.3-0.4-0.5-0.5c-0.4-0.2-0.5,0.2-0.8,0c0.1,0,0.1,0,0.1-0.1c0.1-0.1,0.2-0.1,0.2-0.1h-0.3V23c-0.2,0.2-0.5,0.2-0.7,0
		C57.3,23.1,57.1,23.4,57.3,23.6z M54.6,29v0.9c0.4,0,0.7-0.2,1-0.4c0.2-0.2,0.2-0.3,0.3-0.5c-0.2,0.3-0.3,0.4-0.5,0.4l-0.2-0.2v0.2
		c-0.2,0.2-0.8,0.4-0.7,0c0-0.4,0.5-0.2,0.7-0.4H54.6z M54.6,30.9c0.2,0,0.7,0.2,1,0c-0.2-0.2-0.2-0.5-0.2-0.7c-0.4,0-0.5,0-0.9-0.2
		V30.9z M55.2,38.7h-0.2c0,0.2,0,0.3-0.2,0.7c0.5-0.3,0.7-0.2,0.7,0.2c-0.4-0.1-0.8,0.5-0.8-0.2h-0.2v0.7c0.2-0.2,0.5-0.3,0.7-0.5
		l-0.2,0.5c0.2-0.2,0.5-0.6,0.8,0v-0.3v0.3c0.2,0,0.2,0,0.3-0.1l0.1-0.1c0.4,0.4,0.7,0,0.8-0.2c-0.2-0.4-0.5-0.2-0.8,0v-0.2h0.3
		c0-0.2,0.2-0.3,0.2-0.5c-0.2,0.2-0.4,0.2-0.5,0.3v-0.5c0.1,0,0.1,0,0.1-0.1c0.1-0.1,0.2-0.1,0.2-0.1h-0.3c-0.2-0.2-0.5-0.3-0.2-0.5
		c-0.4,0-0.5,0.2-0.9,0.2V38.7z M55.6,38.4h0.3l-0.2,0.2c0.6,0.2,0.6,0.5,0,0.7c-0.2,0.4-0.3-0.4-0.5-0.5l0.1-0.1L55.6,38.4z
		 M58.6,35.2c0,0.2-0.2,0.3-0.2,0.5c-0.6,0-1,0-1.4-0.2c0.2,0.7-0.8,1-1.2,1.4v-0.5c-0.2,0-0.3,0.1-0.3,0.2l0.2,0.2
		c0,0.2-0.1,0.3-0.3,0.5c0.2-0.2,0.5-0.4,0.7-0.4c0.4,0.2,0.2,0.5,0,0.7h0.2c0.2-0.2,0.2-0.3,0.3-0.5c0.4,0,0.5-0.3,0.9-0.7
		c0,0.2-0.2,0.3-0.2,0.5c0.4,0.2,0.9,0.2,1-0.2v-0.5c0.2,0.4,0.5,0.4,0.8,0.4v-0.4v0.2l0.2-0.5c0.4,0.2,0.7,0.2,1.1,0.3v0.4H61
		c0.2,0,0.2-0.5,0.5-0.5l0.2,0.2h0.2c0-0.4-0.3-0.3-0.7-0.3c0-0.3,0.1-0.4,0.2-0.4h-0.2c0,0.4-0.2,0.7-0.5,0.9V36h-0.4
		c-0.4,0-0.6-0.6-0.8-0.4c-0.2-0.2-0.5,0-0.5,0.4h-0.4c0.5-0.4-0.4-0.6,0.2-0.8H58.6z M55.4,47.2l0.2,0.2c0-0.1,0.1-0.3,0.3-0.5
		v-0.4c0,0.1-0.1,0.2-0.3,0.2C55.6,46.9,55.4,47.1,55.4,47.2z M56.6,29c-0.1,0.2-0.3,0.3-0.5,0.5h0.3v0.4c-0.4,0-0.6,0.1-0.7,0.2
		h0.4v0.7c-0.2,0-0.2,0-0.3-0.1l-0.1-0.1v0.2h0.5c0-0.2,0.2-0.4,0.5-0.2l-0.4-0.4c0.5,0,0.7,0.1,0.8,0.2c0.4,0,0.9,0.3,0.9-0.3
		c0.2,0.2,0.3,0.5,0.5,0.7l0.2-0.4H59c-0.6-0.3,0.5-0.5,0.4-0.8c0.2,0,0.3,0.2,0.5,0.2c0-0.2-0.3-0.1-0.5-0.5
		c-0.2,0.4-0.4,0.2-0.5,0.2l0.1,0.1c0.1,0.1,0.1,0.1,0.2,0.1c-0.6,0.2-1,0.8-1.4,0.2H58c0-0.2,0.1-0.3,0.2-0.3
		c-0.4-0.2-0.5-0.5-0.9-0.5c0.2,0.2,0.2,0.4,0.4,0.4c-0.2,0.2-0.8-0.4-0.5,0c0.2,0.2,0.5,0.2,0.5,0.3c0,0.2-0.4,0.2-0.5,0.2
		c0.1,0.2,0.2,0.3,0.2,0.5c-0.1,0-0.2,0-0.2-0.1L57,30.1C56.3,30.1,56.6,29.4,56.6,29c0.3,0,0.4-0.1,0.4-0.3c-0.2,0.2-0.5,0.2-0.7,0
		C56.3,28.9,56.4,29,56.6,29z M55.9,27.7c-0.2-0.2-0.2-0.5,0.2-0.5c0,0.2,0.6,0.4,0.2,0.5H55.9z M56.4,33.3v0.3
		c0.2-0.2,0.4,0.2,0.5,0.2c0,0.2-0.2,0.2-0.4,0.3h0.5c0.1-0.1,0.2-0.2,0.2-0.2v-0.1c-0.4,0-0.7-0.5-0.7-0.9
		c-0.2,0.3-0.4,0.4-0.7,0.4H56.4z M56.1,35.2c0.2,0,0.5,0.2,0.5-0.2c-0.2-0.4-0.5-0.5-0.3-0.8c-0.2,0.2-0.2,0.4-0.4,0.5
		C56.1,34.7,56.1,35,56.1,35.2z M56.4,24.8c0.2,0.2,0,0.7-0.2,0.5C56.1,25.1,56.3,24.7,56.4,24.8z M57.1,44.4c0-0.2,0.1-0.4-0.3-0.2
		C56.8,44.4,56.8,44.5,57.1,44.4z M58.2,39.4v-0.5c-0.3,0-0.5,0.2-0.7,0.5H58.2z M58,36.2c-0.2,0.2-0.3,0-0.2-0.2
		C58,35.9,58.2,36,58,36.2z M58.6,44c-0.2-0.2-0.7,0-0.5,0.2C58.3,44.4,58.8,44.4,58.6,44z M58.8,34.8l-0.1-0.1
		c-0.1-0.1-0.2-0.1-0.3-0.2c0-0.1,0-0.1,0.1-0.1c0.1-0.1,0.1-0.2,0.1-0.3V34c-0.4,0.4-0.2,0.8-0.3,1.2C58.5,35,58.8,35,58.8,34.8z
		 M58.5,52.5V53c0-0.2,0.1-0.2,0.4,0c-0.2,0-0.4,0.2-0.5,0.5c0.2,0,0.4,0.1,0.5,0.2c0-0.2-0.2-0.4-0.2-0.5c0.6,0.2,0.6-0.3,0.2-0.5
		v-0.2H58.5z M58.6,31.6c0-0.4,0-0.3-0.2-0.3C58.3,31.7,58.5,31.6,58.6,31.6z M59.8,25.1v0.2l-0.2,0.2c0-0.2-0.2-0.2-0.2-0.4H59.8z
		 M59.8,34.7c-0.2,0.2-0.2,0.5-0.2,0.7c0.1-0.1,0.3-0.2,0.5-0.2c0-0.3-0.1-0.4-0.2-0.4c0.1,0,0.2,0,0.2-0.1v-0.1H59.8z M61.7,30.8
		l0.4,0.2L61.9,31c-0.2,0.1-0.3,0.2-0.3,0.3v0.2c-0.4,0-0.5-0.4-0.7-0.5c-0.1,0.1-0.2,0.2-0.3,0.2h-0.1v0.2l0.2-0.2v0.4
		c-0.2,0-0.5-0.2-0.7-0.2c-0.2,0.4,0.2,0.5,0.3,0.7v-0.5c0.2,0.2,0.4,0.3,0.4,0.5h0.5c0.2,0.4,0.2,0.8,0.4,1.2
		c0-0.4,0.3-0.6,0.5-0.2v-0.3h0.3c-0.3,0-0.6-0.1-1-0.4c0.2-0.2,0.5-0.2,0.7-0.2c-0.4,0-0.5,0-0.9-0.2c0.4-0.2,0.6-0.6,1.2-0.2h-0.3
		h0.5v-0.3h-0.3c0.2-0.2,0.3-0.4,0.5-0.5c0-0.2-0.1-0.3-0.2-0.3l0.2,0.3c-0.2,0-0.5-0.2-0.7-0.2c0-0.2-0.2-0.4-0.2-0.5
		C61.7,30.4,61.9,30.6,61.7,30.8z M60.3,29.6L60,29.4c0.2,0.4,0.5,0.2,0.7,0C61,30,61,29.3,61.2,29c-0.4,0.2-0.5,0.4-0.7,0l-0.1,0.1
		c-0.1,0.1-0.2,0.1-0.2,0.1L60.3,29.6z M60.3,35.4c-0.2,0-0.2,0.3,0,0.3S60.7,35.4,60.3,35.4z M61,56.9c0.4,0,0.7-0.2,1-0.2
		c-0.3,0-0.4-0.1-0.5-0.2C61.4,56.8,61.2,56.8,61,56.9z M61.9,28.7c0,0.2,0,0.3-0.2,0.7c0.2,0,0.4-0.2,0.5-0.2
		c0,0.2-0.2,0.3-0.2,0.5c-0.2,0-0.5,0.2-0.7,0.2c0.2,0.4,0.5,0,0.8,0c0.2-0.2,0.3-0.4,0.5-0.5h-0.2c0.2-0.1,0.2-0.3,0.2-0.5h-0.9
		V28.7z M61.5,51.1c0.4,0.4,0,0.7-0.2,1c0.5,0.2,0.5-0.4,0.5-0.5c0.3,0,0.4,0.1,0.5,0.2c-0.2-0.4-0.5-0.5-0.7-0.8L61.5,51.1z
		 M62.1,38.1c-0.2,0.4,0.7,0.4,0.3,0H62.1z M62.7,49.8c0-0.2-0.2-0.5-0.5-0.5C62.1,49.6,62.5,50.4,62.7,49.8z M62.5,56.9
		c0-0.2,0.2-0.8-0.2-0.7C62.2,56.4,62.2,57.1,62.5,56.9z M62.4,34.2v0.7c0-0.3,0.1-0.3,0.4-0.2v-0.5H62.4z M64.9,25.1h0.7l-0.2,0.4
		c0.7-0.5-0.2-0.8-0.5-1.2V25.1z M67.3,23.8c0,0.2,0,0.5,0.2,0.5c-0.4,0.4-0.8,0.2-1.2,0.4v0.5c0-0.1,0-0.2,0.1-0.2l0.1-0.1
		c0.2-0.1,0.2-0.2,0.3-0.2h0.1v0.7c-0.6,0.2-1,0.2-1.4,0.3c0.6,0.4,0.8-0.3,1.4-0.3c-0.1,0.1-0.2,0.3-0.2,0.5c0.2,0,0.3,0,0.3,0.4
		c-0.2,0-0.5,0-0.8-0.2c0.2,0.5,0.6,0.3,1,0.2c-0.1,0.1-0.2,0.2-0.2,0.3l-0.1,0.2H67c0-0.3,0.1-0.5,0.4-0.7c0-0.2-0.1-0.1-0.3-0.2
		c-0.1,0-0.2,0-0.3-0.1c0-0.4,0-0.8,0.2-1.1c0,0.2,0.6,0.3,0,0.5h0.4c-0.2,0-0.2,0.1-0.2,0.1c-0.1,0.1-0.1,0.1,0,0.1
		c0.2,0.2,0.2,0.3,0.4,0.5v-0.2c-0.2-0.4,0.5-0.5,0.7-0.3v0.2c0,0.4,0.2,0.3,0.2,0.7l-0.1,0.1c-0.1,0.1-0.1,0.1-0.1,0.2
		c0.1,0,0.1,0,0.1-0.1c0.1-0.1,0.2-0.1,0.3-0.1V26c0-0.1-0.1-0.2-0.1-0.3l-0.1-0.1c0.4,0,0.6-0.3,0.2-0.5c-0.2-0.4,0-0.5,0.2-0.7
		c-0.2,0-0.5,0.2-0.7,0.2c0,0.1,0,0.1,0.1,0.1c0.1,0.1,0.1,0.2,0.1,0.2c0,0.4-0.5,0.4-0.7,0.4c0-0.4,0.4-0.3,0.5-0.7h-0.5
		c0.2-0.2,0.2-0.4,0.4-0.4c-0.2-0.2,0-0.3,0-0.5c-0.4,0.6-0.5-0.3-0.9-0.3C67,23.7,67.1,23.8,67.3,23.8z M65.6,40.3 M66.7,22.3
		 M67,50.5V51c0.4-0.6,0.4,0.2,0.5,0.3c0.2,0,0.4-0.4,0.5,0c0.2,0.4,0.3,0,0.5-0.2c-0.2-0.2-0.3-0.3-0.7-0.2c0-0.2-0.2-0.4-0.2-0.5
		c0,0.2-0.1,0.3-0.3,0.5v-0.5H67z M67.1,22.3 M72.2,23.5c0,0.4,0.1,0.5-0.3,0.5c0.2,0.5-0.7,0.5-0.9,0.3c-0.2,0-0.3,0.2-0.5,0.2
		c0.2,0.2,0.2,0.5,0.3,0.7L70.6,25l-0.2,0.2c-0.4,0.4-0.8,0.7-1.1,0.4L69,25.7h-0.2c0.5,0.5,1.3-0.3,1.5,0.4c0.2,0,0.4,0.2,0.5,0.2
		c-0.6-0.5,0.2-0.5,0.4-0.4l0.2-0.2l0.2-0.2h0.2c-0.5-0.2-0.8,0.4-1.1,0c0.4-0.4,0.7-0.5,0.5-1c0.2,0.2,0.4,0.3,0.4,0.7
		c0-0.3-0.1-0.5-0.2-0.7c0.4,0,0.6,0,1,0.2c-0.2-0.4,0-0.5,0.2-0.7c0.2,0.2,0.3,0.4,0.3,0.5c0.2-0.2,0.2-0.3,0.4-0.5h0.2v-0.4
		c-0.4-0.2-0.5,0.4-1,0.4c0.3-0.3,0.4-0.4,0.4-0.5H72.2z M68.8,39.8v0.2H69c0,0.4,0.4,0.5,0.5,0.8c0-0.4,0-0.5,0.4-0.7h-0.7v-0.2
		c0.4,0,0.5-0.2,0.8-0.4v0.4c0.1-0.1,0.2-0.3,0.2-0.5h0.2c-0.1,0-0.1,0-0.1-0.1c-0.1-0.1-0.2-0.1-0.2-0.1l-0.1,0.1
		c-0.1,0.1-0.1,0.1-0.1,0.2C69.5,39.6,69.2,39.6,68.8,39.8z M69.7,44.7c-0.2-0.2-0.3-0.2-0.3,0H69.7z M69.9,49.3v-0.5
		c0.3,0,0.5-0.1,0.7-0.2v-0.2c0-0.1,0.1-0.2,0.2-0.2h-0.2l-0.2,0.2c-0.2,0-0.2-0.2-0.3-0.4c0,0.2-0.1,0.2-0.1,0.2
		c-0.1,0.1-0.1,0.1-0.1,0V49.3z M70.6,22.4h-0.2c0.2,0.1,0.3,0.2,0.4,0.4h-0.2c0,0.1,0.1,0.2,0.2,0.3h-0.4l0.2,0.2l0.3-0.2
		c0.2,0.6-0.3,0.5-0.7,0.5c0.7,0,1,0.5,1.5,0.7c-0.2,0-0.2-0.3-0.2-0.5h0.1c0.1,0,0.2-0.1,0.3-0.2c0-0.2,0.2-0.3,0.7-0.3v-0.5
		c-0.4-0.2-0.5-0.2-0.7-0.2c-0.2,0.2-0.2,0.3-0.2,0.5c-0.2,0.2-0.7,0-0.5,0.4h0.2c0,0.2-0.2,0.2-0.2,0.3C71.1,23.7,71,23.4,71,23
		h0.5v-0.4c-0.1-0.2-0.2-0.2-0.3,0L71,22.8c-0.1-0.2-0.3-0.3-0.5-0.5V22.4z M70.4,25.5c0.4,0,0.2,0.7,0,0.2V25.5z M71.2,29.3
		c0-0.4-0.4-0.5-0.5-0.4C70.4,29.3,71,29.6,71.2,29.3z M70.9,42.5c-0.2,0.4-0.1,0.7,0.4,0.8c0-0.1-0.1-0.2-0.1-0.3L71,42.8h0.4v-0.3
		H70.9z M71.7,41.7c-0.2,0.2-0.3,0.3-0.5,0.7l0.1-0.1c0.1-0.1,0.2-0.1,0.2-0.1c0,0.4,0.2,0.2,0.4,0.2v-0.5L71.7,42V41.7z M71.8,43.3
		c0.1-0.1,0.2-0.1,0.3-0.1c0.2-0.4-0.5-0.4-0.4,0.2C71.8,43.3,71.8,43.3,71.8,43.3z M72.2,36.6c-0.2-0.2-0.5-0.1-0.3,0.3
		C72.1,36.9,72.4,36.7,72.2,36.6z M72.6,34.2l-0.5,0.5c0,0.2,0.2,0.2,0.2,0.3h-0.3c0.4,0,0.7,0.2,0.8,0.4c-0.4-0.2-0.2-0.5,0.2-0.5
		v-0.5c-0.1,0-0.2,0-0.2-0.1L72.6,34.2z M72.6,34.7c0,0.2-0.1,0.3-0.2,0.3C72.2,34.6,72.4,34.7,72.6,34.7z M72.6,40.3
		c0.2-0.4,0-0.5-0.2-0.3C72.2,40.1,72.4,40.3,72.6,40.3z M73.6,30.2h0.4l-0.4,0.4h0.4c0-0.1,0-0.1,0.1-0.1c0.1-0.1,0.1-0.2,0.1-0.3
		l0.2,0.2l0.4-0.3c-0.2,0-0.8,0.2-0.7-0.4c-0.2,0-0.2,0.2-0.4,0.2v-0.4c-0.2,0.2-0.3,0.2-0.5,0C73.3,29.9,73.4,29.9,73.6,30.2z
		 M74.3,26.7h-0.2c-0.1,0-0.2,0.1-0.3,0.2c0-0.7-0.5-0.2-0.5,0C73.6,26.9,74.1,27.1,74.3,26.7z M73.4,23.1 M74.6,42
		c-0.3,0-0.4,0.1-0.4,0.2C74.3,42.5,74.8,42.3,74.6,42z M74.3,42.5v0.3V43c0.2,0.3,0.5,0.3,0.9,0.2c-0.1,0-0.1,0-0.1-0.1
		C75,43.1,74.9,43,74.8,43h-0.3v-0.4l0.2,0.2l-0.3-0.2L74.3,42.5z M74.9,52c0.1,0,0.1,0.1,0.2,0.2c0,0.1,0,0.1,0.1,0.2h-0.4
		c-0.1,0-0.2,0.1-0.2,0.3c0.4,0,0.7-0.3,0.8-0.7H74.9z M75.5,51l-0.1,0.1c-0.1,0.1-0.1,0.1-0.2,0.1c0.2,0.2,0.3,0.5,0.5,0.5
		c0-0.1-0.1-0.2-0.1-0.3c-0.1-0.1-0.1-0.1-0.1-0.1V51z M76.1,32.5v0.3h0.4c0,0.3-0.1,0.4-0.4,0.4c0,0.3-0.1,0.5-0.3,0.5v0.2H76
		c0,0.5,0.7,0.7,0.5,1.1v-0.2c0.4-0.2,0.3-0.3,0.7-0.5c-0.2,0-0.2,0-0.3-0.1l-0.1-0.1c0.4-0.4,0.5-0.5,0.9-0.5c-0.2,0-0.5,0-0.9-0.2
		C77,33.3,77,33,77,32.8h0.2v-0.2c-0.2,0-0.5,0-0.7-0.2H77c0-0.4-0.3-0.4-0.7-0.4C76.3,32.4,76.3,32.5,76.1,32.5z M75.8,32.6
		 M76.7,25.7c-0.2,0-0.3,0.1-0.3,0.4c0.4,0.2,0.2-0.5,0.5-0.7l-0.1-0.1L76.5,25c0.1,0,0.2,0,0.2-0.1v-0.1c-0.2-0.2-0.3-0.4-0.7-0.4
		C76.1,24.8,76.1,25.3,76.7,25.7z M77.2,28.2v0.4c0.4,0.4-0.2,0.3-0.4,0.5h1.4c-0.2-0.2-0.5-0.3-0.8-0.3c0.2,0,0.4-0.1,0.5-0.4
		c-0.1,0-0.1,0-0.1-0.1c-0.1-0.1-0.2-0.1-0.3-0.1H77.2z M77.2,37.4c0-0.2-0.1-0.3-0.2-0.2C76.8,37.4,76.8,37.5,77.2,37.4z
		 M77.2,26.7L77,26.9h0.7h-0.2c0-0.2,0.2-0.2,0.2-0.4c-0.2,0-0.4-0.2-0.5-0.2V26.7z M77.3,38.1c0-0.1,0-0.1,0.1-0.1
		c0.1-0.1,0.1-0.2,0.1-0.2h0.4l-0.2-0.2c-0.2,0-0.2-0.2-0.4-0.2V38.1z M77.3,54.5c0,0.3,0.1,0.4,0.2,0.5h0.4c0-0.2,0.2-0.2,0.2-0.3
		l-0.1-0.1c-0.1-0.1-0.2-0.1-0.2-0.1H77.3z M77.9,39.4c-0.4,0.6,0,1.2,0.7,0.8c-0.6-0.2-0.5-0.3-0.4-0.7c-0.1,0-0.2,0-0.2-0.1
		L77.9,39.4z M78,27.5l0.5,0.5v-0.2c-0.4-0.2,0.2-0.5,0-0.7c-0.1,0-0.2,0.1-0.2,0.4H78z M78.4,39.9c0.2,0.2,0.7-0.4,0.3-0.4
		C78.5,39.6,78.2,39.8,78.4,39.9z"/>
	<path class="st0" d="M81.6,21.6H91v15.8c1.7,0,3.5,0.2,5-0.8c1.2-0.8,1.4-2.3,1.1-3.8c0-1-0.5-2-1.4-2.5c-1.2-0.8-2.7-0.7-3.9-0.7
		v-8c2.4,0,4.9-0.2,7.3,0.4c2,0.6,3.9,1.7,5.1,3.4c1.4,1.9,1.7,4.2,1.7,6.5c0.2,2.3-0.4,5.1-2,6.9c-0.6,0.8-1.4,1-2,1.7
		c1.7,0.2,3.3,0.8,4.7,2c1.9,1.7,2.7,4.3,2.9,6.8c0,2.2,0,4.4-1,6.4v-0.7c-0.4-0.2-0.7-0.3-1-0.2c-0.5,0.2-1.2-0.2-1.7,0.4
		c0-1,0-2,0.2-3.1c-0.6,0-0.8-0.4-1.2-0.4c-0.7,0-1.2,0.4-1.7,0.4v3.2c-0.4,0-0.5-0.4-0.9-0.4c0-1,0.2-2,0.2-3h-0.2v3
		c-0.4,0.2-1-0.2-1.2,0.4h-0.5v2.4c-0.4,0.2-0.7,0.2-0.9,0.2v0.8h-1V59v-2.9c-0.2-0.7-0.4-1.3-0.5-1.9h-1l-0.5,1.5
		c-0.3,0.3-0.4,0.4-0.4,0.5L95.8,58H95c-0.2-0.2-0.3-0.4-0.3-0.7h-2.4c-0.2,0.3-0.4,0.5-0.7,0.7v-2c-0.6-0.4-1,0.2-1.5,0L89.9,56
		c-0.1,0.1-0.1,0.1-0.3,0.1c0,1.2,0.2,2.3-0.2,3.5v-2.9c-0.6,0.2-1-0.2-1.7-0.2v-5.5c-0.7-0.4-1.5,0-2.2,0v4.6h-1v0.2
		c0,0.1-0.1,0.2-0.3,0.2v4.6c-0.2-2,0.2-4.1-0.2-6.1v0.7h-1.4V59c-0.4-0.2-0.8-0.2-1.1-0.2V21.6z M82.3,23.6l0.1-0.1
		c0.1,0.1,0.2,0.2,0.2,0.4l0.2-0.2v0.5c-0.1,0-0.1,0-0.2-0.1C82.4,24,82.3,24,82.2,24c0.2,0,0.7,0.2,0.5,0.5c-0.1,0-0.1,0-0.2-0.1
		c-0.1,0-0.2,0-0.2,0.1c-0.2,0.4-0.2,0.6-0.2,1h0.2v0.2c-0.4,0-0.4,0.4,0,0.5c0,0.2,0.2,0.5-0.2,0.4v0.2c0.1,0.1,0.3,0.2,0.7,0.2
		c-0.2,0.4-0.7,0.2-0.9,0.5h0.4l0.2,0.4l-0.3-0.2v0.5c0.4,0.2,0.6,0.2,1,0.2v-0.3c0,0.1,0.1,0.2,0.4,0.2c-0.2-0.2-0.2-0.5-0.4-0.7
		c0.2,0.2,0.2,0.5,0,0.7l-0.2-0.3c0,0.1-0.1,0.2-0.1,0.2c-0.1,0.1-0.1,0.1-0.1,0.1c-0.2-0.2-0.4-0.5-0.5-0.7l0.3,0.2
		c-0.2-0.4,0.2-0.5,0.4-0.7l-0.2-0.2c0.1-0.1,0.2-0.3,0.2-0.5h0.2c-0.4,0-0.7-0.1-0.7-0.7c0.1,0,0.2,0.1,0.3,0.1
		c0.1,0.1,0.1,0.1,0.1,0.1l-0.4-0.3c0-0.2-0.2-0.4-0.2-0.5l0.3,0.2c0.3,0,0.4-0.1,0.4-0.2h-0.2V24h0.3h-0.3v-0.2
		c-0.2-0.2-0.2-0.4-0.4-0.4c-0.2-0.2-0.4-0.1-0.5,0.2C82.2,23.6,82.2,23.6,82.3,23.6z M88.9,30.1c0.2,0.2,0.2,0.4,0.5,0.4v0.2
		c-0.6-0.2-0.8,0-1.4,0v0.2h-0.5c-0.1,0.1-0.1,0.1-0.1,0.1c-0.1,0.1,0,0.2-0.2,0.3c-0.2-0.4-0.4-0.5-0.8-0.5v0.2
		c0,0.3-0.1,0.4-0.3,0.4c0.4,0,0.5,0.2,0.7,0.3c-0.2,0-0.3,0-0.4-0.1l-0.2-0.1v0.4c-0.2,0-0.2-0.2-0.4-0.4c0,0.2-0.1,0.2-0.3,0
		c-0.4,0.4-0.7,0.3-0.8,0.7v-0.2h-0.7c0.2,0,0.4-0.2,0.5-0.2v-0.2c-0.4,0-0.7,0-0.8,0.4c0-0.2-0.2-0.4-0.2-0.5l0.2,0.5l-0.5-0.4
		c0.1,0.2,0.2,0.2,0.3,0.3l0.1,0.1c-0.4,0.2-0.6-0.2-1.2,0v-0.4h-0.2v2.7c0.2,0.2,0.3,0.2,0.3,0.4v-0.7h0.2c0.2,0.2,0.1,0.2,0.2,0.2
		c0,0.1,0,0.1,0.1,0.1v-0.3h-0.2c0-0.4-0.1-0.6-0.2-0.7h0.2l0.2,0.3c0-0.1,0.1-0.3,0.3-0.5c0.2,0.4,0.4,0.5,0,0.7
		c0.6,0,0.5,0.5,0.5,0.8c0.1,0,0.1,0,0.1-0.1c0.1-0.1,0.2-0.1,0.2-0.1c0,0.1-0.1,0.3-0.3,0.5h0.3l0.2,0.3c-0.6-0.4-0.5,0.2-1,0.4
		c0.1-0.2,0.2-0.3,0.2-0.5h-0.3c0-0.6-0.5-0.2-0.5,0.2h0.2c0,0.4,0.3,0.5,0.7,0.7v0.7c-0.2,0-0.3-0.2-0.5-0.2
		c-0.2,0.2-0.4,0.3-0.5,0.5c0.2,0,0.5-0.2,0.7-0.2l-0.2,0.4c0.1-0.1,0.3-0.2,0.5-0.2c0-0.2,0.2-0.4,0.2-0.5c0.4,0,0.7-0.4,0.8,0.2
		h-0.7c0.2,0.4,0.2,0.7,0.3,1c-0.3,0.2-0.5,0.1-0.5-0.4c0,0.2-0.2,0.4-0.2,0.5l0.2,0.2c-0.4,0.2-1-0.3-1,0.2
		c-0.4,0.4-0.3-0.3-0.3-0.5c0,0.4,0,0.7,0.2,0.8h-0.2c0,0.6-0.4,1.2,0.2,1.4v-0.1c0-0.1-0.1-0.1-0.2-0.2h0.3c0.2,0,0.2,0.2,0.4,0.2
		c0,0.6,0.5,0.3,0.7,0.2c-0.2,0-0.2-0.1-0.3-0.2l-0.1-0.2c0.2,0.2,0.5,0.2,0.7,0.3v-0.5l0.4-0.3h-0.4v0.2h-0.3
		c0.2-0.2,0.2-0.4,0.3-0.4h-0.5c0.2-0.2,0.7-0.5,0.7,0l0.2-0.2v0.9l-0.1,0.1c-0.1,0.1-0.1,0.1-0.3,0.1c0.2,0.4,0.4,0.5,0.4,0.8h-0.5
		c0.6,0,0.5,0.3,0.5,0.7c-0.3,0-0.5,0.1-0.7,0.4V41v0.3h-0.5c0.4,0.2,0.5,0.2,0.7,0.4v0.5h0.3c-0.1,0-0.1,0.1-0.2,0.2l-0.1,0.2
		c0.1,0,0.1,0,0.2-0.1c0.2-0.1,0.3-0.1,0.4-0.1c-0.2,0.1-0.2,0.3-0.2,0.7h0.4c-0.2-0.2-0.2-0.4-0.4-0.4c0.6-0.3,0.7-0.7,0.5-1.1
		c0.2,0,0.3-0.1,0.4-0.2c-0.2,0-0.4,0.2-0.5,0.2c0-0.4,0-0.7-0.2-1c0.2,0,0.3,0.2,0.5,0.2c0,0.2-0.1,0.3-0.2,0.4
		c0.7,0,0.5,0.6,0.7,1c-0.5,0-0.7,0.5-0.7,0.9c0.2-0.2,0.5-0.5,0.9-0.7v-0.4c0.5,0.2,0,0.7,0.5,0.8v-0.3c0,0.2,0.2,0.3,0.4,0.5v0.3
		c0,0.2,0.3,0.2,0.3,0.4c0.6,0,0.8,0,1.2-0.4H88c0,0.2,0.1,0.2,0.1,0.2c0.1,0.1,0.1,0.1,0.1,0c0-0.2,0-0.5,0.2-0.7
		c0.2,0.2,0.3,0.4,0.5,0.5v-0.5l0.3,0.2v0.3c0.3-0.2,0.5-0.3,0.7-0.3h-0.5l0.2-0.4l-0.4-0.2v0.3c-0.2,0-0.5,0-0.8-0.2l1-0.5
		c-0.4-0.4-0.5-0.7-0.9-0.7l0.2-0.2l-0.5,0.2l0.2-0.3l-0.2-0.2c0.1-0.2,0.2-0.3,0.2-0.5h-1c0-0.2,0.2-0.4,0.5-0.5h-0.7
		c0.2-0.2,0.4-0.5,0.5-0.7h-0.4c0-0.6-0.4-1,0.2-1.4v0.2h0.2c0,0.3,0.1,0.4,0.2,0.5c0.2-0.2,0.3-0.4,0.7-0.4
		c-0.2-0.4-0.3-0.7-0.5-0.2c-0.4-0.2-0.5-0.3-0.3-0.5H88l-0.3-0.2v-0.5c-0.2,0.2-0.4,0.5-0.5,0.5c0-0.4,0.4-0.8,0.2-1.2
		c-0.2,0-0.5,0.2-0.7,0.2c0-0.2-0.2-0.4-0.2-0.5c-0.6-0.2-0.1,0.7-0.5,0.7h0.5l-0.2-0.2h0.3c0,0.2-0.2,0.5-0.3,0.5
		c0.4,0,0.7,0,0.8,0.4h-0.5c0.2,0.2,0.3,0.3,0.7,0.2l-0.2,0.3L87,37.6l0.2,0.3l-0.5-0.2c0.2,0.2,0.1,0.2,0.2,0.2
		c0,0.1,0,0.1,0.1,0.1h-0.5c0.1,0.2,0.3,0.2,0.5,0.2c0,0.2-0.2,0.3-0.2,0.5c0.2,0,0.4-0.2,0.5-0.2c0,0.3-0.1,0.4-0.2,0.5
		c-0.1-0.1-0.3-0.2-0.5-0.2c0-0.2,0.2-0.4,0.2-0.5c-0.4,0-0.9,0.7-1.1,0.2c0,0.4-0.1,0.7,0.3,1l0.4-0.4l-0.4-0.2
		c0.2-0.2,0.5-0.4,0.7-0.5v0.5l-0.2,0.2v0.4c0-0.2,0.3-0.4,0.5-0.4c-0.2,0.4,0.5,0.5,0.5,1L87,39.9c-0.2,0.2-0.4,0.2-0.4,0.4h0.2
		v0.2c-0.2,0-0.4,0.2-0.5,0.2c0.1,0,0.2-0.1,0.2-0.3c-0.2,0-0.3,0.2-0.5,0.2c0-0.4,0.1-0.6,0.2-0.7c0,0.3,0.1,0.4,0.3,0.4
		c-0.2-0.2-0.2-0.4-0.3-0.4h-0.4c0,0.4-0.2,0.8,0.4,1.2c-0.2,0.1-0.2,0.3-0.2,0.5c0.2-0.4,0.5-0.5,0.9-0.7c0.2-0.2,0.2-0.4,0.3-0.5
		c0.4,0.2,0.2,0.8,0.2,1.2h0.4v0.3l-0.2-0.1c-0.1-0.1-0.2-0.1-0.2-0.2H87L86.8,42h0.5C87.2,42,87.2,42,87.2,42
		c-0.1,0.1-0.1,0.1-0.1,0.2c-0.2-0.2-0.5-0.2-0.7,0c0-0.2,0.2-0.4,0.2-0.5c-0.4,0.2-0.6,0.3-1,0.2c0-0.2,0.3-0.7-0.2-0.5v-1.8
		c-0.2-0.2-0.7,0-0.7-0.4l0.7,0.2c-0.4-0.2-0.5-0.7-1-0.7l0.2-0.3c-0.1,0.1-0.3,0.2-0.5,0.2c0.2-0.2,0.4-0.2,0.5-0.4v-0.5
		c-0.6,0,0-0.4,0.4-0.2c-0.2-0.2-0.4-0.3-0.5-0.7c0-0.2,0.1-0.4,0.4-0.7l-0.5,0.2c0.2-0.2,0.5-0.3,0.5-0.7c0.2,0.2,0.5,0.5,0.7,0.3
		l0.2,0.2c0-0.2,0.2-0.3,0.2-0.5h-0.5c0.1,0,0.1-0.1,0.2-0.2c0-0.1,0-0.2,0.1-0.2h0.2c-0.2-0.7,0.6-0.5,1-0.7
		c-0.2,0.6-0.4,0.5-1,0.4v0.3c0.2-0.2,0.5-0.2,0.7-0.2v0.3c-0.2,0-0.2,0-0.3-0.1l-0.1-0.1c0,0.2,0,0.2,0.2,0.4c0.2,0,0.5,0,0.7-0.2
		c-0.2,0-0.3-0.1-0.5-0.3c0.7,0.2,0.3-0.7,0.8-0.5c0.3,0,0.4,0.1,0.4,0.4h-0.1c-0.1,0-0.1,0.1-0.1,0.2H88v0.2h-0.3v0.2
		c0.1,0.1,0.1,0.1,0.1,0.1c0.1,0.1,0.1,0,0.2,0.2c0.2-0.4,0.5-0.7,0.7-0.4c0.2-0.2,0.4-0.3,0.5-0.5c0,0.4-0.2,0.5-0.3,0.7h-0.4v-0.2
		c-0.4,0.4,0.2,0.5,0.4,0.7h0.1c0.1,0,0.1-0.1,0.1-0.2c0.6,0.4,0.8,0.3,1.4,0.3c-0.4-0.2-0.5-0.3-0.8-0.3c0.2,0,0.4-0.4,0-0.4
		c0-0.2,0.3-0.5,0.2-0.5c-0.4-0.2-0.3-0.4-0.3-0.7c-0.2,0.2-0.5,0.2-0.7,0.2v-0.7c0.2,0.4,0.5,0.3,0.7,0.5v0.2c0.4,0,0.6-0.2,1-0.4
		v-1.2C90.3,33,90.1,33,89.7,33c0.2,0.2,0.1,0.3-0.3,0.5v-0.3L89,33c0,0.2,0.2,0.3,0.2,0.5h-0.5l0.4-0.2c0-0.2-0.2-0.2-0.4-0.3
		c-0.1,0.1-0.4,0.2-0.8,0.2v0.3v-0.2c-0.4-0.2-0.8,0.2-1.4,0.2c-0.2,0-0.3-0.2-0.5-0.2h-0.3c0.2,0.3,0.3,0.4,0.5,0.2
		c0,0.6,0.7,0.5,0.5,1c-0.4-0.2-0.5-0.5-0.7-0.7c0,0.2,0.2,0.3,0.2,0.7c-0.4-0.2-0.4-0.2-0.5-0.5h-0.2v-0.5c0,0.1-0.1,0.2-0.1,0.3
		l-0.1,0.1c-0.5-0.2,0-0.7,0-1h-0.2v-0.2c-0.1-0.1-0.2-0.2-0.3-0.2c0.2,0,0.4-0.1,0.5-0.2c0.2,0,0.2-0.1,0.2-0.4
		c0.5,0.4,0.5-0.3,0.8-0.2c-0.2,0.6,0.5,0.3,0.3-0.2c0,0.1,0.1,0.2,0.1,0.2l0.1,0.1c0.1-0.1,0.2-0.3,0.2-0.5l0.1,0.1
		c0.1,0.1,0.2,0.1,0.2,0.1v-0.4c0.2,0.2,0.4,0.2,0.7,0v0.2h-0.5c-0.2,0.2-0.3,0.2-0.5,0.2c0.2,0.2,0.7,0.1,0.5,0.5
		c0.4,0,0.5-0.2,0.8-0.2c-0.2-0.2-0.4-0.3,0-0.5v0.2l0.2,0.2c-0.2,0.8,0.1,0.1,0.4,0c0.4-0.2,0.5-0.2,0.8-0.2
		c0.2,0.5-0.3,0.8-0.8,0.8c0.2,0.2,0.5,0.4,0.7,0c0.2-0.2,0.5-0.5,1-0.7h-0.7c0.2-0.2,0.4-0.4,0.5-0.5h-0.5c0.2,0,0.2,0,0.3-0.1
		l0.1-0.1v-0.4c-0.2,0-0.5,0.2-0.7,0.2v0.3l-0.2-0.2c-0.3,0-0.4-0.1-0.5-0.2c0.2,0,0.5,0,0.5,0.2c0.2-0.4-0.3-0.8,0.3-1
		c-0.2,0.3-0.2,0.5,0.2,0.7h0.5v-0.8h-0.3h-0.2c-0.4-0.2-0.5-0.5-0.7-0.8C89.2,29.5,89.5,30.1,88.9,30.1z M83.2,41.7
		c0.2,0.7-0.5,0.3-0.8,0.3c-0.1,0.2-0.2,0.3-0.2,0.5l0.2-0.2c0,0.5-0.6,1,0,1.2c0.2,0.2,0.2,0.3,0.3,0.5c0-0.2,0-0.5,0.2-0.7
		c0.4,0,0.6,0,1,0.2c0,0.6-0.7,0.3-0.8,0.2h-0.2c0.1,0.1,0.1,0.2,0.2,0.2h0.1c0.2,0.4-0.5,0.4-0.5,0.2c0,0.4,0.4,0.5,0.5,0.5
		c0-0.2,0.2-0.7,0.5-0.3l-0.1,0.1c-0.1,0.1-0.1,0.1-0.1,0.2c0.2,0,0.5-0.2,0.8-0.2c0,0.2-0.2,0.5-0.2,0.7c0,0.2,0.2,0.2,0.3,0.4
		h-0.8c-0.2-0.2-0.5-0.4-0.8,0c0.4-0.2,0.6,0.3,1,0.2c0,0.1,0,0.1,0.1,0.1c0.1,0.1,0.1,0.2,0.1,0.2l0.4-0.2c0.2,0.2-0.2,0.4-0.5,0.5
		c0-0.4-0.3-0.4-0.5-0.2v-0.2h-0.2v0.7h-0.3c0-0.2,0-0.5-0.2-0.7c0,0.2,0.2,0.5,0.2,0.7c-0.4,0.2-0.5,0.2-0.7,0.4
		c0.5,0-0.2,0.6,0,0.7c0.2,0.2,0.3,0.2,0.3,0.4c0.1-0.2,0.2-0.3,0.2-0.4l-0.3,0.2v-0.3l0.3-0.2l-0.3-0.2c0.2-0.2,0.5-0.6,0.7,0v-0.3
		h0.3c0,0.1-0.1,0.3-0.3,0.5c0.8,0-0.1-0.8,0.7-0.8l-0.2,0.4h0.3v-0.4c0.2,0.2,0.2,0.4,0.4,0.5h0.1c0.1,0,0.1-0.1,0.1-0.2
		c0,0.4,0,0.7,0.2,0.8l0.2-0.2c0.2-0.1,0.2,0,0.2,0.2v-0.4l0.3,0.2c0-0.2,0.2-0.4,0.2-0.5c0.4,0,0.3,0.3,0.3,0.7l0.2-0.5
		c0.2,0.4,0,0.9-0.5,0.9c0.4,0,0.6,0.1,0.8,0.3c0-0.2-0.1-0.3-0.2-0.3c0-0.4,0-0.7,0.2-1v0.2c-0.2-0.3-0.1-0.5,0.2-0.7v0.5l0.4-0.4
		l0.2,0.5l-0.4-0.2c0.2,0.4,0,0.5-0.2,0.7c0.4,0,0.3-0.4,0.7-0.5v0.4c0.2-0.2,0.2-0.3,0.4-0.7h0.1c0.1,0,0.1,0.1,0.1,0.2
		c0-0.4,0.2-0.5,0.2-0.7c-0.2,0.4-0.5,0.7-0.7,0.8C87,47,87,46.8,87,46.6c0.2-0.2,0.4-0.3,0-0.5h0.8l-0.7-0.7v0.5
		c-0.2,0.2-0.7,0.2-0.7,0.5c-0.2,0-0.3-0.3-0.5-0.2c0.2,0.4,0.2,0.7-0.2,0.8v-0.3h-0.3v-0.2c0-0.1-0.1-0.2-0.1-0.2h-0.1v-0.7v-0.2
		c0-0.4,0.1-0.5,0.2-0.5c0-0.1-0.1-0.2-0.4-0.2c0.5,0.4-0.2,0.2-0.2,0.5c0.2,0.2,0,0.3-0.2,0.3c0-0.4-0.2-0.6-0.2-1h0.2
		c-0.2-0.4-0.4-0.9-0.7-0.9c0.2-0.2,0.4-0.2,0.5-0.3c-0.2-0.2-0.5,0-0.8-0.2h-0.4c-0.1-0.2-0.3-0.3-0.5-0.5c0,0.1-0.1,0.2-0.1,0.2
		l-0.1,0.1l-0.1-0.1c-0.1-0.1-0.1-0.1-0.1-0.2c0.3,0,0.4-0.2,0.4-0.5c0.2,0,0.2-0.2,0.3-0.2V41.7z M82.2,31.1 M82.7,36
		c-0.2-0.2-0.5,0.2-0.3,0.4C82.5,36.6,82.9,36.2,82.7,36z M84.3,50.7c-0.1,0-0.2,0.1-0.3,0.1c-0.1,0.1-0.1,0.1-0.1,0.1h0.4
		c0,0.2-0.2,0.3-0.2,0.5c-0.2,0-0.3-0.2-0.5-0.4c0,0.4-0.5,0.4-0.4,0c-0.4-0.2-0.7-0.2-0.8-0.3c0,0.5,0.7,0,0.8,0.7h-0.3H83
		c0.1,0,0.1,0.1,0.1,0.2h0.7l-0.4,0.3h0.4V52h-0.2c-0.2,0.2-0.4,0.5-0.4,0.7h0.2V53v-0.3l0.4-0.2v0.3h0.2c0,0.4,0.7,0,0.7,0.4h-0.5
		v0.2c0.4,0.2,0.2,0.5,0.4,0.7c0-0.2,0.2-0.4,0.2-0.5l0.2,0.2c0-0.2,0.2-0.3,0.2-0.5h-0.4v-0.5h-0.2c0-0.2,0.2-0.4,0.2-0.5
		c0,0.3,0.1,0.4,0.4,0.4V52c-0.5,0.2-0.7-0.1-0.5-0.5c0.1,0.2,0.2,0.2,0.3,0.2l0.1,0.1c0.2-0.4-0.4-0.3-0.5-0.3v-0.4
		c0.6-0.2,0.4-0.5,0-0.7h0.2c0-0.2-0.1-0.3-0.4-0.3c0-0.4-0.1-0.6-0.2-0.7C83.9,49.8,84,50.3,84.3,50.7z M82.5,24.7h0.2v0.2h-0.2
		V24.7z M83.1,38.1c0.1,0.1,0.1,0.1,0.1,0.2c0,0.4-0.2,0.8-0.2,1.2c-0.2-0.3-0.4-0.4-0.5-0.4c0.6,0.2,0.7-0.4,0.4-0.5
		C82.9,38.4,83.1,38.3,83.1,38.1C83.1,38.1,83.1,38.1,83.1,38.1z M82.9,26.2c0.2,0.2,0,0.4-0.2,0.4C82.5,26.2,82.7,26.2,82.9,26.2z
		 M83.1,22.6c0.2-0.2,0.3-0.2,0.5,0v0.5c0-0.2,0.2-0.2,0.3-0.4c0.4,0.2,0.5,0.2,0.9,0.2c0.2-0.2,0.2-0.3,0.3-0.5
		c-0.4,0-0.5,0.2-0.8,0.3v-0.2c-0.2,0-0.7,0-0.7-0.4c-0.2,0-0.4,0.2-0.5,0.2V22.6z M83.6,23.6c-0.2,0-0.3-0.1-0.5-0.3
		c0.1,0.1,0.2,0.3,0.2,0.5c0.4-0.2,0.8,0,1.2,0c0.2,0,0.4-0.2,0.5-0.4c-0.4,0-0.6,0.1-0.7,0.2l-0.4-0.2c0-0.1,0-0.1,0.1-0.1
		c0.1-0.1,0.1-0.2,0.1-0.2L83.6,23.6z M83.1,29.1c0.1-0.2,0.2-0.3,0.2-0.5l0.4-0.4c-0.3,0.3-0.4,0.4-0.5,0.4V29.1z M83.2,40.3
		l0.4,0.2h-0.2v0.4c0.2-0.4,0.2-0.7,0.7-0.7c0-0.4-0.7,0-0.8,0V40.3z M83.7,24c-0.3,0-0.4,0.1-0.4,0.2C83.6,24.3,83.7,24.3,83.7,24z
		 M83.4,24.7l0.1,0.1c0.1,0.1,0.1,0.1,0.3,0.1h-0.4v0.4c0-0.2,0.2-0.2,0.4-0.4v-0.2c0.2,0,0.5,0,0.5-0.2c-0.2,0-0.5,0-0.7-0.2
		C83.6,24.5,83.4,24.5,83.4,24.7z M84.1,27.7l-0.3,0.3c0.2,0.2,0.3,0,0.5,0c-0.3,0.7,0.8,0.1,0.7,0.7c-0.2,0.2-0.5,0.2-0.7-0.2
		c0,0.2,0.1,0.4,0.2,0.5c-0.2,0.4-0.3,0.7-0.7,0.8c0-0.2-0.2-0.4-0.2-0.5v0.5c0.1,0.2,0.2,0.2,0.2,0.3v0.1c0-0.2,0.1-0.3,0.3-0.5
		c0,0.4,0.2,0.5,0.5,0.5c0.2-0.2,0.4-0.2,0.4-0.4h-0.4c0.2-0.1,0.2-0.3,0.2-0.5l-0.2,0.4c-0.4-0.4,0-0.5,0-0.9h0.5
		c0,0.2,0,0.5,0.2,0.5c0-0.2-0.4-0.5,0-0.7c0.3,0,0.4,0.1,0.4,0.4c0.1-0.2,0.2-0.2,0.2-0.3v-0.1c-0.2-0.2-0.5,0-0.7-0.2
		c-0.2-0.4-0.5-0.4-0.7-0.4c0-0.4,0.7-0.2,1-0.2c-0.4-0.6-1,0-1.4,0l0.2-0.3h0.3l-0.2-0.2c-0.2,0-0.5,0-0.7,0.2H84.1z M84.1,41.3
		c0.4,0.4,0.5,0.7,0.4,1c-0.2-0.2-0.5-0.5-0.7-0.5C84,41.6,84.1,41.5,84.1,41.3z M84,51.6l0.1-0.1V52c-0.2,0-0.3-0.1-0.3-0.4
		C83.9,51.7,83.9,51.7,84,51.6z M83.7,52.2h0.2v0.2h-0.2V52.2z M84.1,52.6 M84.6,40.3c-0.2,0-0.3,0-0.2-0.4
		C84.6,39.9,84.8,39.9,84.6,40.3z M84.6,38.9 M84.8,46.4c-0.2,0-0.2-0.1-0.2-0.3C84.8,46.1,84.9,46.2,84.8,46.4z M85.5,46.6
		c-0.2,0.4-0.5,0.5-0.9,0.9c0.2-0.4,0.2-0.7,0.2-0.9H85.5z M85.2,48.4c0.1,0.1,0.1,0.2,0.1,0.3h-0.7l0.4,0.2c0,0.2-0.2,0.2-0.4,0.3
		c0.3,0,0.5,0.2,0.7,0.5l-0.3-0.2c0.2,0.4,0.3,0.5,0.2,0.8c0.2-0.2,0.2-0.2,0.5-0.2l-0.2-0.4c0.4,0,0-0.7-0.4-0.3
		c0.2-0.2,0.4-0.4,0.4-0.5l-0.5,0.2v-0.3c0.3,0.2,0.6,0.2,0.8,0c-0.1-0.1-0.3-0.2-0.5-0.2l-0.2-0.4c0.2,0,0.5,0.2,0.7,0.2
		c0-0.1-0.1-0.2-0.1-0.2c-0.1-0.1-0.1-0.1-0.1-0.1c-0.3,0-0.4,0.1-0.5,0.2C85.1,48.3,85.1,48.3,85.2,48.4z M85.1,40.8
		c-0.4-0.4,0.1-0.8-0.3-1.2C85.3,39.6,85.5,40.3,85.1,40.8z M84.9,44.4c0,0.4-0.2,0.5-0.2,0.7l0.3-0.2l0.2-0.2
		c0.2,0,0.2-0.2,0.4-0.4H84.9z M85.3,24.7c0,0.1,0.1,0.2,0.2,0.2c-0.1,0-0.2,0.1-0.3,0.1C85.2,25,85.2,25,85.1,25
		c-0.2,0.4,0.4,0.2,0.5,0.4c0,0.4-0.5,0.3-0.7,0.5h1c-0.2-0.3-0.3-0.5-0.3-0.5c-0.2-0.4-0.2-0.7-0.4-0.8
		C85.2,24.6,85.2,24.6,85.3,24.7z M89,25.5v0.2c-0.4,0-0.5,0-0.7,0.4L88,25.7c-0.4,0-0.5,0.2-0.8,0.2c0,0.2,0.2,0.3,0.2,0.5
		c0.6-0.2,0.2,0.1,0.2,0.5h-0.7c-0.2-0.2-0.2-0.5-0.2-0.7c-0.2,0-0.3,0.2-0.5,0.4c-0.2,0-0.4,0.2-0.5,0.2c0.2,0.6-0.3,0.5-0.7,0.7
		c0.4,0,0.5-0.2,0.7-0.2c0-0.5,0.2-0.7,0.7-0.7c0,0.2,0.4,0.5,0,0.5c-0.4-0.2-0.3,0.5-0.7,0.5c0.2,0,0.5-0.2,0.7-0.2
		c0.2,0.2,0.2,0.4,0.3,0.5h-0.8c0.2,0.2,0.7,0.2,1,0.2v0.2c0-0.4-0.2-0.7-0.4-0.8c0.4-0.2,0.7-0.5,0.8-0.3c-0.2,0.2-0.2,0.3-0.3,0.5
		c0.2,0,0.3-0.2,0.7-0.2c0.4-0.2,0.5,0.2,0.7,0.2h-0.2c0-0.2,0.2-0.3,0.2-0.5c-0.2,0-0.5-0.2-0.8-0.4c0-0.1,0-0.1,0.1-0.2
		c0.1-0.2,0.1-0.3,0.1-0.4c0.2,0.2,0.4,0.2,0.5-0.2C88.6,26.2,89,25.9,89,25.5c-0.2-0.2-0.5-0.2-0.7-0.3
		C88.2,25.7,88.6,25.5,89,25.5z M84.9,34c0.3-0.3,0.3,0.4,0,0.2V34z M85.1,43c0.2,0.2,0.4,0.4,0.5,0.4c-0.1,0-0.2,0.1-0.2,0.3
		l0.3-0.2l-0.3,0.7c0.2-0.2,0.3-0.5,0.7-0.7c-0.2-0.2-0.2-0.5-0.2-0.7L85.8,43c-0.1,0.1-0.1,0.1-0.1,0.2C85.6,43.2,85.3,43,85.1,43z
		 M86.1,28.7c0.4-0.2,0.7,0.2,0.7,0.5c-0.2,0.3-0.4,0.3-0.7,0.2l-0.2,0.2c-0.3-0.2-0.5-0.2-0.7,0c0,0.2,0.1,0.2,0.2,0.2
		c0.1,0.1,0.2,0.1,0.2,0c0,0.2-0.2,0.3-0.2,0.5c0-0.2,0.1-0.3,0.3-0.5c0.2,0,0.3-0.2,0.7-0.2c0,0.2,0.2,0.2,0.4,0.4h0.1
		c0.1,0,0.1-0.1,0.1-0.2c0.1,0.1,0.2,0.3,0.2,0.5c-0.4-0.2-0.7,0-0.8,0.2c0.6,0,0.8,0,1.4-0.2v0.3c0-0.1,0.1-0.3,0.3-0.5l-0.2,0.2
		c0-0.3-0.1-0.4-0.2-0.5l-0.2,0.1c-0.1,0.1-0.2,0.1-0.3,0.1c0.7-0.6-0.3-0.4-0.5-0.4c0.3-0.2,0.5-0.3,0.7-0.3
		c-0.2,0-0.3-0.1-0.3-0.4h0.3c-0.3,0-0.5-0.1-0.7-0.2c-0.2,0-0.3-0.2-0.5-0.2V28.7z M85.3,41.5l0.2-0.2c-0.5-0.2,0.2-0.5,0,0
		C85.8,41.3,85.5,42,85.3,41.5z M85.9,38.3c0-0.4-0.3-0.5-0.5-0.5C85.3,38.1,85.8,38.3,85.9,38.3z M85.8,33c0.2-0.2,0.4-0.2,0.4-0.5
		c0.4,0.2,0.4,0,0-0.2L86,32.4c-0.1,0.1-0.1,0.1-0.3,0.1c0-0.1-0.1-0.2-0.3-0.2C85.5,32.7,86.1,32.6,85.8,33z M86.6,44.1
		c0-0.2-0.2-0.4-0.2-0.5c-0.4,0.4-0.6,0.5-1,0.7C85.9,44.2,86.2,44.1,86.6,44.1z M85.8,43.4h-0.2H85.8z M87.1,43
		c0-0.2,0.2-0.5,0.2-0.7c0.2,0.2,0.5,0.3,0.5,0.7V43c0-0.1-0.1-0.1-0.2-0.1c-0.2,0-0.2,0.3-0.4,0.5c-0.2,0-0.4-0.1-0.5-0.2
		c0-0.4-0.5-0.3-0.4-0.8L87.1,43z M87,41.1c-0.5-0.3-0.7,0.7-0.2,0.5C86.9,41.6,87,41.4,87,41.1z M87.3,24v0.5
		c-0.4,0-0.5,0.2-0.7,0.3c0.4-0.2,0.7,0.1,1-0.3c0,0.2-0.1,0.4-0.2,0.5H87c0,0.3-0.1,0.4-0.2,0.5c0.4,0.2,0.6,0,1,0
		c-0.1-0.1-0.3-0.2-0.5-0.2c0.2-0.2,0.5-0.4,0.9,0c-0.2-0.1-0.3-0.2-0.4-0.4c-0.2-0.2,0.4-0.3,0.4-0.2L88,24.7v-0.4h-0.7V24z
		 M87.5,33.7c0,0.2,0.2,0.7,0.2,0.8c-0.4-0.2-0.7-0.2-0.8-0.2v-0.2h0.7C87.3,34,87,33.8,86.6,34C86.6,33.6,87.1,33.8,87.5,33.7z
		 M90.4,41.1c0,0.2,0.1,0.4,0.4,0.5c0.1,0.1,0.3,0.2,0.5,0.2c0,0.4-0.1,0.6-0.3,0.8c0.2-0.7-0.5-0.3-0.8-0.5
		c0.2,0.2,0.2,0.5,0.2,0.7c-0.2-0.7-0.2,0.2-0.5,0.3c0,0.2-0.2,0.5-0.2,0.7c-0.2,0-0.2,0-0.3-0.1l-0.1-0.1c-0.2,0.4-0.2,0.8-0.3,1.2
		c-0.2-0.2-0.4-0.2-0.4-0.4v0.4h-0.3c-0.3,0-0.4-0.1-0.4-0.2l-0.2,0.2c-0.2,0-0.5-0.2-0.7,0.2c0.2,0,0.5,0.2,0.7,0.2v0.2l0.2-0.2
		c0.6-0.4,0.6,0.5,1,0.2c-0.2-0.4-0.1-0.5,0.3-0.7c-0.2,0.4,0,0.7,0.2,0.8c-0.2,0.2-0.5,0-0.9,0.2c0.2,0.4,0.5,0.5,0.9,0.4L89,46.6
		c0.2-0.2,0.5-0.3,0.7-0.5v0.3c0.2-0.2,0.4-0.3,0.7-0.3h-0.3v-0.5v-0.2c0.2,0,0.4-0.1,0.5-0.2c-0.5,0-1,0-1.4-0.5
		c0.2-0.2,0.5-0.4,0.7-0.5v-0.5h0.4c-0.2,0-0.2,0-0.3-0.1l-0.1-0.1v-0.2c0.6-0.2,0.9-0.2,1.4-0.2c0,0.3,0.1,0.4,0.2,0.5
		c0-0.4,0-0.7,0.2-1c0.4,0,0.5,0.4,0.7,0.4v-0.5h0.2V43h0.4c-0.2-0.4-0.2-0.7-0.2-0.8c-0.4-0.4-0.8-0.3-1-0.9c-0.2-0.2-0.5,0-0.7,0
		c-0.2,0-0.3,0-0.3-0.1L90.4,41.1z M88.5,41.8h-0.3l-0.4,0.4l0.5-0.2c0.2,0.4-0.2,0.5-0.4,0.7c0.2-0.4-0.7-0.4-0.5-0.8l0.3,0.2
		c0-0.2-0.2-0.5-0.2-0.7C88,41.3,88.1,41.7,88.5,41.8z M87.5,38.7h0.2c0,0.4,0.3,0.4,0.5,0.5l0.2-0.3l0.1-0.1l0.2-0.3
		c0,0.2,0.2,0.2,0.2,0.4c-0.2,0-0.3,0.1-0.5,0.3c0.4,0.2,0.7,0.2,1,0.2c-0.2,0.1-0.3,0.2-0.5,0.2v0.5c-0.3,0-0.4-0.1-0.4-0.4
		c0,0.1-0.1,0.2-0.1,0.2h-0.1c0.2,0.2,0.3,0.4,0.5,0.5c-0.2,0.1-0.3,0.2-0.5,0.2v0.2h0.3c0.2,0,0.4,0.2,0.5,0.2
		c-0.1,0-0.2-0.1-0.2-0.2v-0.2c0.2,0,0.3-0.1,0.5-0.3c0.4,0.4-0.2,0.6-0.4,1c0.4-0.2,0.8-0.3,1.2-0.2c-0.2-0.4-0.2-0.3-0.3-0.5
		c-0.6,0,0-0.2,0-0.3c-0.2,0.6,0.5,0.5,0.8,0.3c0,0.3,0.1,0.4,0.3,0.4v-0.8c-0.2-0.2-0.7-0.2-0.5-0.5h-0.2c0-0.1,0.1-0.2,0.1-0.3
		l0.1-0.1c0.2,0,0.3,0.2,0.5,0.2c-0.4-0.4-0.8-0.2-1.4-0.2c-0.4,0-0.5-0.2-0.8-0.3l0.1-0.1l0.3-0.3h-0.5v-0.5l-0.2,0.5
		c-0.2,0-0.3-0.1-0.3-0.3C88.5,39.1,87.5,38.3,87.5,38.7z M87.8,25.9c0.5,0.1-0.3,0.6-0.2,0H87.8z M87.7,27.2v-0.2V27.2z M87.8,31.8
		c0.4-0.1-0.1,0.5-0.2,0H87.8z M87.8,40.5 M87.8,41 M88.7,23.1l0.1,0.1h-0.5v0.2h0.2v0.2H88v0.2h0.9v0.2c0.2-0.3,0.3-0.5,0.3-0.5
		h-0.3v-0.1c0-0.1,0.1-0.2,0.2-0.3c-0.3,0-0.4-0.1-0.4-0.2C88.6,22.9,88.7,23,88.7,23.1z M88.2,45.9c0.2,0,0.2-0.1,0-0.3
		C87.9,45.8,87.9,45.9,88.2,45.9z M88.5,39.5c-0.4,0-0.3-0.1-0.3,0.3C88.4,39.8,88.5,39.7,88.5,39.5z M88.2,46.2
		c0,0.2,0.2,0.2,0.3,0.3c-0.2,0-0.3,0.1-0.3,0.2h0.3c0.2,0,0.2-0.2,0.4-0.2c-0.2-0.1-0.2-0.2-0.2-0.2c-0.1-0.1-0.1-0.1,0-0.1H88.2z
		 M89,24.8v-0.7c-0.2,0.4-0.5,0.2-0.7,0.2C88.5,24.5,88.9,24.7,89,24.8z M88.3,26.4l0.2,0.2v0.3v-0.2c0.2,0,0.3,0.2,0.7,0.2v0.2
		c-0.4,0-0.5,0.1-0.5,0.3c0.6,0,0.8-0.5,1.4-0.7c-0.2,0.1-0.3,0.2-0.5,0.2c0-0.5-0.7-0.2-0.9-0.3c-0.1,0-0.2,0-0.2-0.1L88.3,26.4z
		 M88.9,31c0,0.2-0.4,0.5-0.5,0.3C88.3,31.1,88.6,31,88.9,31z M88.3,50.7v0.2c0.2-0.2,0.7-0.8,0.7-0.2c0.7,0.2-0.2,0.7-0.5,0.7
		c0.2,0.4-0.1,0.7,0.5,0.7c-0.2,0.2-0.4,0.3-0.4,0.5c0.4-0.4,0.7-0.7,0.9-1H89c0.4-0.4,0.5-0.2,0.8,0c-0.2,0.2-0.2,0.5-0.3,0.7
		c0,0.2,0,0.2,0.1,0.3l0.1,0.1l-0.3,0.2l0.2-0.4c-0.2,0.2-0.4,0.4-0.5,0.5c0.4,0,0.5-0.2,0.7-0.2c0.2-0.2,0.2-0.4,0.4-0.5
		c-0.6-0.2,0-0.7,0.3-0.5c-0.2-0.2,0-0.5,0-0.7c-0.1,0-0.3-0.1-0.5-0.3c0.4,0.5-0.5,0.7-0.3,0.2h-0.2v-0.5H89v-0.2
		c-0.2,0-0.2,0.2-0.4,0.2L88.3,50.7z M88.6,32.3c-0.4,0.3,0.4,0.5,0.2,0H88.6z M88.6,41.8 M89.2,54.9c0.3-0.2,0.3-0.3,0-0.3
		C89,54.8,89,54.9,89.2,54.9z M89,39.9 M89.8,48.6c0-0.1,0.1-0.1,0.1-0.2c0.1,0,0.1,0,0.1-0.1c0-0.2-0.1-0.4-0.2-0.5
		c0.2,0,0.4,0.2,0.5,0.2c0-0.4,0.2-0.7-0.2-0.9v0.4c-0.4,0-0.8,0.4-1,0c0.2,0,0.4-0.4,0.2-0.5c-0.2,0.2-0.2,0.3-0.4,0.7
		C89.4,48,89.8,48.1,89.8,48.6z M89.2,22.5h0.5c-0.2,0.2-0.7,0.1-0.5,0.5c0.2,0,0.4-0.2,0.5-0.2v-0.5h-0.1c-0.1,0-0.1-0.1-0.1-0.2
		C89.5,22.4,89.4,22.5,89.2,22.5z M89.2,31.8V32h0.2v-0.2H89.2z M89.5,24.8h0.7c-0.2-0.6-0.7-0.5-0.8-0.5
		C89.4,24.6,89.4,24.7,89.5,24.8z M90.1,41.5h-0.5v0.7c0.2,0.2,0.2,0.3,0.3,0.5V42h0.4v-0.3l0.2-0.2l-0.1-0.1
		c-0.1-0.1-0.2-0.1-0.2-0.1V41.5z M89.8,39.3l0.4,0.2c-0.1,0-0.2,0.1-0.3,0.1c-0.1,0.1-0.1,0.1-0.1,0.1c0.2,0,0.4-0.2,0.5-0.2
		c0.2,0.2,0.7,0.7,0.2,0.8c0.2-0.6-0.5-0.2-0.7-0.2C89.7,39.8,89.4,39.3,89.8,39.3z M89.7,23.3v0.5c0.4,0.2,0.4,0.5,0.5,0.7
		c0-0.2,0.2-0.2,0.2-0.4l-0.3-0.3v-0.4l0.3,0.2l-0.3-0.3H89.7z M89.8,47.2c0.2-0.2,0.2-0.5,0.5-0.5v-0.4c-0.2,0-0.5,0.2-0.7,0.2
		C89.8,46.8,89.8,47.1,89.8,47.2z M89.8,30.1 M90.4,34.2c-0.2,0-0.5,0.2-0.5,0.4C90.1,34.5,90.5,34.5,90.4,34.2z M90.4,28.9
		c-0.2-0.4-0.7,0-0.3,0.4C90.3,29.3,90.4,29.2,90.4,28.9z M90.2,36.7c0.4-0.2,0.2-0.7-0.2-0.5C90.1,36.4,90.1,36.7,90.2,36.7z
		 M90.4,41.8c0.2,0.4,0.6-0.2,0-0.2V41.8z M91,55.1c0.2-0.2-0.2-0.5-0.3-0.5C90.5,54.7,90.7,55.1,91,55.1z M91,45.2v8.7
		c2,0,4.3,0.2,6.3-0.5c1.2-0.6,2.2-1.3,2.3-2.7c0.4-1.6,0.2-3.2-1-4.3c-1.2-0.8-2.5-1.2-3.9-1.2H91z M91.7,41.7c0,0.4,0.2,0.8-0.3,1
		c0-0.2-0.2-0.5-0.2-0.8C91.4,41.8,91.6,41.7,91.7,41.7z M100.2,36.6h0.4l-0.2,0.4C100.3,36.8,100.2,36.7,100.2,36.6
		c0,0.6-0.2,0.7-0.5,0.4c0,0.2-0.2,0.3-0.2,0.5c-0.2,0-0.4-0.1-0.5-0.2c0,0.6-0.3,0.7-0.5,1c0.1,0,0.2-0.1,0.2-0.1l0.1-0.1H99
		c0-0.4,0.2-0.7,0.5-0.7v0.4c0.4-0.4,0.8-0.9,1.4-0.5l0.2,0.4c-0.4-0.2-0.5,0.2-0.7,0.3c0.4-0.2,0.5-0.3,0.9-0.2
		c-0.2,0.2-0.3,0.2-0.7,0.3h0.5v0.5h-0.5l-0.2,0.2l-0.3-0.3v0.7c-0.2,0-0.5-0.2-0.7-0.2c0.2,0.2,0.2,0.5,0.3,0.7h0.2
		c0,0.2,0.2,0.2,0.3,0.3c-0.4,0-0.7-0.2-0.8-0.2l0.3,0.4c-0.4,0-0.8-0.1-1,0.3c0.4-0.4,0.9,0.2,0.5,0.5H99c-0.2,0-0.3,0.1-0.3,0.2
		h0.2c-0.4,0.2,0.1,0.7-0.5,0.7c0.2,0,0.2-0.1,0.2-0.3c-0.4,0-0.9,0.1-0.7-0.5h-0.2v-0.4v0.7l0.2,0.2c-0.4,0-0.5,0.3-0.7,0.5
		c0.2,0,0.5-0.1,0.7-0.3c-0.2,0.4-0.5,0.5-0.7,0.8v-0.3h-0.3c0-0.2,0-0.5-0.2-0.7c0,0.4,0.2,0.5,0.2,0.8c-0.4-0.2-0.5-0.2-0.5-0.5
		c0,0.2-0.2,0.2-0.2,0.4L96,41.8h-0.4c0.4-0.3,0.5-0.6,0.5-0.8h-0.4c-0.2,0-0.4,0.1-0.5,0.2h0.3c0,0.2-0.2,0.2-0.2,0.4
		c0.2,0.4,0.3,0.8,0.7,1v0.4H96l0.2-0.4c-0.4,0.2-0.5,0.2-0.5-0.3c-0.2,0.2-0.5,0.2-0.7,0.2c0.2,0.2,0.4,0.3,0.5,0.5h-0.8
		c-0.2,0.1-0.2,0.3-0.2,0.7l0.1,0.1c0.1,0.1,0.1,0.1,0.3,0.1v0.2h0.3v-0.2h-0.3v-0.5c0.4-0.4,0.8,0,1.2,0c-0.2,0.2-0.2,0.3-0.2,0.5
		l-0.5,0.5l0.2,0.2c0.2-0.2,0.2-0.3,0.3-0.5c0.2,0.2,0.7,0,0.7,0.4h0.4l-0.2,0.3c0.2,0,0.3-0.2,0.5-0.2L97,44.7
		c0.3,0,0.4-0.1,0.4-0.4c0.1,0,0.3-0.1,0.5-0.3c-0.2,0.1-0.3,0.2-0.5,0.2c-0.2,0-0.5-0.2-0.7-0.2c-0.2-0.2-0.5-0.2-0.7-0.4
		c0-0.2,0.2-0.3,0.2-0.5h0.2v0.4l0.2-0.2h0.2c-0.2,0.4,0.3,0.3,0.7,0.5c-0.2,0-0.2-0.1-0.2-0.3c-0.2-0.2-0.5-0.4-0.7-0.5
		c0.4,0.2,0.7,0,0.9-0.2h-0.5v-0.4h0.5c0.2,0.2,0.3,0.7,0.7,0.4h-0.4c0.2-0.2,0.2-0.5,0.4-0.7l0.2,0.2h0.2V42c0,0.2,0.1,0.2,0.2,0.2
		c0.1,0.1,0.2,0.1,0.2,0h-0.4l0.4,0.3h-0.4c0.2,0.4,0.4,0.5,0.5,0.9l0.4-0.2l0.1,0.1c0.1,0.1,0.2,0.1,0.2,0.1
		c0.2-0.2,0.4-0.4,0.5-0.5h-0.7c0-0.2,0.3-0.4,0.5-0.4c-0.2-0.2-0.4-0.2-0.4-0.5h0.8v-0.5h-0.2c0-0.1,0-0.1,0.1-0.1
		c0.1-0.1,0.1-0.2,0.1-0.3c-0.2-0.2-0.5-0.2-0.7-0.2c0-0.1,0.1-0.2,0.2-0.2c-0.2-0.2-0.4-0.2-0.4-0.4h0.8c-0.4,0.2-0.5,0.4-0.2,0.5
		c0.6,0.2,0.4-0.8,0.4-0.2c0.4-0.2,0.5-0.4,0.7-0.4c0.2-0.4,0.2-0.5,0.3-0.7c0.7-0.4,1.2-0.8,1.6-1.4v-0.2h0.3
		c-0.2,0-0.3-0.1-0.3-0.2c0-0.1,0-0.1,0.1-0.1c0.1-0.1,0.1-0.2,0.1-0.2v-0.2h-0.5c0.2-0.2,0.4-0.2,0.5-0.4c-0.4,0.2-0.7,0.2-0.8,0
		c-0.2,0.1-0.3,0.2-0.5,0.2c-0.2,0.4-0.2,0.5-0.5,0.5c0.2-0.2,0.3-0.5,0.2-0.8c0.2,0,0.5,0,0.5-0.4c0,0.1,0,0.1,0.1,0.1
		c0.1,0.1,0.1,0.1,0.1,0.2c0.2-0.2,0.5-0.4,0.7-0.5c-0.4,0.2-0.8-0.2-0.8,0.3c-0.2-0.2-0.4-0.2-0.4-0.3c0.9,0-0.3-0.5-0.3-0.7h0.7
		c-0.2,0-0.5-0.2-0.7-0.2c-0.4,0.4-0.7,0.5-1,0.3v-0.3c-0.2,0.2-0.7,0.3-0.2,0.5V36.6z M96.8,23.3c0-0.2-0.4-0.4-0.5-0.2
		C96.1,23.3,96.5,23.5,96.8,23.3z M96.7,24.7c0.1-0.1,0.2-0.2,0.3-0.2c-0.5-0.2,0-0.4-0.2-0.7c0,0.1-0.1,0.2-0.4,0.2
		C96.7,24.1,96.7,24.5,96.7,24.7z M97.5,37.2c0.2-0.4-0.2-0.5-0.4-0.3C97,37.3,97.3,37.4,97.5,37.2z M97.5,43.5c0.1,0,0.1,0,0.1-0.1
		c0.1-0.1,0.2-0.1,0.3-0.1c0,0.1,0,0.1,0.1,0.1c0.1,0.1,0.1,0.2,0.1,0.2v-0.3c0.4,0.2,0.7,0.2,0.7-0.2c-0.4,0-0.8,0-1.2,0.2V43.5z
		 M100.2,44.2h-0.5c0-0.2-0.2-0.2-0.2-0.4c-0.4,0.4-0.8,0.7-1.2,0.4c0-0.2,0.2-0.4,0.4-0.5c-0.4,0-0.5,0.2-0.8,0.2
		c0.1,0.2,0.2,0.2,0.2,0.2c0.1,0.1,0.1,0.1,0.1,0v0.2L98,44.4h0.3c0,0.2-0.1,0.3-0.3,0.5c0.2,0,0.7,0.5,0.8,0.2
		c-0.2,0-0.4-0.1-0.5-0.2c0-0.6,0.7-0.5,1-0.7l0.2,0.5c-0.4-0.3-0.5-0.2-0.5,0.2h0.2v0.5c-0.2,0.2-0.4,0.2-0.5,0.3
		c0.2,0,0.5-0.2,0.7-0.2l-0.1,0.1c-0.1,0.1-0.1,0.1-0.1,0.2c0.1,0,0.2,0.1,0.2,0.1l0.1,0.1h-0.2c0,0.2,0.1,0.3,0.3,0.3
		c0,0.2,0.2,0.5,0.4,0.7c0.2,0.2,0.2,0.5,0.3,0.7c0.4-0.2,0.5-0.3,0.7-0.3v-0.2c0,0.2-0.1,0.2-0.2,0.2c-0.1,0.1-0.1,0.1-0.2,0
		c-0.4,0-0.2-0.4-0.4-0.5l-0.2,0.2l0.2-0.3h-0.3c0-0.4,0-0.5-0.2-0.9l-0.2,0.2v-0.4h-0.2v-0.3c0,0.1,0,0.2,0.1,0.2l0.1,0.1
		c0.4,0,0.5-0.2,0.7-0.2c-0.2-0.2-0.2-0.4,0-0.4V45c0,0.1-0.1,0.2-0.3,0.2v-0.3h0.5c-0.2-0.2-0.2-0.4-0.4-0.4l-0.1,0.1l-0.2,0.3
		l0.2-0.4c-0.1,0-0.2,0.1-0.3,0.1l-0.2,0.1v-0.5C99.7,44.4,100.1,44.4,100.2,44.2c0.1,0.1,0.3,0.2,0.7,0.2c-0.2-0.2-0.3-0.2-0.5-0.3
		c0-0.1,0.1-0.2,0.1-0.3l0.1-0.2c-0.3,0-0.4,0.1-0.4,0.3c-0.2-0.2-0.3-0.2-0.5-0.3C99.9,43.7,100.1,44.1,100.2,44.2z M98.9,29.1
		v-0.7c0,0.2-0.2,0.3-0.5,0.3C98.5,28.9,98.7,28.9,98.9,29.1z M99.4,43.5H99c-0.5,0.2,0.2,0.5,0.4,0.3V43.5z M98.9,23.2
		c0.1,0.1,0.3,0.2,0.7,0.2c-0.1-0.1-0.2-0.3-0.2-0.5L99,23l0.2-0.3h-0.1c-0.1,0-0.2,0.1-0.3,0.2V23.2z M99.7,24.7
		c-0.2,0-0.3,0.1-0.3,0.3c0.2-0.2,0.5-0.2,0.7-0.2c0-0.6-0.2-0.9-0.4-1.5c-0.5,0.2-0.8,0.3-0.8,0.8C99.4,24.1,99.2,25,99.7,24.7z
		 M99.4,41.3L99,41.5c0.4,0,0.5,0,0.9-0.2c-0.2,0.4-0.4,0.5-0.4,0.7c-0.2-0.2-0.3-0.2-0.5-0.3c-0.1-0.1-0.2-0.3-0.2-0.5
		C99.1,41.1,99.3,41.2,99.4,41.3z M98.9,54.4C98.9,54.4,98.9,54.4,98.9,54.4c0.1,0.1,0.2,0.2,0.2,0.2c0.5,0.1,0.3-0.8-0.2-0.7V54.4z
		 M99,42h0.2l0.2,0.2v0.2H99V42z M99.7,55.1c0.4,0.2-0.5,0.4-0.3,0.5h0.2c0.2,0,0.3-0.1,0.4-0.2v-0.7c0,0.2-0.5,0.2-0.4,0.3H99.7z
		 M101,29.9c0.2,0,0.3,0.2,0.7,0c0,0.4-0.3,0.5-0.7,0.4c-0.2,0-0.2-0.2-0.3-0.4c-0.2,0-0.2-0.2-0.4-0.4c0,0.2,0.2,0.4,0.2,0.5
		c-0.3,0-0.4-0.1-0.5-0.2v0.4c0.1,0.1,0.3,0.2,0.7,0.2v0.7c-0.6,0-0.5-0.5-0.8-0.7c-0.4,0-0.5,0.2-0.5,0.7c0.4,0.2,0.6,0.3,1,0.3
		c0.2-0.5,0.8-0.5,1.2-0.3v-0.7h0.7c0-0.4,0.2-0.5,0.2-0.9c-0.3,0-0.4-0.1-0.5-0.2c-0.2,0.2-0.5,0.7-0.7,0.2
		C101.3,29.8,101,29.8,101,29.9z M99.5,54.7c0.2-0.2,0.4-0.3,0.4-0.7l0.3,0.2c-0.2-0.4-0.5-0.2-0.8-0.2
		C99.5,54.2,99.5,54.4,99.5,54.7z M99.7,44.7 M99.9,26.4 M100,52.4c0.1,0.1,0.1,0.2,0.1,0.3c0-0.6,0.5-0.4,0.7-0.2l-0.4,0.2
		c0.2,0,0.3,0.1,0.4,0.2c0.2-0.2,0.4-0.3,0.5-0.3c-0.2-0.2-0.4-0.2-0.5-0.4l0.2-0.2c-0.2,0-0.3,0.1-0.3,0.3
		c-0.3-0.2-0.5-0.3-0.5-0.3c-0.1,0-0.2,0.1-0.2,0.3C99.9,52.4,99.9,52.4,100,52.4z M101.2,54.2l-0.2,0.2v-0.2c-0.1,0-0.2,0-0.2-0.1
		l-0.1-0.1c-0.4,0.2-0.5,0.3-0.8,0.5h0.7v0.2c0.4-0.2,0.6-0.4,1-0.4c0-0.2-0.1-0.4-0.2-0.5C101.4,54,101.4,54.1,101.2,54.2z
		 M100.4,43.2c0-0.4-0.5,0-0.3,0.2C100.2,43.4,100.3,43.3,100.4,43.2z M100.2,28.1l0.2,0.2c0.2-0.2,0.5-0.5,0.4-0.8v-0.2
		c-0.2,0.2-0.4,0.3-0.5,0.5C100.4,27.7,100.2,27.9,100.2,28.1z M101.4,41.3c0,0.2-0.2,0.4-0.2,0.5v-0.5l-0.2,0.2v0.3h-0.3
		c0.1,0,0.2-0.1,0.2-0.2v-0.2c-0.8-0.2-0.1,0.7-0.5,0.8c0.4-0.2,0.7,0.3,1,0.5c0-0.2,0.2-0.4,0.2-0.5H101c0-0.2,0.2-0.4,0.4-0.5
		c0,0.2,0.1,0.3,0.3,0.5v-0.5l0.4-0.2V42c0.4-0.2-0.2-0.5-0.2-0.8c0.2,0.2,0.5,0.2,0.7,0.2l-1-0.5c0,0.4,0.2,0.5,0.4,0.7
		C101.7,41.5,101.5,41.5,101.4,41.3z M100.6,51.4c0.4,0,0.4-0.9-0.2-0.5C100.4,51,100.4,51.2,100.6,51.4z M101.7,36.4
		c-0.2,0-0.3,0-0.3-0.1l-0.2-0.1c0,0.2,0.2,0.2,0.2,0.3l-0.2,0.1c-0.1,0.1-0.2,0.1-0.3,0.1c-0.2-0.2-0.7-0.7-0.2-0.7l0.2,0.2
		c0.2-0.2,0.4-0.4,0.4-0.5C101.4,35.9,101.6,36,101.7,36.4z M100.7,48.3c0.6,0,0.5,0.7,1,0.7v0.5c-0.2,0-0.4,0.1-0.5,0.2
		c0.2,0,0.7-0.2,0.5,0.4h-0.5l-0.2,0.2l-0.1-0.1c-0.1-0.1-0.1-0.1-0.1-0.3h-0.2l-0.2-0.2h0.3v-0.5c-0.6,0.2-0.3,0.5-0.3,0.9h0.3
		c0,0.2-0.2,0.2-0.3,0.3c0.2,0,0.3,0.2,0.5,0.2c0.2,0.2,0.3,0.4,0.7,0.5c0-0.4,0.2-0.6,0-1c0.4,0.2,0.5,0.4,0.4,0.7h0.5l-0.1,0.1
		l-0.3,0.2c0.2,0,0.4,0.4,0.5-0.2v0.5c0-0.2,0.1-0.4,0.4-0.5c-0.2,0-0.2-0.1-0.3-0.2l-0.1-0.2c0.1-0.1,0.3-0.2,0.5-0.2
		c-0.2-0.4-0.4-0.7-0.8-0.7l0.2-0.3c-0.2,0.2-0.4,0.3-0.5,0.3v-0.8c0.2,0,0.5,0,0.7-0.2c0,0.2-0.2,0.3-0.2,0.5h0.2v0.4h0.2l-0.2-0.2
		h0.2c0-0.4,0-0.5,0.2-0.9h0.2c0-0.2-0.4-0.2-0.5-0.2l0.2-0.2V48c-0.2,0.2-0.3,0.2-0.5,0.3v0.2c-0.4,0-0.7,0.1-0.9-0.3v0.3
		c-0.2-0.2-0.4-0.5,0-0.7h-0.3c0,0.4,0.1,0.6,0.2,0.7C101,48.4,100.8,48.4,100.7,48.3z M101,48.8c0-0.2-0.3-0.2-0.5,0
		C100.6,49.2,101.3,49.2,101,48.8z M101.4,43.2c0.2,0,0.3-0.2,0.5-0.2v0.4h-0.7c0,0.2-0.2,0.5-0.2,0.7h0.4c-0.2,0.2-0.2,0.5-0.4,0.7
		c0.2,0,0.4-0.2,0.5-0.4v0.4c0.2,0,0.5-0.2,0.5-0.4c0,0.4,0,0.7-0.4,1l-0.2-0.4h0.4c-0.2-0.4-1-0.3-0.9,0.2l0.4-0.2l0.2,0.2
		c-0.2,0-0.7,0.2-0.2,0.5c-0.2,0.2-0.5,0.4-0.7,0.5c0.4,0,0.5,0.2,0.2,0.5h0.4l-0.2,0.2h0.5l-0.2,0.3c0.4-0.2,0.5-0.2,0.7-0.2
		c0.2-0.4,0.5-0.5,0.8-0.5c-0.1-0.1-0.2-0.2-0.3-0.2c-0.2,0.2-0.3,0.5-0.7,0.4l0.2,0.3c-0.2,0-0.4-0.2-0.5-0.2
		c0.2-0.5,0.1-0.6-0.3-0.4v-0.3c0.7,0,1.2-0.4,1.7-0.5c-0.2-0.4,0.2-0.3,0.4-0.5c0-0.2-0.1-0.4-0.2-0.5c-0.3,0.2-0.5,0.3-0.5,0.3
		h0.2v0.5c-0.1,0-0.3,0.1-0.5,0.3c-0.2,0.2-0.5,0-0.8,0c0.2-0.2,0.3-0.2,0.5-0.3h-0.2v-0.2c0.2,0,0.5,0.2,0.9,0.2l-0.5-0.2l0.1-0.1
		c0.1-0.1,0.2-0.1,0.3-0.1c-0.2-0.1-0.2-0.2-0.2-0.3v-0.4h0.4c-0.2-0.2-0.5-0.2-0.7-0.3c-0.2-0.2-0.4-0.4-0.5-0.4v-0.3
		c0.2,0,0.3,0.1,0.3,0.2c0.2-0.2,0.2-0.3,0.4-0.3c0,0.1,0,0.1,0.1,0.1c0.1,0.1,0.1,0.2,0.1,0.2h0.2c-0.2-0.4,0.2-0.5,0.3-0.8
		c-0.2,0.2-0.5,0.2-0.8,0.3c0-0.3,0.1-0.5,0.3-0.7h-0.2c-0.2,0.2-0.3,0.5-0.7,0.4V43.2z M100.7,53.4h0.3v0.3h0.5v-1.4
		c-0.2,0.2-0.2,0.5-0.2,0.7C101.3,53.2,100.9,53.2,100.7,53.4z M101.3,30.6C101,31,101,31,100.9,31
		C100.7,30.6,100.9,30.6,101.3,30.6z M101.3,38.9c-0.2,0.2-0.4,0-0.4-0.2C101,38.6,101.3,38.6,101.3,38.9z M101.3,43.2
		c0.2-0.2,0-0.3-0.2-0.2C100.9,43.2,101,43.4,101.3,43.2z M101.6,24.1h-0.2l0.2,0.2v0.4c0.2,0,0.4-0.2,0.5-0.2v0.2
		c0.2,0,0.3,0.2,0.7,0.2c-0.4,0.2-0.5,0.2-0.7,0.2v0.2c0.4-0.2,0.5-0.1,0.7,0.3l-0.3-0.2c0,0.2,0.2,0.3,0.2,0.5l0.2-0.2
		c0.4,0,0.4-0.3,0.5-0.7h-0.1c-0.1,0-0.2-0.1-0.3-0.2c-0.2-0.2-0.3-0.3-0.5-0.7c0,0.1-0.1,0.2-0.1,0.3l-0.1,0.1
		c-0.2-0.4-0.3-0.5-0.7-0.9V24.1z M101.6,36.6c0,0.2,0.2,0.2,0.4,0.4c-0.2,0.1-0.3,0.1-0.5-0.2L101.6,36.6z M102.1,30.1
		c-0.4,0-0.4-0.2,0-0.3C102.3,30,102.3,30.1,102.1,30.1z M102.5,32c0.1,0,0.2,0.1,0.2,0.1c0.1,0.1,0.1,0.1,0.1,0.1
		c-0.2,0.3-0.4,0.4-0.5,0.4c0.6,0,1,0,1.4-0.2v-0.5c-0.3-0.2-0.7,0.5-0.8,0c-0.4-0.2,0.2-0.5,0.4-0.5c-0.2-0.2-0.4,0-0.5,0
		C102.6,31.7,102.5,31.8,102.5,32z M103.3,28.2v-0.2c-0.2-0.2-0.7,0-0.5,0.4C102.9,28.4,103.1,28.2,103.3,28.2z M102.8,44.5
		c0-0.1,0-0.1,0.1-0.1c0.1-0.1,0.1-0.2,0.1-0.2c0,0.2,0.2,0.2,0.2,0.3c0.1-0.1,0.2-0.2,0.2-0.3c-0.3,0-0.4-0.1-0.5-0.2V44.5z
		 M103.3,29.3c0,0.4,0,0.7,0.2,0.8c-0.2,0-0.3,0.2-0.5,0.2v0.2c0.4-0.2,0.5-0.2,0.9-0.4h0.5c-0.1-0.1-0.3-0.2-0.5-0.2
		c-0.2-0.2-0.4-0.2-0.4-0.4v-0.3H103.3z M104.1,49c-0.4,0-0.7,0.2-0.7,0.4C103.6,49.5,104.1,49.3,104.1,49z M106,50.8
		c0.1-0.1,0.2-0.2,0.2-0.2h0.1v0.2c0.2-0.1,0.3-0.2,0.4-0.2v-0.1c0-0.1,0.1-0.2,0.2-0.3c-0.4-0.2-0.5-0.2-0.8-0.2l-0.1,0.1
		c-0.1,0.1-0.1,0.1-0.3,0.1V49h0.2c0.2-0.2,0.2-0.5,0.2-0.7h-0.5l0.1,0.1c0.1,0.1,0.1,0.1,0.3,0.1v0.2c-0.4,0-0.5-0.2-0.7-0.4
		c0-0.1-0.1-0.2-0.1-0.2L105,48c0.4-0.2,0.5,0,0.7,0.2v-0.4L106,48v-0.4h-0.5l-0.2,0.2v-0.5c0.4-0.2,0.7,0.2,0.8,0
		c-0.2-0.2-0.3-0.3-0.7-0.2c-0.2-0.4-0.5-0.3-0.8-0.2v0.3h-0.4c0.4,0,0.7,0,0.7,0.4c-0.2,0-0.5,0.2-0.7,0.2v-0.3
		c0,0.2-0.2,0.3-0.2,0.5h0.8l-0.5,0.5h-0.7c0.4,0.2,0.5,0.4,0.8,0.2c-0.2,0.2-0.7,0.8,0,0.7v0.3l-0.2-0.2v0.2h0.3
		c-0.2,0-0.3,0.1-0.3,0.4c0.2,0,0.3-0.2,0.7-0.2c0.2,0.2,0.2,0.4,0.3,0.5h-0.2v-0.2h-0.5v0.2h0.2v0.4c-0.1,0-0.2,0.1-0.2,0.1
		c-0.1,0.1-0.1,0.1-0.1,0.1h0.5l-0.2,0.3h0.1c0.1,0,0.1-0.1,0.1-0.2c0.4,0.6,1,0.3,1.4,0.7l-0.1-0.1c-0.1-0.1-0.1-0.2-0.1-0.2h0.2
		c-0.2,0-0.2-0.1-0.2-0.4c-0.2,0.2-0.5,0.4-0.8,0.2c-0.1,0-0.1-0.1,0-0.2l0.2-0.2H106z M104.5,31.1 M105.3,49.3c0,0.2-0.5,0-0.4-0.4
		C105.2,48.8,105.7,49,105.3,49.3z M105,46.9 M105.8,43.4 M106.5,47.8c0-0.2-0.1-0.3-0.2-0.3C106.2,47.8,106.3,47.8,106.5,47.8z"/>
	<path class="st0" d="M121.4,21.4h10.5c4.4,13,8.9,25.8,13.3,38.9c-0.4-0.4-0.7-0.4-1-0.4v-1.9h-0.8v-0.7h-0.2
		c0,0.6-0.5,0.5-0.9,0.7c-0.2-0.2-0.5-0.2-0.8-0.2c-0.2,0.2-0.3,0.4-0.7,0.4v2.2h-0.4c0-0.7-0.2-1.2-0.2-1.9
		c-0.2-0.4-0.3-0.7-0.5-0.8c-0.5,0-0.8,0.5-0.8,1c0,0.6-0.5,1-0.4,1.6c-0.2-0.2-0.5-0.2-0.7-0.2v-6.1c0-0.4-0.3-0.6-0.2-1.2h-3.4
		v0.7c-0.1-0.1-0.2-0.3-0.2-0.7V51h-1.4v-0.3l-0.4,0.3l-0.2-0.3c0,0.4-0.3,0.5-0.7,0.3v5.5h-0.7c-0.2-0.9,0-1.7-0.2-2.6
		c-0.2-0.6,0-0.8-0.4-1.4v-2.4h-0.1c-0.1,0-0.2-0.1-0.2-0.2v-1.2c-0.5-0.2-1-0.2-1.6,0c-0.2,0.4,0.1,0.8-0.3,1.2
		c-0.5,0.8,0.1,2.1-0.4,3.1h-0.5v-0.9c-1.2-0.2-2.2,0-3.4,0v1.2c-0.6,0.2-0.9-0.4-1.5,0c-0.4,0-0.8,0.2-1.2,0.2
		c0.8-2.3,1.5-4.5,2.2-6.8h7.1c-1.4-4.3-2.5-8.4-3.9-12.8l-0.2,0.2c-1.5,4.6-2.8,9.3-4.4,13.9c-0.5,1.5-0.8,3.2-1.5,4.7
		c-0.2-0.2,0-0.5-0.4-0.5c-0.2,0-0.3,0.3-0.5,0.5h-1.9v5.3c-0.3,0.2-0.6,0.2-0.8,0c0,0.2-0.2,0.4-0.2,0.5h-0.3
		c-0.2,0.4-0.4,0.5-0.4,0.7h-1.5v1.2h-0.2v-4.6c-0.9-0.2-1.9-0.2-2.8,0c0,0.2,0,0.5-0.2,0.7h-1.9v3.1h-0.8c0-0.3-0.1-0.4-0.2-0.5
		h-0.5c4.4-12.5,8.9-24.9,13.2-37.5V21.4z M110.7,54.2c0.4,0,0,0.7-0.2,0.5v0.1c0,0.1,0.1,0.2,0.2,0.3v-0.2h0.5
		c-0.2-0.1-0.2-0.3-0.2-0.7c0.4,0.2,0.5,0,0.9-0.2c-0.2-0.1-0.2-0.3-0.2-0.5c-0.1,0.1-0.1,0.1-0.1,0.1c-0.1,0.1-0.1,0.1-0.1,0.2v0.2
		h-0.1c-0.1,0-0.2-0.1-0.2-0.2v0.3c-0.2-0.2-0.2-0.3-0.4-0.5C110.8,53.9,110.7,54.1,110.7,54.2z M112.4,53.5c0-0.2-0.5-0.4-0.5,0
		C111.9,53.7,112.4,54.1,112.4,53.5z M114.1,46.6c0-0.2-0.2-0.4-0.3-0.2C113.8,46.8,113.9,46.8,114.1,46.6z M114.6,47.3
		c0.4,0.2,0.5,0.5,0.2,0.8h0.1c0.1,0,0.2-0.1,0.3-0.2c-0.2,0.1-0.2,0.3-0.2,0.5c0.3-0.3,0.5-0.4,0.7-0.4c-0.1-0.1-0.2-0.3-0.2-0.5
		c-0.1,0-0.2,0.1-0.2,0.1l-0.1,0.1c-0.2-0.2,0.1-0.9-0.4-0.5H114.6z M116,48.5c0,0.4-0.6,0.2-0.5,0.7h-0.3v0.3
		c0.2-0.2,0.5-0.3,0.7-0.5c0.2,0.3,0.1,0.6-0.2,0.9c0.6-0.2,0.6-0.7,1.4-0.5c-0.6-0.2-0.2-0.7-0.7-0.8c-0.4-0.2-0.7-0.4-0.8,0.2
		C115.5,48.5,115.7,48.5,116,48.5z M118.1,38.6c-0.2-0.2-0.7-0.2-0.7,0.4c-0.1,0-0.2,0-0.2-0.1l-0.1-0.1v0.3H117
		c0-0.4-0.4,0.2-0.5,0.2l-0.1-0.2c-0.1-0.2-0.2-0.2-0.3-0.2h0.4v-0.2c0,0.2-0.2,0.2-0.4,0c0,0.2-0.2,0.3-0.3,0.7
		c0.4,0,0.5-0.1,0.7,0.3c-0.2,0-0.3,0-0.4-0.1l-0.2-0.1c-0.4,0.2-0.4,0.5-0.4,0.7c0.2,0.2,0.4,0.4,0.5,0.7l-0.2,0.1
		c-0.1,0.1-0.2,0.2-0.2,0.3l-0.2-0.4l-0.3,0.2c0,0.2,0.2,0.4,0.2,0.5c0.4-0.4,0.7-0.3,0.4,0.2c0,0.1,0,0.1,0.1,0.1
		c0.1,0.1,0.1,0.1,0.1,0.2c0-0.4,0.1-0.5,0.3-0.5c0,0.2,0.4,0.7,0,0.8c0.3-0.2,0.4-0.1,0.4,0.4c0.1-0.2,0.2-0.1,0.3-0.2
		c0.1,0,0.1,0,0.1-0.1c-0.3-0.2-0.4-0.3-0.4-0.5h0.2v-0.5c0.2,0.2,0.4,0.2,0.5,0.3c0-0.4-0.2-0.3-0.2-0.5c0-0.2-0.2-0.4-0.2-0.5
		l0.3,0.2c0-0.2,0.2-0.5,0.4-0.7c0-0.2,0.8,0.2,0.5,0.4c-0.2,0-0.3,0.2-0.5,0.2v0.8c0.1,0,0.3-0.1,0.5-0.3c0.2,0.5,0.1,0.7-0.3,0.5
		V42c0.2,0.2,0.7-0.2,0.8,0c0.4-0.4,0.7,0,1,0v-0.4c0.2,0,0.2-0.3,0.3-0.5h-0.3c0.2,0,0.3-0.2,0.5-0.2c0-0.2-0.2-0.5-0.3-0.8
		c-0.2,0.2-0.4,0.3-0.5,0.3v0.2c-0.2,0-0.3,0.1-0.3,0.3v-0.3h-0.4l-0.2,0.3c-0.4-0.6,0.1-0.7,0.7-0.5c-0.4-0.2-0.5-0.3-0.2-0.5
		c-0.4,0-0.5,0.2-0.9,0.2v-0.4h0.9v-0.2h-0.2v-0.2h0.4c-0.2-0.2-0.4-0.4-0.5-0.4v-0.3l-0.1,0.1c-0.1,0.1-0.1,0.1-0.2,0.1
		c0-0.4-0.1-0.6-0.2-0.7V38.6z M115.4,40.7 M116.3,52.6c0.4,0,0-0.5-0.2-0.5C116,52.2,115.9,52.6,116.3,52.6z M116.1,40.3
		c0.4,0.2,1-0.3,1,0.2c-0.2,0-0.4,0.2-0.5,0.2C116.3,41.1,116.1,40.5,116.1,40.3z M116.8,41.1c0,0.4-0.5,0.4-0.5,0
		C116.3,41,116.8,41,116.8,41.1z M116.5,37.8c0.2,0,0.3-0.2,0.5-0.2c0,0.4,0.2,0.7-0.2,0.8h0.7c-0.2-0.1-0.2-0.2-0.3-0.2H117
		l0.2-0.2c0-0.3-0.1-0.4-0.2-0.5c0.4,0.4,0.7,0,0.8-0.2c0,0.1-0.1,0.2-0.1,0.2h-0.1c0.2,0.2,0.3,0.2,0.7,0.3h-0.7v0.2h1.4
		c-0.3-0.3-0.4-0.4-0.5-0.4c-0.3,0-0.4-0.1-0.5-0.2l0.5-0.2c-0.2-0.4-0.5-0.4-0.8-0.2c0-0.1,0-0.1,0.1-0.1c0.1-0.1,0.1-0.2,0.1-0.2
		h-0.5c0.1,0.2,0.2,0.2,0.2,0.2v0.1h-0.8c0.2-0.2,0.4-0.2,0.5-0.3c-0.4-0.6-0.5,0.2-0.7,0.5V37.8z M116.8,39.3h0.2
		c0,0.3,0.1,0.5,0.3,0.5c0,0.2-0.2,0.2-0.3,0.4c-0.2-0.2-0.4-0.5-0.5-0.7h0.3V39.3z M116.8,56.8 M117,43.2v0.2c0.4-0.2,0.7,0,1.1,0
		v0.2h0.2c-0.3-0.2-0.5-0.3-0.5-0.3c0-0.2,0.3-0.2,0.5-0.4h-0.9v-0.2c-0.2,0.2-0.3,0.2-0.3,0.5H117z M117.2,35.9
		c0.2,0.2,0.2,0.4,0.3,0.4c0-0.2-0.2-0.4,0-0.5c0.4-0.4,0.6-0.5,1.2-0.5V35c-0.4-0.2-0.8-0.1-1-0.7c-0.4,0.6-0.4,1.1-0.4,1.7
		L117.2,35.9z M117.3,43.2c-0.2-0.4,0.5-0.4,0.4,0H117.3z M117.5,40.3c-0.2,0-0.2-0.1,0-0.3c0.4,0.2,0.7,0.2,1,0.3H117.5z
		 M118.1,38.9c0.2,0.2-0.5,0.2-0.5-0.2C117.9,38.8,118,38.8,118.1,38.9z M117.8,33.7c0.6,0,0.8,0,1.2,0.2c0.2,0.4,0.2,0.7,0.2,1
		c-0.2-0.2-0.5-0.6-0.5,0c0.6,0,0.8,0.3,1.2,0.7c-0.1,0-0.1,0-0.1-0.1c-0.1-0.1-0.2-0.1-0.3-0.1c0,0.5-0.3,1-0.8,0.8
		c-0.2,0-0.4-0.1-0.5-0.2l0.1-0.1c0.1-0.1,0.2-0.1,0.3-0.1h-0.4v-0.5c-0.2,0.2-0.3,0.5-0.2,0.7l-0.1,0.1c-0.1,0.1-0.1,0.1-0.1,0.2
		c0.4,0,0.6-0.2,1,0.2c-0.2,0.2-0.2,0.5-0.3,0.7c0.3-0.2,0.5-0.4,0.7-0.7v0.4c0.6-0.2,0.3,0.3,0.5,0.7h-0.4l0.1,0.1
		c0.1,0.1,0.1,0.1,0.3,0.1c0.2,0,0.5-0.2,0.7,0.2h0.5h0.5l-0.2-0.2c0-0.2,0-0.5,0.2-0.7c-0.4,0.2-0.7,0.2-0.8,0h0.2h0.5v-0.2
		c0.4,0.2-0.2,0.8,0.5,0.8l0.3-0.2c-0.5,0.6,0.2,0.7,0.7,0.5c0-0.4,0.2-0.5,0.4-0.9c-0.4,0.2-0.8,0.2-1.2,0.4v-0.2l-0.3,0.2v-1
		c0.4,0.2,0.8,0.6,0.8,0c-0.2,0-0.4,0.4-0.5,0c0.1,0,0.2-0.1,0.2-0.3c-0.2,0.7-0.8,0-1-0.4c0.2-0.2,0.5-0.2,0.7-0.2v0.4
		c0.4,0,0.2-0.5,0.2-0.7c0-0.1-0.1-0.1-0.1-0.2c-0.1,0-0.1,0-0.1-0.1c-0.3,0-0.4,0.1-0.4,0.2c0.1,0.1,0.2,0.1,0.2,0
		c0.1,0,0.2-0.1,0.3-0.2c-0.2,0.4-0.4,0.5-0.7,0.5c-0.2-0.2-0.4-0.3-0.5-0.3l-0.2,0.2c0-0.1-0.1-0.2-0.4-0.2
		c-0.1,0.1-0.2,0.3-0.2,0.5c-0.2,0.2-0.2,0.2-0.2,0.2c-0.1,0.1-0.1,0.1-0.1,0v-0.2c0.4,0,0.3-0.5,0.5-0.7c-0.2,0.2-1-0.4-0.5-0.8
		c0.1,0.1,0.2,0.3,0.2,0.5c0.2,0,0.4-0.1,0.5-0.2v0.7c0.4,0,0.3-0.4,0.5-0.5c0.2-0.2,0.4-0.2,0.7-0.4h-0.5c-0.3,0-0.4-0.1-0.4-0.2
		c0,0.3,0.1,0.4,0.4,0.4h-0.5c-0.2-0.4-0.5-0.4-0.8-0.5v-0.9c0,0.6-0.9,0.4-0.9,0h0.5v-0.1c0-0.1-0.1-0.1-0.2-0.1h-0.4
		c-0.2,0-0.5,0-0.7-0.2C118,33.4,118,33.5,117.8,33.7z M118.8,41.8h-0.7c0.2-0.4,0.2-0.5,0.2-0.8C118.5,41.4,118.7,41.7,118.8,41.8z
		 M118.7,51.5h0.2c0.2-0.2,0.2-0.5,0.2-0.7c-0.4,0-0.9,0.4-0.2,0.4C118.7,51.3,118.7,51.4,118.7,51.5z M118.7,35.6
		c0,0.3,0.6-0.1,0.4,0.5c0-0.2,0.3-0.5,0.5-0.7l-0.3,0.2c0-0.4,0-0.7-0.4-0.5C118.7,35.1,118.7,35.3,118.7,35.6z M119.2,41.5
		c0.2-0.7,0.3-0.2,0.5,0c-0.2,0-0.4,0.2-0.5,0.2c-0.1,0-0.2-0.1-0.2-0.3c0,0.1,0,0.2,0.1,0.2H119.2z M119.5,38.8
		c0,0.2,0.2,0.3,0.2,0.5l-0.4-0.2c0.2,0.2,0,0.7,0.4,0.4l0.2,0.2c0.2-0.2,0.3-0.4,0.3-0.5l-0.2,0.2l-0.3-0.9c0,0.1-0.1,0.2-0.1,0.3
		L119.5,38.8z M120.2,36.4c0,0.2-0.7,0.4-0.5-0.2C119.9,36.1,120.2,36,120.2,36.4z M121.2,33.8c-0.4,0-0.7-0.2-1-0.2
		c0,0.2,0.2,0.3,0.2,0.5c0.2,0,0.3-0.2,0.5-0.2c0,0.3,0.1,0.4,0.4,0.4V34h0.4v0.2h0.2v0.3h0.2l-0.2-0.2c0.2,0,0.2-0.2,0.3-0.2
		c-0.4-0.2-0.6-0.5-1-0.7C121.1,33.7,121.1,33.8,121.2,33.8z M120.7,35.9 M122.4,34.4v-0.2V34v-0.2l0.3-0.2v0.7l0.2-0.2
		c-0.2-0.2-0.2-0.4,0.2-0.5c-0.4,0-0.5-0.4-0.8-0.2C122.3,33.9,122.3,34.2,122.4,34.4z M122.7,35c0.2-0.2,0.5,0,0.9-0.2l0.5-0.5
		c-0.5,0.4-1,0.2-1.4,0.5V35z M123.9,27.4c0-0.2,0.2-0.2,0.2-0.3l0.4,0.2v-0.3l-0.5,0.2l0.4-0.4h-0.5c-0.2,0-0.4,0.2-0.5,0.2
		C123.4,27.1,123.7,27.2,123.9,27.4z M123.6,49.2l-0.2,0.2c0,0.2,0.4,0.2,0.5,0.2c0-0.2,0.1-0.5-0.3-0.7V49.2z M124.8,29.6l0.2,0.3
		c-0.2-0.1-0.2-0.2-0.4-0.2h-0.2l0.3,0.4c0.6-0.2,0.8-0.6,1.2-0.2l-0.2-0.2c0.3,0,0.4-0.1,0.5-0.2c-0.1,0.1-0.3,0.2-0.5,0.2
		c0-0.4-0.5-0.4-0.5,0C125.1,29.8,125,29.6,124.8,29.6z M125,33.2c-0.2,0-0.3,0.1-0.4,0.2c0.2,0.2,0,0.3,0,0.7h0.4l-0.2-0.2
		c0.2-0.2,0.4-0.2,0.5-0.3c-0.2,0-0.5,0-0.5,0.2c0-0.4,0.3-0.5,0.7-0.4v-0.2H125z M126.6,48.8c-0.1-0.1-0.3-0.2-0.5-0.2l-0.2,0.2
		h-0.2c-0.2,0-0.5,0.2-0.7,0.4c0.2,0,0.3-0.2,0.7-0.2c0,0.3,0.1,0.4,0.4,0.4V49C126.3,48.9,126.4,48.8,126.6,48.8
		c0.2-0.4,0.2-0.5,0.4-0.8c-0.2,0.2-0.5,0.2-0.7,0.2C126.7,48.1,126.6,48.4,126.6,48.8z M125.8,30.1 M129,35.2l0.2-0.2
		c0-0.4-0.2-0.5,0-0.8c-0.1,0.1-0.3,0.2-0.5,0.2C128.9,34.5,129,34.8,129,35.2z M135,39.5c-0.2-0.1-0.2-0.2-0.2-0.2h-0.1v0.2
		c0.2,0,1.1,0.7,0.2,0.3c0.2,0.2,0.3,0.3,0.3,0.7c-0.4,0.2-0.6,0.9-1.2,0.7c-0.2-0.4,0.2-0.5,0.4-0.8c-0.2,0-0.4,0.2-0.5,0.2v-0.3
		v0.3l-0.3,0.2c0-0.2,0-0.3-0.2-0.7c0,0.2-0.1,0.4-0.2,0.5l-0.3-0.2c0-0.6-0.6-0.1-1.2-0.3c-0.2,0.2-0.4,0.2-0.5,0.3
		c0.6,0,0.8,0,1.2-0.2l-0.2,0.3c0.2,0,0.2-0.2,0.3-0.3l0.2,0.3c-0.3,0.3,0.2,0.7-0.3,0.7c0.2-0.4-0.3-0.5-0.7-0.3l0.2-0.4h-0.7v0.2
		h0.4v0.2c-0.2,0-0.4-0.2-0.5-0.2l0.2,0.3h-0.3v-0.2c-0.2-0.2-0.5-0.2-0.7-0.4h-0.2v0.4h0.4c0.2,0.7-0.5,0-0.7,0.5
		c0.4,0.2,0.8,0.1,0.8,0.7l-0.2-0.1c-0.2-0.1-0.3-0.1-0.3-0.1v0.5c0.3-0.2,0.5-0.3,0.7-0.3l-0.2-0.2c0.2-0.4,0.5-0.3,0.7-0.2
		c0-0.1-0.1-0.3-0.3-0.5h0.5v0.2l0.2-0.2c0.2,0,0.3,0.2,0.5,0.2l-0.2-0.4h0.4c0,0.2,0.2,0.5,0.2,0.7c-0.1,0-0.2,0.1-0.3,0.1
		c-0.1,0.1-0.1,0.1-0.1,0.1h0.4c0.2-0.4,0.3-0.7,0.7-0.5c0-0.3-0.1-0.5-0.4-0.7c0.2,0,0.5,0,0.5-0.2c0,0.4,0.1,0.6,0.2,0.7l0.2-0.3
		c0.2,0.4,0.5,0.5,0.7,0.7c0.2,0.2,0.4,0.3,0.5,0.3c0.1,0.2,0.3,0.2,0.5,0.2c0-0.2,0-0.5,0.4-0.4c0.1-0.1,0.3-0.2,0.5-0.2
		c0-0.2-0.4-0.4-0.2-0.5c0.2,0,0.4,0.2,0.5,0.2v0.4l0.2,0.2v-0.2h0.5h-0.5c0.2-0.4,0-0.8-0.5-0.8c0.2,0,0.3-0.1,0.3-0.4H136
		c0-0.6-0.3-0.8-0.7-0.8l0.2-0.2c-0.3,0-0.4-0.1-0.5-0.2V39.5z M130.1,40c0.2-0.2,0.3-0.2,0.5-0.4h-0.3v-0.2h0.3
		c-0.3-0.2-0.5-0.4-0.5-0.7c-0.2,0.4-0.2,0.5-0.2,0.7C129.9,39.6,130.1,39.8,130.1,40z M130.6,35c-0.1,0-0.1-0.1-0.1-0.2
		c-0.2,0.4-0.2,0.5-0.3,0.7v0.2c0-0.1,0.1-0.2,0.3-0.2v0.2v-0.5c0.4-0.2,0.9-0.2,0.5,0.4c0.4-0.2,0.5,0,0.8,0.2
		c0-0.2,0.1-0.4,0.2-0.5c-0.2,0-0.5,0-0.7,0.2c0-0.2,0-0.2,0.1-0.3l0.1-0.1v-0.2c-0.2,0-0.4,0.2-0.5,0.2v-0.3
		c-0.2,0.2-0.2,0.3-0.3,0.3H130.6z M131.4,42c0.4,0.5-0.5,0.7-0.7,0.2v0.3c0.4,0.2,0.5,0.2,0.7,0.2c0,0.2,0,0.3-0.2,0.5
		c-0.1-0.2-0.3-0.3-0.5-0.5c0,0.2,0.2,0.5,0.2,0.7h-0.7c0,0.6,0.3,0.8,0.7,1v0.5c0.1,0,0.3-0.1,0.5-0.3c0.5,0.2,0,0.5,0,0.7
		c0.1-0.2,0.2-0.2,0.3,0c0.2,0,0.2-0.2,0.4-0.2c-0.6-0.2-0.5-0.5-0.7-0.8c0.2,0,0.5,0.2,0.7,0.2v-0.3c0.2,0.2,0.4,0.3,0.7,0.3
		l-0.5,0.2c0.4,0,0.6,0.2,1,0.2v-0.7c0.4,0,0.7,0,1,0.2c-0.2,0-0.2-0.2-0.4-0.2h-0.8c0-0.1,0.1-0.2,0.2-0.3l0.2-0.1
		c0-0.2-0.2-0.2-0.2-0.3c-0.2,0.4-0.5,0.5-0.7,0.7v-0.2c-0.4,0-0.5,0.2-0.8,0.2v-0.5c0,0.1-0.1,0.2-0.1,0.2h-0.1
		c0-0.4-0.4-0.3-0.5-0.5h0.4c0-0.4-0.1-0.7,0.3-0.9V43h0.1c0.1,0,0.2-0.1,0.3-0.2c0-0.2,0.2-0.4,0.2-0.5h-0.5
		c-0.1,0-0.2-0.2-0.2-0.7c-0.2,0.2-0.4,0.2-0.4,0.4H131.4z M130.4,40.5c0.4,0.4,0.4-0.3,0-0.2V40.5z M131.1,46.1
		c0.2,0,0.4-0.2,0.5-0.2c-0.4-0.2-0.5-0.5-0.7-0.7C130.9,45.6,130.9,45.7,131.1,46.1z M131.6,47.8c0,0.5-0.5,0.3-0.7,0.7
		c0.4-0.2,0.8-0.2,0.8-0.7H131.6z M131.7,29.1h-0.3v-0.4v0.2c-0.2,0.2-0.4,0.2-0.4,0.3c0.4,0.2,0.7,0.4,1,0.4h0.2
		c0-0.4-0.4-0.7-0.2-0.9c-0.2-0.2-0.4-0.2-0.5-0.3C131.6,28.6,131.7,28.9,131.7,29.1z M131.7,44.2h0.2v-0.2h-0.2V44.2z M132.6,45.6
		c0.3,0,0.4,0.1,0.5,0.2v-0.2h-0.3v-0.3c0.3,0,0.5-0.1,0.7-0.2c-0.4,0-0.9,0.4-1-0.2c-0.6,0.2,0.2,0.4,0.4,0.4
		C132.8,45.4,132.6,45.4,132.6,45.6z M132.8,44.1c-0.4,0.2,0.5,0.4,0.3,0H132.8z M133.1,42.2c0.2-0.2,0.4-0.2,0.5-0.4
		c0.2,0.2,0.3,0.4,0.7,0.5v-0.2h-0.2v-0.4c-0.4,0-0.5-0.2-0.7-0.3c-0.2,0-0.5,0-0.7,0.2C132.6,41.8,132.9,42,133.1,42.2z
		 M132.9,37.8h0.5l-0.2-0.2c0-0.4-0.2-0.5-0.3-0.7C132.6,37.3,132.9,37.4,132.9,37.8z M133.6,50l-0.2,0.1c-0.1,0.1-0.2,0.1-0.3,0.1
		c0.4,0,0.5,0,0.8-0.2c0.2,0,0.7,0.2,0.7-0.4c-0.4,0.2-0.5,0.2-0.7,0.2c-0.1-0.1-0.1-0.1,0-0.1c0-0.1,0.1-0.1,0.2-0.3
		c-0.2,0.1-0.3,0.2-0.5,0.2V50z M134.6,42.4l-0.1-0.1c-0.2,0.6-0.3,0.2-0.7,0v0.4h0.2v0.2c-0.2,0-0.3,0.2-0.5,0.2v0.2
		c0.2,0,0.5-0.4,0.7,0c-0.3,0.2-0.4,0.3-0.4,0.5c0.3,0,0.4-0.1,0.4-0.3l0.1,0.1c0.1,0.1,0.1,0.1,0.2,0.1c0.2-0.4,0.5-0.3,0.7-0.3
		c0.1,0,0.1-0.1,0.2-0.1c0-0.1,0-0.1,0.1-0.1H135c0-0.1,0-0.2,0.1-0.2l0.1-0.1l0.1,0.1l0.3,0.2l-0.2-0.5l0.3-0.2
		c0.2,0.4,0.2,0.5,0.4,0.7v0.4V43h0.3c-0.4,0-0.7-0.3-0.5-0.7h-0.1c-0.1,0-0.2-0.1-0.2-0.2c-0.2,0.2-0.4,0.3-0.5,0.5
		c0-0.2,0-0.3,0.1-0.3l0.1-0.2c-0.2,0-0.3,0.1-0.3,0.3C134.7,42.5,134.6,42.5,134.6,42.4z M134.1,30.3 M134.3,43 M134.7,34.4v0.2
		h0.2l-0.2,0.2c0.5,0.3-0.7,1,0.2,1v0.4h0.2c0,0.4,0,0.5,0.2,0.8c0.4-0.2,0.5-0.5,0.9-0.5c-0.5-0.2,0.2-0.9-0.2-1.2
		c-0.4-0.2-0.2-0.3-0.2-0.7c-0.1,0.2-0.3,0.2-0.7,0.2L134.7,34.4z M134.7,48.3c0,0.2,0.7,0.2,0.5-0.2c-0.2,0-0.3-0.3-0.5-0.3V48.3z
		 M135,41.7c-0.4,0.2-0.3-0.3-0.2-0.5C135.2,41,135,41.5,135,41.7z M135,46.9c-0.2,0.2-0.3,0.7,0.2,0.7c-0.2,0.4,0.7,0.6,0.7,0
		l-0.5,0.2c0.2-0.3,0.3-0.5,0.3-0.5c-0.2,0.2-0.3,0.3-0.7,0.2c0.4-0.2,0.2-0.7-0.2-0.7L135,46.9z M134.8,50.5V51
		c0.1,0,0.2,0,0.2-0.1l0.1-0.1c0-0.2-0.1-0.4-0.2-0.5L134.8,50.5z M135,45.4v0.3V45.4z M135,45.9 M135.8,40.8
		c-0.2,0.2-0.2,0.9-0.7,0.5l0.1-0.1c0.1-0.1,0.1-0.2,0.1-0.3c-0.2,0-0.6,0.1-0.2-0.3c0.2-0.2,0.2-0.7,0.2-1
		C135.7,40,135.8,40.3,135.8,40.8z M136,44.4c0-0.2-0.2-0.3-0.2-0.5c-0.5,0-0.2,0.5-0.2,0.7C135.8,44.6,135.8,44.4,136,44.4l0.3,0.4
		v-0.5c0.2-0.2,0.5,0,0.5,0.2v-0.5c-0.2,0.2-0.3,0.2-0.7,0.3c0-0.4,0.5-0.5,0.5-0.8h0.3v0.2c0.2-0.2,0.4-0.2,0.4-0.3
		c-0.3,0.2-0.5,0.2-0.9-0.2c-0.2,0.4-0.3,0.5-0.3,0.9C136.3,44,136.2,44.2,136,44.4z M136.5,48l0.2-0.2c0.2-0.6-0.5-0.2-0.5,0.2
		H136.5z M138.4,43.4c0,0.2-0.4,0.5,0,0.5c0.2-0.2,0.2-0.4,0.4-0.5l-0.1-0.1c-0.1-0.1-0.1-0.2-0.1-0.3c-0.1,0.1-0.1,0.1-0.2,0.1
		c-0.1,0.1-0.2,0.1-0.2,0.2L138.4,43.4z M138.5,55.1l0.2,0.1c0.1,0.1,0.2,0.1,0.3,0.1c0,0.1-0.1,0.2-0.1,0.2
		c-0.1,0.1-0.1,0.1-0.1,0.1h0.4c0-0.2-0.2-0.3-0.4-0.7c-0.1,0-0.2,0.1-0.3,0.1L138.5,55.1z M139.9,49.8v0.7c-0.2,0-0.4-0.2-0.5-0.2
		v0.5c0.1,0,0.3-0.1,0.5-0.3v0.2c0-0.4,0-0.5,0.2-0.8H139.9z M140.8,53.7c0.1,0,0.3,0.1,0.5,0.3c-0.6,0.2-1,0-1.6,0
		c0.2,0.2,0.7,0.2,0.9,0.5c0.4-0.2,0.7,0.5,1.1,0.3c-0.4-0.2-0.6-0.3-1-0.7h0.7c-0.4-0.4-0.2-0.5,0.2-0.7c-0.2,0-0.4-0.1-0.5-0.2
		C140.9,53.5,140.9,53.7,140.8,53.7z M140.1,48.3 M140.6,55.3h-0.4v-0.4h-0.2c0,0.2,0.1,0.3,0.3,0.5c0.2-0.1,0.4-0.2,0.7-0.2v0.2
		c0-0.2-0.2-0.5-0.2-0.7c-0.1,0.1-0.3,0.2-0.5,0.2L140.6,55.3z M140.2,50.7h0.4c0.2-0.2,0-0.5-0.2-0.5
		C140.3,50.3,140.2,50.4,140.2,50.7z M141.3,51.5 M141.7,56.5c-0.1,0-0.2,0.1-0.2,0.1c-0.1,0.1-0.1,0.1-0.1,0.1
		c0.2,0,0.3,0.2,0.5,0.2c-0.2,0.2-0.2,0.4,0,0.5c0.2,0,0.3-0.3,0.3-0.5h0.2l0.2-0.2H142v-0.3L141.7,56.5z M141.6,52.4 M142.1,53.9"
		/>
	<path class="st0" d="M145.3,21.4h9.5v35h-0.3v3.1c-0.4,0-1.2,0.3-1-0.4c-0.4,0-0.7,0.2-0.8-0.2c-0.7,0-1.2-0.2-1.9,0l-0.2,0.2h-0.7
		c-0.2,0.4-0.5,0.5-0.8,0.5v-4.2h-3.8V21.4z M150,32.6c-0.5,0.5-1.4,0-1.7,0.7c-0.4,0.2-0.8,0.1-1.2-0.4l-0.2,0.4v-0.4
		c-0.2,0.2-0.4,0.2-0.5,0.4c0.2-0.6-0.2-0.5-0.5-0.7c-0.2,0.4-0.1,0.7,0.4,0.8h-0.5c0.2,0.5,0.8,0,0.8,0.5l-0.2,0.2H146
		c0.4,0.4,0.7,0.4,1,0.5c-0.4,0.4,0.3,0.5,0.3,0.8c-0.4,0-0.5-0.2-0.7-0.2c0.1,0.1,0.2,0.3,0.2,0.5l0.2-0.2c0.4-0.2,1.1-0.2,1.1,0.5
		c-0.3,0-0.2,0.9-0.5,0.4c-0.6,0-0.5,0.5-0.5,0.8c-0.2,0-0.8,0.4-0.2,0.2c0,0.3,0.1,0.4,0.2,0.5c-0.2-0.6,0.5-0.5,0.8-0.8
		c-0.2,0.2-0.2,0.5-0.2,0.7c0-0.4,0.2-0.5,0.2-0.7c0.2,0.2,0.4,0.3,0.4,0.5H148l0.2,0.2c0-0.2,0.4-0.2,0.5-0.2h-0.3
		c0-0.2,0-0.2,0.1-0.3l0.1-0.1c-0.2-0.4-0.4-0.5,0-0.8c0-0.2,0-0.5,0.2-0.7c0.3,0,0.4,0.1,0.4,0.3c0,0.2-0.2,0.3-0.2,0.7v-0.2h0.2
		c0.2,0,0.3-0.1,0.3-0.2c0-0.2-0.2-0.5-0.2-0.7c-0.2-0.3-0.5-0.4-0.8-0.4l0.3,0.4h-0.3v-0.5c-0.2,0-0.2,0-0.2-0.1
		c-0.1-0.1-0.1-0.1,0-0.1v-0.4l0.2-0.2v0.5c0-0.2,0.1-0.2,0.2-0.2h0.2c0.1,0,0.2-0.1,0.2-0.2h-0.2v-0.5c0.1,0.2,0.2,0.3,0.4,0.4
		c0,0.3,0.1,0.5,0.3,0.7c-0.2-0.2-0.3-0.2-0.5,0c0.4,0.2,0.5,0.3,0.9,0.5l-0.2,0.2c0,0.1,0.1,0.2,0.2,0.2h0.2l0.2,0.2
		c0.2,0,0.5,0,0.7,0.2c0.2,0,0.2-0.1,0.2-0.4c0.2,0.6,0.5,0.2,0.8,0.2v0.2h0.3c0.2,0,0.2-0.2,0.4-0.2h-0.8c0-0.6,0.6-0.2,1-0.2
		c-0.3-0.2-0.5-0.3-0.7-0.5c0.2,0,0.5,0,0.7,0.2v-0.2h-0.2c-0.2-0.4-0.2-0.7,0-0.8c-0.4-0.2-0.5-0.7-0.8-0.8v-0.2
		c0,0.2-0.4,0.5,0,0.7c0.2,0.4-0.2,0.7-0.4,1.1c0.2-0.2,0.4-0.3,0.7-0.3c-0.2,0.4-0.2,0.8-0.5,1v-0.5h-0.2c0-0.2-0.2-0.2-0.2-0.4V36
		h-0.2c-0.2-0.8-1-1.2-1.7-1.4c0.1-0.1,0.2-0.3,0.2-0.5h0.4c0.2,0,0.4-0.1,0.5-0.2v0.5c-0.1-0.1-0.1-0.1,0-0.1
		c0-0.1,0.1-0.1,0.2-0.3h0.1c0.1,0,0.1,0.1,0.1,0.2c-0.2-0.2,0-0.3,0-0.5c-0.5,0-0.7,0.1-0.8,0.2c-0.2-0.4,0-0.5,0-0.7
		c0.2,0,0.2,0.2,0.3,0.2c0.2,0,0.5,0,0.9,0.2c-0.4-0.2-0.7-0.3-0.9-0.5c0.4-0.4,0.8-0.4,1.2,0c0,0.2,0.1,0.3,0.4,0.5
		c0.2-0.2,0.2-0.7-0.2-0.5c-0.4-0.4-0.3-0.8-0.7-1.2c-0.2,0-0.2,0.2-0.3,0.2v-0.4c-0.2,0.2-0.3,0.2-0.4,0.2V32.6z M146,46.7
		c0.2,0,0.5,0,0.5-0.2s-0.2-0.3-0.2-0.5c0.4,0.2,0.3,0.7,0.8,0.7c0.2,0.2,0.2,0.5,0.5,0.5c-0.2-0.2-0.4-0.5,0-0.7
		c0.2,0,0.4,0.1,0.7,0.4c-0.2-0.2-0.5-0.3-0.4-0.7h0.2c0.1,0,0.1-0.1-0.1-0.1l-0.2-0.1v0.5c-0.6-0.4-1.4-0.7-1.2-1.4
		c-0.2,0.2-0.5,0.2-0.7,0.2C146,45.9,145.8,46.3,146,46.7z M146.1,49.1c0.2-0.4,0-0.4-0.2-0.4C145.8,49.1,146,49.1,146.1,49.1z
		 M146.5,26.4c0-0.2-0.2-0.3-0.5-0.3c-0.1,0.1-0.1,0.1-0.1,0.1c0,0.2,0,0.2,0.1,0.2C146.1,26.4,146.3,26.7,146.5,26.4z M146,22.1
		c0,0.2,0.1,0.3,0.4,0.5H146l0.1,0.1c0.1,0.1,0.2,0.1,0.3,0.1c-0.2,0.2-0.2,0.5-0.4,0.5v0.8c0.2-0.2,0.5-0.2,0.7,0.2h-0.5
		c-0.2,0.4-0.4,1,0,1.4c0-0.4,0-0.8-0.2-1.2l0.4,0.4c0.2-0.4,0.4-0.5,0.7-0.5c0.2,0.2,0.1,0.3-0.2,0.5l0.4-0.4l-0.2,0.5
		c0-0.2,0.2-0.2,0.3-0.3c-0.2-0.2-0.2-0.4-0.3-0.5c0.4,0.2,0.8,0,1.1-0.2c0.2-0.2,0.5-0.1,0.4,0.3c-0.3,0-0.4,0.1-0.5,0.2
		c-0.2,0-0.3-0.2-0.5-0.2c0.1,0,0.2,0.1,0.3,0.1c0.1,0.1,0.1,0.1,0.1,0.1v0.4c0.2-0.2,0.5-0.4,0.7-0.5c0,0.4,0.2,0.7,0.5,0.5
		c0,0.1,0,0.2,0.1,0.2l0.1,0.1c-0.2,0-0.5,0.2-0.7,0.2c0.5,0.1-0.4,0.9-0.5,0.3l-0.2,0.4h0.3c0.2,0.1,0.3,0.3,0.5,0.5
		c0-0.4,0-0.5,0.4-0.5c0.4,0,0.3,0.3,0.3,0.7c0.5-0.5-0.3-1.4-0.7-0.7c0-0.4,0-0.5,0.4-0.7c0.1-0.2,0.3-0.3,0.5-0.5
		c0.4,0.6,0.6-0.4,1-0.4c-0.2,0.2-0.4,0.4-0.4,0.5l0.2,0.1c0.1,0.1,0.2,0.1,0.3,0.1c-0.1,0.2-0.3,0.2-0.5,0.2v0.2h-0.3
		c0,0.4,0.2,0.5,0.3,0.8h0.2c-0.2-0.2-0.2-0.3-0.4-0.5c0.4,0,0.5,0.2,0.7,0.4c0,0.2-0.2,0.3-0.2,0.5l-0.2-0.2V27l-0.3-0.2l-0.1-0.1
		c-0.3,0.2-0.7,0.2-1.2,0c0.2,0.3,0.4,0.3,0.5,0.2v0.8c0-0.2-0.3-0.2-0.5-0.3c0.4,0.6,0.9,0.5,1.4,0.7c-0.2-0.4-0.5-0.5-0.5-0.9
		c0.4,0,0.7,0,0.8,0.2c0.4-0.2,0.5-0.5,0.2-0.7l0.4-0.4l-0.4,0.2V26l-0.1-0.1c-0.1-0.1-0.1-0.1-0.1-0.3h0.4c0,0.6,0.3,0.4,0.5,0.5
		c-0.2-0.2-0.3-0.4-0.5-0.4l0.5-0.3v0.3v-0.5c-0.2,0-0.3-0.2-0.5-0.2c0-0.2-0.1-0.4-0.2-0.5c0.6-0.2,0.6-0.7,1.2-0.9v0.9
		c0,0.2,0,0.5-0.2,0.5c-0.2-0.2-0.2-0.3-0.4-0.5l-0.2-0.1c-0.2-0.1-0.3-0.1-0.3-0.1c0.4,0.4,0.7,0.7,0.8,1c0.2-0.2,0.3-0.4,0.3-0.7
		c0,0.2,0.2,0.5,0.2,0.7c0.1,0,0.2,0,0.2-0.1v-0.1c-0.4-0.4-0.4-1-0.4-1.6h0.4v-0.2l0.2,0.1c0.1,0.1,0.2,0.1,0.4,0.1
		c-0.2-0.2-0.2-0.3-0.4-0.3c-0.4,0-0.8,0.3-1-0.2c-0.2,0-0.4,0.2-0.5,0.2c-0.2,0.2-0.4,0.3-0.5,0.5c-0.2-0.2-0.2-0.4-0.4-0.5
		c-0.2,0.2-0.3,0.2-0.3,0.3c-0.1,0-0.2-0.1-0.2-0.3c-0.4-0.2-0.5,0.3-0.9,0.2c-0.2-0.2,0.2-0.3,0.2-0.5c-0.4-0.5-0.9,0.4-1-0.3
		c0-0.4-0.5-0.3-0.7-0.7H146z M146,35.1v0.3c0.1,0,0.2,0.1,0.4,0.2c0-0.2-0.2-0.5-0.2-0.7c0.2,0,0.3-0.2,0.7-0.2
		c-0.4-0.2-0.7-0.2-0.8-0.2V35.1z M146,38.5V40h0.5c0-0.4,0.1-0.6,0.2-0.7h-0.5v-0.2c0.2-0.2,0.5-0.2,0.7-0.5
		c-0.2,0-0.5,0.2-0.7,0.2l0.1-0.1c0.1-0.1,0.1-0.2,0.1-0.2H146z M146.3,23.4 M146.8,22.4c0,0.2-0.2,0.5-0.2,0.7h0.7l-0.2,0.4
		c0.2,0,0.3-0.2,0.3-0.5v0.5h0.2c0.2-0.6,0.9,0.2,0.3,0.3c-0.2-0.2-0.5-0.2-0.8,0c-0.2-0.2-0.5-0.3-0.7-0.5
		C146.5,22.9,146.1,22.4,146.8,22.4z M146.8,24.1c-0.2,0-0.3-0.1-0.3-0.4C146.6,23.6,147,23.7,146.8,24.1z M147.2,43.1
		c-0.4,0-0.5,0.2-0.7,0.3v0.1c0,0.2,0.1,0.2,0.2,0.3h0.5c-0.2-0.2-0.4-0.4-0.5-0.4c0.4-0.2,0.5-0.3,0.8-0.2l-0.2-0.3
		c0.3,0,0.4,0.1,0.5,0.2c-0.2-0.4-0.5-0.4-0.7-0.5V43.1z M147.2,39.2c0.2,0.4-0.2,0.5-0.5,0.3c0.2,0.4,0.3,0.4,0.7,0.4
		c-0.1,0.1-0.3,0.2-0.5,0.2v0.2h0.7v0.4c0.2-0.2,0.5,0,0.7-0.4c-0.4,0.4-0.7-0.1-0.5-0.5h0.3c-0.1-0.2-0.3-0.2-0.7-0.2v-0.3h0.4
		c-0.2-0.2-0.4-0.4-0.5-0.5c0.2,0,0.3-0.1,0.3-0.3c-0.2,0.2-0.5,0.2-0.8,0C147,38.5,147.2,38.8,147.2,39.2z M147.5,48.4h-0.3
		c0.1,0.1,0.1,0.2,0.2,0.2h0.1v0.5c-0.2-0.2-0.3-0.2-0.5-0.4c0,0.2,0.1,0.3,0.3,0.5l0.2,0.2c-0.4-0.2-0.7-0.4-0.8,0
		c0.2,0.2,0.5,0.3,0.8,0.2h0.1c0.1,0,0.1,0.1,0.3,0.2v-0.3v0.3c0.4-0.2,0.7-0.3,0.8-0.5c-0.2,0-0.4-0.1-0.5-0.2
		c0.2-0.2,0.4-0.2,0.7,0c-0.2-0.4-0.2-0.5-0.2-0.7h-0.2V48l-0.2,0.2c0-0.6-0.5-0.4-0.7-0.4C148.1,48,147.7,48.2,147.5,48.4z
		 M146.8,54c0.2-0.2,0-0.4-0.2-0.2C146.6,54.1,146.7,54.1,146.8,54z M147.2,44.6c0,0.4,0.3,0.2,0.5,0.2c0-0.4,0-0.8-0.2-1
		C147.5,44.2,147.3,44.3,147.2,44.6z M147.5,34.9c-0.2,0.2-0.3-0.3-0.2-0.5C147.5,34.3,147.7,34.8,147.5,34.9z M147.8,37.3h-0.4
		c-0.5-0.2,0.2-0.3,0.2-0.5C148.1,36.8,147.8,37.2,147.8,37.3z M147.5,22.1c0.4,0.2,0.7,0.5,1,0.7c0.3,0,0.5,0.1,0.7,0.3v-0.5
		l0.2,0.2c0.2-0.2,0.2-0.5,0.4-0.7H147.5z M148.2,25.3c-0.2-0.4-0.5-0.4-0.7-0.4c0.2,0.2,0.4,0.2,0.5,0.4c-0.2,0.2-0.2,0.3-0.3,0.3
		c0.4-0.2,0.6-0.3,1-0.7c-0.2,0-0.4-0.1-0.5-0.2V25.3z M147.8,47.9c0.2,0.2,0.5,0.4,0.7,0.5c0,0.2-0.4,0.3-0.5,0.5
		c-0.4-0.2-0.7-0.5,0-0.7L147.8,47.9z M150.6,38.8c-0.2,0-0.5,0-0.7,0.2v-0.4c-0.4-0.6-0.8,0.4-1.4,0c0,0.6-0.5,0.2-0.7,0.2l0.3,0.4
		c0.4,0.2,0.7,0.3,1,0.3v-0.3h0.5c-0.2,0.1-0.2,0.3-0.2,0.5c-0.5,0-0.8,0.2-1.1,0.2c0,0.2,0,0.5-0.2,0.7c0.4,0.2,0.8,0,1.2,0v0.2
		H149c0.2,0.2,0.5,0.2,0.7,0.4c0-0.2,0.2-0.4,0.2-0.5l-0.2-0.2l0.2-0.2c0,0.2,0.2,0.5,0.2,0.7c-0.2,0.2-0.2,0.3-0.3,0.3
		c0.4,0,0.6,0,1-0.2c-0.1-0.1-0.2-0.3-0.2-0.5h0.8c-0.2-0.6-0.8-0.5-1-0.8c0.2-0.3,0.4-0.4,0.5-0.4c0,0.1,0,0.1,0.1,0.1
		s0.1,0.2,0.1,0.3v-0.4h0.3c-0.1-0.1-0.2-0.3-0.2-0.5c0.2,0,0.5,0.4,0.5,0c-0.3,0-0.5-0.2-0.7-0.5c0,0.2-0.2,0.3-0.2,0.5
		c0-0.2-0.2-0.5-0.2-0.7C150.7,38.4,150.7,38.5,150.6,38.8z M148.8,28.5c0.2-0.4,0.5-0.5,0.4-0.7c-0.4,0.2-0.7,0.3-1,0.7
		C148.5,28.4,148.7,28.4,148.8,28.5z M149.5,48.7l-0.2,0.2v0.2c0.2,0,0.5-0.2,0.5,0.2c-0.2-0.2-0.5-0.2-0.7-0.2
		c-0.4,0.2-0.5,0.4-0.7,0.5h0.5c0.5,0.2,0.8,0,1.4,0l-0.2-0.2l-0.1-0.2c-0.1-0.2-0.2-0.2-0.2-0.2c0.2-0.2,0.3-0.4,0.5-0.4
		c-0.1,0-0.2,0-0.2-0.1c-0.2-0.1-0.3-0.1-0.3-0.1h0.3V48c0.2,0,0.4-0.2,0.5-0.2c-0.4,0-0.7-0.1-0.7,0.5
		C150,48.4,149.8,48.5,149.5,48.7z M149,23.9l0.2,0.2h0.5c0.2-0.2,0.3-0.2,0.7-0.4c0,0.2-0.2,0.5-0.2,0.7c-0.2,0-0.5,0-0.8-0.2
		c0,0.4-0.3,0.5-0.7,0.4C148.7,24.3,148.5,23.7,149,23.9z M149.2,39.2c-0.2,0.2-0.7-0.2-0.5-0.4C148.8,38.7,149.4,38.8,149.2,39.2z
		 M149.5,45.7h-0.3c0,0.2-0.2,0.2-0.2,0.3c0.2,0,0.5-0.2,0.7-0.2l0.1,0.1c0.1,0.1,0.1,0.1,0.2,0.1c-0.2-0.2-0.2-0.3-0.3-0.7
		L149.5,45.7z M149.9,45c-0.2-0.2-0.9-0.2-0.5,0.2C149.5,45.3,149.9,45.2,149.9,45z M149.7,25.1c-0.2,0.2-0.5,0.5-0.4,0.5
		C149.5,25.6,149.9,25.3,149.7,25.1z M149.7,27.8c-0.4,0-0.4-0.5-0.2-0.7C149.7,27.1,149.9,27.5,149.7,27.8z M149.5,36.8
		c0.1,0.1,0.1,0.1,0.1,0.1c0.1,0.1,0.1,0,0.3,0.2v-0.2c-0.2,0-0.2-0.2-0.4-0.2V36.8z M150,58.4v-0.2c-0.2-0.2-0.3-0.2-0.3,0.2H150z
		 M149.9,25.1 M149.9,27h0.2v0.2h-0.2V27z M149.9,39.1h0.3v0.2h-0.3V39.1z M150,35.8 M150,37.9c0.2,0,0.2,0,0.3-0.1l0.1-0.1
		c-0.4,0.2-0.6-0.6,0-0.4V37c0.2,0.3,0.3,0.3,0.5,0c0.2,0,0.3,0.2,0.3-0.2c-0.2-0.4-0.7-0.2-1-0.3c-0.1,0.1-0.2,0.3-0.2,0.5V37.9z
		 M150.2,45.7c0.2,0.4,0.2,0.6,0.4,1v-0.5c0-0.2-0.2-0.5-0.2-0.7L150.2,45.7z M150.6,32.6c-0.2,0-0.4,0-0.2-0.4
		C150.6,32.2,150.6,32.2,150.6,32.6z M150.7,27.1c-0.4,0-0.3,0.1-0.3-0.3C150.8,26.7,150.9,26.8,150.7,27.1z M150.9,39.2
		c-0.2,0.2-0.4,0.2-0.5,0C150.6,39.1,150.7,39.1,150.9,39.2z M150.9,52.8v-0.4h0.2v-0.2c0.1,0,0.1,0,0.1-0.1
		c0.1-0.1,0.2-0.1,0.2-0.1h-0.3l-0.2,0.3c0-0.2-0.2-0.3-0.2-0.5c-0.2,0.3-0.3,0.5-0.3,0.5C150.6,52.6,150.7,52.8,150.9,52.8z
		 M150.9,31.4c0.2-0.2,0-0.4-0.2-0.4C150.6,31.2,150.7,31.5,150.9,31.4z M152.3,50.4c-0.4-0.2-0.9,0-0.4,0.4
		C152.1,50.8,152.1,50.6,152.3,50.4z M151.9,49.7c-0.2,0-0.3,0-0.2,0.4C151.9,50.1,151.9,50,151.9,49.7z M152.4,22.1v0.3
		c-0.1,0-0.1,0-0.1-0.1c-0.1-0.1-0.2-0.1-0.3-0.1v0.5c-0.2,0-0.3,0.1-0.3,0.3c0.2,0,0.5,0.2,0.8,0.2c0.2-0.4,0.1-0.8-0.2-1
		c0.4,0,0.6-0.1,0.7-0.2H152.4z M153.6,56.5h0.2c-0.4-0.2-0.2-0.5-0.2-0.7c-0.2,0-0.2,0.2-0.4,0.2C153.4,56.2,153.6,56.4,153.6,56.5
		z M153.8,29.9c-0.2,0-0.2,0.5,0,0.5V29.9z M172.5,21.4h9.5v28.5v2.9h-2.9v0.7h-0.2v-2.6c-0.5,0-0.8-0.2-1.4-0.2v-0.2
		c-0.2,0-0.3,0.2-0.5,0.4v-0.4l-0.1,0.1c-0.1,0.1-0.1,0.2-0.1,0.3h-0.5c0,1.7-0.2,3.5-0.2,5.3c-0.2,0-0.3,0-0.7,0.2v-2.2
		c-0.4-0.6,0.1-1.1-0.3-1.7c-0.2-0.7,0-1.5,0-2.2c-0.6-0.4-0.4-1-0.4-1.6c-0.6-0.2-1-0.2-1.7-0.2c0,0.6,0.2,1.2-0.4,1.6
		c-0.2,0.8-0.2,1.8-0.2,2.7c-0.2,0-0.4,0.2-0.5,0.2v-1c-1.2,0-2.4,0.2-3.4,0.2v1.1c-0.6,0-0.9-0.2-1.4-0.2c-0.2,0.1-0.4,0.2-0.9,0.2
		c-3.5-5.1-7.3-10.2-10.8-15.4V22.5c4,5.5,7.9,11,11.9,16.7c1.7,2.2,3.2,4.5,5,6.8V32.6V21.4z M156.3,30.4c0.2,0,0.3-0.2,0.5-0.2V30
		c-0.2-0.1-0.3-0.2-0.5-0.2V30.4z M157,31.2v0.2h0.1c0.1,0,0.1-0.1,0.2-0.2c-0.2-0.2-0.3-0.6-0.7-0.2v-0.5c-0.2,0.2-0.2,0.3-0.3,0.7
		H157z M157.9,31.4h0.2V31h0.4c0-0.2-0.2-0.2-0.2-0.3c-0.2,0.1-0.3,0.2-0.5,0.2C157.9,31,157.9,31,157.9,31.4z M159.2,35.1l-0.1-0.1
		c-0.1-0.1-0.1-0.1-0.1-0.3c-0.2,0-0.4,0.2-0.5,0.2c0.7-0.2,0.5,0.7,0.7,1l-0.1-0.1l-0.2-0.3c-0.2,0-0.2,0.2-0.4,0.2v-0.4h-0.2
		c0,0.2,0,0.2,0.1,0.3l0.1,0.1h-0.3c0,0.2,0.2,0.2,0.3,0.3c0-0.2,0.2-0.2,0.4-0.3c0.2,0.2,0.3,0.5,0.7,0.3l-0.2,0.2h0.3v0.3v-0.3
		c0.2-0.2,0.4-0.2,0.5-0.4c-0.2,0-0.4-0.2-0.5-0.2c0-0.2-0.2-0.5-0.2-0.7c0.4,0.2,0.5,0.3,0.7,0.3c-0.2-0.2-0.4-0.5-0.5-0.8
		c0,0.2-0.2,0.3-0.2,0.5H159.2z M158.7,39.7c-0.3,0.2-0.5,0.3-0.5,0.5c0.2,0.3,0.3,0.5,0.3,0.5v-0.3c0.4,0,0.5,0.2,0.5,0.5
		c0.2-0.2,0.4-0.4,0.5-0.5v0.7h0.2c0-0.4-0.1-0.6-0.2-0.7c0.2-0.2,0.2-0.4,0.3-0.4c0.2-0.6-0.5-0.5-0.5-1c-0.6-0.2-1,0.1-1,0.7
		H158.7z M158.9,36.5c0.2-0.2-0.2-0.4-0.4-0.2C158.4,36.5,158.7,36.7,158.9,36.5z M159.7,37.2c0.2,0,0.5-0.2,0.5,0.2v-0.2l0.2-0.2
		h-0.2l-0.2-0.2c-0.4,0.2-0.7,0-0.9-0.2C159.4,36.8,159.6,37,159.7,37.2z M159.4,40 M161.1,40.2c-0.4-0.2-0.5,0.2-0.5,0.5h0.7v-0.5
		c0.2,0.2,0.5,0.4,0.7,0.5c0.2-0.1,0.4-0.2,0.7-0.2c0-0.1-0.1-0.2-0.1-0.2h-0.1c-0.3-0.4-0.4,0.3-0.5,0c0-0.6,0.9-0.7,0.9,0
		c0.2-0.2,0.3-0.2,0.3-0.4c-0.2,0-0.3-0.2-0.5-0.2c0-0.3-0.1-0.4-0.2-0.4c-0.2,0.2-0.5,0.3-0.7,0.7
		C161.6,39.8,161.1,39.8,161.1,40.2z M161.2,33.9h-0.3v0.3l-0.2-0.2c0,0.2,0.2,0.3,0.2,0.7c0-0.1,0-0.1,0.1-0.1s0.1-0.2,0.1-0.2
		c0.2,0.4,0.4,0.2,0.5,0.2c0.4,0.2,0.6,0.5,1.2,0.3c-0.2-0.3-0.4-0.3-0.5,0c-0.6-0.4,0.3-1.1,0.7-0.8c0-0.3-0.2-0.5-0.5-0.7
		c-0.2,0.2-0.3,0.4-0.7,0.5v-0.7c-0.2,0.2-0.4,0.3-0.5,0.3V33.9z M162.1,39.2c-0.2-0.4-0.9,0.2-0.7,0.5
		C161.6,39.7,161.9,39.4,162.1,39.2z M161.6,41.2h0.5h0.2c-0.4-0.2-0.5-0.3-0.8-0.7C161.6,40.9,161.6,41.1,161.6,41.2z M161.6,32.6
		v0.5c0.2,0,0.5,0.2,0.3,0.3l0.1,0.1c0.1,0.1,0.1,0.1,0.3,0.1c0-0.4,0-0.7-0.2-0.8l-0.1,0.1c-0.1,0.1-0.1,0.1-0.3,0.1v-0.5
		L161.6,32.6z M163.5,38.4c-0.2,0-0.2,0.1-0.2,0.1c-0.1,0.1-0.1,0.1,0,0.1c0.2,0.6,0.7,0.5,1,0.8v0.4h-0.2c0.2,0.4,0.5,0.5,0.8,0.7
		V40c-0.2,0.2-0.7,0-0.3-0.2l0.2-0.2c0.2-0.2,0.2-0.5,0-0.5c0-0.2,0-0.2,0.1-0.3l0.1-0.1c-0.2-0.2-0.5-0.2-0.7,0V38
		c-0.2,0.2-0.3,0.5-0.7,0.5c0-0.2,0.2-0.2,0.2-0.4c-0.1,0-0.2,0-0.2-0.1l-0.1-0.1c-0.3,0-0.4,0.1-0.4,0.4H163.5z M164,39.5
		c0-0.4-0.5-0.7-0.7-0.5C163.3,39.4,163.8,39.5,164,39.5z M165.4,37.9H165c0.1,0.1,0.1,0.2,0.3,0.2h0.1h0.2c0,0.1,0,0.1,0.1,0.1
		c0.1,0.1,0.1,0.2,0.1,0.3c0-0.5-0.1-0.7-0.2-0.9L165.4,37.9z M165.4,41.1c0.2,0,0-0.4-0.2-0.4C165,40.9,165.1,41.2,165.4,41.1z
		 M165.8,39.9c-0.2-0.2-0.5-0.4-0.7-0.4l0.2,0.4c0.2,0.2,0.5-0.1,0.5,0.3c0,0.2,0.2,0.2,0.2,0.4v-0.7c0.3,0,0.5,0.2,0.5,0.7
		c0.2-0.4,0.2-0.5,0.4-0.8c-0.2,0-0.4-0.2-0.5-0.2l0.2,0.4c-0.4-0.2-0.7-0.4-0.8-0.5L165.8,39.9z M167.4,40.2
		c0.2-0.2-0.2-0.3-0.4-0.3C166.9,40,167.2,40.4,167.4,40.2z M167.9,41.1c-0.2-0.2-0.4-0.2-0.7,0C167.2,41.5,167.9,41.2,167.9,41.1z
		 M169.4,46h0.3v0.4c0.3,0.2,0.4,0.1,0.4-0.2V46l0.2,0.1c0.1,0.1,0.2,0.2,0.2,0.3v-0.7c-0.4,0.2-0.7,0-1.1-0.2
		C169.4,45.6,169.4,45.8,169.4,46z M174.2,23.6c0.2,0.2,0.3,0.2,0.7,0.4c-0.2,0-0.7,0-0.8,0.2h0.5c-0.4,0.7-1,0.3-1.6,0.3
		c0.4,0.2,0.7,0.2,1,0.2c0.2,0,0.8-0.4,0.7,0.2h-0.4v0.2h0.4c-0.2,0.2-0.2,0.4-0.4,0.5c-0.2-0.2-0.2-0.5-0.3-0.7
		c-0.2,0.2-0.4,0.5,0,0.7c0.4,0.2,0.8,0,1.4,0.2h0.2c0-0.4-0.2-0.5-0.2-0.7c0,0.3-0.1,0.4-0.2,0.5h-0.5c0-0.6,0.3-0.6,0.3-1.2
		c0.2,0,0.4,0.1,0.5,0.4H175c0.4,0,0.5,0,0.7-0.4c-0.4,0.2-0.7,0-0.7-0.2c0.2,0,0.5-0.1,0.9-0.4c0.2,0.2,0.3,0.2,0.5,0.4
		c-0.2-0.2-0.5-0.4-0.7-0.4c-0.1,0.2-0.3,0.2-0.7,0.2c-0.2-0.3-0.3-0.4-0.5-0.4c-0.2-0.2-0.4-0.2-0.4-0.3V23.6z M173.5,37.5
		c0.2,0,0.4-0.2,0.5-0.2c-0.4-0.2-0.7-0.2-1-0.3C173.1,37.1,173.3,37.3,173.5,37.5z M174.3,41.1v-0.4c-0.2,0-0.5,0.2-0.7,0.2
		c-0.2-0.3-0.4-0.6-0.7-0.7c0.4,0.6,0.7,1,1.4,1.2c0.1,0.1,0.1,0.1,0.1,0.1c0.1,0.1,0.1,0.1,0.1,0.2c0.2-0.6,0.2-1,0.2-1.6
		C174.5,40.4,174.3,40.7,174.3,41.1z M173.3,29.5c0.4-0.2,0.7-0.2,0.8,0.2c-0.4,0-0.6,0.2-1-0.2V31h0.3c0-0.4,0.2-0.7-0.3-0.8h0.7
		c-0.3-0.2-0.4-0.4-0.4-0.5c0.4,0.2,0.7,0.2,1,0.4c0,0.1,0,0.2,0.1,0.2c0.1,0.2,0.1,0.3,0.1,0.3c-0.2-0.2-0.2-0.4-0.4-0.5
		c-0.1,0.1-0.3,0.2-0.5,0.2c0.1,0,0.2,0.1,0.2,0.1c0.1,0.1,0.1,0.1,0.1,0.1c0,0.2,0,0.3,0.1,0.4l0.1,0.2H174v-0.3
		c-0.2,0-0.3,0.1-0.5,0.3c0.4,0,0.7,0.2,0.8,0.2c0,0.2-0.2,0.4-0.2,0.5l-0.2-0.3l-0.4,0.2v0.3c-0.1,0-0.3-0.1-0.5-0.3v1.2
		c0.4,0.2,0.5,0.8,0.8,1c0.2,0.2,0.5,0,0.8-0.2c-0.1-0.1-0.3-0.2-0.5-0.2v-0.4V33c0,0.1-0.1,0.1-0.2,0.1c-0.2,0-0.2-0.2-0.3-0.4
		c0.1,0,0.2,0,0.2-0.1l0.1-0.1H174c-0.2-0.2-0.2-0.5-0.4-0.7c0.1,0,0.2,0.1,0.3,0.1c0.1,0.1,0.1,0.1,0.1,0.1c0.6-0.4,0.3-1,0.7-1.5
		c0-0.4,0.3-0.7,0.5-1H175c0,0.4-0.3,0.5-0.5,0.4c0-0.2,0.1-0.3,0.3-0.5c-0.4,0.4-0.8,0.3-0.8-0.4l0.3,0.2c0.1,0,0.2-0.1,0.3-0.1
		l0.1-0.1H174c0.2,0.7-0.4,0-0.5,0C173.6,29.2,173.6,29.4,173.3,29.5z M173.5,38.7v-0.2c0.2,0,0.5,0,0.7,0.2
		c-0.2,0.2-0.3,0.2-0.5,0.4l0.3,0.2l0.1,0.1c0.2,0,0.9-0.1,0.5,0.5h0.2c0-0.4,0.2-0.7,0.2-0.8c0-0.2-0.2-0.2-0.2-0.4v0.2v0.5
		c-0.2,0-0.3-0.1-0.5-0.3c0.2,0,0.2-0.2,0.4-0.4c-0.6-0.4-1-0.3-1.4-0.3L173.5,38.7z M174.2,38c0,0.6,0.5,0.5,0.7,0.7l0.2-0.2
		c0.2-0.1,0.3-0.2,0.5-0.2c0.1,0,0.2,0.1,0.2,0.2v0.2c-0.2,0-0.5,0-0.7,0.2h0.7v0.4c-0.2,0-0.3,0-0.3-0.1l-0.2-0.1v0.3h0.2v0.2
		l0.5,0.2c-0.7-0.6,0.3-0.3,0.5-0.9c0.2,0.2,0.2,0.4,0.4,0.5v-0.3c0.4-0.4,0.7,0,1,0.2l-0.2,0.2h0.2v-0.3c0.2,0.2,0.4,0.3,0.7,0.3
		c-0.3-0.2-0.5-0.3-0.5-0.3c0.2-0.6,0.5-0.2,0.7,0c0-0.2-0.2-0.2-0.2-0.4c-0.4,0-0.5,0-0.9-0.2v0.5c-0.1-0.5-1-0.3-0.8-0.7h-0.2
		c0,0.1-0.1,0.2-0.2,0.3l-0.1-0.1c-0.1-0.1-0.1-0.1-0.1-0.2h-0.1c-0.1,0-0.1,0.1-0.1,0.2c-0.4-0.4-0.7-0.4-1-0.4
		C174.6,38.5,174.5,38.4,174.2,38z M175,47.5c0.3,0,0.4,0.1,0.5,0.2c-0.2-0.2-0.3-0.4-0.3-0.7H175v-0.2c-0.5,0-0.8,0.5-0.8,0.8
		C174.5,47.6,175.7,48.4,175,47.5z M175.2,41.2c-0.2,0-0.2,0.2-0.4,0.4c0.4,0,0.3,0.3,0.7,0.3c-0.2-0.2-0.4-0.7,0-0.8l-0.3-0.2
		c0.4-0.2,0.7,0.1,0.7,0.5h0.2c-0.2-0.5-0.5-0.7-0.8-0.8c-0.2,0.2-0.2,0.3-0.4,0.7H175.2z M175.2,39.9L175,40
		c-0.2,0.4,0.5,0.2,0.5,0c-0.1,0-0.2,0-0.2-0.1L175.2,39.9z M176.2,39.9c-0.2,0-0.3-0.2-0.5-0.2c0.4,0.2,0.5,0.3,0.9,0.3l-0.2-0.3
		l0.2,0.1c0.1,0.1,0.2,0.1,0.3,0.1c-0.2-0.2-0.5-0.4-0.8-0.4L176.2,39.9z M175.9,25.3h0.5c0.2-0.3,0.4-0.5,0.7-0.7
		c-0.5-0.2-0.4,0.4-0.7,0.3C176,24.9,176,24.9,175.9,25.3z M176.2,22.9c0.2,0.2,0.4,0,0.5,0c0,0.2,0.4,0.4,0.4,0
		c-0.2-0.2-0.7-0.4-0.9-0.2V22.9z M177.1,44.1c-0.2,0.2-0.5,0.4-0.7,0.5c0.2,0.4,0.5,0.2,0.7,0h0.1c0.1,0,0.1,0.1,0.2,0.2
		c-0.2-0.4-0.3-0.5-0.2-0.8l-0.2-0.2V44.1z M178.1,28l-0.1-0.1c-0.1-0.1-0.1-0.1-0.1-0.3c-0.2,0.2-0.7,0-0.7,0.4
		C177.5,27.8,177.8,27.8,178.1,28z M179.4,47.3c-0.1,0-0.2,0.1-0.2,0.1l-0.1,0.1c0.2,0.2,0,0.3,0,0.5v0.2v0.2h-0.4
		c0.4,0,0.5,0.2,0.5,0.5c0.2-0.2,0.3-0.2,0.3-0.4c0-0.4-0.3-0.5-0.3-0.7l0.2-0.2c0.2,0.4,0.4,0.2,0.5,0c-0.1,0-0.1,0-0.1-0.1
		c-0.1-0.1-0.2-0.1-0.3-0.1c0.6,0,0.9-0.2,0.5-0.7c-0.4,0.4-0.6,0-1-0.2C179.3,46.9,179.3,47.2,179.4,47.3z M179.1,39.4h0.2
		c0.1,0,0.2,0,0.2-0.1v-0.1c0-0.3-0.1-0.4-0.3-0.4V39.4z M180.3,51.8c-0.2-0.2-0.5,0.2-0.3,0.4C180.1,52.3,180.5,51.9,180.3,51.8z
		 M180.6,39.2c-0.4,0-0.5,0.3-0.4,0.7c0.2,0.4,0.3,0.8,0.7,1.2v0.2c0-0.4,0.2-0.5,0.4-0.8V40h-0.4c0.4-0.4,0.4-0.6,0.4-1
		c-0.2,0-0.4,0.2-0.5,0.2c0.2-0.2,0.4-0.4,0.4-0.5c-0.6,0-0.6-0.5-1.2-0.5C180.1,38.5,180.5,38.6,180.6,39.2z M180.9,45.2
		c0.2,0,0.2-0.2,0.4-0.4l-0.2-0.2c-0.2,0.2-0.5,0.4-0.9,0.2C180.5,45.2,180.8,45,180.9,45.2z M180.9,36.5c0.2-0.2,0.4-0.2,0.4-0.5
		c-0.2,0-0.4,0.1-0.5,0.4C180.8,36.4,180.8,36.5,180.9,36.5z"/>
</g>
<g>
	<g>
		<path class="st1" d="M105.8,90.4V74.6c0-0.9,0.2-1.8,0.6-2.6c0.4-0.8,1-1.5,1.7-2.1c0.7-0.6,1.6-1.1,2.6-1.5
			c1-0.4,2.1-0.6,3.2-0.7c1.4-0.1,2.8,0.1,4,0.5c1.3,0.4,2.5,1.2,3.8,2.1c1,0.8,1.7,1.6,2.2,2.4c0.5,0.8,0.8,1.7,0.8,2.6V92l-5.3,0
			l-2.2-1.6v-7.7l-4.5,0.1v9.1l-4.9,0L105.8,90.4z M121.9,73.7c0-0.9-0.2-1.6-0.7-2.4c-0.4-0.7-1-1.3-1.8-1.8
			c-0.7-0.5-1.6-0.9-2.5-1.1c-1-0.2-2-0.3-3-0.2c-1.1,0.1-2,0.3-3,0.7c-0.9,0.4-1.7,0.8-2.4,1.4c-0.7,0.6-1.2,1.2-1.6,2
			c-0.4,0.7-0.6,1.5-0.6,2.4v15.3l0.7,0V74.5c0-0.7,0.2-1.4,0.6-2c0.4-0.7,0.9-1.3,1.5-1.8c0.6-0.5,1.3-1,2.2-1.3
			c0.8-0.4,1.7-0.6,2.5-0.6c0.9-0.1,1.8,0,2.6,0.3c0.8,0.2,1.6,0.6,2.3,1.1c0.7,0.5,1.2,1,1.6,1.7c0.4,0.6,0.6,1.3,0.6,2v16.1l0.9,0
			V73.7z M120.2,73.8c0-0.6-0.2-1.2-0.5-1.8c-0.3-0.6-0.8-1.1-1.4-1.5c-0.6-0.4-1.2-0.7-2-1c-0.8-0.2-1.6-0.3-2.5-0.2
			c-0.8,0.1-1.6,0.2-2.3,0.5c-0.7,0.3-1.4,0.7-1.9,1.2c-0.5,0.5-1,1-1.3,1.6c-0.3,0.6-0.5,1.3-0.5,1.9v15.3l0.7,0V79.7l10.8-0.4
			v10.5l0.8,0V73.8z M108.6,79.1v-4.7c0-0.6,0.1-1.1,0.4-1.6c0.3-0.5,0.6-1,1.1-1.4c0.5-0.4,1-0.7,1.7-1c0.6-0.3,1.3-0.4,2-0.5
			c0.7-0.1,1.4,0,2.1,0.2c0.7,0.2,1.3,0.5,1.8,0.8c0.5,0.4,0.9,0.8,1.2,1.3c0.3,0.5,0.4,1.1,0.4,1.7v4.8L108.6,79.1z M118.6,74
			c0-0.5-0.1-1-0.4-1.5c-0.2-0.4-0.6-0.8-1-1.1c-0.4-0.3-0.9-0.5-1.5-0.7c-0.6-0.2-1.2-0.2-1.9-0.2c-0.7,0-1.3,0.2-1.8,0.4
			c-0.5,0.2-1,0.5-1.4,0.9c-0.4,0.4-0.7,0.8-0.9,1.2c-0.2,0.5-0.3,1-0.3,1.5v4l9.2-0.4V74z M118.6,80l-9.2,0.3v9.5l0.7,0v-9l7.7-0.2
			v9.2l0.8,0V80z M110.1,77.9v-3.5c0-0.9,0.3-1.6,1-2.2c0.7-0.6,1.6-0.9,2.8-1c1.2-0.1,2.1,0.1,2.8,0.6c0.7,0.5,1.1,1.2,1.1,2.2v3.6
			L110.1,77.9z M112.7,77.2l4.5-0.2v-3.1c0-0.4-0.1-0.6-0.2-0.8c-0.1-0.1-0.5-0.1-1-0.1c-1,0.1-1.8,0.3-2.4,0.9
			c-0.6,0.5-0.8,1.1-0.8,1.9V77.2z"/>
		<path class="st1" d="M133,68.4l1.2,2.6l2.3-4.7l6.1-0.5l2.3,1.7l-6.1,12.5l6.1,12.1l-6,0l-2.5-1.7l-1.4-2.8l-2.1,4.4l-5.6,0
			l-2.3-1.6l5.6-11.8L125,67.2l5.8-0.4L133,68.4z M132.3,78.6l-5.4-11l-0.9,0.1l5.4,11l-5.3,11.3l0.8,0L132.3,78.6z M134,78.5
			l5.8-11.9l-1,0.1l-5.3,10.8l-4.9-10.1l-0.9,0.1l5.4,10.9l-5.4,11.5l0.9,0l5-10.5l5.2,10.5l1,0L134,78.5z M137.9,66.8l-0.8,0.1
			l-3.5,7.3l-3.3-6.8l-0.8,0.1l4.1,8.4L137.9,66.8z M133.6,81.3l-4.2,8.6l0.8,0l3.3-6.9l3.5,6.9l0.8,0L133.6,81.3z M135.8,78.4
			l5.7-11.9l-0.9,0.1l-5.7,11.9l5.7,11.4l0.9,0L135.8,78.4z"/>
		<path class="st1" d="M154.7,66.9v25.4l-6.4-0.1l-2.7-1.7V65.6l6.6-0.5L154.7,66.9z M147.4,66.1l-1,0.1v23.8l1,0V66.1z M149.4,65.9
			l-1,0.1v23.9l1,0V65.9z M151.3,65.8l-0.9,0.1v24.1l0.9,0V65.8z"/>
		<path class="st1" d="M166.8,80.3c-1-0.2-2-0.6-2.8-1c-0.8-0.4-1.6-0.8-2.5-1.2c-0.7-0.4-1.3-0.7-1.9-1.1c-0.6-0.4-1-0.8-1.4-1.3
			c-0.4-0.5-0.7-1-0.9-1.6c-0.2-0.6-0.3-1.3-0.3-2.1c0-1.1,0.3-2.2,0.9-3.1c0.6-1,1.4-1.8,2.4-2.6c1-0.8,2.2-1.4,3.7-1.9
			c1.4-0.5,3-0.8,4.7-0.9c1.8-0.1,3.5,0,5.2,0.4c1.7,0.4,3.4,1.2,5,2.3c1.6,1,2.8,2.1,3.6,3.2c0.8,1.1,1.2,2.3,1.2,3.7l-7.6,0.4
			l-3.2-1.7c0-0.6-0.1-1.1-0.2-1.4c-0.2-0.3-0.5-0.5-1.1-0.4c-1.7,0.1-2.9,0.4-3.8,1c-0.9,0.6-1.3,1.4-1.3,2.3c0,0.2,0,0.3,0,0.4
			c0,0.1,0,0.2,0.1,0.4c0.6,0.1,1.1,0.2,1.6,0.2c0.5,0,0.9,0.1,1.3,0.2c1.1,0.1,2.1,0.3,2.9,0.5c0.8,0.2,1.7,0.4,2.4,0.7
			c0.8,0.3,1.5,0.6,2.3,1c0.7,0.4,1.5,0.8,2.4,1.3c1.4,0.9,2.6,1.8,3.4,2.9c0.8,1.1,1.3,2.4,1.3,3.8c0,1.1-0.3,2.2-1,3.2
			c-0.7,1-1.6,1.9-2.7,2.6c-1.1,0.8-2.5,1.3-4,1.8c-1.5,0.4-3.2,0.6-4.9,0.6c-1.6,0-3.1-0.2-4.6-0.7c-1.5-0.4-3-1.1-4.5-2.1
			c-1.8-1.1-3.2-2.2-4.1-3.4c-0.9-1.2-1.4-2.5-1.5-3.9l7.1-0.1l2.7,1.9c0,0.7,0.1,1.2,0.4,1.4c0.3,0.2,0.8,0.3,1.6,0.3
			c1.4,0,2.6-0.3,3.6-1c1-0.6,1.4-1.4,1.4-2.3c0-0.3,0-0.6-0.1-0.9c-0.1-0.3-0.2-0.5-0.3-0.7c-1-0.2-2-0.4-3-0.5
			C168.9,80.7,167.9,80.5,166.8,80.3z M179.9,82.7c0-1.5-0.4-2.7-1.1-3.7c-0.7-1-1.9-1.8-3.5-2.5c-0.7-0.3-1.4-0.6-2.2-0.7
			c-0.7-0.2-1.5-0.3-2.2-0.4c-0.7-0.1-1.5-0.2-2.2-0.3c-0.7-0.1-1.5-0.2-2.1-0.3c-1.3-0.2-2.3-0.6-2.9-1.1c-0.6-0.5-0.9-1.2-0.9-2.1
			c0-1.1,0.5-2,1.5-2.7c1-0.7,2.4-1.1,4.3-1.2c1.6-0.1,2.9,0.1,3.8,0.8c0.9,0.6,1.4,1.5,1.4,2.6l1.2-0.1c-0.1-1.3-0.7-2.3-1.9-3.1
			c-1.1-0.8-2.7-1.1-4.6-1c-1.1,0.1-2,0.3-2.9,0.6c-0.8,0.3-1.5,0.7-2.1,1.1c-0.6,0.4-1,0.9-1.3,1.5c-0.3,0.6-0.5,1.1-0.5,1.7
			c0,2,1.5,3.2,4.4,3.8c0.7,0.1,1.4,0.2,2.1,0.3c0.7,0.1,1.4,0.1,2.1,0.2c0.7,0.1,1.4,0.2,2.1,0.4c0.7,0.2,1.4,0.4,2.1,0.7
			c1.4,0.6,2.4,1.4,3.1,2.3c0.7,0.9,1.1,2,1.1,3.3c0,0.9-0.3,1.8-0.8,2.7c-0.5,0.9-1.3,1.6-2.2,2.2c-0.9,0.6-2,1.1-3.3,1.5
			c-1.3,0.4-2.6,0.5-4.1,0.5c-1.3,0-2.6-0.2-3.8-0.5c-1.2-0.3-2.2-0.8-3.1-1.4c-0.9-0.6-1.6-1.2-2.1-2c-0.5-0.8-0.8-1.6-0.8-2.5
			l-1,0c0.1,1,0.4,1.9,1,2.8c0.6,0.9,1.4,1.6,2.3,2.2c1,0.6,2.1,1.1,3.4,1.5c1.3,0.4,2.7,0.5,4.2,0.5c1.6,0,3.1-0.2,4.5-0.6
			c1.4-0.4,2.6-1,3.7-1.7c1.1-0.7,1.9-1.5,2.5-2.5C179.6,84.8,179.9,83.8,179.9,82.7z M179.6,70.8c0-1.1-0.3-2.1-0.9-2.9
			c-0.6-0.9-1.4-1.6-2.4-2.2c-1-0.6-2.2-1-3.5-1.3c-1.3-0.3-2.7-0.3-4.2-0.2c-1.5,0.1-3,0.4-4.3,0.8c-1.3,0.4-2.4,1-3.4,1.7
			c-1,0.7-1.7,1.5-2.2,2.4c-0.5,0.9-0.8,1.8-0.8,2.9c0,0.9,0.1,1.6,0.4,2.3c0.3,0.7,0.7,1.2,1.2,1.7c0.6,0.5,1.2,0.9,2,1.2
			c0.8,0.3,1.7,0.6,2.7,0.9c0.5,0.1,1,0.2,1.7,0.3c0.6,0.1,1.3,0.1,2,0.2c0.7,0.1,1.4,0.2,2.1,0.3c0.7,0.1,1.4,0.3,1.9,0.6
			c0.9,0.4,1.5,0.9,1.9,1.4c0.3,0.6,0.5,1.3,0.5,2.1c0,0.6-0.2,1.1-0.5,1.6c-0.3,0.5-0.7,0.9-1.3,1.3c-0.5,0.4-1.2,0.6-1.9,0.8
			c-0.7,0.2-1.5,0.3-2.4,0.3c-1.8,0-3.2-0.3-4.1-0.9c-1-0.6-1.5-1.5-1.5-2.6l-1.1,0c0,0.6,0.2,1.2,0.6,1.7c0.4,0.5,0.9,1,1.5,1.4
			c0.6,0.4,1.3,0.7,2.1,0.9c0.8,0.2,1.6,0.3,2.5,0.3c1.1,0,2-0.1,2.9-0.4c0.9-0.3,1.6-0.6,2.3-1c0.6-0.4,1.1-0.9,1.5-1.5
			c0.3-0.6,0.5-1.2,0.5-1.8c0-0.9-0.2-1.8-0.7-2.4c-0.4-0.7-1.1-1.2-2.1-1.7c-0.6-0.3-1.3-0.5-1.9-0.6c-0.7-0.1-1.4-0.2-2.1-0.3
			c-0.7-0.1-1.4-0.1-2.1-0.2c-0.7-0.1-1.3-0.2-2-0.3c-1.8-0.4-3.3-1.1-4.3-1.9c-1-0.9-1.5-2.1-1.5-3.6c0-0.9,0.2-1.8,0.7-2.6
			c0.5-0.8,1.2-1.5,2-2.2c0.9-0.6,1.9-1.1,3.1-1.5c1.2-0.4,2.5-0.7,3.9-0.8c1.3-0.1,2.6,0,3.8,0.2c1.2,0.3,2.3,0.7,3.2,1.2
			c0.9,0.6,1.6,1.2,2.1,2c0.5,0.8,0.8,1.6,0.8,2.6L179.6,70.8z M177.3,70.9c0-0.8-0.3-1.6-0.8-2.3c-0.5-0.7-1.1-1.3-1.9-1.8
			c-0.8-0.5-1.7-0.9-2.8-1.1c-1-0.3-2.2-0.3-3.4-0.3c-1.3,0.1-2.5,0.3-3.6,0.7c-1.1,0.4-2,0.8-2.8,1.4c-0.8,0.6-1.4,1.2-1.8,1.9
			c-0.4,0.7-0.7,1.5-0.7,2.3c0,1.3,0.5,2.4,1.5,3.2c1,0.8,2.3,1.4,4,1.8c0.7,0.2,1.4,0.3,2.1,0.3c0.7,0.1,1.4,0.1,2.1,0.2
			c0.7,0.1,1.4,0.2,2.1,0.3c0.7,0.1,1.3,0.4,1.9,0.6c2.2,1,3.3,2.6,3.3,4.6c0,0.7-0.2,1.4-0.7,2.1c-0.4,0.7-1,1.3-1.8,1.8
			c-0.8,0.5-1.6,0.9-2.6,1.2c-1,0.3-2,0.4-3.1,0.5c-1.1,0-2.1-0.1-3.1-0.4c-0.9-0.3-1.7-0.6-2.4-1.1c-0.7-0.4-1.2-1-1.6-1.6
			c-0.4-0.6-0.6-1.3-0.6-2l-1.1,0c0,0.8,0.3,1.5,0.8,2.2c0.5,0.7,1.1,1.3,1.9,1.8c0.8,0.5,1.7,0.9,2.8,1.2c1.1,0.3,2.2,0.5,3.3,0.5
			c1.3,0,2.5-0.2,3.6-0.5c1.1-0.3,2.1-0.8,3-1.4c0.9-0.6,1.6-1.2,2.1-2c0.5-0.8,0.8-1.6,0.8-2.4c0-1.2-0.3-2.2-1-3.1
			c-0.6-0.8-1.6-1.6-2.9-2.1c-0.7-0.3-1.3-0.5-2-0.7c-0.7-0.2-1.4-0.3-2.1-0.4c-0.7-0.1-1.4-0.2-2.1-0.2c-0.7-0.1-1.4-0.2-2.1-0.3
			c-1.5-0.3-2.7-0.8-3.6-1.5c-0.9-0.7-1.3-1.6-1.3-2.8c0-0.7,0.2-1.4,0.6-2.1c0.4-0.6,0.9-1.2,1.6-1.7c0.7-0.5,1.5-0.9,2.4-1.2
			c1-0.3,2-0.5,3.2-0.6c1.1-0.1,2,0,3,0.2c0.9,0.2,1.8,0.5,2.5,0.9c0.7,0.4,1.3,0.9,1.7,1.6c0.4,0.6,0.6,1.3,0.6,2L177.3,70.9z"/>
	</g>
</g>
</svg>
