<?xml version="1.0" encoding="utf-8"?>
<!-- Generator: Adobe Illustrator 19.2.1, SVG Export Plug-In . SVG Version: 6.00 Build 0)  -->
<svg version="1.1" id="Layer_1" xmlns="http://www.w3.org/2000/svg" xmlns:xlink="http://www.w3.org/1999/xlink" x="0px" y="0px"
	 viewBox="0 0 299.3 57.9" style="enable-background:new 0 0 299.3 57.9;" xml:space="preserve">
<style type="text/css">
	.st0{fill:#22262A;}
</style>
<g>
	<path class="st0" d="M123.9,10c3.1-0.2,6.2-0.2,9.4-0.2v17.9c1.6,0,3.6,0,5.2-0.8c1.2-0.7,2-1.8,2.2-3c0.2-1.5,0-3-0.8-4.2
		c-1.4-1.7-3.7-1.8-5.7-1.8V10c1.5-0.2,3-0.2,4.7,0c2.9,0,5.9,0.8,8.1,2.8c2.3,2,3.3,4.8,3.7,7.9c0.2,3.1-0.4,6.5-2.4,9.2
		c-1.4,1.8-3.3,2.9-5.5,3.5c2.2,3.1,4.3,6.2,6.5,9.4c-0.4,0.2-0.6,0.3-1,0.5c-0.2,0.2-0.2,0.5-0.2,0.7c-0.2-0.2-0.3-0.4-0.7-0.4v0.8
		c-0.2,0-0.4,0.2-0.5,0.2c0-0.6,0.2-1-0.4-1.3c0,0.2-0.1,0.4-0.2,0.5h-1V45h-0.2v-2.5h-0.8v-0.3h-0.2l0.2,0.3c-0.6-0.2-1-0.2-1.3,0
		c-0.2,0.9,0,1.8-0.2,2.9c0,0.1-0.1,0.2-0.1,0.2l-0.1,0.1c-0.3-0.5-0.5-1.1-0.5-1.6c-0.4,0.2-0.5,0.3-0.7,0.3
		c0.2-0.7-0.5-1.3-0.5-2.2c0,0.2-0.2,0.3-0.2,0.5l-0.3-0.4V41c-0.2-0.2-0.2-0.7-0.4-0.5c-0.1,0.1-0.2,0.2-0.2,0.4v-0.4
		c-0.4,0.2-0.3,0.3-0.5,0.7c0,0.7,0.1,1.3-0.3,2h-0.7c-1.6-2.5-2.9-5-4.4-7.5c-0.4-0.6-0.5-1-0.8-1.2v10.2c0,0.7,0.2,1.3-0.4,1.8
		c-0.7-0.2-1.2-0.7-1.8-0.7c0,0.3-0.2,0.4-0.5,0.4c0-0.4-0.2-0.8-0.2-1.3h-1.1v-1c-0.8,0-1.4,0.1-1.8-0.3h-1.3
		c-0.2,0.2-0.7,0.1-0.7,0.7c-0.4-0.2-0.5,0.2-0.7,0.5c-0.2,0.2,0,0.7-0.4,0.8v2c-0.2,0-0.4,0.2-0.5,0.2V10z M127.2,12
		c-0.2-0.2-0.3-0.2-0.5-0.3V12l-0.2-0.3c-0.4,0.4-0.8,0.5-1.1,0.3c-0.3-0.4-0.6-0.5-0.9-0.3c-0.2,0.8,0,1.6,0,2.5h0.4
		c-0.6,0.2-0.4,0.6-0.4,1.2c0.1,0,0.1,0,0.1-0.1c0.1-0.1,0.2-0.1,0.3-0.1v0.3c0-0.4,0-0.5-0.4-0.7c0.2-0.2,0.4-0.2,0.5-0.3l0.2-0.4
		h-0.3h0.2c-0.4-0.2-0.5-0.5-0.5-0.8c0.2-0.2,0.4-0.2,0.5-0.3v0.3c0.4,0,0.7-0.1,0.7,0.5c-0.1,0-0.2,0-0.2-0.1l-0.1-0.1
		c0.2,0.7-0.5,1.4,0,1.8c0.2,0.2-0.2,0.4-0.2,0.5h0.2v0.4h-0.4c0.2,0,0.5,0,0.5,0.2l0.2-0.2h-0.3c0.2-0.2,0.2-0.4,0.3-0.5
		c0,0.2,0.2,0.3,0.2,0.7c0-0.2,0-0.5-0.2-0.7c0.4,0.4,1,0.4,0.8,0.8c0.2-0.1,0.2-0.3,0.2-0.5h0.3c-0.7-0.2-0.3-1-1-1l-0.2,0.2
		c0-0.1-0.1-0.3-0.3-0.5c0-0.7,0.6-0.7,1.2-0.5l0.2,0.2c0-0.3,0.1-0.4,0.2-0.5c-0.2,0-0.3,0.2-0.7,0.2c0-0.4,0.4-0.5,0.5-0.7V13
		c0.2,0.2,0.5,0,0.7,0l0.2-0.2h-0.3c-0.2,0-0.2,0-0.3-0.1l-0.1-0.1c0-0.4,0.2-0.3,0.5-0.3c-0.1-0.2-0.1-0.3,0.2-0.5
		c0,0.2-0.2,0.3-0.2,0.7l0.3-0.2c0,0.2,0.2,0.2,0.2,0.3h-0.4c0.2,0.4,0.5,0.4,0.8,0.2c-0.2,0.2-0.3,0.2-0.3,0.4h0.3
		c-0.2,0.2-0.3,0.2-0.3,0.3c-0.2-0.2-0.4-0.3-0.4-0.5c0,0.5-0.6,0.3-1,0.5c0.2,0.2,0.5,0.2,0.7,0.2c0,0.2-0.2,0.5-0.2,0.7
		c0.1-0.2,0.2-0.2,0.3-0.2h0.2h0.2c0.2,0,0.2-0.1,0.2-0.2c-0.2-0.2-0.4-0.2-0.5,0l-0.2-0.3c0.4,0,0.8,0,1.2,0.2v-0.5
		c0.2,0.2,0.3,0.4,0.5,0.5l-0.2,0.2c0.2,0,0.4-0.2,0.5-0.2h0.5c0-0.3-0.1-0.4-0.2-0.4c0.4,0.2,0.6-0.2,1-0.2c-0.2,0-0.3-0.1-0.3-0.3
		c0-0.2,0.2-0.2,0.2-0.4c-0.6,0.2-1.4-0.1-1-0.7v-0.2c0-0.4-0.3-0.2-0.5-0.4v0.4l0.2,0.2c0,0.1,0.1,0.2,0.2,0.4
		c-0.2-0.2-0.3-0.4-0.5-0.5c-0.4-0.2-0.5,0.2-0.8,0c0.1,0,0.1,0,0.1-0.1c0.1-0.1,0.2-0.1,0.2-0.1h-0.3v-0.4c-0.2,0.2-0.5,0.2-0.7,0
		C127.2,11.5,127.1,11.8,127.2,12z M124.6,17.4v0.9c0.4,0,0.7-0.2,1-0.4c0.2-0.2,0.2-0.3,0.3-0.5c-0.2,0.3-0.3,0.4-0.5,0.4l-0.2-0.2
		v0.2c-0.2,0.2-0.8,0.4-0.7,0c0-0.4,0.5-0.2,0.7-0.4H124.6z M124.6,19.2c0.2,0,0.7,0.2,1,0c-0.2-0.2-0.2-0.5-0.2-0.7
		c-0.4,0-0.5,0-0.9-0.2V19.2z M125.2,26.9h-0.2c0,0.2,0,0.3-0.2,0.7c0.5-0.3,0.7-0.2,0.7,0.2c-0.4-0.1-0.8,0.5-0.8-0.2h-0.2v0.7
		c0.2-0.2,0.5-0.3,0.7-0.5l-0.2,0.5c0.2-0.2,0.5-0.6,0.8,0v-0.3v0.3c0.2,0,0.2,0,0.3-0.1l0.1-0.1c0.4,0.4,0.7,0,0.8-0.2
		c-0.2-0.4-0.5-0.2-0.8,0v-0.2h0.3c0-0.2,0.2-0.3,0.2-0.5c-0.2,0.2-0.4,0.2-0.5,0.3v-0.5c0.1,0,0.1,0,0.1-0.1
		c0.1-0.1,0.2-0.1,0.2-0.1h-0.3c-0.2-0.2-0.5-0.3-0.2-0.5c-0.4,0-0.5,0.2-0.9,0.2V26.9z M125.6,26.6h0.3l-0.2,0.2
		c0.6,0.2,0.6,0.5,0,0.7c-0.2,0.4-0.3-0.4-0.5-0.5l0.1-0.1L125.6,26.6z M128.6,23.4c0,0.2-0.2,0.3-0.2,0.5c-0.6,0-1,0-1.3-0.2
		c0.2,0.7-0.8,1-1.2,1.3v-0.5c-0.2,0-0.3,0.1-0.3,0.2l0.2,0.2c0,0.2-0.1,0.3-0.3,0.5c0.2-0.2,0.5-0.4,0.7-0.4c0.4,0.2,0.2,0.5,0,0.7
		h0.2c0.2-0.2,0.2-0.3,0.3-0.5c0.4,0,0.5-0.3,0.9-0.7c0,0.2-0.2,0.3-0.2,0.5c0.4,0.2,0.9,0.2,1-0.2v-0.5c0.2,0.4,0.5,0.4,0.8,0.4
		v-0.4v0.2l0.2-0.5c0.4,0.2,0.7,0.2,1.1,0.3v0.4h0.5c0.2,0,0.2-0.5,0.5-0.5l0.2,0.2h0.2c0-0.4-0.3-0.3-0.7-0.3
		c0-0.3,0.1-0.4,0.2-0.4h-0.2c0,0.4-0.2,0.7-0.5,0.9v-0.4h-0.4c-0.4,0-0.6-0.6-0.8-0.4c-0.2-0.2-0.5,0-0.5,0.4h-0.4
		c0.5-0.4-0.4-0.6,0.2-0.8H128.6z M125.4,35.3l0.2,0.2c0-0.1,0.1-0.3,0.3-0.5v-0.4c0,0.1-0.1,0.2-0.3,0.2
		C125.6,35,125.4,35.1,125.4,35.3z M126.6,17.4c-0.1,0.2-0.3,0.3-0.5,0.5h0.3v0.4c-0.4,0-0.6,0.1-0.7,0.2h0.4V19
		c-0.2,0-0.2,0-0.3-0.1l-0.1-0.1V19h0.5c0-0.2,0.2-0.4,0.5-0.2l-0.4-0.4c0.5,0,0.7,0.1,0.8,0.2c0.4,0,0.9,0.3,0.9-0.3
		c0.2,0.2,0.3,0.5,0.5,0.7l0.2-0.4h0.2c-0.6-0.3,0.5-0.5,0.4-0.8c0.2,0,0.3,0.2,0.5,0.2c0-0.2-0.3-0.1-0.5-0.5
		c-0.2,0.4-0.4,0.2-0.5,0.2l0.1,0.1c0.1,0.1,0.1,0.1,0.2,0.1c-0.6,0.2-1,0.8-1.3,0.2h0.2c0-0.2,0.1-0.3,0.2-0.3
		c-0.4-0.2-0.5-0.5-0.9-0.5c0.2,0.2,0.2,0.4,0.4,0.4c-0.2,0.2-0.8-0.4-0.5,0c0.2,0.2,0.5,0.2,0.5,0.3s-0.4,0.2-0.5,0.2
		c0.1,0.2,0.2,0.3,0.2,0.5c-0.1,0-0.2,0-0.2-0.1l-0.1-0.1C126.3,18.4,126.6,17.7,126.6,17.4c0.3,0,0.4-0.1,0.4-0.3
		c-0.2,0.2-0.5,0.2-0.7,0C126.3,17.2,126.4,17.4,126.6,17.4z M125.9,16c-0.2-0.2-0.2-0.5,0.2-0.5c0,0.2,0.6,0.4,0.2,0.5H125.9z
		 M126.4,21.6v0.3c0.2-0.2,0.4,0.2,0.5,0.2c0,0.2-0.2,0.2-0.4,0.3h0.5c0.1-0.1,0.2-0.2,0.2-0.2v-0.1c-0.4,0-0.7-0.5-0.7-0.9
		c-0.2,0.3-0.4,0.4-0.7,0.4H126.4z M126.1,23.4c0.2,0,0.5,0.2,0.5-0.2c-0.2-0.4-0.5-0.5-0.3-0.8c-0.2,0.2-0.2,0.4-0.4,0.5
		C126.1,22.9,126.1,23.2,126.1,23.4z M126.4,13.2c0.2,0.2,0,0.7-0.2,0.5C126.1,13.5,126.3,13,126.4,13.2z M127.1,32.4
		c0-0.2,0.1-0.4-0.3-0.2C126.8,32.4,126.7,32.6,127.1,32.4z M128.1,27.6v-0.5c-0.3,0-0.5,0.2-0.7,0.5H128.1z M127.9,24.4
		c-0.2,0.2-0.3,0-0.2-0.2C127.9,24.1,128.1,24.2,127.9,24.4z M128.6,32.1c-0.2-0.2-0.7,0-0.5,0.2C128.3,32.4,128.8,32.4,128.6,32.1z
		 M128.8,23l-0.1-0.1c-0.1-0.1-0.2-0.1-0.3-0.2c0-0.1,0-0.1,0.1-0.1c0.1-0.1,0.1-0.2,0.1-0.3v-0.2c-0.4,0.4-0.2,0.8-0.3,1.2
		C128.4,23.2,128.8,23.2,128.8,23z M128.4,40.4V41c0-0.2,0.1-0.2,0.4,0c-0.2,0-0.4,0.2-0.5,0.5c0.2,0,0.4,0.1,0.5,0.2
		c0-0.2-0.2-0.4-0.2-0.5c0.6,0.2,0.6-0.3,0.2-0.5v-0.2H128.4z M128.6,19.9c0-0.4,0-0.3-0.2-0.3C128.3,19.9,128.4,19.9,128.6,19.9z
		 M129.7,13.5v0.2l-0.2,0.2c0-0.2-0.2-0.2-0.2-0.4H129.7z M129.7,22.9c-0.2,0.2-0.2,0.5-0.2,0.7c0.1-0.1,0.3-0.2,0.5-0.2
		c0-0.3-0.1-0.4-0.2-0.4c0.1,0,0.2,0,0.2-0.1v-0.1H129.7z M131.6,19l0.4,0.2l-0.2,0.1c-0.2,0.1-0.3,0.2-0.3,0.3v0.2
		c-0.4,0-0.5-0.4-0.7-0.5c-0.1,0.1-0.2,0.2-0.3,0.2h-0.1v0.2l0.2-0.2v0.4c-0.2,0-0.5-0.2-0.7-0.2c-0.2,0.4,0.2,0.5,0.3,0.7v-0.5
		c0.2,0.2,0.4,0.3,0.4,0.5h0.5c0.2,0.4,0.2,0.8,0.4,1.2c0-0.4,0.3-0.6,0.5-0.2v-0.3h0.3c-0.3,0-0.6-0.1-1-0.4
		c0.2-0.2,0.5-0.2,0.7-0.2c-0.4,0-0.5,0-0.9-0.2c0.4-0.2,0.6-0.6,1.2-0.2h-0.3h0.5v-0.3h-0.3c0.2-0.2,0.3-0.4,0.5-0.5
		c0-0.2-0.1-0.3-0.2-0.3l0.2,0.3c-0.2,0-0.5-0.2-0.7-0.2c0-0.2-0.2-0.4-0.2-0.5C131.6,18.7,131.7,18.9,131.6,19z M130.3,17.9
		l-0.3-0.2c0.2,0.4,0.5,0.2,0.7,0c0.3,0.6,0.3-0.2,0.5-0.4c-0.4,0.2-0.5,0.4-0.7,0l-0.1,0.1c-0.1,0.1-0.2,0.1-0.2,0.1L130.3,17.9z
		 M130.3,23.6c-0.2,0-0.2,0.3,0,0.3C130.4,23.9,130.6,23.6,130.3,23.6z M130.9,44.8c0.4,0,0.7-0.2,1-0.2c-0.3,0-0.4-0.1-0.5-0.2
		C131.3,44.7,131.1,44.7,130.9,44.8z M131.7,17c0,0.2,0,0.3-0.2,0.7c0.2,0,0.4-0.2,0.5-0.2c0,0.2-0.2,0.3-0.2,0.5
		c-0.2,0-0.5,0.2-0.7,0.2c0.2,0.4,0.5,0,0.8,0c0.2-0.2,0.3-0.4,0.5-0.5h-0.2c0.2-0.1,0.2-0.3,0.2-0.5h-0.9V17z M131.4,39.1
		c0.4,0.4,0,0.7-0.2,1c0.5,0.2,0.5-0.4,0.5-0.5c0.3,0,0.4,0.1,0.5,0.2c-0.2-0.4-0.5-0.5-0.7-0.8L131.4,39.1z M131.9,26.2
		c-0.2,0.4,0.7,0.4,0.3,0H131.9z M132.6,37.8c0-0.2-0.2-0.5-0.5-0.5C131.9,37.6,132.4,38.3,132.6,37.8z M132.4,44.8
		c0-0.2,0.2-0.8-0.2-0.7C132.1,44.3,132.1,45,132.4,44.8z M132.3,22.4V23c0-0.3,0.1-0.3,0.4-0.2v-0.5H132.3z M134.8,13.5h0.7
		l-0.2,0.4c0.7-0.5-0.2-0.8-0.5-1.2V13.5z M137.1,12.2c0,0.2,0,0.5,0.2,0.5c-0.4,0.4-0.8,0.2-1.2,0.4v0.5c0-0.1,0-0.2,0.1-0.2
		l0.1-0.1c0.2-0.1,0.2-0.2,0.3-0.2h0.1v0.7c-0.6,0.2-1,0.2-1.3,0.3c0.6,0.4,0.8-0.3,1.3-0.3c-0.1,0.1-0.2,0.3-0.2,0.5
		c0.2,0,0.3,0,0.3,0.4c-0.2,0-0.5,0-0.8-0.2c0.2,0.5,0.6,0.3,1,0.2c-0.1,0.1-0.2,0.2-0.2,0.3l-0.1,0.2h0.2c0-0.3,0.1-0.5,0.4-0.7
		c0-0.2-0.1-0.1-0.3-0.2c-0.1,0-0.2,0-0.3-0.1c0-0.4,0-0.8,0.2-1.1c0,0.2,0.6,0.3,0,0.5h0.4c-0.2,0-0.2,0.1-0.2,0.1
		c-0.1,0.1-0.1,0.1,0,0.1c0.2,0.2,0.2,0.3,0.4,0.5V14c-0.2-0.4,0.5-0.5,0.7-0.3v0.2c0,0.4,0.2,0.3,0.2,0.7l-0.1,0.1
		c-0.1,0.1-0.1,0.1-0.1,0.2c0.1,0,0.1,0,0.1-0.1c0.1-0.1,0.2-0.1,0.3-0.1v-0.3c0-0.1-0.1-0.2-0.1-0.3l-0.1-0.1
		c0.4,0,0.6-0.3,0.2-0.5c-0.2-0.4,0-0.5,0.2-0.7c-0.2,0-0.5,0.2-0.7,0.2c0,0.1,0,0.1,0.1,0.1c0.1,0.1,0.1,0.2,0.1,0.2
		c0,0.4-0.5,0.4-0.7,0.4c0-0.4,0.4-0.3,0.5-0.7h-0.5c0.2-0.2,0.2-0.4,0.4-0.4c-0.2-0.2,0-0.3,0-0.5c-0.4,0.6-0.5-0.3-0.9-0.3
		C136.8,12.1,136.9,12.2,137.1,12.2z M135.4,28.4 M136.5,10.7 M136.8,38.4V39c0.4-0.6,0.4,0.2,0.5,0.3c0.2,0,0.4-0.4,0.5,0
		c0.2,0.4,0.3,0,0.5-0.2c-0.2-0.2-0.3-0.3-0.7-0.2c0-0.2-0.2-0.4-0.2-0.5c0,0.2-0.1,0.3-0.3,0.5v-0.5H136.8z M136.9,10.7 M142,11.9
		c0,0.4,0.1,0.5-0.3,0.5c0.2,0.5-0.7,0.5-0.9,0.3c-0.2,0-0.3,0.2-0.5,0.2c0.2,0.2,0.2,0.5,0.3,0.7l-0.3-0.2l-0.2,0.2
		c-0.4,0.4-0.8,0.7-1.1,0.4l-0.2,0.2h-0.2c0.5,0.5,1.2-0.3,1.5,0.4c0.2,0,0.4,0.2,0.5,0.2c-0.6-0.5,0.2-0.5,0.4-0.4l0.2-0.2l0.2-0.2
		h0.2c-0.5-0.2-0.8,0.4-1.1,0c0.4-0.4,0.7-0.5,0.5-1c0.2,0.2,0.4,0.3,0.4,0.7c0-0.3-0.1-0.5-0.2-0.7c0.4,0,0.6,0,1,0.2
		c-0.2-0.4,0-0.5,0.2-0.7c0.2,0.2,0.3,0.4,0.3,0.5c0.2-0.2,0.2-0.3,0.4-0.5h0.2V12c-0.4-0.2-0.5,0.4-1,0.4c0.3-0.3,0.4-0.4,0.4-0.5
		H142z M138.6,27.9v0.2h0.2c0,0.4,0.4,0.5,0.5,0.8c0-0.4,0-0.5,0.4-0.7H139v-0.2c0.4,0,0.5-0.2,0.8-0.4v0.4c0.1-0.1,0.2-0.3,0.2-0.5
		h0.2c-0.1,0-0.1,0-0.1-0.1c-0.1-0.1-0.2-0.1-0.2-0.1l-0.1,0.1c-0.1,0.1-0.1,0.1-0.1,0.2C139.3,27.7,139,27.7,138.6,27.9z
		 M139.4,32.7c-0.2-0.2-0.3-0.2-0.3,0H139.4z M139.6,37.3v-0.5c0.3,0,0.5-0.1,0.7-0.2v-0.2c0-0.1,0.1-0.2,0.2-0.2h-0.2l-0.2,0.2
		c-0.2,0-0.2-0.2-0.3-0.4c0,0.2-0.1,0.2-0.1,0.2c-0.1,0.1-0.1,0.1-0.1,0V37.3z M140.3,10.8h-0.2c0.2,0.1,0.3,0.2,0.4,0.4h-0.2
		c0,0.1,0.1,0.2,0.2,0.3h-0.4l0.2,0.2l0.3-0.2c0.2,0.6-0.3,0.5-0.7,0.5c0.7,0,1,0.5,1.5,0.7c-0.2,0-0.2-0.3-0.2-0.5h0.1
		c0.1,0,0.2-0.1,0.3-0.2c0-0.2,0.2-0.3,0.7-0.3v-0.5c-0.4-0.2-0.5-0.2-0.7-0.2c-0.2,0.2-0.2,0.3-0.2,0.5c-0.2,0.2-0.7,0-0.5,0.4h0.2
		c0,0.2-0.2,0.2-0.2,0.3c-0.2-0.1-0.2-0.4-0.2-0.8h0.5V11c-0.1-0.2-0.2-0.2-0.3,0l-0.2,0.2c-0.1-0.2-0.3-0.3-0.5-0.5V10.8z
		 M140.1,13.9c0.4,0,0.2,0.7,0,0.2V13.9z M141,17.6c0-0.4-0.4-0.5-0.5-0.4C140.1,17.6,140.8,17.9,141,17.6z M140.6,30.6
		c-0.2,0.4-0.1,0.7,0.4,0.8c0-0.1-0.1-0.2-0.1-0.3l-0.1-0.2h0.4v-0.3H140.6z M141.4,29.8c-0.2,0.2-0.3,0.3-0.5,0.7l0.1-0.1
		c0.1-0.1,0.2-0.1,0.2-0.1c0,0.4,0.2,0.2,0.4,0.2v-0.5l-0.2,0.2V29.8z M141.5,31.4c0.1-0.1,0.2-0.1,0.3-0.1c0.2-0.4-0.5-0.4-0.4,0.2
		C141.5,31.4,141.5,31.4,141.5,31.4z M142,24.7c-0.2-0.2-0.5-0.1-0.3,0.3C141.8,25,142.2,24.9,142,24.7z M142.3,22.4l-0.5,0.5
		c0,0.2,0.2,0.2,0.2,0.3h-0.3c0.4,0,0.7,0.2,0.8,0.4c-0.4-0.2-0.2-0.5,0.2-0.5v-0.5c-0.1,0-0.2,0-0.2-0.1L142.3,22.4z M142.3,22.9
		c0,0.2-0.1,0.3-0.2,0.3C142,22.8,142.2,22.9,142.3,22.9z M142.3,28.4c0.2-0.4,0-0.5-0.2-0.3C142,28.2,142.2,28.4,142.3,28.4z
		 M143.3,18.5h0.4l-0.4,0.4h0.4c0-0.1,0-0.1,0.1-0.1c0.1-0.1,0.1-0.2,0.1-0.3l0.2,0.2l0.4-0.3c-0.2,0-0.8,0.2-0.7-0.4
		c-0.2,0-0.2,0.2-0.4,0.2v-0.4c-0.2,0.2-0.3,0.2-0.5,0C143,18.2,143.1,18.2,143.3,18.5z M144,15h-0.2c-0.1,0-0.2,0.1-0.3,0.2
		c0-0.7-0.5-0.2-0.5,0C143.3,15.2,143.8,15.4,144,15z M143.1,11.5 M144.3,30.1c-0.3,0-0.4,0.1-0.4,0.2
		C144,30.6,144.5,30.4,144.3,30.1z M144,30.6v0.3v0.2c0.2,0.3,0.5,0.3,0.9,0.2c-0.1,0-0.1,0-0.1-0.1c-0.1-0.1-0.2-0.1-0.3-0.1h-0.3
		v-0.4l0.2,0.2l-0.3-0.2L144,30.6z M144.6,39.9c0.1,0,0.1,0.1,0.2,0.2c0,0.1,0,0.1,0.1,0.2h-0.4c-0.1,0-0.2,0.1-0.2,0.3
		c0.4,0,0.7-0.3,0.8-0.7H144.6z M145.1,39l-0.1,0.1c-0.1,0.1-0.1,0.1-0.2,0.1c0.2,0.2,0.3,0.5,0.5,0.5c0-0.1-0.1-0.2-0.1-0.3
		c-0.1-0.1-0.1-0.1-0.1-0.1V39z M145.8,20.7V21h0.4c0,0.3-0.1,0.4-0.4,0.4c0,0.3-0.1,0.5-0.3,0.5v0.2h0.2c0,0.5,0.7,0.7,0.5,1.1V23
		c0.4-0.2,0.3-0.3,0.7-0.5c-0.2,0-0.2,0-0.3-0.1l-0.1-0.1c0.4-0.4,0.5-0.5,0.9-0.5c-0.2,0-0.5,0-0.9-0.2c0.2-0.2,0.2-0.5,0.2-0.7
		h0.2v-0.2c-0.2,0-0.5,0-0.7-0.2h0.5c0-0.4-0.3-0.4-0.7-0.4C146,20.6,146,20.7,145.8,20.7z M145.5,20.9 M146.3,14
		c-0.2,0-0.3,0.1-0.3,0.4c0.4,0.2,0.2-0.5,0.5-0.7l-0.1-0.1l-0.2-0.3c0.1,0,0.2,0,0.2-0.1v-0.1c-0.2-0.2-0.3-0.4-0.7-0.4
		C145.8,13.2,145.8,13.7,146.3,14z M146.8,16.5v0.4c0.4,0.4-0.2,0.3-0.4,0.5h1.3c-0.2-0.2-0.5-0.3-0.8-0.3c0.2,0,0.4-0.1,0.5-0.4
		c-0.1,0-0.1,0-0.1-0.1c-0.1-0.1-0.2-0.1-0.3-0.1H146.8z M146.8,25.6c0-0.2-0.1-0.3-0.2-0.2C146.5,25.6,146.5,25.7,146.8,25.6z
		 M146.8,15l-0.2,0.2h0.7h-0.2c0-0.2,0.2-0.2,0.2-0.4c-0.2,0-0.4-0.2-0.5-0.2V15z M147,26.2c0-0.1,0-0.1,0.1-0.1
		c0.1-0.1,0.1-0.2,0.1-0.2h0.4l-0.2-0.2c-0.2,0-0.2-0.2-0.4-0.2V26.2z M147,42.4c0,0.3,0.1,0.4,0.2,0.5h0.4c0-0.2,0.2-0.2,0.2-0.3
		l-0.1-0.1c-0.1-0.1-0.2-0.1-0.2-0.1H147z M147.5,27.6c-0.4,0.6,0,1.2,0.7,0.8c-0.6-0.2-0.5-0.3-0.4-0.7c-0.1,0-0.2,0-0.2-0.1
		L147.5,27.6z M147.7,15.9l0.5,0.5v-0.2c-0.4-0.2,0.2-0.5,0-0.7c-0.1,0-0.2,0.1-0.2,0.4H147.7z M148,28.1c0.2,0.2,0.7-0.4,0.3-0.4
		C148.2,27.7,147.8,27.9,148,28.1z"/>
	<path class="st0" d="M150.9,9.9h9.5v35.8c-0.1,0.1-0.2,0.2-0.3,0.2h-0.1c-0.4,0.7-0.2,1.3-0.2,2c-0.2,0.4-0.2,0.6-0.2,1.2
		c-0.2,0-0.4,0.2-0.5,0.2v-2.4c-0.6,0-1-0.2-1.5-0.2l-0.5-2c-0.4,0.4-0.2,1-0.5,1.3v0.7h-1.3c-0.2,0.5-0.4,0.8-0.4,1.3h-0.3
		c0-0.2-0.1-0.4-0.4-0.5v-2.4c-0.2,0-0.3-0.2-0.5-0.2v-0.3h-1.3V45h-1.1v0.8h-0.5V9.9z M152.8,26.3c-0.1,0.1-0.1,0.1-0.1,0.1
		c-0.1,0-0.2,0.1-0.3,0.1c-0.1,0.1-0.1,0.1-0.1,0.1h0.2v0.4v-0.4c0.4,0.2,0.5,0.2,0.7,0.2v1H153c0.2,0.6-0.5-0.2-0.5-0.3
		c0.2,0,0.2-0.2,0.4-0.4c-0.3,0.2-0.5,0.1-0.7-0.2l-0.4,0.3v-0.5c0,0.2-0.2,0.2-0.3,0.3c0.4,0.2,0.2,0.5,0,0.9l0.1-0.1
		c0.1-0.1,0.2-0.1,0.2-0.1v0.4l0.2-0.2c0,0.2-0.2,0.3-0.2,0.5c0.3,0,0.4-0.1,0.5-0.2v0.4c0.2-0.2,0.2-0.4,0.5-0.4
		c-0.2-0.3-0.1-0.3,0.3-0.2c0,0.2,0.2,0.5,0.2,0.7c-0.2-0.2-0.5-0.2-0.7-0.2c0.2,0.2,0.3,0.1,0.5,0.5c0.2-0.1,0.3-0.2,0.5-0.2
		c0,0.2,0,0.5-0.2,0.7h0.3c-0.2-0.4-0.1-0.5,0.2-0.5c-0.2-0.2-0.4-0.1-0.4-0.5c0.6,0,0.9,0.5,1.3,0.5c0,0.6-0.5,0.2-0.7,0
		c-0.1,0-0.2,0.1-0.2,0.1l-0.1,0.1c0.4,0.2,0.2,0.5,0.2,0.8c-0.2,0-0.8-0.1-0.4,0.3c-0.4,0.4,0,0.6,0,0l0.4,0.2l-0.2,0.3l0.3-0.2
		c-0.2,0.4-0.2,0.5-0.2,0.8c0-0.2-0.2-0.5-0.2-0.7c-0.2,0.4-0.4,0.5-0.7,0.4c0.1,0,0.2-0.1,0.2-0.4v-0.1c0-0.1-0.1-0.1-0.2-0.1
		c-0.4,0.2-0.2,0.5,0.2,0.7c0,0.6,0.7,0.5,0.7,0.8c-0.1,0-0.2,0.1-0.3,0.1l-0.1,0.1c-0.1-0.1-0.2-0.2-0.2-0.3v-0.1
		c0,0.3-0.2,0.5-0.5,0.7v-0.7h-0.5l-0.2-0.2h0.9c-0.2-0.2-0.2-0.4-0.4-0.5c0,0.2-0.1,0.3-0.3,0.5v-0.4h-0.2v0.5
		c-0.4-0.2-0.1-0.8-0.5-0.8V31c0.4,0.2,0.3,0.7,0.7,0.5c0.2-0.4,0.3-0.5,0.5-0.8h0.2c0-0.4,0-0.7,0.2-1c-0.2-0.2-0.3-0.5-0.7-0.5
		l0.3,0.4c-0.2,0.2-0.5,0.3-0.8,0.3c0.2-0.2,0.2-0.3,0.4-0.5v-0.5h-0.7c-0.2-0.2-0.4-0.2-0.5-0.4c0.2,0.4-0.2,1,0.5,0.7
		c-0.2,0-0.4,0.2-0.5,0.4c0.2,0.3-0.2,1.2,0.5,1.2c-0.7-0.4-0.1-0.7,0.3-0.7c-0.2,0.4-0.5,0.5-0.3,0.8V31c-0.2,0-0.4-0.2-0.5-0.2
		c0,0.2,0.2,0.3,0.3,0.7c0,0.2,0.1,0.5-0.3,0.5c0.2,0.6,0.7,1,0.2,1.2c-0.2,0.2-0.3,0.7,0.4,0.7c-0.2-0.2-0.2-0.5-0.2-0.7
		c0.2,0.4,0.2,0.7,0.5,0.8c-0.2,0.2-0.3,0.4-0.3,0.5c-0.6,0.2-0.5,0.7-0.5,1.1l0.3-0.2V35c0,0.3,0.1,0.4,0.2,0.5
		c0.1,0,0.1,0,0.2-0.1c0.2-0.1,0.3-0.1,0.3-0.1c-0.2,0.4-0.3,0.7-0.3,0.8c-0.2,0-0.5,0.2-0.7,0.2c0.4,0.4,0.2,0.6,0,1h0.5
		c0.4-0.4,0.6-0.5,1-0.7c-0.2-0.2-0.3-0.5-0.2-0.8c0-0.6,0-1,0.2-1.5l-0.2-0.2c0-0.2,0.2-0.2,0.2-0.3c0-0.5,0.1-0.7,0.2-0.9
		c0.2,0.2,0.2,0.4,0.4,0.4c0-0.2,0-0.3,0.2-0.7c0.2-0.2,0.4,0,0.5,0.2c-0.4,0-0.4,0.7-0.5,1l-0.3-0.2c0,0.4,0.1,0.6,0.2,0.7V34
		c0.4,0.2,0.4,0.5,0,0.8c0.4-0.2,0.5,0,0.8-0.2c0.4,0,0.7,0.2,0.5,0.5c-0.3,0.3-0.3-0.4-0.7-0.2c0,0.4,0,0.7-0.4,0.7
		c0.4,0,0.4,0.4,0.2,0.7c0.4-0.2,0.3-0.5,0.5-0.7v-0.3h0.2c0.4-0.2,0.5,0.2,0.8,0.2c0-0.2,0.2-0.3,0.2-0.5c0.4,0.2,0.7,0,0.9,0v-0.3
		c0,0.2,0.5-0.1,0.3,0.3c-0.2,0-0.5,0.4-0.7,0.2v0.2c0.4,0,0.8-0.1,1,0.3c0.1,0,0.2,0,0.2-0.1l0.1-0.1v0.4h0.8
		c-0.2,0-0.5-0.2-0.5-0.4c-0.2-0.2-0.4-0.2-0.4-0.3c-0.1,0-0.2,0.1-0.2,0.1c-0.1,0.1-0.1,0.1-0.1,0.1v-0.2c0.2,0,0.4-0.1,0.5-0.2
		c0.4,0.4,0.5-0.2,0.7-0.3c0,0.2,0.2,0.5,0.2,0.7c0.6-0.2,1.2-0.1,1.2-0.7c-0.4-0.2-0.2-0.7-0.2-0.8c-0.2,0-0.3-0.2-0.5-0.4h0.5
		c-0.2-0.2-0.1-0.3-0.5-0.2c0-0.4,0.2-0.8-0.2-1V32h-0.2c0,0.1,0,0.2,0.1,0.2l0.1,0.1c-0.6,0.2-0.7,0.1-0.8-0.3l-0.2,0.3
		c0-0.1-0.1-0.2-0.1-0.2h-0.1v0.2c0.2,0,0.2,0.2,0.4,0.2c0.2,0,0.5-0.2,0.7,0.2c0,0.4,0.2,0.7-0.2,0.7c-0.2,0.2-0.5,0.2-0.7,0.2
		c0,0.2,0.2,0.2,0.2,0.4c-0.2,0-0.5,0.2-0.8,0.2v-0.4l0.3,0.2c-0.2-0.6,0.1-0.5,0.7-0.5v-0.2h0.1c0.1,0,0.1,0.1,0.3,0.2
		c-0.2-0.4-0.2-0.5-0.4-0.7c-0.3,0.5-1,0-1.5,0.5c-0.4-0.2-0.7-0.2-1,0c-0.2,0.2-0.5,0.2-0.8,0c0.2,0,0.2,0.3,0.4,0.5
		c-0.2,0-0.4-0.2-0.5-0.2v-0.7c0.1,0.1,0.3,0.2,0.5,0.2c0-0.4,0.2-0.3,0.3-0.5c0.4,0.4,1,0.2,1.5,0.3v-0.3c-0.1,0.1-0.1,0.1,0,0.1
		c0,0.1,0.1,0.1,0.2,0.1c0.5,0.3,0-0.5,0.3-0.8c0.4-0.2,0.7,0,1,0.2c-0.2-0.1-0.2-0.3-0.2-0.5c-0.6,0-1,0.2-1.3,0.5
		c0,0.2-0.1,0.7-0.5,0.5c-0.2-0.2-0.2-0.4-0.5-0.4c0-0.3-0.1-0.5-0.4-0.7c0-0.2,0.2-0.4,0.2-0.5c-0.2-0.2-0.7-0.7,0-0.7v0.4
		c0.4,0.4,0.1,0.8,0.5,1.2c0.2,0,0.4-0.2,0.5-0.4h-0.5v-0.2c-0.2-0.3-0.2-0.5,0-0.7c0.3,0.4,0.4,0.4,0.4,0h-0.4l0.2-0.2h-0.5
		c0-0.3,0.2-0.5,0.5-0.7c-0.4,0-0.7,0-1,0.2c0.1-0.2,0.2-0.2,0.2-0.3v-0.2h-0.5c0,0.1,0,0.1,0.1,0.1c0.1,0.1,0.1,0.2,0.1,0.2
		c-0.4,0-0.5,0.2-0.7,0.4c0.3,0,0.5,0.1,0.7,0.3c-0.4,0.4-0.1,0.5,0.3,0.7c-0.2,0-0.2,0.4-0.3,0.4c-0.3,0-0.4-0.1-0.5-0.2l0.4-0.2
		c-0.1,0-0.1,0-0.1-0.1c-0.1-0.1-0.2-0.1-0.3-0.1c0-0.4,0.2-0.5,0-0.7c-0.4,0-0.5,0.2-0.8,0.2l0.2-0.2h0.4v-0.7
		c0.2,0,0.5,0.2,0.7,0.2v-1.1l-0.3,0.2l-0.1,0.1c-0.4-0.4-0.3-0.8-0.3-1.3c-0.2-0.2-0.4-0.2-0.4-0.4c0,0.2,0.2,0.4,0.2,0.5h-0.5
		c0-0.6,0-0.9,0.2-1.5c-0.1,0-0.2,0.1-0.3,0.1c-0.1,0.1-0.1,0.1-0.1,0.1c0.2,0.4,0.1,0.7-0.2,1c-0.4-0.2-0.2-0.5-0.2-0.9
		c-0.2,0-0.3-0.1-0.5-0.3h0.7c-0.4-0.2-0.5-0.2-0.7-0.2C152.9,26.2,152.8,26.3,152.8,26.3z M152.5,21.3h-0.7c0,0.2-0.2,0.4-0.2,0.5
		c0.2,0,0.4-0.1,0.5-0.4c0.4,0,0.7,0,0.8,0.4c-0.6,0.2-1,0.4-1.2,0c-0.2,0.2-0.2,0.3-0.3,0.3c0.4,0.2,0.2,0.3,0.2,0.7
		c0.2-0.2,0.4-0.3,0.5-0.2v-0.2h0.2v-0.2h-0.3l0.3-0.4l0.4,0.4v-0.4h0.2c0-0.1,0-0.1,0.1-0.1c0.1-0.1,0.1-0.2,0.1-0.2
		c0-0.2-0.1-0.2-0.3-0.2v-0.7c0.4,0.2,0.7,0.2,0.7,0.5c0,0.3,0.2,0.4,0.5,0.4v0.2c0.1,0,0.1,0,0.1-0.1c0.1-0.1,0.2-0.1,0.3-0.1
		c-0.1-0.2-0.3-0.2-0.5-0.2v-0.3c-0.4-0.2-0.5-0.2-0.8-0.4l0.2-0.1c0.2-0.1,0.2-0.1,0.4-0.2c-0.4,0-0.7-0.1-0.9,0.3l-0.2-0.3
		c-0.2,0.2-0.2,0.3-0.3,0.5C152.2,20.9,152.3,21,152.5,21.3z M152.4,23.6c-0.2,0.4-0.2,0.8-0.3,1.2c0.2,0,0.3-0.2,0.5-0.2
		c-0.2,0.2-0.2,0.4-0.3,0.5c-0.2-0.3-0.4-0.5-0.7-0.7c0.2,0,0.3-0.2,0.5-0.2c0.4-0.4-0.4-0.1-0.5-0.4c0,0.4,0,0.7,0.2,1
		c-0.2,0.6-0.2,0.9-0.2,1.5h0.3c0.2-0.2,0.2-0.3,0.4-0.5c-0.2,0-0.4,0.2-0.5,0.2v-0.4c0.1,0,0.2,0,0.2-0.1c0.2-0.1,0.3-0.1,0.3-0.1
		c0.2,0.2,0.2,0.3,0.5,0.3c-0.2-0.2-0.2-0.3-0.4-0.3c-0.2-0.2-0.5-0.2-0.7-0.2v-0.7c0.2,0.2,0.4,0.3,0.7,0.3c0,0.2,0,0.2,0.1,0.3
		l0.1,0.1c0.2-0.2,0.2-0.3,0.2-0.7l-0.4,0.2l0.5-1h-0.4c0.2,0,0.2-0.1,0.2-0.3H152.4z M153,38.3c0,0.2-0.1,0.4-0.2,0.5
		c-0.2-0.2-0.5-0.2-0.8-0.3c-0.4,0.7-0.5,1.3-0.5,1.8h0.3c0.6,0.2,0.1,0.5-0.3,0.7c0.4-0.2,0.7,0,0.7-0.4h0.5
		c-0.1-0.1-0.1-0.1-0.1-0.1c-0.1-0.1,0-0.1-0.2-0.2h0.4v-0.5c0,0.1,0.1,0.3,0.3,0.5c0-0.4-0.2-0.7-0.2-1c0,0.1,0,0.2,0.1,0.2h0.1
		c0-0.2-0.2-0.3-0.2-0.5V38.3z M151.7,38.5c0.2,0.2,0.8-0.4,0.4-0.4C151.9,38.1,151.6,38.1,151.7,38.5z M152.4,15.8
		c0-0.4-0.3-0.5-0.5-0.7c0,0.2-0.2,0.2-0.2,0.3C151.9,15.6,152.2,15.6,152.4,15.8z M151.7,29.6 M152.2,36.6h-0.4
		c0-0.2,0.4-0.3,0.5-0.5C152.7,36.1,153,37.2,152.2,36.6z M151.9,39.3v0.4c0.4-0.2,0.7,0,0.9,0v0.5c-0.3,0-0.4-0.1-0.4-0.2
		c0,0.2-0.2,0.4-0.2,0.5v-0.2V40h-0.2v-0.2h-0.2V39.3z M152.1,27.6c-0.2-0.4,0.5-0.5,0.3-0.2L152.1,27.6z M152.1,41.2 M152.7,35.3
		c-0.2,0-0.7-0.2-0.5-0.5C152.4,34.6,152.9,35,152.7,35.3z M152.2,42.9 M152.4,28.3c-0.2,0-0.2-0.2,0-0.5V28.3z M152.5,37.2
		 M152.5,39.2h0.4v0.2h-0.4V39.2z M152.9,25.3v0.2h0.3v0.2c0.2,0,0.3-0.2,0.7-0.4c0-0.2-0.2-0.3-0.2-0.5c-0.2,0.2-0.3,0.2-0.5,0.3
		C153.2,25.3,153,25.5,152.9,25.3z M153.6,24.4c0.2,0.2,0.5,0.2,0.5,0.5c0.2-0.2,0.3-0.4,0.2-0.7c-0.4-0.4-0.7,0.3-1,0.3
		C153.5,24.8,153.6,24.8,153.6,24.4z M153.7,38.6c0.4,0.4,0,0.6-0.2,1.2h0.3c-0.2,0-0.3,0.1-0.3,0.3h0.2v0.5c0.2,0,0.4,0.2,0.5,0.5
		l-0.4,0.2l0.2,0.2l-0.1,0.1c-0.1,0.1-0.1,0.2-0.1,0.2c0.3,0,0.4-0.1,0.5-0.2V42v-0.3c0.3,0,0.4,0.1,0.4,0.2
		c0.2-0.2,0.3-0.2,0.5-0.3c-0.2-0.2-0.5,0-0.7,0c-0.2,0.4-0.4,0-0.5-0.2h0.3c0.2-0.2,0.2-0.3,0.4-0.5c0-0.1-0.1-0.1-0.1-0.2
		c-0.1,0-0.1,0-0.1-0.1c0.4-0.2,0.3-0.5,0.3-0.8c0,0.2-0.2,0.2-0.3,0.3c-0.2,0.2-0.2,0.4-0.4,0.5c-0.4-0.2-0.7-0.5-0.4-0.8
		c0.2-0.1,0.3-0.2,0.5-0.2h-0.5c0.4-0.4,0.2-0.6,0-1.2L153.7,38.6z M154.4,28.4c-0.2,0.2-0.7,0.1-0.5-0.3
		C154.1,28,154.6,28.1,154.4,28.4z M155.4,42.2c0,0.4,0.4,0.5,0,0.7c0,0.2-0.2,0.2-0.4,0.3c0-0.2-0.1-0.3-0.3-0.3h-0.4l0.3-0.3
		l0.2-0.1v-0.2l-0.1,0.1c-0.1,0.1-0.1,0.1-0.2,0.1v-0.2h-0.4c0,0.2,0.2,0.2,0.2,0.3c-0.2,0.2-0.2,0.4-0.3,0.5h0.3v0.2
		c-0.2,0-0.3,0.2-0.5,0v0.2h0.2c0.1,0.1,0.2,0.2,0.2,0.3c0-0.1,0-0.2,0.1-0.2h0.1c0.2-0.2,0.4-0.5,0.5-0.7c0.2,0.2,0.5,0.3,0.7,0.2
		c0.1,0.1,0.2,0.3,0.2,0.5h0.4c-0.2-0.2-0.5-0.4-0.2-0.5c-0.5,0.4-0.6-0.9,0.2-0.5v0.2c0.3-0.4,0.6,0.7,0.8,0.2
		c0.2,0,0.2,0.2,0.4,0.2c-0.2-0.3-0.5-0.5-0.9-0.7h-0.1c-0.1,0-0.1,0.1-0.2,0.2l0.2-0.3c-0.3,0.2-0.5,0-0.7-0.4
		c0.6-0.2,0.8,0.2,1.3,0.4c0,0.2,0.2,0.2,0.2,0.3v-0.3c-0.4,0-0.7-0.3-0.8-0.8C156.1,41.9,155.6,41.8,155.4,42.2z M154.7,21.1
		c-0.2-0.2-0.7-0.2-0.7,0.2C154.2,21.3,154.6,21.5,154.7,21.1z M154.4,38c-0.2,0-0.3,0-0.2,0.4C154.3,38.3,154.4,38.2,154.4,38z
		 M154.4,31.5c0.3,0,0.5,0.1,0.7,0.4v0.5v-0.2c0-0.1-0.1-0.2-0.2-0.2c-0.2,0.4-0.7,0.3-0.7-0.2L154.4,31.5z M156.4,33.2
		c0,0.2-0.2,0.3-0.2,0.5h-0.2V34c-0.2,0.4-0.2,0.7,0.3,0.5l-0.2,0.3h0.4c-0.4,0-0.5,0.2-0.7,0.2v-0.8l-0.4,0.2l0.2,0.4
		c-0.3,0-0.5-0.2-0.7-0.5c-0.2,0-0.5,0-0.7,0.2c0-0.4,0.7-0.7,0.9-0.3c0.2,0,0.5,0,0.5-0.4C155.9,33.3,156.2,33.3,156.4,33.2z
		 M154.7,31.1c0.2,0.2,0,0.4-0.2,0.2C154.4,31.1,154.6,31,154.7,31.1z M155.7,20.3l0.4,0.2c-0.4,0.2-0.5,0-0.7,0.2
		c-0.1,0.2-0.2,0.2-0.3,0.2l-0.1-0.2l-0.2,0.2l-0.3-0.3c0,0.1,0,0.2,0.1,0.2l0.1,0.1l0.2,0.2v0.3h0.2v-0.3h0.5
		c0.4,0.4-0.2,0.5-0.3,0.7c0.2,0,0.3-0.2,0.5-0.2c0.2,0.2,0.3,0.2,0.4,0.2c0.2,0,0.5-0.1,0.7,0.3c0-0.2,0.5-0.2,0.2-0.3
		c-0.2-0.4-0.7,0.1-0.8-0.5c0.2-0.4,0.5-0.4,0.7,0c0-0.4-0.6-0.7,0-0.8c0-0.3-0.1-0.4-0.2-0.5v0.3c-0.4-0.2-0.5-0.3-0.9-0.5
		C155.7,19.8,156.1,20.1,155.7,20.3z M156.2,36c-0.2-0.2-0.5-0.4-0.7-0.2c0,0.2,0.2,0.3,0.2,0.5l-0.3,0.2c0,0.1,0.1,0.2,0.3,0.2v0.2
		h-0.5c0.2,0.2,0.5,0.3,0.3,0.7l-0.2,0.2c0,0.4,0,0.6-0.4,1h0.4c-0.4,0.2-0.7,0.5-0.4,0.8l0.3-0.2l0.1-0.1c0,0.2,0.2,0.5,0.2,0.8
		c-0.2,0-0.3-0.1-0.3-0.2c0.2,0.2,0,0.3,0,0.5c0.2,0,0.4,0.1,0.5,0.2c0-0.2,0.2-0.4,0.2-0.5c-0.6,0.2-0.6-0.7-0.2-0.8
		c0.4,0.4,0.4,0.8,0.4,1.2c0,0.4-0.2,0.5-0.2,0.8c0-0.2,0.2-0.2,0.3-0.3v0.5l0.1-0.1l0.3-0.2l0.3,0.2c0.2-0.4,0.1-0.5-0.2-0.5
		c0-0.1,0-0.2,0.1-0.2h0.1c0-0.3,0.1-0.5,0.4-0.7c0.1-0.1,0.3-0.2,0.5-0.2v0.2c0.2-0.1,0.2-0.2,0.3-0.3l0.1-0.1v0.7
		c-0.4,0.2,0,0.4,0.2,0.7h-0.1c-0.1,0-0.1,0.1-0.2,0.2c-0.2,0-0.4,0.2-0.5,0.2v0.2c0-0.1,0-0.2,0.1-0.2h0.1l0.2,0.2
		c0.2-0.1,0.2-0.2,0.3-0.2h0.1v-0.3c0.1,0.1,0.3,0.2,0.5,0.2c-0.2,0-0.2-0.2-0.4-0.2c0.2-0.3,0.4-0.4,0.5-0.4
		c-0.2-0.2-0.4-0.2-0.5-0.4c0.6-0.2,1,0,1.5,0.2c-0.4-0.5-1,0-1.2-0.7c0.2,0,0.5,0.2,0.7,0.2c-0.4-0.2-0.7-0.4-1-0.2
		c0-0.7,0.5-0.4,0.9-0.5h-0.5c0-0.2,0-0.5-0.2-0.7c0.6,0.2,0.7,0.5,1,0.8c0.1-0.1,0.1-0.3-0.2-0.5h0.5c-0.2-0.2-0.5-0.3-0.7-0.2
		v-0.1c0-0.1,0.1-0.1,0.2-0.2c-0.2,0-0.5-0.2-0.7-0.4c0-0.4,0.5-0.2,0.7-0.2c0.2-0.2,0.3-0.2,0.5-0.4c0-0.2-0.2-0.3-0.2-0.5v0.2
		c0,0.1-0.1,0.2-0.2,0.3c0-0.1-0.1-0.2-0.2-0.2h-0.2v0.4h-0.5c0,0.2-0.2,0.2-0.2,0.3c-0.2,0-0.3,0.2-0.5,0.2
		c0.1,0.2,0.3,0.3,0.5,0.5c-0.2,0.4-0.3,0.7-0.7,1c-0.4,0-0.5-0.2-0.8-0.2v0.1c0,0.1,0.1,0.1,0.2,0.1c-0.2,0.4-0.7,0.2-0.7-0.2h0.2
		c-0.3,0-0.5-0.1-0.7-0.3l0.2-0.2l0.2,0.2c0.2,0,0.4-0.1,0.5-0.4c-0.4,0-0.6-0.1-0.7-0.2c-0.2,0.2-0.2,0.4-0.4,0.4
		c-0.2-0.2-0.2-0.4,0-0.7c-0.8-0.4,0.5-0.2,0.4-0.7c0,0.2,0.2,0.3,0.2,0.5c-0.2,0-0.2,0.2-0.3,0.2c0.7,0.2,0.6-0.5,1-0.9
		c0,0.2,0.2,0.2,0.2,0.4c0.2-0.1,0.2-0.2,0.3-0.3l0.1-0.1c0-0.4-0.1-0.5,0.3-0.7c0.2-0.2,0.9,0.3,0.9-0.3v-0.2
		c0,0.1-0.1,0.2-0.1,0.2h-0.1c-0.2-0.2-0.5-0.4-0.8-0.5c-0.2,0-0.5-0.2-0.7,0c-0.2-0.4-0.5-0.5-0.8-0.7
		C156.2,35.5,156.2,35.8,156.2,36z M155,46.2v-0.5h0.7c-0.2,0.2-0.3,0.4-0.5,0.4c0.4,0,0.8,0.2,1-0.2c-0.6,0-0.5-0.3-0.7-0.7
		c-0.2,0.2-0.3,0.2-0.5,0.4V46.2z M155.3,14.2l0.2-0.2v0.3c0.2-0.2,0.2-0.3,0.3-0.5c-0.2,0-0.5,0-0.5-0.2V14.2z M155.9,27.1
		c0.1,0,0.2,0.1,0.2,0.4c-0.3,0-0.4-0.1-0.4-0.2h-0.2c0,0.4-0.2,0.5,0.2,0.5l0.2-0.3c0.2,0.2,0.3,0.3,0.7,0.3
		c-0.2,0-0.2-0.3-0.4-0.3v-0.5c-0.1,0.1-0.2,0.2-0.2,0.2H155.9z M156.1,12.9l-0.4-0.2c0,0.1-0.1,0.2-0.1,0.2
		c-0.1,0.1-0.1,0.1-0.1,0.1c0.4,0,0.7-0.3,0.8-0.5l-0.2-0.1c-0.2-0.1-0.3-0.1-0.3-0.1C156,12.5,156.1,12.7,156.1,12.9z M155.9,44.3
		l-0.2,0.2h0.2c-0.3,0.3-0.4,0.4-0.4,0.5h0.4v0.4c0.1-0.2,0.3-0.3,0.5-0.5c-0.2,0-0.5-0.2-0.5-0.4c0.2,0,0.4-0.1,0.5-0.2v-0.2h-0.2
		c0-0.2-0.2-0.2-0.2-0.4c0,0.2-0.2,0.2-0.2,0.4V44.3z M156.7,36.3h0.5l0.2-0.4c0.2,0.2,0.5,0.3,0.3,0.7h-0.3V37
		c0,0.2-0.1,0.3-0.4,0.5c-0.2-0.2-0.3-0.4-0.3-0.5h0.3c0.1,0,0.1-0.1,0.2-0.2c0-0.1,0-0.2,0.1-0.2c-0.1,0-0.1,0-0.1-0.1
		c-0.1-0.1-0.2-0.1-0.3-0.1c0,0.3-0.1,0.5-0.3,0.7c-0.4,0-0.7,0.2-0.9,0.2c-0.2-0.2,0-0.3,0.2-0.3c0-0.2-0.2-0.2-0.2-0.4
		c0.2-0.4,0.7-0.6,0.9,0v-0.2c0-0.2-0.2-0.7-0.2-0.9C156.6,35.8,156.7,36,156.7,36.3z M155.9,29.6 M156.6,12.1
		c0-0.2-0.2-0.4-0.2-0.5h-0.1c-0.1,0-0.1,0.1-0.2,0.2C156.2,12,156.4,12.1,156.6,12.1z M156.1,15.2h0.2c0.2-0.2,0.5-0.2,0.7-0.4
		c-0.1-0.1-0.3-0.2-0.5-0.2C156.2,14.9,156.2,15.1,156.1,15.2z M156.9,43.7c-0.4,0-0.5-0.2-0.8-0.2c0.2,0.2,0.4,0.4,0.5,0.5
		c0.4-0.2,0.5-0.3,0.7-0.5c0.2,0.4,0.5,0.4,0.7,1c0.4-0.4,0.8-0.2,0.8,0.4l0.2,0.2v-0.5c-0.2-0.2-0.4-0.3-0.5-0.3
		c-0.4,0-0.7-0.5-0.3-0.7c-0.2-0.2-0.4-0.6-0.4,0h-0.3v-0.4L156.9,43.7z M156.6,40.5c0.1,0.1,0.2,0.3,0.2,0.5
		c-0.2,0.2-0.8-0.4-0.4-0.5H156.6z M156.9,33.5c0,0.4-0.2,0.8-0.5,0.7C156.4,33.9,156.5,33.6,156.9,33.5z M157.3,31.5
		c0.1,0,0.2-0.1,0.2-0.4c-0.2-0.2-0.5,0-0.8,0.2C156.7,31.5,157,31.3,157.3,31.5z M156.6,37.3h0.2v0.2h-0.2V37.3z M156.7,40.3
		c-0.1,0-0.2-0.1-0.2-0.4C156.6,39.8,157.1,40.3,156.7,40.3z M157.7,31l-0.3-0.2v-0.2v-0.1c0-0.1,0.1-0.2,0.2-0.3H157l0.2,0.4h-0.4
		l-0.2,0.2c0.4,0.2,1-0.1,1.3,0.3c0.1,0,0.1,0,0.1-0.1c0.1-0.1,0.2-0.1,0.2-0.1c0-0.4,0.2-0.5,0.4-0.7c-0.4,0-0.6,0.7-0.8,0.4v-0.2
		c0.1,0,0.2-0.1,0.2-0.2c-0.1,0-0.2-0.1-0.4-0.2V31z M157.4,29.8c0.2-0.2-0.2-0.7-0.4-0.5C156.9,29.5,157,29.8,157.4,29.8z
		 M157.4,25.3c0.2-0.2-0.2-0.5-0.4-0.3C156.9,25.1,157.3,25.5,157.4,25.3z M157,20.7 M157.7,34.1c0.4,0.2,1-0.2,0.9,0.4
		c-0.4,0-0.7,0-1,0.2c-0.2-0.2-0.3-0.4-0.5-0.5C157.3,34.1,157.6,34.5,157.7,34.1z M157.6,16.2c0.3,0,0.4-0.1,0.5-0.2
		c-0.2,0.4-0.4,0.7-0.4,0.8c-0.4,0.2-0.7,0.2-0.5,0.5c0-0.1,0.1-0.2,0.3-0.2c0.2,0,0.5,0.2,0.8,0.2c0,0.2-0.2,0.4-0.2,0.5
		s0.2,0.3,0.2,0.5c-0.4,0-0.2,0.5-0.2,0.7c0-0.2,0.2-0.2,0.4-0.4c0.2,0.4,0.1,0.7-0.2,0.9c0.4,0,0.5-0.2,0.7-0.4
		c0.4,0,0.7-0.2,0.7-0.5c-0.4,0-0.5-0.3-0.7-0.5l0.2-0.2v0.4c0.2,0,0.3,0.2,0.5,0.2v-1.2c-0.2,0-0.2,0-0.3-0.1l-0.1-0.1h0.1
		c0.1,0,0.2-0.1,0.3-0.2c0-0.7,0-1.3-0.2-2.2c0,0.4-0.3,0.9-0.7,0.5l0.2-0.2c-0.2-0.1-0.3-0.2-0.5-0.2h-0.4v0.2
		c-0.4,0-0.2,0.3,0,0.7h-0.5c0-0.4-0.2-0.5-0.3-0.8v-0.4c0,0.1-0.1,0.2-0.1,0.3c-0.1,0.1-0.1,0.1-0.1,0.1
		C157.6,15.5,157.6,15.9,157.6,16.2z M158.2,28.1c-0.2,0-0.3,0.2-0.5,0.2c0-0.2-0.1-0.3-0.2-0.3c0,0.2,0.2,0.3,0.2,0.7
		c-0.1,0-0.3,0.1-0.5,0.3c0.2,0,0.3-0.2,0.5-0.2v0.3c0.4-0.2,0.4-0.5,0-0.7c0.2-0.1,0.4-0.2,0.7-0.2c-0.1,0.1-0.2,0.2-0.2,0.4
		s0.7,0.2,0.4,0.3c-0.2,0.1-0.3,0.2-0.4,0.4h0.2h0.2c0.2,0.2,0.2,0.1,0.3,0.5h0.5c-0.2-0.2-0.5-0.1-0.5-0.5l0.1-0.1
		c0.1-0.1,0.2-0.1,0.3-0.1c-0.2-0.2-0.4-0.2-0.5-0.3h0.4v-0.2h-0.7l0.4-0.2c-0.2-0.4-0.4-0.5-0.5-0.7V28.1z M158.2,37.3
		c-0.2-0.2-0.3-0.2-0.5-0.3v0.7l-0.5,0.5c0.5,0,0.5-0.8,1.1-0.8l0.4,0.2v-0.2h-0.4c0-0.4,0.5-0.2,0.9-0.3l-0.2-0.2
		c-0.2,0-0.5,0-0.9,0.2V37.3z M158.2,20.4v-0.7l-0.2,0.2v-0.3c-0.2,0.2-0.4,0.2-0.5,0.3l0.4,0.4c0.2,0,0.3,0.2,0.7,0.3
		c0,0.2-0.2,0.4-0.4,0.5h0.2v0.5h-0.2v0.3l-0.2-0.2c0.2,0.4,0.3,0.5,0.2,0.8c0.2-0.2,0.4-0.2,0.4-0.3h-0.2c0-0.2,0.2-0.4,0.4-0.5
		l-0.2,0.1c-0.1,0.1-0.2,0.1-0.3,0.1c0.7-0.3,0.1-1.2,0.5-1.6c0.2,0.2,0.4,0.3,0.4,0.5c0.2-0.3,0.4-0.5,0.7-0.5l-0.1-0.2
		c-0.1-0.2-0.1-0.3-0.1-0.3h-0.2c0.2-0.2,0.2-0.4,0.4-0.5c-0.2,0-0.4,0.1-0.5,0.4C158.9,19.8,158.8,20.3,158.2,20.4z M157.6,24.4
		c0.2,0.4,0.2,0.5,0.4,0.8c-0.1,0-0.2,0.1-0.3,0.1l-0.1,0.1h0.5c-0.1,0.1-0.2,0.3-0.2,0.5c0.2-0.2,0.3,0,0.7,0.2
		c0.2-0.4,0.5-0.5,0.7-0.9c-0.3,0-0.4,0.1-0.5,0.2c-0.4-0.2,0-0.5,0-0.7l-0.1,0.1c-0.1,0.1-0.1,0.1-0.3,0.1
		c-0.2-0.4-0.5-0.2-0.7-0.2v-0.4H157.6z M157.7,16.1h0.2v-0.2h-0.2V16.1z M158.4,26.8c-0.2-0.2-0.5,0.2-0.3,0.3
		C158.2,27.3,158.6,26.9,158.4,26.8z M158.4,23.3c0.2,0,0.2-0.2,0.4-0.2h0.4v0.5c0.2-0.2,0.5-0.3,0.3-0.7v-0.2
		c-0.4,0-0.2-0.5-0.2-0.7c-0.2,0.4-0.5,0.7-1,0.7C158.3,22.9,158.4,23,158.4,23.3z M158.9,35.6h-0.2c0,0.4-0.4,0.4-0.5,0.7
		c0.4-0.2,0.7-0.2,0.9,0c0.1,0.1,0.3,0.2,0.5,0.2c-0.2-0.4,0.2-0.8,0-1.2c-0.4,0.2-0.3,0.5-0.7,0.7V35.6z M158.2,45.5 M158.4,15.9
		 M158.4,46c0.2,0.1,0.4,0.2,0.9,0.2c0-0.3,0.1-0.4,0.2-0.5c-0.4,0-0.5,0.2-0.7,0.2C158.7,46,158.6,46,158.4,46z M158.6,26.3
		 M158.9,31.5c-0.2-0.2-0.3,0-0.3,0.2C158.9,31.8,159.1,31.6,158.9,31.5z M159.3,40.9c0,0.2-0.1,0.3,0.3,0.3
		c-0.1-0.1-0.2-0.3-0.2-0.5c-0.2,0-0.3,0.2-0.5,0.2c0.2-0.2,0.1-0.2,0.2-0.3c0-0.1,0-0.2,0.1-0.2c-0.2,0.2-0.5,0.3-0.4,0.7
		C158.8,40.9,159,40.9,159.3,40.9z M159.1,35c-0.4,0.2-0.6-0.2-0.2-0.3C159.1,34.5,159.5,35,159.1,35z M158.7,16.7 M158.7,17.4
		 M159.4,21.3c-0.2,0-0.7,0.2-0.5,0.4C159.1,21.8,159.6,21.6,159.4,21.3z M159.6,43.8c0.2,0-0.2-0.3-0.3-0.3c-0.3,0-0.4,0.1-0.4,0.3
		C159.1,44,159.3,44,159.6,43.8z M159.6,38.5c0.2,0,0-0.4,0-0.5c0,0.2-0.3,0-0.5,0C158.9,38.3,159.4,38.3,159.6,38.5z M159.3,34
		 M174,9.9h9.3v36c0,0.3-0.1,0.4-0.2,0.4c-0.2-0.6-0.2-1-0.4-1.3h-1.1v-1c-0.7-0.2-1.3,0.1-1.8-0.3c-0.7,0-1.6-0.2-2,0.5h-0.2
		c-0.4,0.4-0.7,0.7-0.7,1.2c-0.2,0.7,0,1.5-0.2,2.4c-0.4,0-0.6,0.2-1.2,0c0-0.6,0-1.1,0.2-1.7c-0.2,0-0.3-0.1-0.5-0.3
		c-0.7,0.7-0.2,1.6-0.5,2.5c0,0.4-0.2,0.3-0.5,0.3v-1H174V33.3h-12.9v-8.1H174V9.9z M161.9,32.3 M162.4,30.1c0.4-0.2,0-0.7-0.2-0.5
		C162.1,29.8,162.2,30.3,162.4,30.1z M163.6,32.6c0.2-0.4-0.2-0.7-0.4-0.5C163.1,32.3,163.4,32.6,163.6,32.6z M164.1,32.6
		c0-0.3-0.1-0.4-0.2-0.4C163.8,32.6,163.9,32.6,164.1,32.6z M165,30.4c0-0.2-0.2-0.5,0-0.7c-0.2,0.2-0.4,0.2-0.5,0.4
		C164.6,30.3,164.7,30.3,165,30.4z M165.1,29.1l0.3-0.2v0.4v-0.2c0.2-0.1,0.3-0.2,0.5-0.2c0.1-0.1,0.2-0.2,0.2-0.3h-0.5
		c0,0.2-0.4,0-0.5,0V29.1z M165.4,27.6c0-0.3-0.1-0.4-0.2-0.4C165.1,27.6,165.3,27.6,165.4,27.6z M165.4,28.3c0.2,0,0.5-0.4,0.7,0
		c0.2-0.2,0.4-0.3,0.5-0.5c-0.4,0-0.7,0.6-0.8,0C165.6,28,165.4,28.1,165.4,28.3z M165.6,30.1c0.1-0.1,0.3-0.2,0.5-0.2h0.1
		c0.1,0,0.1,0.1,0.3,0.2c-0.2-0.4-0.7-0.5-0.8-0.7V30.1z M167.9,30.3h-0.7c0,0.2,0,0.2,0.2,0.4c0.2-0.2,0.6-0.2,1-0.4
		c-0.2-0.2-0.4-0.3-0.5-0.3V30.3z M168.8,30.3h-0.2c-0.2,0.2-0.2,0.4-0.3,0.5c0.2,0.2,0.3,0.4,0.2,0.5v0.2c0.2,0.2,0.3,0.5,0.7,0.5
		c0,0.2,0.2,0.3,0.5,0.3l-0.5-0.5c-0.1-0.2-0.3-0.2-0.5-0.2c0.2-0.2,0.2-0.5,0.4-0.7h0.1c0.1,0,0.1-0.1,0.2-0.2
		c0-0.2,0.2-0.4,0.2-0.5c-0.2,0-0.5,0-0.7-0.2V30.3z M168.6,27.6 M171.3,28.8c-0.2,0.4,0.2,0.6,0,1l0.7-0.5c-0.2,0-0.5-0.2-0.7-0.2
		c0.3-0.2,0.4-0.3,0.4-0.5c-0.2,0.2-0.4,0.2-0.5,0.3L171.3,28.8z M173,29.8c0-0.2-0.3-0.2-0.5,0C172.3,30,173,30.1,173,29.8z
		 M172.8,31.3c0.2-0.4,0-0.4-0.2-0.4C172.4,31.3,172.7,31.3,172.8,31.3z M174.7,29.5c-0.4,0.4-0.7-0.2-1,0v0.2
		c0,0.3-0.1,0.4-0.2,0.5l-0.1-0.1c-0.1-0.1-0.1-0.1-0.1-0.3v0.7c0.2,0.2,0,0.4,0,0.5l0.1,0.1l0.2,0.3h-0.3h0.7
		c-0.2-0.2-0.5-0.4-0.5-0.5c0-0.3,0.2-0.5,0.5-0.8c0,0.2,0.1,0.4,0.3,0.7c0.2-0.4,0.2-0.9-0.3-0.7c0.2-0.3,0.3-0.4,0.5-0.4
		c0.3,0,0.4-0.1,0.4-0.2H174.7z M174.1,29.5c0.1-0.1,0.2-0.2,0.2-0.3v-0.1c0-0.4-0.2-0.5-0.2-0.7c-0.2,0.2-0.2,0.5-0.4,0.7
		C173.8,29.3,174.1,29.3,174.1,29.5z M174.8,27.8c-0.1,0-0.2,0.1-0.3,0.1l-0.1,0.1c-0.2,0.2,0.4,0.2,0.2,0.3c0,0.3-0.1,0.4-0.2,0.5
		c0.3,0,0.4,0.1,0.5,0.2c0-0.1,0-0.2,0.1-0.2l0.1-0.1C175.1,28.3,175.2,27.8,174.8,27.8v-0.5V27.8z M174.7,21.3c0,0.2,0,0.3,0.1,0.3
		l0.1,0.2h-0.2v0.2h0.2l0.2,0.2h-0.5c0.2,0.2,0.3,0.2,0.3,0.2c0.1,0.1,0.2,0.1,0.2,0l-0.2,0.1c-0.1,0.1-0.2,0.2-0.2,0.2
		c0,0.2,0.3,0.2,0.5,0.2c0.6,0.2,1,0.2,1.4,0c0,0.2-0.2,0.4-0.4,0.5c0.1,0.2,0.1,0.3,0,0.4h0.5c-0.3,0-0.4,0.1-0.4,0.3
		c0.3,0,0.4,0.1,0.5,0.2c0.4-0.4,0.8-0.3,1-0.7c-0.2,0.2-0.5,0.2-0.5,0.3v-0.5c-0.2,0.4-0.4,0-0.5,0v0.4h-0.3c0-0.4,0-0.7,0.2-1h0.2
		c-0.1-0.1-0.2-0.3-0.2-0.7c0,0.2-0.2,0.4-0.5,0.2c0.2,0.2,0.7,0.4,0.4,0.5l-0.4-0.3v0.5h-0.7c0.2-0.2,0-0.5,0-0.7
		c-0.1-0.1-0.2-0.3-0.2-0.7c-0.2,0.2-0.2,0.2-0.3,0.2c-0.1,0.1-0.1,0.1-0.1,0l-0.1-0.1L174.7,21.3z M175,14.9
		c-0.4,0-0.5,0.2-0.3,0.5C174.8,15.6,175.3,15.1,175,14.9z M174.8,40.9c0.2-0.2,0-0.7-0.2-0.5C174.4,40.5,174.7,41,174.8,40.9z
		 M175.1,19.4l0.2,0.2c-0.2-0.4-0.2-0.5-0.2-0.9c-0.2-0.2-0.4-0.4-0.5-0.5h0.2v-0.2c-0.4,0.4,0,0.9-0.2,1.3H175.1z M174.7,23.1
		 M174.7,30.6l0.1-0.1c0.1-0.1,0.2-0.1,0.2-0.1c0.4,0.4,0,0.8,0,1.4c0.3,0,0.4-0.1,0.5-0.2V32h0.4v-0.5c0-0.2,0.2-0.2,0.3-0.4v0.4
		l0.5,0.2l-0.2-0.3c0.2,0,0.2-0.2,0.3-0.2v0.2l-0.2,0.2h0.3l-0.3,0.4c0.4-0.6,0.8-0.1,0.8,0.3c0.2-0.2,0.4-0.2,0.5,0
		c0-0.2,0.2-0.3,0.2-0.5c0.2,0.3,0.4,0.4,0.5,0.4l-0.5-0.5c-0.2,0.2-0.3,0.2-0.5,0.4c-0.4-0.2-0.5-0.5-0.2-0.7
		c-0.4-0.2-0.6-0.2-1-0.2c-0.2-0.1-0.2-0.3-0.2-0.5c-0.2,0.2-0.3,0.2-0.5,0.4h0.1c0.1,0,0.1,0.1,0.2,0.2h-0.8
		c-0.2-0.4-0.2-0.8-0.2-1.2c-0.1,0.2-0.2,0.3-0.2,0.5C174.8,30.4,174.7,30.4,174.7,30.6z M175.1,33.5v0.2h-0.5c0,0.2,0,0.2,0.1,0.3
		l0.1,0.1l-0.2,0.2c0.4-0.2,0.8,0.2,1-0.3h-0.3c0-0.2,0.1-0.2,0.3-0.2h-0.2h-0.2c0-0.4-0.4-0.8-0.5-0.5
		C174.8,33.5,174.8,33.5,175.1,33.5z M174.7,42c0.3-0.3,0.3,0.4,0.7,0.4c0,0.4,0.2,0.7-0.4,0.8c0.2,0,0.4,0.2,0.5,0.2v-0.8
		c0.2,0.2,0.5,0.4,0.7,0.2c0.2,0.2,0.2,0.4,0.4,0.4c0.4-0.2,0-0.5,0-0.7c-0.3-0.2-0.5-0.2-0.7,0V42c-0.2,0.2-0.5,0.7-0.9,0
		c0.4-0.2,0.5-0.3,0.9-0.3c-0.2-0.1-0.2-0.2-0.4-0.2h-0.2l-0.2,0.2v-0.2c0-0.4-0.3-0.5-0.5-0.5C174.7,41.4,175,41.6,174.7,42z
		 M175.3,17.1c-0.3,0-0.4,0.1-0.4,0.3h-0.2c0,0.1,0.1,0.2,0.3,0.2c0-0.2,0.2-0.3,0.4-0.5H175.3z M175,32.3h-0.2
		c0,0.2,0.2,0.2,0.3,0.4c0-0.2,0.2-0.2,0.2-0.4c0.2,0,0.8,0.4,0.5-0.2l-0.2,0.2c-0.2-0.2-0.5-0.2-0.7-0.3V32.3z M175.1,40.5
		c0.2,0.2,0.1,0.1,0.2-0.1c0-0.1,0-0.2,0.1-0.3c0-0.4-0.5-0.4-0.5,0C175,40.1,175,40.3,175.1,40.5z M175.3,23.5
		c0.2-0.4,0-0.4-0.2-0.4C175,23.5,175.1,23.5,175.3,23.5z M175.1,40.9c0.2,0.1,0.2,0.3,0.2,0.5h0.2v-0.2c0.1-0.1,0.3-0.2,0.5-0.2
		v0.3c0-0.2,0.2-0.3,0.2-0.5c-0.1,0-0.2-0.1-0.3-0.2C175.7,40.8,175.5,40.9,175.1,40.9z M176.1,32.5c-0.4,0.2-0.7,0.3-0.8,0.7
		c0.2,0.2,0.5,0.2,0.7,0.3v0.4c0.2,0,0.5,0.2,0.8,0.2v0.3l-0.2,0.2c0.2,0,0.3-0.2,0.5-0.2c-0.4-0.4-0.6-0.7-1.2-0.7
		c0.6-0.2,0-0.3-0.2-0.5l0.3-0.4V32.5z M175.3,34.5c0.2,0.3,0.8-0.4,0.3-0.5C175.5,34.1,175.5,34.3,175.3,34.5z M175.5,37.8
		l-0.2,0.2v0.2c0.4-0.2,0.6-0.3,1-0.3c-0.2-0.2-0.4-0.2-0.7,0H175.5z M176.1,40c-0.4-0.2-0.7-0.4-0.8,0h0.3l-0.2,0.4
		c0.6-0.2,1-0.2,1.5-0.4c0.2,0.2,0.4,0.2,0.5,0.4c0.1-0.2,0.2-0.2,0.3-0.3l0.1-0.1c0-0.4-0.4-0.2-0.5,0v-0.5c0,0.2-0.1,0.4-0.4,0.5
		C176.8,39.6,176.3,39.6,176.1,40z M175.6,15.4c0-0.2-0.1-0.3-0.2-0.3C175.3,15.5,175.5,15.4,175.6,15.4z M176.1,28.1
		c0-0.2-0.2-0.5-0.2-0.7h-0.2V28l-0.4-0.2v-0.3v0.8l0.4-0.3L176.1,28.1c-0.1,0.1-0.2,0.2-0.2,0.3c0.4,0,0.7-0.2,0.8,0
		c0.2,0,0.3,0,0.7-0.2c-0.4-0.2-0.5,0.2-0.8,0.2c0.2-0.4,0-0.7-0.2-0.8c0-0.3,0.1-0.4,0.3-0.4h0.4c0,0.4-0.6,0.5,0,0.7
		c0-0.4,0.8-0.2,0.5,0.2c0.4,0,0.2-0.5,0.4-0.7c-0.2,0-0.5,0.3-0.7,0.2l0.1-0.2c0.1-0.2,0.2-0.2,0.2-0.2c-0.4,0-0.5-0.2-0.8-0.2
		c-0.4,0.2-0.7,0.7-0.3,1H176.1z M175.8,41.8c0.4,0,0.7,0,0.8,0.2c0.4-0.4-0.2-0.9-0.4-0.3C175.9,41.3,175.8,41.5,175.8,41.8z
		 M176.7,44.3c-0.4-0.4-0.7-0.2-0.8-0.2C175.8,44.6,176.3,44.3,176.7,44.3z M176.1,30.1c-0.1,0-0.2,0.1-0.2,0.2h0.7
		c0-0.2,0.2-0.3,0.2-0.5c-0.4,0-0.7,0-0.5,0.4H176.1z M176.7,39.5h0.2c-0.1-0.1-0.2-0.1-0.2-0.2v-0.1h0.5c-0.4-0.2-0.8,0-1.2-0.2
		C176,39.7,176.7,38.8,176.7,39.5z M176,42.3c0.2-0.2,0.4,0.3,0,0.2V42.3z M180.8,41c-0.2-0.2-0.5-0.2-0.7-0.2
		c-0.1,0.1-0.2,0.2-0.3,0.2c0-0.2,0.1-0.3,0.3-0.5h-0.3v-0.2l0.2,0.2c0-0.3,0.1-0.4,0.2-0.4l0.1,0.1c0.1,0.1,0.2,0.1,0.3,0.1v-0.5
		c-0.4,0.2-0.7,0.2-1,0.2c-0.6,0-0.7,0.3-0.7,0.7c-0.4-0.2-0.2-0.3-0.2-0.5h-0.4v-0.3c-0.4,0-0.3,0.3-0.2,0.7
		c-0.4,0.2-0.7,0.2-0.8-0.2c-0.5,0-0.8,0.2-1,0.5c0.4,0,0.6,0.1,0.7,0.2c0.3,0,0.4,0.1,0.5,0.2c0-0.4,0.2-0.5,0.5-0.5
		c0,0.2-0.2,0.5-0.2,0.7c-0.3-0.2-0.5-0.2-0.7,0c0,0.2-0.2,0.3-0.2,0.7h0.7c-0.2-0.1-0.2-0.2-0.3-0.2h-0.2l0.1-0.2
		c0.1-0.2,0.1-0.2,0.2-0.4c0.2,0.2,0.2,0.4,0.4,0.5v0.5c0-0.3,0.1-0.4,0.3-0.4c0,0.2,0.2,0.4,0.2,0.5c0-0.2,0-0.5-0.2-0.5l0.5,0.2
		v-0.4c-0.4,0-0.8,0.4-0.8-0.2l0.1-0.1l0.2-0.3v0.4c0.1-0.1,0.2-0.2,0.4-0.2h0.2c0.1,0,0.2-0.1,0.3-0.2c0.3,0.3,0.4,0.4,0.5,0.4
		h-0.7c0.2,0.2,0.4,0.2,0.5,0.3h-0.5c0.2,0.2,0.2,0.5,0.2,0.7c0.2,0,0.4,0.2,0.5,0.2c-0.2-0.3-0.3-0.4-0.2-0.5
		c0.4,0.2,0.5-0.3,0.7-0.7l-0.5,0.2c0.2-0.2,0.4-0.5,0.5-0.7c0,0.2,0.2,0.5,0.2,0.8h0.2v0.2c0.1-0.2,0.3-0.3,0.5-0.5
		c-0.2,0.2-0.5,0.2-0.7,0.3l0.2-0.5l-0.4-0.4l0.5,0.2l-0.2-0.3C180.5,41,180.7,41.2,180.8,41c0.2,0,0.2-0.2,0.4-0.4V40
		c-0.2-0.2-0.2-0.3-0.4-0.5c-0.2,0.2-0.4,0.5,0,0.7V41z M176.5,12.7 M181.3,21.3c-0.2,0-0.4,0.1-0.5,0.2v-0.3h-0.1
		c-0.1,0-0.2-0.1-0.2-0.2c-0.4,0.2-0.7,0.2-0.7-0.4c0,0.6-0.5,0.5-0.7,0.4v0.3c-0.4,0-0.4-0.5-0.2-0.7h-0.2v0.4h-0.3
		c-0.4,0-0.9,0-0.7,0.5c-0.3,0-0.4,0.1-0.4,0.2l0.1-0.1c0.1-0.1,0.2-0.1,0.3-0.1c0.4,0.2,0.5,0.4,0.8,0.4v0.1c0,0.1-0.1,0.1-0.2,0.1
		l0.5-0.2l-0.2,0.3l0.2,0.2c-0.2,0-0.3-0.1-0.3-0.2c-0.6-0.2-1-0.3-1.3-0.2c-0.2,0-0.3-0.5-0.7-0.3c0.2,0.2,0.3,0.5,0.7,0.7
		c0.2-0.3,0.4-0.4,0.5-0.4c0,0.4,0,0.7,0.2,1c-0.2-0.2-0.4-0.5-0.5-0.5v0.5h0.4c0.2,0.2,0.5,0.5,0.2,0.5c0.4,0.4,1,0,1.2,0.5
		c-0.4,0.2-0.7,0-0.9-0.2v0.4c-0.4,0-0.6,0-1-0.2c0.2,0.2,0.3,0.2,0.5,0.4v0.3v-0.2c0.1-0.1,0.2-0.2,0.2-0.2h0.1h1v-0.5
		c-0.2,0-0.2-0.5,0-0.7c-0.2,0-0.5,0-0.7-0.2v0.3c-0.4-0.2-0.4-0.5-0.4-0.8c0.1,0.1,0.3,0.2,0.5,0.2l-0.2,0.4h0.5
		c0-0.2-0.2-0.4-0.2-0.5c0.2,0.4,0.5,0.3,0.8,0.3c-0.1,0.2-0.3,0.2-0.5,0.2v0.2h0.5c0,0.4-0.3,0.5-0.2,0.8c0-0.2,0.2-0.2,0.4-0.3
		c0,0.1,0,0.2,0.1,0.2l0.1,0.1h-0.5c0.1,0.2,0.2,0.3,0.2,0.4c0.2-0.4,0.5,0,0.9,0c-0.6-0.2-0.4-0.7,0-0.4c0.4,0,0.5-0.2,0.8-0.2
		c0.4-0.2,0.5-0.2,0.7-0.2v0.1c0,0.1-0.1,0.1-0.2,0.2l-0.2-0.2v0.4c-0.4,0-0.7-0.2-1,0.2c0.5-0.2,0.9-0.2,1.3,0v-0.4
		c0.3,0,0.4,0.1,0.5,0.2c-0.2-0.2-0.4-0.4-0.4-0.5c0-0.3,0.1-0.4,0.4-0.4v0.4c0.1-0.1,0.2-0.3,0.2-0.5c-0.4,0-0.5,0.2-0.8,0.2
		c0-0.2,0.2-0.2,0.3-0.3h0.5c0-0.4,0.2-1.2-0.5-1c0.2-0.2,0.2-0.5,0.5-0.3v-0.7l-0.2-0.3l-0.1-0.1h-0.5c-0.6-0.3-0.7,0.4-1.2,0.2
		C180.8,20.9,181.2,20.9,181.3,21.3z M176.8,13.6v0.2h0.5l0.2,0.2c-0.4,0-0.7-0.1-0.7,0.3h0.2l-0.1,0.1c-0.1,0.1-0.1,0.1-0.1,0.3
		c0.1,0.1,0.3,0.2,0.5,0.2v-0.7h0.3c-0.2-0.2-0.2-0.4-0.3-0.5H176.8z M176.8,22.7 M177.2,33.2c0.1-0.2,0.3-0.2,0.5-0.2
		c0-0.2-0.2-0.3-0.2-0.5c0,0.1-0.1,0.2-0.1,0.2c-0.1,0.1-0.1,0.1-0.1,0.1c-0.2,0-0.3-0.1-0.5-0.3C177,32.9,177,33,177.2,33.2z
		 M177,43.2c-0.1,0.1-0.1,0.1,0,0.1c0,0.1,0.1,0.1,0.2,0.1c0.2-0.2,0.3-0.2,0.5-0.3h0.4l0.2-0.2c-0.2,0-0.3,0-0.5-0.2
		C177.6,43.2,177,42.8,177,43.2z M178.1,28.3c-0.4,0.4-0.8,0.5-1.2,0.7h0.1c0.1,0,0.1,0.1,0.1,0.2c0.2-0.4,0.5-0.5,0.5,0
		c0.1,0,0.1,0,0.1-0.1c0.1-0.1,0.2-0.1,0.3-0.1v0.5c0.1,0.1,0.3,0.2,0.5,0.2c0-0.2,0.1-0.4,0.2-0.5c-0.2,0-0.4,0.2-0.5,0.4
		c-0.6-0.4,0.2-0.7,0.5-0.7h-0.8c0.2-0.2,0.5-0.4,0.8-0.5H178.1z M177.6,34c-0.2-0.2-0.3-0.4-0.5-0.4C176.8,34,177.5,34.3,177.6,34z
		 M177.6,15.9v-0.5c-0.8,0,0.3-0.6-0.2-1c0,0.2-0.2,0.4-0.2,0.5C176.7,15.1,177.5,15.5,177.6,15.9z M177.2,42.5 M178.1,30
		c0-0.4-0.3-0.5-0.5-0.4C177.6,29.8,178,30,178.1,30z M178.5,39.3v0.4c-0.4,0.5,0.3,0.5,0.5,0.3c0.5,0,0.7-0.2,0.7-0.7H179
		c-0.1,0-0.2,0.1-0.2,0.4v-0.4H178.5z M179,37.3c0.2,0,0.4,0.5,0.5,0.2c0.2-0.2-0.2-0.3-0.2-0.5L179,37.3z M179.5,39
		c-0.4,0-0.5-0.1-0.3,0.3C179.3,39.5,179.5,39.4,179.5,39z M180,21.1c0,0.2-0.2,0.3-0.2,0.5c0,0.5,0.7,0.2,0.8,0.2l-0.1,0.2
		c-0.1,0.1-0.1,0.2-0.1,0.3l0.3-0.2l-0.2,0.4l-0.2,0.2v0.2c0,0.1,0.1,0.2,0.2,0.2c-0.6,0-1-0.2-1.3-0.4c0-0.4-0.1-0.7,0.3-0.8
		c0-0.1-0.1-0.2-0.1-0.3c-0.1-0.1-0.1-0.2-0.1-0.2L180,21.1z M179.3,30c0.3,0.2,0.5,0.4,0.7,0.7c-0.2,0-0.3,0.2-0.7,0.3h0.5
		c0.4-0.2,0.3-0.5,0.5-0.7h0.5v-0.2c0.2,0,0.5-0.2,0.7-0.5c-0.2,0.2-0.5,0.2-0.7,0.4C180.5,30.4,179.9,30,179.3,30z M181.3,36.6
		c-0.4,0.2-0.8,0.2-1-0.2c0,0.1,0,0.2,0.1,0.2l0.1,0.1c-0.2,0.3-0.5,0.4-0.9,0.4c0,0.2,0.2,0.2,0.4,0.3c-0.1,0.2-0.2,0.3-0.4,0.4
		h0.7v-0.4c0,0.2,0.1,0.2,0.2,0.2c0.1,0.1,0.1,0.1,0.2,0c-0.1-0.2-0.2-0.4-0.2-0.7h0.3v0.3c0.6-0.2,0.5,0.4,0.7,0.5v-0.5
		c0.2,0,0.3,0.4,0.7,0.5c-0.1-0.1-0.2-0.3-0.2-0.7l-0.3,0.2c-0.2-0.4,0.2-0.3,0.3-0.5v0.4c0.2-0.2,0.5-0.2,0.8,0
		c-0.2-0.2-0.2-0.4-0.3-0.5l-0.1,0.1c-0.1,0.1-0.1,0.1-0.1,0.3c0-0.1-0.1-0.2-0.1-0.3l-0.1-0.1l-0.5,0.2c0.5-0.2,0-0.7-0.2-0.3
		c-0.4-0.4-0.1-0.7-0.5-1C181.2,35.8,181.2,36.3,181.3,36.6z M179.8,39.7c0.3,0.2,0.6-0.5,0.2-0.5C179.8,39.3,179.5,39.7,179.8,39.7
		z M180.3,23.5c-0.2,0-0.5-0.2-0.4-0.4C180.1,22.9,180.5,23.1,180.3,23.5z M180.5,10.9c0.2,0.4,0.2,0.5,0.5,0.7c0-0.2,0-0.3,0.1-0.3
		l0.1-0.2h-0.5c0.2-0.2,0.2-0.3,0.4-0.5c-0.2,0.2-0.5,0.2-0.7,0.3H180.5z M180.3,15.6h0.3c0,0.1-0.1,0.2-0.1,0.3
		c-0.1,0.1-0.1,0.1-0.1,0.1h0.5l0.2,0.2c0.5,0,0.1-0.8-0.4-0.3v-0.4h0.4l-0.2-0.2c-0.2,0.2-0.5,0.2-0.7,0.2V15.6z M180.3,38.6
		c0.2,0.2,0.2,0.5,0,0.8c0.4,0,0.5-0.2,0.7-0.2c0.2,0.2,0.2,0.5,0.3,0.7h0.2c0.1,0,0.2-0.1,0.3-0.2c-0.2-0.4-0.7-0.4-0.8-0.8h0.3
		v-0.7h0.4H181c0.1-0.2,0.2-0.3,0.2-0.5c-0.2,0.2-0.5,0.2-0.7,0.3C180.5,38.3,180.3,38.5,180.3,38.6z M181.2,38.6
		c0,0.4-0.5,0.2-0.7,0C180.7,38.3,181,38.5,181.2,38.6z M181.4,10.9l0.1,0.1h0.4c-0.4,0.4-0.7,0.5-1,0.9c0.4,0,0.7-0.4,0.9-0.5h0.5
		c0.2-0.2,0-0.4,0-0.5c-0.4,0.2-0.7,0-0.7-0.2h0.2c0.1,0,0.2-0.1,0.3-0.2c-0.4,0.2-0.5,0-0.7,0.2C181.3,10.8,181.3,10.9,181.4,10.9z
		 M181.3,19.6c0-0.2-0.2-0.4-0.3-0.2C181,19.8,181.1,19.8,181.3,19.6z M181,29.1c0.2,0.2,0.5,0.4,0.7,0.5c0.2-0.2,0.3-0.3,0.3-0.7
		h-0.7c-0.1,0.1-0.2,0.2-0.2,0.2H181z M181.8,11.9c-0.3,0-0.5,0.1-0.7,0.3c0.4-0.2,0.5-0.1,0.5,0.4c0.4-0.2,0.2-0.4,0.3-0.5
		c0.4-0.4,0.4,0,0.5,0.2l0.2-0.2c0-0.1-0.1-0.2-0.1-0.3c-0.1-0.1-0.1-0.1-0.1-0.1C182.3,11.7,182,11.7,181.8,11.9z M181.8,21.6
		l0.3,0.3v0.7c-0.4,0.2-0.5-0.5-0.2-0.7h-0.3c-0.1,0-0.2,0.1-0.3,0.1c-0.1,0.1-0.1,0.1-0.1,0.1l-0.2-0.2h0.3c0-0.2-0.2-0.3-0.2-0.5
		c0.2,0,0.3-0.1,0.5-0.3V21.6z M182.7,32c-0.2,0.2-0.3,0.7-0.5,0.7c0-0.2-0.2-0.4-0.2-0.5l-0.3,0.4c0,0.4,0,0.5-0.4,0.8l0.5-0.4
		l-0.2,0.5c0.2-0.4,0.5-0.5,0.8-0.2v-0.2c0-0.2-0.4-0.2-0.4-0.4c0.2,0,0.4-0.2,0.5,0V32z M182,28.4c-0.4,0-0.3,0.2-0.3,0.4
		C181.8,28.8,182,28.8,182,28.4z M182.1,42.2c-0.2,0-0.4-0.1-0.5-0.2l0.3,0.9c0-0.2,0.2-0.4,0.2-0.5c0.2,0.4,0.5,0.5,0.4,0.8
		c0.4-0.2,0.2-0.8,0.2-1.2l-0.2,0.2c0-0.4-0.2-0.5-0.4-0.9C182.1,41.7,181.8,42,182.1,42.2z M182.1,43.3c0.2-0.4-0.2-0.5-0.3-0.3
		C181.7,43.4,182,43.5,182.1,43.3z M182,21.1h0.1h0.2c0.2,0,0.2-0.1,0.2-0.2c0,0.2-0.2,0.5-0.2,0.7c-0.6,0.2-0.4-0.3-0.5-0.7
		C181.9,21,181.9,21.1,182,21.1z M181.8,30.4h0.7v0.4c-0.4-0.2-0.5-0.2-0.7-0.2c0.2,0.2,0.2,0.3,0,0.5h0.2c-0.2-0.4,0.4-0.5,0.5-0.2
		c0.2-0.4,0.2-0.5,0.2-0.8c0,0.2-0.2,0.2-0.3,0.3c-0.3-0.2-0.4-0.3-0.4-0.5C182,30.1,181.8,30.3,181.8,30.4z M182.5,38.1
		c0,0.6-0.5,0.7-0.7,1h0.5c0,0.4-0.2,0.5-0.4,0.7c0.2,0.2,0.4,0.2,0.4,0.5h0.2c0,0.2-0.4,0.2-0.4,0.3h0.4c-0.1,0.1-0.2,0.2-0.2,0.3
		V41c0,0.1,0.1,0.2,0.2,0.2h0.2v-1.8l-0.2,0.2c-0.1-0.1-0.2-0.3-0.2-0.5c0-0.2,0.1-0.3,0.3-0.5v-0.8c-0.2,0.2-0.5,0.3-0.8,0.5H182.5
		z M182.3,35l0.2,0.2h-0.2v0.2h0.3c-0.2,0.2-0.3,0.5-0.5,0.8c0.1,0.1,0.1,0.1,0.1,0.1c0.1,0.1,0.1,0.1,0.1,0.2l-0.1,0.1
		c-0.1,0.1-0.1,0.1-0.3,0.1c0.4,0,0.5,0,0.5-0.4l0.2,0.2c0-0.6,0.2-1.2-0.2-1.5v-0.5c-0.4,0-0.2,0.4,0,0.5L182.3,35z"/>
	<path class="st0" d="M184.4,9.9h9.5v17.4c0,2.7-0.2,5.3,0.2,8.1c0.2,1.8,0.7,3.6,2.2,5c0.8,0.9,2.3,1.4,3.5,1.4c1.6,0,3-0.2,4.1-1
		c1-0.7,1.6-1.7,2-2.7c0.2,2.2,0,4.5,0.2,6.7c-0.6-0.2-0.8-0.2-1.3-0.2c0-0.6,0-1-0.2-1.3c-0.2-0.4-0.5-0.5-0.5-0.8h-1.5v0.3
		c-0.2,0.2-0.4,0.4-0.5,0.5v-0.5c0,0.5-0.2,0.7-0.7,0.5c0.2,1.3,0.2,2.5,0,3.7c-0.2,0.2-0.5,0.2-0.7,0.2v-4
		c-0.4-0.2-0.7-0.2-0.9-0.5c-0.8-0.4-1.6,0-2.5,0c0,0.6-0.5,0.3-0.8,0.3v-0.5c-0.4-0.2-0.2-0.8-0.3-1.2h-2.2c0,0.4-0.2,0.6-0.2,1.2
		h-0.5v-1c-0.2,0-0.2-0.2-0.3-0.2v-1.7h-1.3V37c-0.7-0.2-1.5-0.2-2.2-0.2c-0.6,0.2-0.9,0.2-1.5,0.2v5.4c-0.2,0-0.4,0.2-0.5,0.2v-0.8
		c-0.4,0-0.3-0.4-0.3-0.7h-0.7v-1h-0.5v-0.8c-0.4-0.2-0.8-0.5-1.2-0.9c-0.4-2.5-0.4-5.2-0.4-7.7V9.9z M185.4,11.4v-0.7h0.7
		c-0.4-0.2-0.7-0.2-0.8-0.2C185.2,10.9,185.2,11,185.4,11.4z M186.6,37.5c0,0.3-0.1,0.4-0.4,0.4h0.1c0.1,0,0.1,0.1,0.1,0.2
		c0.1,0.5,0.5,0.1,0.8,0.2c0-0.3-0.1-0.6-0.4-1c-0.4,0.2-0.5,0.3-0.7,0.3H186.6z M186.9,14.5c-0.2,0-0.3,0-0.2,0.4
		C186.9,14.9,187.1,14.9,186.9,14.5z M186.9,23.6c0.2,0,0.4-0.2,0.5-0.2h-0.2c0-0.2,0.2-0.2,0.2-0.3l-0.1-0.1
		c-0.1-0.1-0.1-0.1-0.1-0.3h-0.4c0-0.2,0.2-0.3,0.2-0.5c-0.2,0-0.2,0.2-0.4,0.2C186.7,22.8,186.7,23.2,186.9,23.6z M186.7,37
		c0.6-0.2,0.8-0.5,1-0.8c-0.2,0-0.4,0.2-0.5,0.2C187.1,36.6,186.9,36.6,186.7,37z M187.1,13.6c0.4,0,0.4-0.7,0-0.5
		C186.7,13.2,186.7,13.7,187.1,13.6z M187.7,33.6v0.5c0.2,0,0.3-0.2,0.5-0.2h-0.3c0.1-0.2,0.2-0.2,0.2-0.3v-0.1
		c-0.4,0-0.7,0-0.8,0.2C187.4,33.8,187.5,33.6,187.7,33.6z M187.7,11.4c0.2,0.4,0.3,0.7,0.7,0.8c0-0.2-0.2-0.5-0.4-0.5
		c0.4,0.2,0.5,0,0.7-0.2h-0.5c0.2-0.2,0.4-0.4,0.5-0.5c-0.4,0-0.7,0-0.7,0.4H187.7z M188.2,14.4c0,0.4,0.2,0.5,0.4,0.8
		c-0.2,0-0.4,0.2-0.5,0.2c0.2,0,0.5,0.2,0.7,0.2c-0.3,0-0.5,0.1-0.7,0.4l0.2,0.2v-0.4c0.2,0,0.5,0,0.7,0.2c0-0.4-0.2-0.5,0-0.9
		c-0.2-0.2-0.3-0.2-0.5-0.3c0-0.1-0.1-0.2-0.1-0.3L188.2,14.4z M188.7,34.6c0.4,0.4,0.2,0.6,0,1c0.1-0.1,0.2-0.2,0.3-0.2h0.1V35h0.3
		l-0.1,0.1c-0.1,0.1-0.1,0.1-0.1,0.3h0.5c-0.4-0.4-0.1-0.8,0.3-1.2c-0.2,0.4,0.2,0.7,0.5,0.3c-0.2-0.2-0.3-0.1-0.3-0.5
		c-0.4,0.2-0.7,0.3-0.9,0.8h-0.3c0.2-0.7-0.3-1-0.9-1.3C188.6,33.8,188.7,34.2,188.7,34.6z M189.7,31c-0.2,0.4-0.7-0.1-0.7,0.3
		c0.2,0,0.5-0.2,0.7-0.2V31c0.2-0.4,0.2-1,0.2-1.5c0,0.2-0.2,0.2-0.2,0.3v0.2v0.4h-0.4c0.2-0.2,0-0.5,0-0.8
		C189.4,29.9,189.1,30.6,189.7,31z M189.6,25.1c0.1,0.1,0.1,0.2,0.2,0.2h0.1c0.2,0.2,0.3,0.4,0.7,0.5c0-0.4-0.2-0.5-0.5-0.5
		c0-0.2,0.2-0.2,0.4-0.3h-0.7c0-0.2-0.4-0.7-0.5-0.4C189.4,24.7,189.6,24.9,189.6,25.1z M189.4,11.4v0.5c0-0.2,0.2-0.2,0.4-0.3
		c0,0.2-0.2,0.5-0.2,0.7c0.2,0.2-0.4,0.7,0.2,0.7l-0.2,0.3h0.2v-0.3h0.8c0-0.1,0-0.1,0.1-0.1c0.1-0.1,0.1-0.2,0.1-0.3l0.2,0.5
		c0-0.2,0.2-0.3,0.5-0.5c-0.2,0.6,0.2,0.4,0.5,0.4l-0.2,0.3l0.5,0.2c-0.4,0-0.5,0.2-0.7,0.3h0.2c0.4-0.2,0.7-0.2,0.8,0
		c0,0.2-0.2,0.4-0.2,0.5c0.1-0.1,0.3-0.2,0.5-0.2L193,14c0.1-0.1,0.2-0.1,0.2-0.1c-0.2-0.2-0.4-0.3,0-0.5c-0.4,0-0.7,0.3-0.8,0.2
		v-0.7c0.2-0.4-0.4-0.7-0.5-0.2l-0.3-0.4v0.5h-0.2c0.2-0.4,0.2-0.7,0.2-1c0,0.3,0.1,0.4,0.2,0.5c0.2,0,0.3,0,0.7-0.2
		c-0.2-0.2-0.4-0.5-0.4-0.7c-0.5-0.2-0.8-0.5-1.3-0.7c0,0.1-0.1,0.2-0.1,0.2h-0.1c-0.2,0-0.3-0.2-0.5-0.2
		C189.7,11,189.7,11.6,189.4,11.4z M189.4,20.7l0.2-0.2v-0.2c0.2-0.2,0.3-0.2,0.3-0.5c-0.2,0-0.2-0.2-0.3-0.4
		C189.4,19.9,189.4,20.2,189.4,20.7z M190.1,19.9v0.3h-0.2v0.2c0,0.2,0.1,0.3,0.2,0.3v-0.3c0.1,0,0.2,0.1,0.3,0.1
		c0.1,0.1,0.1,0.1,0.1,0.1c0-0.2,0.2-0.5,0.2-0.7H190.1z M190.6,21.6v-0.5h-0.5v0.1c0,0.1-0.1,0.1-0.2,0.2
		C190.3,21.4,190.4,21.6,190.6,21.6z M190.1,24.6c0.2-0.4,0.5-0.5,0.7-0.3c0.2,0.4,0.4,0.5,0,0.7c0.4,0,0.5,0.2,0.9,0.3h-0.5
		c0,0.3-0.1,0.4-0.2,0.5c0.1,0.1,0.2,0.3,0.2,0.5c0.2,0,0.3-0.2,0.5-0.2c-0.4,0-0.7-0.7,0-0.7c-0.2,0.2,0,0.4,0.2,0.5
		c-0.4-0.4,0-0.5,0.2-0.7h-0.3c0-0.4,0-0.9,0.5-0.5c0.2-0.2,0.5-0.3,0.5-0.7h-0.2c-0.1,0-0.2,0.1-0.2,0.4c0-0.2,0-0.5-0.4-0.5
		c-0.2,0.2-0.2,0.4-0.3,0.4c-0.2-0.2-0.2-0.5-0.4-0.9h0.2h-0.2c0,0.2-0.2,0.4-0.2,0.5c-0.2-0.2-0.2-0.5-0.4-0.5
		C190.6,23.8,190.3,24,190.1,24.6z M190.6,12.1h0.2c0.2,0.1,0.2,0.3,0.2,0.5c-0.3-0.2-0.5-0.3-0.5-0.3
		C190.4,12.1,190.5,12.1,190.6,12.1z M191.4,23.9c0,0.4-0.5,0.4-0.7,0.2C190.7,23.9,191.2,23.8,191.4,23.9z M191.2,20.6h0.2
		l-0.2,0.2h-0.3c0.2,0.2,0.3,0.4,0.5,0.2c-0.2,0.2-0.2,0.4-0.3,0.5h0.3c0-0.1,0.1-0.2,0.1-0.2l0.1-0.1c0.2-0.4-0.2-0.5-0.4-0.9V20.6
		z M191.2,30.8l0.2,0.2h-0.5c0,0.2,0.2,0.5,0.3,0.8v-0.5c0.3,0,0.4-0.1,0.5-0.2h-0.4v-0.3H191.2z M191.2,29.3c-0.2,0-0.4,0.7,0,0.7
		C191.6,29.8,191.4,29.5,191.2,29.3z M191.2,24.6c0.4-0.2,0.4,0.5,0,0.4V24.6z M191.9,23.6c-0.2-0.5,0.4-0.4,0.5,0.2
		c0-0.2,0.2-0.4,0.2-0.5c-0.1,0.1-0.2,0.1-0.3,0c-0.2-0.2-0.5-0.5-0.7-0.2C191.9,23.3,191.9,23.4,191.9,23.6z M191.7,32.6h0.2
		l0.1-0.2c0.1-0.1,0.2-0.2,0.3-0.2c-0.2-0.2-0.2-0.4-0.4-0.4C191.5,32.1,191.7,32.2,191.7,32.6z M191.7,17.4 M191.7,26.6
		 M192.9,14.5c-0.4,0-0.9-0.2-0.9,0.4C192.3,14.9,192.6,14.9,192.9,14.5z M192.4,31.3c0.4,0.2,0.5,0.3,0.5,0.7l-0.9-0.3
		c0.3,0,0.4,0.1,0.4,0.3v0.5h-0.2v0.2h0.2c0.2-0.4,0.2-0.7,0.2-0.8c0,0.2,0,0.3,0.1,0.3l0.1,0.2l0.4-0.2l-0.2,0.5l0.2-0.2V33
		l0.2-0.2c0-0.6-0.2-1,0-1.5c-0.2-0.4-0.3-0.5-0.3-0.8c-0.2,0.2-0.6,0.2,0,0.4C193.1,31,192.7,31.8,192.4,31.3z M192.7,18.6h0.2
		l0.1-0.1c0.1-0.1,0.2-0.1,0.2-0.1c-0.2-0.2-0.2-0.3-0.3-0.7h0.3c-0.2,0-0.4-0.1-0.5-0.2C192.9,17.9,193.1,18.4,192.7,18.6z
		 M193.7,39.2c0.4-0.2-0.2-0.5-0.4-0.4C193.2,39,193.6,39.3,193.7,39.2z M194.3,39.5c0-0.1-0.1-0.2-0.1-0.2
		c-0.1-0.1-0.1-0.1-0.1-0.1c-0.4,0.2-0.4,0.4-0.4,1c0-0.2,0.4-0.2,0.5-0.2c-0.2,0.2-0.4,0.3-0.4,0.5c0.4,0,0.8,0,1.2-0.2V40
		c-0.2,0-0.5,0.2-0.5-0.2h-0.2c0-0.3,0.1-0.4,0.2-0.5c0-0.2-0.1-0.3-0.3-0.5V39.5z M194.3,38.8c0-0.3-0.1-0.3-0.4-0.2
		C193.9,38.8,194,38.8,194.3,38.8z M201.4,42.5c-0.2-0.4-0.5-0.4-0.7-0.2C200.8,42.5,201.3,42.7,201.4,42.5z M204.5,41.5
		c0.2,0.4,0.1,0.9,0.5,0.7v0.2c-0.5-0.2,0.2,0.3,0.2,0.5c0.2-0.5,0-1,0-1.3H204.5z M206.6,9.9h9.4v23.5c0,2.5,0,5.2-0.9,7.5
		c-0.7,0-1.3,0-2,0.2v0.5c-0.1,0-0.2,0.1-0.2,0.1v0.1c-0.2,1,0,2,0,3c-0.2,0.4,0,0.8-0.4,1.2c0-2.4-0.2-4.5-0.2-6.9
		c-0.6,0-0.8,0.2-1.3,0v-0.1c0-0.1-0.1-0.1-0.2-0.1c-0.2,0.2-0.2,0.5-0.4,0.8c-0.1-0.1-0.3-0.2-0.5-0.2v-0.7c-0.3,0-0.5-0.1-0.7-0.2
		V39c-0.2-0.1-0.2-0.2-0.2-0.2h-0.1c-0.4,0-0.5,0.2-0.8,0.2c0,0.6,0.2,1-0.4,1.2c-0.2,1.8,0,3.7,0,5.7c-0.2-0.2-0.2-0.4-0.3-0.4
		l-0.1,0.1c-0.1,0.1-0.2,0.1-0.3,0.1c-0.2-0.4-0.1-0.8-0.7-1.2V9.9z M207.4,22.4h0.2c0.2-0.4,0.3-0.7,0.5-0.9l-0.2,0.2v-0.4
		c-0.2,0.2-0.3,0.4-0.7,0.5C207.4,22.1,207.7,22.2,207.4,22.4z M207.3,40c0.4-0.4,0.5-0.8,0.4-1.3h0.3c-0.1-0.1-0.3-0.2-0.5-0.2
		C207.3,39,207.3,39.4,207.3,40z M208,37.8c-0.2-0.2-0.5-0.2-0.5,0C207.7,38,207.8,38,208,37.8z M208.1,31.1c0-0.2-0.3-0.3-0.3-0.2
		C207.7,31.1,208,31.3,208.1,31.1z M207.8,11.4 M208.8,31.6c-0.1,0-0.2,0.1-0.2,0.2C208.8,31.9,209,31.8,208.8,31.6z M209.1,12.4
		h0.5l0.2,0.2c0,0.3-0.1,0.4-0.2,0.4c0.4,0,0.6,0.3,1,0.2c-0.4,0-0.5-0.2-0.5-0.5c-0.5-0.2,0-0.5,0.2-0.7c-0.2,0-0.5,0.2-0.7,0.4
		C209.5,12.2,209.1,12.2,209.1,12.4z M210.6,13v-0.5l0.2,0.2c0.3-0.3,0.4-0.4,0.4-0.5c-0.4,0-0.7-0.4-0.8,0.2
		C210.3,12.5,210.3,13,210.6,13z M211.5,12.9c-0.3-0.2-0.5-0.2-0.7,0C210.8,13.2,211.3,13,211.5,12.9z M211.1,32.8 M212.6,11
		l-0.2,0.2c-0.2-0.2-0.4-0.3-0.7-0.3c0,0.2,0.2,0.2,0.2,0.3h1l-0.2-0.3l0.1-0.1c0.1-0.1,0.2-0.1,0.2-0.1c-0.4,0-0.6,0-1,0.2
		C212.4,10.9,212.5,10.9,212.6,11z M212.6,12.4h-0.3l0.2,0.2h-0.3v0.2H212v0.2c0.1,0,0.2,0.1,0.3,0.1c0.1,0.1,0.1,0.1,0.1,0.1v0.7
		v-0.3c0.4,0,0.3-0.2,0.3-0.5c0.2,0,0.5,0,0.7-0.2v0.5h0.1c0.1,0,0.1-0.1,0.1-0.2v-0.3h0.2c0.1,0,0.2,0.1,0.2,0.2l-0.2-0.5l0.3,0.2
		l0.1-0.1c0.1-0.1,0.1-0.2,0.1-0.2c-0.4,0-0.5,0.2-0.7,0.2l0.2,0.4c-0.2,0-0.5,0-0.7-0.2l-0.2,0.1c-0.2,0.1-0.3,0.1-0.3,0.1
		c0.2-0.2,0.4-0.4,0.4-0.5h-0.2c0-0.7,0.4-0.2,0.5,0c0-0.7,0.3-0.2,0.7,0c0.2-0.3,0.1-0.5-0.3-0.7h-0.2l0.1,0.1
		c0.1,0.1,0.1,0.2,0.1,0.2H213c-0.2-0.2-0.2-0.3-0.4-0.3V12.4z M212.5,13c-0.2,0-0.3-0.1-0.3-0.3C212.5,12.7,212.5,12.7,212.5,13z
		 M212.8,38.3c0,0.3,0.1,0.4,0.3,0.4c0.2,0,0-0.4-0.2-0.5L212.8,38.3z M213.1,32.4c0,0.2,0.2,0.3,0.2,0.7h0.2c0-0.4,0.1-0.6,0.2-0.7
		H213.1z M213.3,10.7 M213.3,40v0.2h1c-0.6,0.2-0.5-0.3-0.7-0.5C213.8,39.9,213.7,40,213.3,40z M214.1,10.8l0.1,0.1
		c-0.4,0-0.4,0.3-0.5,0.5c0.1,0.1,0.1,0.2,0.2,0.2h0.1c0,0.2,0,0.3,0.2,0.7c0-0.4,0.2-0.7,0.2-1c0,0.2,0.1,0.3,0.3,0.5
		c0.2-0.2,0.7-0.3,0.7,0.2c0-0.3-0.1-0.5-0.2-0.7c-0.2,0.6-0.5,0-0.7-0.2h0.9v-0.2h-0.7l-0.1-0.1c-0.1-0.1-0.1-0.1-0.1-0.3
		c-0.4,0.2-0.5,0.2-0.7,0.2C213.9,10.7,214,10.7,214.1,10.8z M214.5,16.2c0.2-0.2-0.5-0.6-0.5,0C214,16.4,214.3,16.4,214.5,16.2z
		 M215.1,35.5"/>
	<path class="st0" d="M235.9,9.4c2,0.6,4.1,1.3,5.7,2.5c-1.2,2.7-2.5,5.3-3.7,8.1c-1.2-1.2-2.7-2.1-4.3-2.5c-1.6-0.4-3-0.4-4.4,0.5
		c-1.2,0.7-1.8,2-1.5,3.2c0.2,1.4,1.5,2.2,2.7,2.7c2.3,1,4.8,1.5,7,2.7c2.2,1.2,4.2,2.8,5,5.2c0.6,1.5,0.9,3.2,0.7,4.8
		c0,1.8-0.2,3.8-0.9,5.7c-0.4-1,0-2-0.2-2.8c-1.1-0.8-0.4-2.1-0.7-3c-0.2,0.8-0.2,1.5-0.2,2.4c-0.2,0.4-0.4,0.5-0.5,0.8
		c0,1.8-0.2,3.7-0.2,5.7c0,0.2-0.2,0.3-0.4,0.5c0.2-0.7-0.3-1.4-0.3-2.1v-1.5c-0.2-0.3-0.4-0.5-0.5-0.7c-0.6,0.2-0.8,0.4-1.3,0.5
		v2.7c-0.2,0.2-0.4,0.4-0.5,0.7h-0.4v-2.4c0-0.4-0.3-0.5-0.5-0.8h-1v0.7l-0.5-0.5c-0.5,0.2-1.1,0.5-1.5,0.9v0.5
		c-0.2-0.2-0.4-0.3-0.7-0.3c-0.2,0.4-0.2,0.5-0.2,0.8c-0.3,0-0.4,0.1-0.4,0.4c0-0.6,0.2-1.2-0.3-1.5c0,0.2-0.2,0.4-0.2,0.5h-1.1
		c0,0.4,0.2,0.8,0,1.2c-0.2-0.8-0.2-1.7-0.2-2.4c-0.1-0.1-0.4-0.2-0.8-0.2v-0.3v0.3h-1.3c0,1,0.2,2.2-0.4,3.2
		c-0.2-0.2-0.2-0.5-0.3-0.7c0-0.5-0.1-0.7-0.2-0.8c-0.4-0.2-0.5,0.1-0.5,0.5c0.2-1-0.5-1.6-0.7-2.5c0,0.4-0.2,0.7-0.4,1.1
		c-0.2,0.9-0.2,1.7-0.2,2.5h-0.3c0-1.2,0.2-2.5-0.5-3.6c-0.2,0.4-0.4,0.6-0.5,1H224l-0.8,0.8c0.4,0.6-0.2,1.4,0,2.1
		c0,0.2,0.2,0.7-0.2,0.5c0-0.1-0.1-0.2-0.1-0.2c-0.1-0.1-0.1-0.1-0.1-0.1h-0.1c-0.1,0-0.1,0.1-0.1,0.2c-0.2-0.2-0.4-0.3-0.7-0.5
		c0-0.7,0.2-1.3,0-2c0-0.6-0.4-0.6-0.5-1c-0.4,0.7-0.4,1.1-0.4,1.8l-0.2-0.2c-0.2-0.8-0.2-1.5-0.2-2.3c-0.2-0.2-0.5-0.2-0.8-0.4
		c-0.3,0-0.6,0.1-1,0.4v2.5c0,0.6,0.2,1.3-0.3,1.7c0-0.7,0-1.8-0.7-2.4c-0.7,0.4-0.9,1.2-0.7,1.8c-0.4,0-0.7,0.2-0.9,0.4l0.5-1.2
		l3.5-7c1.7,1.7,3.8,3.2,6.2,3.8c1.7,0.4,3.6,0.4,5-0.7c1.5-1,2-3,1.3-4.5c-0.7-1.2-2-1.9-3.2-2.5c-2.5-0.8-5-1.3-7.2-2.5
		c-1.4-0.8-2.5-1.6-3.3-3c-1.4-2.1-1.5-4.5-1.5-6.9c0.2-2.9,0.9-5.8,2.7-8.2c1.6-2,3.8-3.5,6.4-4.2C229.9,8.3,232.9,8.6,235.9,9.4z
		 M219.2,19.7c0,0.4-0.3,0.4-0.5,0.4v0.7c0-0.2,0.2-0.5,0.3-0.5h0.5l-0.2,0.3h0.5v0.4c0-0.1-0.1-0.2-0.3-0.2c0,0.4-0.5,0.3-0.7,0.5
		v-0.3h-0.2c-0.2,0.4,0,0.8-0.2,1h0.4c-0.2,0.2-0.2,0.5-0.4,0.5h0.5c-0.2,0.4-0.7,0.5-0.3,1v-0.5c0.4,0,0.5,0,0.8-0.2
		c0,0.4,0.4,0.7,0,0.7c0,0.4,0,0.6-0.2,1.2h0.2v0.2l0.2,0.2v-1c0-0.3,0.1-0.4,0.2-0.5c0.2,0.4,0.4,0.2,0.5,0.3
		c-0.2-0.2-0.7-0.5-0.2-0.7c0.4-0.2,0.7-0.3,0.8-0.7c0.1,0.1,0.2,0.3,0.2,0.5c-0.2,0-0.4,0.1-0.5,0.2c0.2,0.4,0.5,0.2,0.8,0.4
		c-0.2-0.2-0.4-0.2-0.5-0.4c0.4,0,0.9-0.7,1,0c0.1,0,0.2,0,0.2-0.1l0.1-0.1c0,0.4,0,0.5-0.2,0.8c0.2,0,0.4-0.2,0.5-0.2
		c-0.3,0-0.4-0.1-0.4-0.2c0.2-0.2,0.4-0.4,0.5-0.5c-0.2,0-0.3-0.2-0.5-0.2c0.2-0.2,0.5-0.4,0.7-0.5l-0.2-0.2c0.2,0,0.5,0,0.7,0.2
		c0.2-0.4-0.2-0.5-0.3-0.8c0.2,0,0.5-0.2,0.7-0.2c-0.1,0-0.2,0.1-0.3,0.2l-0.1,0.2c0.7,0,0.2,0.5,0.2,0.8c-0.2,0-0.4,0.1-0.5,0.2
		c-0.2,0.6-0.2,1.2-0.7,1.4V24c0.1-0.1,0.3-0.2,0.5-0.2l0.1,0.1c0.1,0.1,0.1,0.1,0.3,0.1c0-0.4-0.4-0.7,0-0.8V23
		c0.2,0,0.2,0.2,0.3,0.2c0.4-0.2,0.5,0,0.7,0.2c0,0.1-0.1,0.3-0.3,0.5c-0.2-0.4-0.2-0.5-0.5-0.7c0,0.3,0.1,0.5,0.2,0.7h0.4
		c0.2-0.2,0.5-0.2,0.7-0.2c-0.2-0.2-0.4-0.3-0.4-0.5c0.3-0.3,0.5-0.3,0.7,0c-0.2-0.2-0.3-0.4-0.3-0.7c0.2,0,0.3,0,0.5,0.2l-0.5-0.5
		c0.5-0.7-0.8,0.1-0.7-0.7c0.4,0.4,0.7,0,0.8-0.2v-0.5c-0.2,0.4-0.7,0-0.8,0l-0.1,0.1c-0.1,0.1-0.1,0.1-0.1,0.2
		c-0.2-0.7-0.9-0.5-1.3-0.5l-0.1,0.1c-0.1,0.1-0.1,0.1-0.3,0.1c0.4,0.2,0.5,0.5,0.7,0.3v-0.5c0.2,0,0.5,0.2,0.8,0.3H223
		c0,0.4,0.2,0.7-0.2,0.8c0-0.1-0.1-0.3-0.3-0.5l0.2,0.5l-0.2-0.2c0.3,0.2-0.5,0.6,0.2,0.5l-0.1,0.1c-0.1,0.1-0.1,0.1-0.1,0.2
		c-0.3-0.2-0.5-0.3-0.5-0.3c0.2,0.2,0.2,0.3,0.3,0.5c-0.4,0-0.9-0.2-1.5-0.5c-0.2,0.2-0.6,0.3-1,0.3v0.4c0-0.4-0.2-0.5-0.2-0.7
		c0.4,0.2,0.7,0.6,1,0v-0.1c0-0.1,0.1-0.1,0.2-0.1c0.2-0.3,0.3-0.5,0.3-0.5c-0.2-0.2-0.5-0.2-0.7-0.4l0.1-0.1l0.3-0.2
		c-0.2,0-0.4-0.5-0.5-0.2c-0.2,0-0.3-0.2-0.5-0.4c0.3-0.2,0.5-0.3,0.7-0.3c0.2-0.4,0.2-0.5,0.4-0.7v-0.2c0-0.2,0.1-0.2,0.2-0.2
		c-0.2,0-0.5,0.2-0.7,0.2c-0.2,0-0.7-0.4-0.7,0C219.5,19.4,219.2,19.3,219.2,19.7z M218.8,25.2 M219.2,21.4v0.2
		c0.2,0,0.4-0.2,0.5-0.2c-0.2,0.3-0.1,0.5,0.4,0.5c0-0.2-0.1-0.3-0.2-0.3h0.5c-0.2,0.2-0.3,0.4-0.3,0.5c-0.4,0-0.7,0-0.5-0.4
		C219.2,21.7,219.2,21.5,219.2,21.4z M220.5,17.2c0,0.1-0.1,0.1-0.2,0.3c-0.2,0-0.4,0.1-0.5,0.2c0.6,0.2,1,0,1.5,0
		c0-0.2-0.4-0.2-0.4-0.4l-0.2,0.4c-0.2-0.2-0.2-0.4-0.4-0.5V17.2z M220.2,20.8c0.2,0.2,0.2,0.3,0,0.5
		C219.8,21.1,219.8,21,220.2,20.8z M220.7,40.2c0.1-0.1,0.1-0.2,0-0.4C220.3,40.1,220.3,40.1,220.7,40.2z M220.8,39.4
		c0.3-0.5-0.5-0.4-0.4,0H220.8z M221.2,16.3c-0.2,0.2-0.5,0.3-0.7,0.5l1.2,0.5h0.1c0.1,0,0.1-0.1,0.1-0.2h-0.2l0.1-0.1
		c0.1-0.1,0.1-0.2,0.1-0.2l-0.4-0.4V17c-0.2-0.2-0.4-0.2-0.5-0.4c0.2,0,0.5,0.1,0.4-0.3c-0.2,0-0.2-0.2-0.4-0.2L221.2,16.3z
		 M220.9,21.5c0.2,0.1,0.2,0.2,0.1,0.2c-0.4,0.2-0.5,0.1-0.3-0.3L220.9,21.5z M221.5,13.3v0.4c-0.3,0-0.4,0.1-0.5,0.2
		c0,0.2,0.2,0.2,0.4,0.3h-0.5c0,0.2-0.2,0.4-0.2,0.5c0.1,0,0.1,0,0.1-0.1c0.1-0.1,0.2-0.1,0.2-0.1v-0.2l0.2,0.2
		c0.2-0.4,0.3-1,0.9-0.8c-0.2,0-0.2-0.2-0.4-0.4v-0.2L221.5,13.3z M225.4,15.1c0.2,0.2,0.4,0.4,0.5,0.2v0.2h-0.2v0.2h-0.5
		c-0.2,0.3-0.4,0.7-0.5,1.2h0.5c-0.4,0-0.5,0.2-0.9,0.2v0.2c-0.3,0-0.5,0.1-0.5,0.4h-0.4l-0.2-0.2v-0.2l-0.2-0.2h-0.4
		c0-0.2,0.1-0.4,0.4-0.5c-0.2-0.2-0.4-0.5-0.5-0.7l0.2,0.4c-0.4-0.4-0.6,0.2-1,0.2h0.5l-0.2,0.3c0.4,0.2,0.7,0.7,1,0.7
		c0.2,0.3,0.2,0.5,0,0.7c0.7-0.4,1.3,0,2-0.2c0-0.4,0.2,0,0.3,0.2c0.2-0.1,0.4-0.2,0.7-0.2c0-0.4,0.2-0.6,0.2-1
		c0.3-0.2,0.5-0.2,0.5,0.2c-0.2,0.2-0.3,0.4-0.3,0.5h0.2h-0.3c0,0.2-0.2,0.3-0.2,0.5c0.6-0.2,0.9,0,1.3,0.2c0.2-0.2,0.7-0.3,0.5-0.7
		h0.2l-0.1-0.1c-0.1-0.1-0.1-0.1-0.1-0.3h0.5c-0.4,0-0.7-0.4-1,0v0.4c-0.5,0.2-0.2-0.5-0.5-0.7c0-0.4,0-1-0.4-0.9v0.5
		c0-0.2-0.1-0.3-0.3-0.3v-0.4c-0.2,0-0.4,0.2-0.5,0.2v-0.2c0.4-0.2,0.5-0.2,0.8-0.2l-0.2,0.3c0.2,0,0.3-0.2,0.5-0.2l-0.2-0.5
		c0.2,0.2,0.4,0.2,0.5,0.4v-0.5c-0.2,0.2-0.3,0.1-0.3-0.3c-0.2,0-0.3,0.1-0.5,0.3c-0.2-0.2-0.2-0.3-0.4-0.5v0.1
		c0,0.1-0.1,0.1-0.2,0.1C225.9,15,225.5,15,225.4,15.1z M222.2,21.7 M222.8,19.5l0.2,0.2V20c-0.1,0.1-0.2,0.2-0.2,0.2v0.1
		c0.4,0.2,0.8-0.2,1.2,0.2l0.2-0.2h-0.7c0.2-0.2,0.4-0.2,0.5-0.3c-0.5,0-0.7-0.1-0.8-0.2l-0.3-0.2L222.8,19.5z M224,41.1
		c-0.4-0.2-0.8,0.2-0.7,0.5C223.5,41.6,223.9,41.3,224,41.1z M223.9,17c0-0.2,0-0.4-0.2-0.2C223.5,17,223.5,17.1,223.9,17z
		 M224.3,23c-0.4,0-0.5,0.1-0.3-0.3C224.4,22.7,224.3,22.6,224.3,23z M224.7,41.4c-0.4,0-0.5,0.2-0.7,0.3
		C224.2,41.9,224.7,42,224.7,41.4z M224.5,11.1l0.3-0.4h0.5c-0.1-0.1-0.2-0.2-0.2-0.3C224.7,10.5,224.5,10.7,224.5,11.1z
		 M224.5,14.6c0.2-0.2,0.5-0.3,0.8-0.5h-0.8V14.6z M224.8,17.8c-0.4-0.2-0.4-0.2,0-0.3C225,17.6,225,17.7,224.8,17.8z M225,25.7
		c-0.4-0.2-0.5,0.2-0.3,0.5C224.8,26.2,225,25.9,225,25.7z M225.2,11v0.2h0.2l-0.4,0.2c0,0.4,0.1,0.6,0.2,0.7h0.2
		c0-0.2,0.2-0.3,0.2-0.5c0.2-0.2-0.5-0.5,0-0.3V11H225.2z M226.2,21.8c-0.4-0.3-0.8,0.9-0.3,0.9c-0.2,0-0.5,0-0.7,0.2
		c0.2,0.2,0.3,0.5,0.7,0.5c0,0.2-0.2,0.5-0.5,0.7c0-0.2-0.2-0.5-0.2-0.7l-0.2,0.2c0.2,0.2,0.2,0.5,0.4,0.8c0.1,0.1,0.1,0.1,0.1,0.1
		c0.1,0.1,0.1,0,0.3,0.2v0.3v-0.3c0.1,0,0.2-0.1,0.2-0.1l0.1-0.1c-0.2,0-0.7,0.3-0.7-0.3h0.4c0-0.4,0.1-0.6,0.3-0.8
		c0.4-0.4,0.7,0,1,0v0.3c0.2-0.2,0.7-0.3,0.8-0.7h-0.5v-0.2h0.2v-0.2h-0.2c0-0.4-0.8,0.2-0.7-0.5h-0.2c-0.2-0.3-0.1-0.4,0.3-0.2
		c-0.2-0.3-0.4-0.5-0.7-0.5V21.8z M225.4,22.3c0.4,0,0.2-0.5,0-0.7c-0.4-0.2-0.4,0.4-0.2,0.4C225.2,22.2,225.4,22.2,225.4,22.3z
		 M226.4,11.5V11c-0.2,0.1-0.3,0.2-0.5,0.2C226,11.3,226.2,11.3,226.4,11.5z M226,14.1c0-0.1,0-0.1,0.1-0.1c0.1-0.1,0.1-0.2,0.1-0.2
		c0-0.2,0.3-1-0.3-0.8C225.9,13.5,225.9,13.8,226,14.1z M226.4,23.4v0.3H226c0.2,0,0.2,0.2,0.4,0.2c0.2-0.2,0.7-0.2,0.5-0.5H226.4z
		 M226.2,22.5 M226.7,10.6v-0.5c-0.2,0-0.2,0.2-0.3,0.2C226.2,10.7,226.5,10.8,226.7,10.6z M226.9,26.7c0-0.4,0-0.4-0.2-0.4
		C226.5,26.7,226.7,26.7,226.9,26.7z M227.1,14.5c0.4,0,0.3,0.2,0.3,0.5h0.8c-0.2,0.2-0.2,0.5-0.3,0.5c0,0.1,0.1,0.2,0.2,0.3
		c-0.2,0-0.2,0.2-0.3,0.4c0.4-0.2,0.5-0.5,0.8-0.5c0.2-0.2,0.3-0.4,0.3-0.5c-0.4,0-0.7-0.7-1.1-0.3v-0.4H227.1z M227.7,23.9
		c-0.2,0-0.4-0.2-0.5-0.2c0,0.2-0.2,0.4-0.2,0.5h0.3l-0.1-0.1c-0.1-0.1-0.1-0.1-0.1-0.2c0.2,0,0.5,0.1,0.5,0.5c0.4-0.4,0-0.6,0-1
		V23.9z M227.7,25.7c0,0.2,0.1,0.3,0.3,0.5l-0.2,0.2c0,0.2,0.1,0.2,0.3,0.2v0.3v-0.3l0.2,0.2c0-0.4-0.2-0.7-0.2-0.8
		c0.2,0,0.4-0.2,0.5-0.2H227.7z M228.4,16.6H228c0,0.2,0.1,0.3,0.2,0.4c0.3,0,0.4-0.1,0.5-0.2c0.2-0.2-0.2-0.5-0.2-0.7v0.3
		c-0.2-0.2-0.4-0.3-0.5-0.3C228.2,16.3,228.4,16.5,228.4,16.6z M230.9,16.8c-0.2-0.2-0.2-0.5-0.4-0.7v-0.4c-0.1,0.1-0.3,0.2-0.5,0.2
		C230.2,16.3,230.5,16.5,230.9,16.8z M230.5,10.5c-0.2-0.2-0.5,0.2-0.3,0.3C230.4,11,230.7,10.8,230.5,10.5z M232,15.3
		c-0.4,0-0.5,0.2-0.7,0.2l0.4,0.2c-0.1,0-0.2,0.1-0.2,0.2V16c-0.2,0.2-0.5,0.3-0.5,0.7c0.7-0.2,1.5,0.4,2.2-0.2v0.2
		c0.1,0.2,0.2,0.3,0.4,0.4v-0.7h0.2l-0.2,0.3h0.5l-0.2,0.4c0.6,0.2,1,0.3,1.5,0.3c0-0.2,0.1-0.4,0.2-0.5c-0.4,0.2-0.5,0.1-0.5-0.2
		h0.4c0.2-0.2,0.2-0.5,0.2-0.7h-0.2c0,0.1-0.1,0.2-0.1,0.3l-0.1,0.1c-0.2,0.2-0.5-0.4,0-0.4l-0.1-0.2c-0.1-0.1-0.1-0.2-0.1-0.3h0.4
		c-0.2-0.2-0.5-0.2-0.5-0.5v-0.2v-0.4v0.2c-0.4,0-1,0.4-1.2-0.2h0.3v-0.2c-0.4,0-0.7,0.2-1.1,0.2c0-0.1-0.1-0.2-0.1-0.3l-0.1-0.1
		l-0.2-0.3c-0.1,0.1-0.6,1-0.8,0.5C231.7,14.7,231.6,15.1,232,15.3z M232.4,15.3c0.6,0,0,0.6,0.2,1.2c-0.2-0.5-0.3-0.5-0.5,0v-0.3
		v-0.5c0.2-0.1,0.2-0.2,0.3-0.3L232.4,15.3z M234.8,16v0.9c-0.3,0-0.4-0.1-0.4-0.4c-0.4-0.2-0.5-0.3-0.5-0.5
		C234.2,16,234.4,16.2,234.8,16z M234.9,34.2 M236.8,16.2h-0.2l-0.2-0.4c-0.1,0.1-0.2,0.3-0.2,0.5c-0.2,0-0.5,0.2-0.5,0.3h0.7
		c0.2-0.2,0.5-0.1,0.5-0.5c0.4-0.4-0.2-0.5-0.4-0.5C236.6,15.8,236.8,16,236.8,16.2z M235.9,16.3c0.6-0.2,0.2-0.7,0-1
		c0,0.2-0.4,0.5,0.2,0.7L235.9,16.3z M235.9,37.6 M236.4,17c0,0.2,0.2,0.2,0.2,0.3v0.5c0-0.2,0.1-0.4,0.2-0.5l0.2,0.2
		c0.4-0.2,0.5-0.3,0.5-0.9c0.4,0.2,0.8,0.4,1.2,0.2v-0.1c0-0.1,0.1-0.1,0.2-0.1l-0.2,0.2c-0.4-0.2-0.5-0.2-0.5-0.5l-0.3,0.2
		l-0.1,0.1h-0.3l0.2-0.3c-0.3,0-0.4-0.1-0.4-0.4c-0.2,0.4-0.3,0.5-0.3,0.7C237.1,17.2,236.8,17,236.4,17z M236.8,28.5 M237.6,17.8
		c-0.1,0.1-0.3,0.2-0.7,0.2c0.1,0.2,0.2,0.2,0.2,0.2c0.1,0.1,0.1,0.1,0.1,0l0.2,0.3c0.2-0.2,0.3-0.3,0.5-0.7H237.6z M238.1,14.6
		l-0.2-0.3l-0.3-0.2h0.5c-0.3-0.2-0.4-0.3-0.2-0.5c-0.4,0-0.3,0.6-0.3,1H238.1z M237.7,36.1h0.7v1.1v0.4c-0.4,0-0.6,0.1-0.7,0.2h0.4
		c0.4,0,0.7-0.1,0.7,0.5c0-0.2,0-0.5-0.2-0.7l0.5,0.3h0.4c-0.2,0.2-0.4,0.4-0.4,0.5c0.2,0,0.2,0.2,0.4,0.2v-0.2h-0.2v-0.3
		c0.1-0.2,0.3-0.2,0.5-0.2c0.3,0,0.4-0.1,0.4-0.3h-0.4v-0.2c-0.2,0-0.4,0.1-0.7,0.3c0.2-0.2,0.4-0.5,0.4-0.7l-0.2,0.2h-0.2l-0.1,0.1
		c-0.1,0.1-0.1,0.1-0.1,0.3c-0.2-0.2-0.2-0.4-0.3-0.4c0.2-0.2,0.2-0.3,0.3-0.3c-0.2-0.2-0.2-0.4,0-0.5h-0.5c0.2,0,0.3-0.1,0.5-0.3
		H237.7z M237.9,40.4c0.4,0,0.6-0.1,0.7-0.2c-0.4,0-0.7-0.1-0.9-0.4C237.7,40.1,237.9,40.2,237.9,40.4z M238.2,38.5
		c0-0.3-0.1-0.3-0.4-0.2C237.9,38.5,238,38.5,238.2,38.5z M238.4,38.8c-0.2-0.2-0.3,0.3-0.2,0.5C238.3,39.1,238.4,39,238.4,38.8z
		 M238.4,35.6 M239.3,36.2c0-0.4,0-0.4-0.2-0.4C238.9,36.2,239.1,36.2,239.3,36.2z M239.9,30.7c0-0.4,0.3-0.5,0.5-0.7h-0.5V30.7z
		 M239.9,35.6h0.3c0-0.4-0.1-0.4-0.3-0.2V35.6z"/>
	<path class="st0" d="M68.5,10.8h9.8c4.1,12.1,8.3,24.1,12.4,36.3c-0.3-0.3-0.6-0.3-1-0.3V45H89v-0.6h-0.1c0,0.5-0.5,0.5-0.8,0.6
		c-0.1-0.1-0.4-0.1-0.8-0.1c-0.1,0.1-0.3,0.3-0.6,0.3v2h-0.3c0-0.6-0.1-1.1-0.1-1.8c-0.1-0.3-0.3-0.6-0.5-0.8
		c-0.4,0-0.8,0.5-0.8,0.9c0,0.5-0.5,0.9-0.3,1.5c-0.1-0.2-0.4-0.2-0.6-0.2v-5.7c0-0.3-0.3-0.6-0.1-1.1h-3.2v0.6
		c-0.1-0.1-0.1-0.3-0.1-0.6v-1.8h-1.3v-0.3l-0.3,0.3l-0.1-0.3c0,0.3-0.3,0.5-0.6,0.3v5.1h-0.6c-0.1-0.8,0-1.6-0.1-2.4
		c-0.2-0.5,0-0.7-0.3-1.3v-2.2h-0.1c-0.1,0-0.1,0-0.2-0.1v-1.1c-0.5-0.1-1-0.1-1.5,0c-0.1,0.3,0,0.8-0.3,1.1c-0.5,0.8,0,1.9-0.3,2.9
		H74v-0.8c-1.1-0.1-2,0-3.2,0v1.1c-0.5,0.1-0.9-0.3-1.4,0c-0.3,0-0.8,0.1-1.1,0.1c0.8-2.2,1.4-4.2,2-6.3H77c-1.3-4-2.3-7.9-3.6-11.9
		l-0.1,0.2c-1.4,4.3-2.6,8.7-4.1,13c-0.4,1.4-0.8,3-1.4,4.4c-0.1-0.1,0-0.4-0.3-0.4c-0.1,0-0.3,0.3-0.4,0.4h-1.8V45
		c-0.3,0.1-0.5,0.1-0.8,0c0,0.2-0.2,0.3-0.2,0.5h-0.3c-0.2,0.3-0.3,0.5-0.3,0.6h-1.4v1.1H62V43c-0.9-0.1-1.8-0.1-2.6,0
		c0,0.1,0,0.5-0.1,0.6h-1.8v2.9h-0.8c0-0.2,0-0.4-0.1-0.5h-0.5c4.1-11.7,8.3-23.2,12.4-35V10.8z M58.5,41.4c0.3,0,0,0.6-0.1,0.5V42
		c0,0,0,0.1,0.1,0.2V42H59c-0.1-0.1-0.2-0.3-0.2-0.6c0.3,0.2,0.5,0,0.8-0.1c-0.1-0.1-0.2-0.2-0.2-0.5c0,0,0,0-0.1,0c0,0,0,0.1,0,0.1
		v0.1h-0.1c-0.1,0-0.1,0-0.2-0.1v0.3c-0.2-0.1-0.2-0.3-0.3-0.5C58.7,41.1,58.5,41.3,58.5,41.4z M60.1,40.8c0-0.1-0.4-0.3-0.4,0
		C59.6,41,60.1,41.3,60.1,40.8z M61.7,34.3c0-0.2-0.1-0.3-0.3-0.2C61.4,34.4,61.5,34.5,61.7,34.3z M62.2,34.9
		c0.3,0.1,0.5,0.4,0.1,0.8h0.1c0,0,0.1,0,0.2-0.1c-0.1,0.1-0.2,0.2-0.2,0.5c0.2-0.2,0.4-0.3,0.6-0.3c-0.1-0.1-0.1-0.2-0.1-0.5
		c0,0-0.1,0-0.2,0.1l-0.1,0.1c-0.2-0.2,0.1-0.8-0.3-0.5H62.2z M63.4,36c0,0.4-0.6,0.1-0.5,0.6h-0.3V37c0.1-0.1,0.4-0.3,0.6-0.5
		c0.1,0.3,0,0.6-0.2,0.8c0.5-0.2,0.6-0.6,1.3-0.5c-0.5-0.1-0.1-0.6-0.7-0.8c-0.3-0.2-0.6-0.4-0.8,0.1C63,36.1,63.2,36,63.4,36z
		 M65.5,26.8c-0.1-0.1-0.6-0.2-0.6,0.3c-0.1,0-0.1,0-0.2,0L64.5,27v0.3h-0.1c0-0.3-0.3,0.2-0.5,0.2l-0.1-0.1c0-0.1-0.1-0.2-0.2-0.2
		h0.3V27c0,0.1-0.2,0.1-0.3,0c0,0.1-0.1,0.3-0.3,0.6c0.3,0,0.4,0,0.6,0.3c-0.1,0-0.3,0-0.3,0l-0.1-0.1c-0.3,0.1-0.3,0.5-0.3,0.6
		c0.2,0.1,0.3,0.3,0.5,0.6l-0.1,0.1c-0.1,0-0.1,0.1-0.1,0.2L63.1,29l-0.3,0.1c0,0.2,0.1,0.3,0.1,0.5c0.3-0.3,0.7-0.3,0.3,0.1
		c0,0,0,0,0,0c0,0,0.1,0.1,0.1,0.1c0-0.3,0.1-0.5,0.3-0.5c0,0.1,0.3,0.6,0,0.8c0.2-0.1,0.3,0,0.3,0.3c0-0.1,0.2-0.1,0.2-0.1
		c0,0,0,0,0.1,0c-0.2-0.1-0.3-0.3-0.3-0.4h0.1v-0.5c0.2,0.1,0.3,0.1,0.5,0.3c0-0.3-0.1-0.3-0.1-0.4c0-0.2-0.1-0.3-0.1-0.5l0.3,0.1
		c0-0.1,0.1-0.5,0.3-0.6c0-0.1,0.8,0.1,0.4,0.3c-0.1,0-0.3,0.1-0.4,0.1v0.8c0.1,0,0.2-0.1,0.4-0.3c0.2,0.4,0,0.6-0.3,0.4V30
		c0.1,0.1,0.6-0.2,0.8,0c0.3-0.3,0.6,0,1,0v-0.3c0.1,0,0.1-0.3,0.3-0.5h-0.3c0.1,0,0.3-0.1,0.4-0.1c0-0.1-0.1-0.4-0.3-0.8
		c-0.2,0.2-0.3,0.3-0.5,0.3v0.2c-0.2,0-0.3,0.1-0.3,0.3v-0.3H66L65.8,29c-0.3-0.5,0.1-0.6,0.6-0.5c-0.4-0.1-0.4-0.3-0.1-0.4
		c-0.3,0-0.5,0.1-0.8,0.1v-0.3h0.8v-0.1h-0.2v-0.1h0.3c-0.1-0.1-0.3-0.3-0.5-0.3V27l-0.1,0.1c0,0-0.1,0-0.2,0c0-0.3,0-0.5-0.2-0.6
		V26.8z M62.9,28.7 M63.7,39.8c0.3,0,0-0.5-0.1-0.5C63.4,39.5,63.4,39.8,63.7,39.8z M63.6,28.4c0.3,0.1,1-0.3,1,0.1
		c-0.1,0-0.3,0.2-0.5,0.2C63.7,29.2,63.6,28.6,63.6,28.4z M64.2,29.2c0,0.3-0.5,0.3-0.5,0C63.7,29,64.2,29,64.2,29.2z M63.9,26
		c0.1,0,0.3-0.1,0.5-0.1c0,0.3,0.1,0.6-0.2,0.8h0.6c-0.1,0-0.1-0.1-0.3-0.1h-0.1l0.1-0.1c0-0.2,0-0.4-0.1-0.5c0.3,0.3,0.6,0,0.8-0.1
		c0,0.1,0,0.1-0.1,0.1h0c0.1,0.1,0.3,0.1,0.6,0.3H65v0.2h1.3C66,26.1,65.9,26,65.8,26c-0.2,0-0.4,0-0.5-0.1l0.5-0.1
		c-0.1-0.3-0.4-0.3-0.8-0.2c0,0,0,0,0-0.1c0,0,0.1-0.1,0.1-0.2h-0.5c0,0.1,0.1,0.1,0.1,0.2v0.1h-0.8c0.1-0.1,0.3-0.1,0.5-0.3
		c-0.3-0.5-0.5,0.1-0.6,0.5V26z M64.2,27.5h0.2c0,0.3,0.1,0.4,0.3,0.4c0,0.2-0.1,0.2-0.3,0.3c-0.2-0.1-0.3-0.5-0.5-0.6h0.3V27.5z
		 M64.2,43.8 M64.4,31.1v0.1c0.3-0.1,0.6,0,1.1,0v0.1h0.2c-0.2-0.2-0.4-0.3-0.5-0.3c0-0.2,0.3-0.2,0.5-0.3h-0.8v-0.1
		c-0.1,0.1-0.3,0.1-0.3,0.5H64.4z M64.5,24.3c0.1,0.2,0.1,0.3,0.3,0.3c0-0.1-0.1-0.3,0-0.5c0.3-0.3,0.6-0.5,1.1-0.5v-0.1
		c-0.3-0.1-0.8-0.1-0.9-0.6c-0.3,0.5-0.3,1.1-0.3,1.6L64.5,24.3z M64.7,31.1c-0.1-0.3,0.5-0.3,0.3,0H64.7z M64.8,28.4
		c-0.2,0-0.2-0.1,0-0.3c0.3,0.1,0.6,0.1,1,0.3H64.8z M65.5,27.1c0.2,0.1-0.4,0.2-0.4-0.1C65.2,27,65.4,27,65.5,27.1z M65.2,22.2
		c0.5,0,0.8,0,1.1,0.1c0.1,0.3,0.1,0.6,0.1,1c-0.1-0.1-0.5-0.5-0.5,0c0.5,0,0.8,0.3,1.1,0.6c0,0,0,0-0.1,0c0,0-0.1-0.1-0.2-0.1
		c0,0.4-0.2,0.9-0.8,0.8c-0.2,0-0.3,0-0.5-0.1l0.1-0.1c0,0,0.1-0.1,0.2-0.1h-0.3v-0.4c-0.1,0.1-0.3,0.4-0.1,0.6l-0.1,0.1
		c0,0,0,0.1,0,0.2c0.3,0,0.6-0.2,0.9,0.1c-0.1,0.2-0.1,0.5-0.3,0.6c0.3-0.1,0.5-0.4,0.6-0.6v0.3c0.5-0.1,0.3,0.3,0.5,0.6h-0.3
		l0.1,0.1c0,0,0.1,0,0.2,0c0.1,0,0.4-0.2,0.6,0.1H68h0.5L68.3,26c0-0.1,0-0.5,0.1-0.6c-0.3,0.1-0.6,0.1-0.8,0h0.1h0.5v-0.1
		c0.4,0.1-0.1,0.8,0.5,0.8l0.3-0.1c-0.4,0.5,0.2,0.6,0.6,0.5c0-0.3,0.2-0.5,0.3-0.8c-0.3,0.2-0.8,0.2-1.1,0.3v-0.1l-0.3,0.1v-1
		c0.3,0.2,0.8,0.5,0.8,0c-0.1,0-0.3,0.3-0.5,0c0.1,0,0.1-0.1,0.1-0.3c-0.1,0.6-0.8,0-0.9-0.3c0.1-0.1,0.5-0.1,0.6-0.1v0.3
		c0.3,0,0.1-0.5,0.1-0.6c0,0,0-0.1-0.1-0.1c0,0,0,0,0,0c-0.2,0-0.3,0-0.3,0.2c0,0,0.1,0,0.2,0c0,0,0.1,0,0.3-0.2
		c-0.1,0.3-0.3,0.5-0.6,0.5c-0.2-0.2-0.3-0.3-0.5-0.3L67.7,24c0-0.1-0.1-0.1-0.3-0.1c-0.1,0.1-0.1,0.2-0.1,0.4
		c-0.1,0.1-0.2,0.2-0.2,0.2c0,0,0,0-0.1,0v-0.2c0.3,0,0.3-0.4,0.4-0.6c-0.2,0.2-1-0.4-0.4-0.8c0.1,0.1,0.1,0.2,0.1,0.5
		c0.2,0,0.3,0,0.5-0.1v0.6c0.3,0,0.3-0.3,0.4-0.5c0.2-0.1,0.3-0.1,0.7-0.3h-0.5c-0.2,0-0.3,0-0.3-0.1c0,0.2,0.1,0.3,0.3,0.3h-0.5
		c-0.1-0.3-0.4-0.3-0.8-0.5v-0.8c0,0.5-0.8,0.3-0.8,0h0.5v0c0,0,0-0.1-0.1-0.1h-0.3c-0.1,0-0.4,0-0.6-0.1
		C65.3,21.9,65.3,22.1,65.2,22.2z M66.1,29.8h-0.6c0.2-0.3,0.2-0.4,0.2-0.8C65.8,29.4,66,29.7,66.1,29.8z M66,38.9h0.1
		c0.2-0.1,0.2-0.5,0.2-0.6c-0.3,0-0.8,0.3-0.2,0.3C66,38.7,66,38.8,66,38.9z M66,24c0,0.3,0.6,0,0.3,0.5c0-0.2,0.3-0.5,0.4-0.6
		L66.4,24c0-0.3,0-0.6-0.3-0.5C66,23.6,66,23.7,66,24z M66.4,29.5c0.1-0.6,0.3-0.1,0.5,0c-0.2,0-0.3,0.1-0.5,0.1
		c-0.1,0-0.1-0.1-0.1-0.3C66.3,29.5,66.3,29.5,66.4,29.5L66.4,29.5z M66.7,27c0,0.1,0.2,0.3,0.2,0.5l-0.3-0.2c0.1,0.2,0,0.7,0.3,0.3
		l0.1,0.1c0.2-0.2,0.3-0.3,0.3-0.5l-0.1,0.2l-0.3-0.8C66.9,26.8,66.9,26.9,66.7,27L66.7,27z M67.4,24.8c0,0.1-0.6,0.4-0.4-0.1
		C67.1,24.5,67.4,24.4,67.4,24.8z M68.3,22.4c-0.3,0-0.6-0.1-1-0.1c0,0.1,0.2,0.3,0.2,0.5c0.1,0,0.3-0.2,0.4-0.2
		c0,0.2,0.1,0.3,0.3,0.3v-0.3h0.3v0.2h0.1V23H69l-0.1-0.1c0.1,0,0.1-0.1,0.3-0.1c-0.3-0.2-0.6-0.5-0.9-0.6
		C68.2,22.3,68.2,22.4,68.3,22.4z M67.8,24.3 M69.5,22.9v-0.1v-0.2v-0.1l0.3-0.1v0.6l0.2-0.1c-0.2-0.2-0.1-0.3,0.1-0.5
		c-0.3,0-0.4-0.3-0.8-0.1C69.3,22.4,69.3,22.7,69.5,22.9z M69.7,23.5c0.2-0.1,0.5,0,0.8-0.1l0.4-0.5c-0.4,0.3-0.9,0.1-1.3,0.5V23.5z
		 M70.9,16.3c0-0.1,0.1-0.1,0.1-0.3l0.3,0.1v-0.3l-0.5,0.1l0.3-0.3h-0.5c-0.1,0-0.3,0.2-0.5,0.2C70.4,16.1,70.6,16.2,70.9,16.3z
		 M70.6,36.7l-0.2,0.1c0,0.1,0.3,0.1,0.5,0.1c0-0.1,0-0.5-0.3-0.6V36.7z M71.6,18.4l0.2,0.3c-0.1,0-0.2-0.1-0.3-0.1h-0.1l0.3,0.3
		c0.5-0.2,0.8-0.5,1.1-0.2l-0.1-0.1c0.2,0,0.4,0,0.5-0.1c-0.1,0.1-0.2,0.1-0.5,0.1c0-0.3-0.5-0.3-0.5,0C72,18.6,71.8,18.4,71.6,18.4
		z M71.8,21.7c-0.1,0-0.2,0-0.3,0.1c0.1,0.2,0,0.3,0,0.6h0.3l-0.2-0.1c0.2-0.1,0.3-0.1,0.5-0.3c-0.1,0-0.5,0-0.5,0.1
		c0-0.3,0.3-0.5,0.6-0.3v-0.1H71.8z M73.4,36.3c-0.1-0.1-0.2-0.1-0.4-0.1l-0.2,0.1h-0.1c-0.1,0-0.5,0.1-0.6,0.3
		c0.1,0,0.3-0.2,0.6-0.2c0,0.2,0.1,0.3,0.3,0.3v-0.3C73.1,36.4,73.2,36.3,73.4,36.3c0.2-0.3,0.2-0.4,0.3-0.8
		c-0.1,0.1-0.5,0.1-0.6,0.1C73.4,35.7,73.4,36,73.4,36.3z M72.6,18.9 M75.6,23.6l0.1-0.1c0-0.3-0.1-0.4,0-0.8
		c-0.1,0.1-0.2,0.1-0.5,0.1C75.5,23,75.6,23.3,75.6,23.6z M81.2,27.6c-0.1,0-0.1-0.1-0.2-0.1h-0.1v0.1c0.2,0,1,0.7,0.1,0.3
		c0.1,0.2,0.3,0.3,0.3,0.6c-0.3,0.2-0.6,0.8-1.1,0.6c-0.1-0.3,0.2-0.4,0.3-0.8c-0.1,0-0.3,0.1-0.5,0.1v-0.3v0.3l-0.3,0.2
		c0-0.2,0-0.3-0.2-0.6c0,0.2,0,0.3-0.1,0.4l-0.3-0.1c0-0.6-0.6,0-1.1-0.3c-0.1,0.1-0.3,0.1-0.5,0.3c0.5,0,0.8,0,1.1-0.1l-0.1,0.3
		c0.1,0,0.1-0.1,0.3-0.3l0.1,0.3c-0.2,0.2,0.1,0.6-0.3,0.6c0.1-0.3-0.3-0.4-0.6-0.3l0.1-0.3h-0.6v0.2h0.3v0.1
		c-0.2,0-0.3-0.1-0.5-0.1l0.1,0.3h-0.3v-0.1c-0.2-0.1-0.5-0.1-0.6-0.3h-0.2v0.3h0.3c0.1,0.6-0.5,0-0.6,0.5c0.3,0.1,0.8,0.1,0.8,0.6
		l-0.2-0.1c-0.1,0-0.2-0.1-0.3-0.1v0.5c0.2-0.2,0.5-0.3,0.6-0.3l-0.1-0.2c0.1-0.3,0.5-0.3,0.6-0.1c0,0-0.1-0.2-0.3-0.5h0.4v0.2
		l0.2-0.2c0.1,0,0.3,0.2,0.4,0.2L78.2,29h0.3c0,0.1,0.1,0.5,0.1,0.6c-0.1,0-0.2,0-0.2,0.1c0,0,0,0-0.1,0h0.3
		c0.1-0.3,0.3-0.6,0.6-0.4c0-0.2-0.1-0.5-0.3-0.6c0.2,0,0.5,0,0.5-0.2c0,0.3,0,0.5,0.1,0.6l0.2-0.3c0.1,0.3,0.4,0.5,0.6,0.6
		c0.2,0.2,0.3,0.3,0.5,0.3C81,30,81.1,30,81.3,30c0-0.2,0-0.5,0.3-0.3c0.1-0.1,0.2-0.1,0.5-0.1c0-0.1-0.3-0.3-0.2-0.5
		c0.2,0,0.3,0.1,0.5,0.1v0.3l0.1,0.1v-0.1h0.5h-0.5c0.2-0.3,0-0.8-0.4-0.8c0.2,0,0.3-0.1,0.3-0.3h-0.3c0-0.5-0.3-0.8-0.6-0.8
		l0.1-0.1c-0.2,0-0.4,0-0.5-0.2V27.6z M76.6,28.1c0.1-0.2,0.3-0.2,0.4-0.3h-0.3v-0.1H77c-0.3-0.1-0.4-0.3-0.4-0.6
		c-0.2,0.3-0.2,0.5-0.2,0.6C76.4,27.8,76.6,27.9,76.6,28.1z M77.1,23.5c0,0-0.1,0-0.1-0.1c-0.1,0.3-0.1,0.5-0.3,0.6v0.1
		c0-0.1,0.1-0.1,0.3-0.1v0.1v-0.5c0.3-0.1,0.8-0.2,0.5,0.3c0.3-0.1,0.4,0,0.8,0.1c0-0.2,0-0.3,0.2-0.5c-0.2,0-0.5,0-0.6,0.2
		c0-0.1,0-0.2,0-0.2l0.1-0.1v-0.1c-0.1,0-0.3,0.1-0.5,0.1v-0.3C77.4,23.4,77.4,23.5,77.1,23.5L77.1,23.5z M77.9,30
		c0.3,0.4-0.5,0.7-0.6,0.1v0.3c0.3,0.2,0.4,0.2,0.6,0.2c0,0.1,0,0.3-0.2,0.5c-0.1-0.1-0.2-0.3-0.4-0.5c0,0.1,0.1,0.5,0.1,0.6h-0.6
		c0,0.5,0.3,0.8,0.6,0.9v0.5c0,0,0.2-0.1,0.5-0.3c0.4,0.1,0,0.4,0,0.6c0.1-0.1,0.2-0.1,0.3,0c0.1,0,0.1-0.2,0.3-0.2
		c-0.5-0.1-0.5-0.4-0.6-0.8c0.1,0,0.4,0.1,0.6,0.1v-0.3c0.2,0.2,0.4,0.3,0.6,0.3l-0.5,0.2c0.3,0,0.6,0.1,0.9,0.1v-0.6
		c0.3,0,0.6,0,1,0.1c-0.1,0-0.1-0.1-0.3-0.1h-0.8c0-0.1,0-0.2,0.1-0.2l0.2-0.1c0-0.1-0.2-0.1-0.2-0.3c-0.1,0.3-0.4,0.5-0.6,0.6v-0.1
		c-0.3,0-0.4,0.1-0.8,0.1v-0.5c0,0.1,0,0.1-0.1,0.1h0c0-0.3-0.3-0.3-0.5-0.4h0.3c0-0.3,0-0.7,0.3-0.8v0.6h0.1c0,0,0.1,0,0.2-0.1
		c0-0.1,0.1-0.3,0.1-0.5h-0.5c-0.1,0-0.1-0.2-0.1-0.6c-0.1,0.1-0.3,0.1-0.3,0.3H77.9z M76.9,28.6c0.3,0.3,0.3-0.3,0-0.1V28.6z
		 M77.5,33.8c0.1,0,0.3-0.1,0.5-0.1c-0.3-0.2-0.5-0.5-0.6-0.6C77.4,33.4,77.4,33.5,77.5,33.8z M78,35.4c0,0.4-0.5,0.3-0.6,0.6
		c0.3-0.2,0.8-0.2,0.8-0.6H78z M78.2,18h-0.3v-0.3v0.2c-0.2,0.1-0.3,0.1-0.3,0.3c0.3,0.1,0.6,0.3,1,0.3h0.1c0-0.3-0.3-0.6-0.1-0.8
		c-0.2-0.1-0.3-0.1-0.5-0.3C78,17.5,78.2,17.8,78.2,18z M78.2,32.1h0.1v-0.1h-0.1V32.1z M78.9,33.3c0.2,0,0.4,0,0.5,0.1v-0.1h-0.3
		V33c0.3,0,0.5,0,0.6-0.2c-0.3,0-0.8,0.4-1-0.1c-0.5,0.1,0.1,0.3,0.3,0.3C79.1,33.2,78.9,33.2,78.9,33.3z M79.1,31.9
		c-0.3,0.1,0.4,0.3,0.3,0H79.1z M79.4,30.2c0.1-0.1,0.3-0.1,0.5-0.3c0.1,0.2,0.3,0.3,0.6,0.5v-0.1h-0.1v-0.3c-0.3,0-0.5-0.1-0.6-0.3
		c-0.2,0-0.5,0-0.6,0.1C78.9,29.8,79.3,30,79.4,30.2z M79.3,26h0.5l-0.2-0.1c0-0.3-0.1-0.5-0.3-0.6C78.9,25.6,79.3,25.7,79.3,26z
		 M79.9,37.5l-0.2,0.1c0,0-0.1,0-0.3,0c0.3,0,0.4,0,0.8-0.1c0.2,0,0.7,0.2,0.7-0.3c-0.3,0.2-0.5,0.2-0.7,0.2c0,0,0,0,0-0.1
		c0,0,0-0.1,0.2-0.2c-0.1,0.1-0.3,0.1-0.5,0.1V37.5z M80.8,30.4L80.8,30.4c-0.2,0.4-0.4,0-0.7-0.1v0.3h0.1v0.1
		c-0.1,0-0.3,0.1-0.4,0.1v0.2c0.1,0,0.4-0.3,0.6,0c-0.2,0.1-0.3,0.3-0.3,0.4c0.2,0,0.3-0.1,0.3-0.3l0.1,0.1c0,0,0.1,0,0.2,0
		c0.2-0.3,0.5-0.3,0.6-0.3c0,0,0.1,0,0.1-0.1c0,0,0,0,0-0.1h-0.3c0-0.1,0-0.1,0-0.2l0.1-0.1l0.1,0.1l0.2,0.2l-0.1-0.5l0.3-0.1
		c0.1,0.3,0.1,0.5,0.3,0.6v0.3v-0.3h0.3c-0.3,0-0.6-0.3-0.5-0.6h-0.1c-0.1,0-0.1,0-0.2-0.1c-0.1,0.1-0.3,0.3-0.5,0.5
		c0-0.1,0-0.2,0-0.3l0.1-0.2c-0.2,0-0.3,0.1-0.3,0.3C80.9,30.5,80.8,30.5,80.8,30.4z M80.4,19.1 M80.5,30.9 M80.9,22.9V23H81
		l-0.1,0.2c0.4,0.3-0.6,0.9,0.1,0.9v0.3h0.1c0,0.3,0,0.4,0.1,0.8c0.3-0.1,0.5-0.5,0.8-0.5c-0.5-0.1,0.1-0.9-0.2-1.1
		c-0.3-0.1-0.1-0.3-0.1-0.6c-0.1,0.1-0.3,0.2-0.6,0.2L80.9,22.9z M80.9,35.9c0,0.2,0.6,0.2,0.4-0.1c-0.1,0-0.3-0.3-0.4-0.3V35.9z
		 M81.2,29.7c-0.3,0.1-0.3-0.3-0.1-0.5C81.4,29,81.2,29.5,81.2,29.7z M81.2,34.6c-0.1,0.1-0.3,0.6,0.1,0.6c-0.1,0.3,0.6,0.5,0.6,0
		l-0.4,0.2c0.2-0.2,0.3-0.4,0.3-0.5c-0.1,0.1-0.3,0.3-0.6,0.1c0.3-0.1,0.2-0.6-0.1-0.6L81.2,34.6z M81,37.9v0.4c0.1,0,0.1,0,0.2,0
		l0.1-0.1c0-0.2,0-0.3-0.1-0.5L81,37.9z M81.2,33.2v0.3V33.2z M81.2,33.7 M82,28.9c-0.1,0.1-0.2,0.8-0.6,0.5l0.1-0.1
		c0,0,0.1-0.1,0.1-0.2c-0.2,0-0.5,0-0.2-0.3c0.2-0.2,0.2-0.6,0.2-1C81.9,28.1,82,28.4,82,28.9z M82.1,32.2c0-0.1-0.2-0.3-0.2-0.4
		c-0.4,0-0.1,0.4-0.1,0.6C82,32.4,82,32.2,82.1,32.2l0.3,0.3v-0.5c0.1-0.1,0.5,0,0.5,0.1v-0.4c-0.1,0.1-0.3,0.1-0.6,0.3
		c0-0.3,0.5-0.4,0.5-0.8h0.3v0.1c0.1-0.1,0.3-0.1,0.3-0.3c-0.2,0.2-0.5,0.1-0.8-0.2c-0.1,0.3-0.3,0.5-0.3,0.8
		C82.4,31.9,82.3,32,82.1,32.2z M82.6,35.6l0.2-0.1c0.1-0.5-0.5-0.2-0.5,0.1H82.6z M84.3,31.3c0,0.1-0.3,0.5,0,0.5
		c0.1-0.2,0.1-0.3,0.3-0.5l-0.1-0.1c0,0-0.1-0.1-0.1-0.2c0,0-0.1,0-0.1,0c-0.1,0-0.1,0.1-0.1,0.1L84.3,31.3z M84.5,42.2l0.2,0.1
		c0,0,0.1,0,0.3,0c0,0,0,0.1-0.1,0.2c0,0,0,0,0,0.1h0.3c0-0.1-0.2-0.3-0.3-0.6C84.7,42,84.6,42.1,84.5,42.2L84.5,42.2z M85.8,37.3
		v0.6c-0.2,0-0.3-0.2-0.5-0.2v0.5c0,0,0.2-0.1,0.5-0.3v0.1c0-0.3,0-0.4,0.1-0.8H85.8z M86.6,41c0,0,0.2,0.1,0.5,0.3
		c-0.5,0.1-0.9,0-1.5,0c0.2,0.1,0.6,0.1,0.8,0.5c0.3-0.1,0.6,0.5,1.1,0.3c-0.3-0.1-0.6-0.3-0.9-0.6h0.6c-0.3-0.3-0.2-0.4,0.1-0.6
		c-0.2,0-0.3,0-0.5-0.1C86.7,40.8,86.7,41,86.6,41z M85.9,35.9 M86.4,42.4h-0.3V42h-0.1c0,0.1,0.1,0.3,0.3,0.5
		c0.1-0.1,0.3-0.1,0.6-0.1v0.1c0-0.1-0.1-0.5-0.1-0.6C86.6,42,86.5,42,86.2,42L86.4,42.4z M86.1,38.1h0.3c0.1-0.1,0-0.5-0.2-0.5
		C86.1,37.7,86.1,37.8,86.1,38.1z M87.1,38.9 M87.5,43.5c0,0-0.1,0-0.2,0.1c0,0,0,0-0.1,0c0.1,0,0.3,0.1,0.5,0.1
		c-0.2,0.2-0.2,0.3,0,0.5c0.1,0,0.3-0.3,0.3-0.5h0.1l0.2-0.1h-0.6v-0.3L87.5,43.5z M87.4,39.7 M87.8,41.1"/>
	<path class="st0" d="M101.2,10.8h9.8c4.1,12.1,8.3,24.1,12.4,36.3c-0.3-0.3-0.6-0.3-1-0.3V45h-0.8v-0.6h-0.1c0,0.5-0.5,0.5-0.8,0.6
		c-0.1-0.1-0.4-0.1-0.8-0.1c-0.1,0.1-0.3,0.3-0.6,0.3v2h-0.3c0-0.6-0.1-1.1-0.1-1.8c-0.1-0.3-0.3-0.6-0.5-0.8
		c-0.4,0-0.8,0.5-0.8,0.9c0,0.5-0.5,0.9-0.3,1.5c-0.1-0.2-0.4-0.2-0.6-0.2v-5.7c0-0.3-0.3-0.6-0.1-1.1h-3.2v0.6
		c-0.1-0.1-0.1-0.3-0.1-0.6v-1.8h-1.3v-0.3l-0.3,0.3l-0.1-0.3c0,0.3-0.3,0.5-0.6,0.3v5.1h-0.6c-0.1-0.8,0-1.6-0.1-2.4
		c-0.2-0.5,0-0.7-0.3-1.3v-2.2h-0.1c-0.1,0-0.1,0-0.2-0.1v-1.1c-0.5-0.1-1-0.1-1.5,0c-0.1,0.3,0,0.8-0.3,1.1c-0.5,0.8,0,1.9-0.3,2.9
		h-0.5v-0.8c-1.1-0.1-2,0-3.2,0v1.1c-0.5,0.1-0.9-0.3-1.4,0c-0.3,0-0.8,0.1-1.1,0.1c0.8-2.2,1.4-4.2,2-6.3h6.7
		c-1.3-4-2.3-7.9-3.6-11.9l-0.1,0.2c-1.4,4.3-2.6,8.7-4.1,13c-0.4,1.4-0.8,3-1.4,4.4c-0.1-0.1,0-0.4-0.3-0.4c-0.1,0-0.3,0.3-0.4,0.4
		h-1.8V45c-0.3,0.1-0.5,0.1-0.8,0c0,0.2-0.2,0.3-0.2,0.5h-0.3c-0.2,0.3-0.3,0.5-0.3,0.6h-1.4v1.1h-0.1V43c-0.9-0.1-1.8-0.1-2.6,0
		c0,0.1,0,0.5-0.1,0.6h-1.8v2.9h-0.8c0-0.2,0-0.4-0.1-0.5h-0.5c4.1-11.7,8.3-23.2,12.4-35V10.8z M91.2,41.4c0.3,0,0,0.6-0.1,0.5V42
		c0,0,0,0.1,0.1,0.2V42h0.5c-0.1-0.1-0.2-0.3-0.2-0.6c0.3,0.2,0.5,0,0.8-0.1c-0.1-0.1-0.2-0.2-0.2-0.5c0,0,0,0-0.1,0
		c0,0,0,0.1,0,0.1v0.1h-0.1c-0.1,0-0.1,0-0.2-0.1v0.3c-0.2-0.1-0.2-0.3-0.3-0.5C91.3,41.1,91.2,41.3,91.2,41.4z M92.8,40.8
		c0-0.1-0.4-0.3-0.4,0C92.3,41,92.8,41.3,92.8,40.8z M94.4,34.3c0-0.2-0.1-0.3-0.3-0.2C94.1,34.4,94.2,34.5,94.4,34.3z M94.8,34.9
		c0.3,0.1,0.5,0.4,0.1,0.8h0.1c0,0,0.1,0,0.2-0.1c-0.1,0.1-0.2,0.2-0.2,0.5c0.2-0.2,0.4-0.3,0.6-0.3c-0.1-0.1-0.1-0.2-0.1-0.5
		c0,0-0.1,0-0.2,0.1l-0.1,0.1c-0.2-0.2,0.1-0.8-0.3-0.5H94.8z M96.1,36c0,0.4-0.6,0.1-0.5,0.6h-0.3V37c0.1-0.1,0.4-0.3,0.6-0.5
		c0.1,0.3,0,0.6-0.2,0.8c0.5-0.2,0.6-0.6,1.3-0.5c-0.5-0.1-0.1-0.6-0.7-0.8c-0.3-0.2-0.6-0.4-0.8,0.1C95.7,36.1,95.9,36,96.1,36z
		 M98.2,26.8c-0.1-0.1-0.6-0.2-0.6,0.3c-0.1,0-0.1,0-0.2,0L97.2,27v0.3h-0.1c0-0.3-0.3,0.2-0.5,0.2l-0.1-0.1c0-0.1-0.1-0.2-0.2-0.2
		h0.3V27c0,0.1-0.2,0.1-0.3,0c0,0.1-0.1,0.3-0.3,0.6c0.3,0,0.4,0,0.6,0.3c-0.1,0-0.3,0-0.3,0l-0.1-0.1c-0.3,0.1-0.3,0.5-0.3,0.6
		c0.2,0.1,0.3,0.3,0.5,0.6l-0.1,0.1c-0.1,0-0.1,0.1-0.1,0.2L95.8,29l-0.3,0.1c0,0.2,0.1,0.3,0.1,0.5c0.3-0.3,0.7-0.3,0.3,0.1
		c0,0,0,0,0,0c0,0,0.1,0.1,0.1,0.1c0-0.3,0.1-0.5,0.3-0.5c0,0.1,0.3,0.6,0,0.8c0.2-0.1,0.3,0,0.3,0.3c0-0.1,0.2-0.1,0.2-0.1
		c0,0,0,0,0.1,0c-0.2-0.1-0.3-0.3-0.3-0.4h0.1v-0.5c0.2,0.1,0.3,0.1,0.5,0.3c0-0.3-0.1-0.3-0.1-0.4c0-0.2-0.1-0.3-0.1-0.5l0.3,0.1
		c0-0.1,0.1-0.5,0.3-0.6c0-0.1,0.8,0.1,0.4,0.3c-0.1,0-0.3,0.1-0.4,0.1v0.8c0.1,0,0.2-0.1,0.4-0.3c0.2,0.4,0,0.6-0.3,0.4V30
		c0.1,0.1,0.6-0.2,0.8,0c0.3-0.3,0.6,0,1,0v-0.3c0.1,0,0.1-0.3,0.3-0.5h-0.3c0.1,0,0.3-0.1,0.4-0.1c0-0.1-0.1-0.4-0.3-0.8
		c-0.2,0.2-0.3,0.3-0.5,0.3v0.2c-0.2,0-0.3,0.1-0.3,0.3v-0.3h-0.3L98.5,29c-0.3-0.5,0.1-0.6,0.6-0.5c-0.4-0.1-0.4-0.3-0.1-0.4
		c-0.3,0-0.5,0.1-0.8,0.1v-0.3H99v-0.1h-0.2v-0.1h0.3c-0.1-0.1-0.3-0.3-0.5-0.3V27l-0.1,0.1c0,0-0.1,0-0.2,0c0-0.3,0-0.5-0.2-0.6
		V26.8z M95.6,28.7 M96.4,39.8c0.3,0,0-0.5-0.1-0.5C96.1,39.5,96.1,39.8,96.4,39.8z M96.3,28.4c0.3,0.1,1-0.3,1,0.1
		c-0.1,0-0.3,0.2-0.5,0.2C96.4,29.2,96.3,28.6,96.3,28.4z M96.9,29.2c0,0.3-0.5,0.3-0.5,0C96.4,29,96.9,29,96.9,29.2z M96.6,26
		c0.1,0,0.3-0.1,0.5-0.1c0,0.3,0.1,0.6-0.2,0.8h0.6c-0.1,0-0.1-0.1-0.3-0.1h-0.1l0.1-0.1c0-0.2,0-0.4-0.1-0.5c0.3,0.3,0.6,0,0.8-0.1
		c0,0.1,0,0.1-0.1,0.1h0c0.1,0.1,0.3,0.1,0.6,0.3h-0.6v0.2H99c-0.2-0.2-0.4-0.3-0.5-0.3c-0.2,0-0.4,0-0.5-0.1l0.5-0.1
		c-0.1-0.3-0.4-0.3-0.8-0.2c0,0,0,0,0-0.1c0,0,0.1-0.1,0.1-0.2h-0.5c0,0.1,0.1,0.1,0.1,0.2v0.1h-0.8c0.1-0.1,0.3-0.1,0.5-0.3
		c-0.3-0.5-0.5,0.1-0.6,0.5V26z M96.9,27.5h0.2c0,0.3,0.1,0.4,0.3,0.4c0,0.2-0.1,0.2-0.3,0.3c-0.2-0.1-0.3-0.5-0.5-0.6h0.3V27.5z
		 M96.9,43.8 M97.1,31.1v0.1c0.3-0.1,0.6,0,1.1,0v0.1h0.2c-0.2-0.2-0.4-0.3-0.5-0.3c0-0.2,0.3-0.2,0.5-0.3h-0.8v-0.1
		c-0.1,0.1-0.3,0.1-0.3,0.5H97.1z M97.2,24.3c0.1,0.2,0.1,0.3,0.3,0.3c0-0.1-0.1-0.3,0-0.5c0.3-0.3,0.6-0.5,1.1-0.5v-0.1
		c-0.3-0.1-0.8-0.1-0.9-0.6c-0.3,0.5-0.3,1.1-0.3,1.6L97.2,24.3z M97.4,31.1c-0.1-0.3,0.5-0.3,0.3,0H97.4z M97.5,28.4
		c-0.2,0-0.2-0.1,0-0.3c0.3,0.1,0.6,0.1,1,0.3H97.5z M98.2,27.1c0.2,0.1-0.4,0.2-0.4-0.1C97.9,27,98.1,27,98.2,27.1z M97.9,22.2
		c0.5,0,0.8,0,1.1,0.1c0.1,0.3,0.1,0.6,0.1,1c-0.1-0.1-0.5-0.5-0.5,0c0.5,0,0.8,0.3,1.1,0.6c0,0,0,0-0.1,0c0,0-0.1-0.1-0.2-0.1
		c0,0.4-0.2,0.9-0.8,0.8c-0.2,0-0.3,0-0.5-0.1l0.1-0.1c0,0,0.1-0.1,0.2-0.1h-0.3v-0.4C98,24,97.9,24.3,98,24.5l-0.1,0.1
		c0,0,0,0.1,0,0.2c0.3,0,0.6-0.2,0.9,0.1c-0.1,0.2-0.1,0.5-0.3,0.6c0.3-0.1,0.5-0.4,0.6-0.6v0.3c0.5-0.1,0.3,0.3,0.5,0.6h-0.3
		l0.1,0.1c0,0,0.1,0,0.2,0s0.4-0.2,0.6,0.1h0.4h0.5L101,26c0-0.1,0-0.5,0.1-0.6c-0.3,0.1-0.6,0.1-0.8,0h0.1h0.5v-0.1
		c0.4,0.1-0.1,0.8,0.5,0.8l0.3-0.1c-0.4,0.5,0.2,0.6,0.6,0.5c0-0.3,0.2-0.5,0.3-0.8c-0.3,0.2-0.8,0.2-1.1,0.3v-0.1l-0.3,0.1v-1
		c0.3,0.2,0.8,0.5,0.8,0c-0.1,0-0.3,0.3-0.5,0c0.1,0,0.1-0.1,0.1-0.3c-0.1,0.6-0.8,0-0.9-0.3c0.1-0.1,0.5-0.1,0.6-0.1v0.3
		c0.3,0,0.1-0.5,0.1-0.6c0,0,0-0.1-0.1-0.1c0,0,0,0,0,0c-0.2,0-0.3,0-0.3,0.2c0,0,0.1,0,0.2,0c0,0,0.1,0,0.3-0.2
		c-0.1,0.3-0.3,0.5-0.6,0.5c-0.2-0.2-0.3-0.3-0.5-0.3l-0.1,0.1c0-0.1-0.1-0.1-0.3-0.1c-0.1,0.1-0.1,0.2-0.1,0.4
		c-0.1,0.1-0.2,0.2-0.2,0.2c0,0,0,0-0.1,0v-0.2c0.3,0,0.3-0.4,0.4-0.6c-0.2,0.2-1-0.4-0.4-0.8c0.1,0.1,0.1,0.2,0.1,0.5
		c0.2,0,0.3,0,0.5-0.1v0.6c0.3,0,0.3-0.3,0.4-0.5c0.2-0.1,0.3-0.1,0.7-0.3h-0.5c-0.2,0-0.3,0-0.3-0.1c0,0.2,0.1,0.3,0.3,0.3h-0.5
		c-0.1-0.3-0.4-0.3-0.8-0.5v-0.8c0,0.5-0.8,0.3-0.8,0h0.5v0c0,0,0-0.1-0.1-0.1h-0.3c-0.1,0-0.4,0-0.6-0.1C98,21.9,98,22.1,97.9,22.2
		z M98.8,29.8h-0.6c0.2-0.3,0.2-0.4,0.2-0.8C98.5,29.4,98.6,29.7,98.8,29.8z M98.6,38.9h0.1c0.2-0.1,0.2-0.5,0.2-0.6
		c-0.3,0-0.8,0.3-0.2,0.3C98.7,38.7,98.6,38.8,98.6,38.9z M98.6,24c0,0.3,0.6,0,0.3,0.5c0-0.2,0.3-0.5,0.4-0.6L99.1,24
		c0-0.3,0-0.6-0.3-0.5C98.7,23.6,98.6,23.7,98.6,24z M99.1,29.5c0.1-0.6,0.3-0.1,0.5,0c-0.2,0-0.3,0.1-0.5,0.1
		c-0.1,0-0.1-0.1-0.1-0.3C99,29.5,99,29.5,99.1,29.5L99.1,29.5z M99.4,27c0,0.1,0.2,0.3,0.2,0.5l-0.3-0.2c0.1,0.2,0,0.7,0.3,0.3
		l0.1,0.1c0.2-0.2,0.3-0.3,0.3-0.5l-0.1,0.2l-0.3-0.8C99.6,26.8,99.6,26.9,99.4,27L99.4,27z M100.1,24.8c0,0.1-0.6,0.4-0.4-0.1
		C99.8,24.5,100.1,24.4,100.1,24.8z M101,22.4c-0.3,0-0.6-0.1-1-0.1c0,0.1,0.2,0.3,0.2,0.5c0.1,0,0.3-0.2,0.4-0.2
		c0,0.2,0.1,0.3,0.3,0.3v-0.3h0.3v0.2h0.1V23h0.1l-0.1-0.1c0.1,0,0.1-0.1,0.3-0.1c-0.3-0.2-0.6-0.5-0.9-0.6
		C100.9,22.3,100.9,22.4,101,22.4z M100.5,24.3 M102.1,22.9v-0.1v-0.2v-0.1l0.3-0.1v0.6l0.2-0.1c-0.2-0.2-0.1-0.3,0.1-0.5
		c-0.3,0-0.4-0.3-0.8-0.1C102,22.4,102,22.7,102.1,22.9z M102.4,23.5c0.2-0.1,0.5,0,0.8-0.1l0.4-0.5c-0.4,0.3-0.9,0.1-1.3,0.5V23.5z
		 M103.6,16.3c0-0.1,0.1-0.1,0.1-0.3l0.3,0.1v-0.3l-0.5,0.1l0.3-0.3h-0.5c-0.1,0-0.3,0.2-0.5,0.2C103.1,16.1,103.3,16.2,103.6,16.3z
		 M103.3,36.7l-0.2,0.1c0,0.1,0.3,0.1,0.5,0.1c0-0.1,0-0.5-0.3-0.6V36.7z M104.3,18.4l0.2,0.3c-0.1,0-0.2-0.1-0.3-0.1H104l0.3,0.3
		c0.5-0.2,0.8-0.5,1.1-0.2l-0.1-0.1c0.2,0,0.4,0,0.5-0.1c-0.1,0.1-0.2,0.1-0.5,0.1c0-0.3-0.5-0.3-0.5,0
		C104.7,18.6,104.5,18.4,104.3,18.4z M104.5,21.7c-0.1,0-0.2,0-0.3,0.1c0.1,0.2,0,0.3,0,0.6h0.3l-0.2-0.1c0.2-0.1,0.3-0.1,0.5-0.3
		c-0.1,0-0.5,0-0.5,0.1c0-0.3,0.3-0.5,0.6-0.3v-0.1H104.5z M106.1,36.3c-0.1-0.1-0.2-0.1-0.4-0.1l-0.2,0.1h-0.1
		c-0.1,0-0.5,0.1-0.6,0.3c0.1,0,0.3-0.2,0.6-0.2c0,0.2,0.1,0.3,0.3,0.3v-0.3C105.7,36.4,105.9,36.3,106.1,36.3
		c0.2-0.3,0.2-0.4,0.3-0.8c-0.1,0.1-0.5,0.1-0.6,0.1C106.1,35.7,106.1,36,106.1,36.3z M105.3,18.9 M108.3,23.6l0.1-0.1
		c0-0.3-0.1-0.4,0-0.8c-0.1,0.1-0.2,0.1-0.5,0.1C108.2,23,108.3,23.3,108.3,23.6z M113.9,27.6c-0.1,0-0.1-0.1-0.2-0.1h-0.1v0.1
		c0.2,0,1,0.7,0.1,0.3c0.1,0.2,0.3,0.3,0.3,0.6c-0.3,0.2-0.6,0.8-1.1,0.6c-0.1-0.3,0.2-0.4,0.3-0.8c-0.1,0-0.3,0.1-0.5,0.1v-0.3v0.3
		l-0.3,0.2c0-0.2,0-0.3-0.2-0.6c0,0.2,0,0.3-0.1,0.4l-0.3-0.1c0-0.6-0.6,0-1.1-0.3c-0.1,0.1-0.3,0.1-0.5,0.3c0.5,0,0.8,0,1.1-0.1
		l-0.1,0.3c0.1,0,0.1-0.1,0.3-0.3l0.1,0.3c-0.2,0.2,0.1,0.6-0.3,0.6c0.1-0.3-0.3-0.4-0.6-0.3l0.1-0.3h-0.6v0.2h0.3v0.1
		c-0.2,0-0.3-0.1-0.5-0.1l0.1,0.3h-0.3v-0.1c-0.2-0.1-0.5-0.1-0.6-0.3h-0.2v0.3h0.3c0.1,0.6-0.5,0-0.6,0.5c0.3,0.1,0.8,0.1,0.8,0.6
		l-0.2-0.1c-0.1,0-0.2-0.1-0.3-0.1v0.5c0.2-0.2,0.5-0.3,0.6-0.3l-0.1-0.2c0.1-0.3,0.5-0.3,0.6-0.1c0,0-0.1-0.2-0.3-0.5h0.4v0.2
		l0.2-0.2c0.1,0,0.3,0.2,0.4,0.2l-0.1-0.3h0.3c0,0.1,0.1,0.5,0.1,0.6c-0.1,0-0.2,0-0.2,0.1s0,0-0.1,0h0.3c0.1-0.3,0.3-0.6,0.6-0.4
		c0-0.2-0.1-0.5-0.3-0.6c0.2,0,0.5,0,0.5-0.2c0,0.3,0,0.5,0.1,0.6l0.2-0.3c0.1,0.3,0.4,0.5,0.6,0.6c0.2,0.2,0.3,0.3,0.5,0.3
		c0.1,0.1,0.2,0.2,0.4,0.2c0-0.2,0-0.5,0.3-0.3c0.1-0.1,0.2-0.1,0.5-0.1c0-0.1-0.3-0.3-0.2-0.5c0.2,0,0.3,0.1,0.5,0.1v0.3l0.1,0.1
		v-0.1h0.5h-0.5c0.2-0.3,0-0.8-0.4-0.8c0.2,0,0.3-0.1,0.3-0.3h-0.3c0-0.5-0.3-0.8-0.6-0.8l0.1-0.1c-0.2,0-0.4,0-0.5-0.2V27.6z
		 M109.3,28.1c0.1-0.2,0.3-0.2,0.4-0.3h-0.3v-0.1h0.3c-0.3-0.1-0.4-0.3-0.4-0.6c-0.2,0.3-0.2,0.5-0.2,0.6
		C109.1,27.8,109.3,27.9,109.3,28.1z M109.8,23.5c0,0-0.1,0-0.1-0.1c-0.1,0.3-0.1,0.5-0.3,0.6v0.1c0-0.1,0.1-0.1,0.3-0.1v0.1v-0.5
		c0.3-0.1,0.8-0.2,0.5,0.3c0.3-0.1,0.4,0,0.8,0.1c0-0.2,0-0.3,0.2-0.5c-0.2,0-0.5,0-0.6,0.2c0-0.1,0-0.2,0-0.2l0.1-0.1v-0.1
		c-0.1,0-0.3,0.1-0.5,0.1v-0.3C110.1,23.4,110.1,23.5,109.8,23.5L109.8,23.5z M110.6,30c0.3,0.4-0.5,0.7-0.6,0.1v0.3
		c0.3,0.2,0.4,0.2,0.6,0.2c0,0.1,0,0.3-0.2,0.5c-0.1-0.1-0.2-0.3-0.4-0.5c0,0.1,0.1,0.5,0.1,0.6h-0.6c0,0.5,0.3,0.8,0.6,0.9v0.5
		c0,0,0.2-0.1,0.5-0.3c0.4,0.1,0,0.4,0,0.6c0.1-0.1,0.2-0.1,0.3,0c0.1,0,0.1-0.2,0.3-0.2c-0.5-0.1-0.5-0.4-0.6-0.8
		c0.1,0,0.4,0.1,0.6,0.1v-0.3c0.2,0.2,0.4,0.3,0.6,0.3l-0.5,0.2c0.3,0,0.6,0.1,0.9,0.1v-0.6c0.3,0,0.6,0,1,0.1
		c-0.1,0-0.1-0.1-0.3-0.1h-0.8c0-0.1,0-0.2,0.1-0.2l0.2-0.1c0-0.1-0.2-0.1-0.2-0.3c-0.1,0.3-0.4,0.5-0.6,0.6v-0.1
		c-0.3,0-0.4,0.1-0.8,0.1v-0.5c0,0.1,0,0.1-0.1,0.1h0c0-0.3-0.3-0.3-0.5-0.4h0.3c0-0.3,0-0.7,0.3-0.8v0.6h0.1c0,0,0.1,0,0.2-0.1
		c0-0.1,0.1-0.3,0.1-0.5h-0.5c-0.1,0-0.1-0.2-0.1-0.6c-0.1,0.1-0.3,0.1-0.3,0.3H110.6z M109.6,28.6c0.3,0.3,0.3-0.3,0-0.1V28.6z
		 M110.2,33.8c0.1,0,0.3-0.1,0.5-0.1c-0.3-0.2-0.5-0.5-0.6-0.6C110.1,33.4,110.1,33.5,110.2,33.8z M110.7,35.4
		c0,0.4-0.5,0.3-0.6,0.6c0.3-0.2,0.8-0.2,0.8-0.6H110.7z M110.9,18h-0.3v-0.3v0.2c-0.2,0.1-0.3,0.1-0.3,0.3c0.3,0.1,0.6,0.3,1,0.3
		h0.1c0-0.3-0.3-0.6-0.1-0.8c-0.2-0.1-0.3-0.1-0.5-0.3C110.7,17.5,110.9,17.8,110.9,18z M110.9,32.1h0.1v-0.1h-0.1V32.1z
		 M111.6,33.3c0.2,0,0.4,0,0.5,0.1v-0.1h-0.3V33c0.3,0,0.5,0,0.6-0.2c-0.3,0-0.8,0.4-1-0.1c-0.5,0.1,0.1,0.3,0.3,0.3
		C111.8,33.2,111.6,33.2,111.6,33.3z M111.8,31.9c-0.3,0.1,0.4,0.3,0.3,0H111.8z M112.1,30.2c0.1-0.1,0.3-0.1,0.5-0.3
		c0.1,0.2,0.3,0.3,0.6,0.5v-0.1h-0.1v-0.3c-0.3,0-0.5-0.1-0.6-0.3c-0.2,0-0.5,0-0.6,0.1C111.6,29.8,112,30,112.1,30.2z M112,26h0.5
		l-0.2-0.1c0-0.3-0.1-0.5-0.3-0.6C111.6,25.6,112,25.7,112,26z M112.6,37.5l-0.2,0.1c0,0-0.1,0-0.3,0c0.3,0,0.4,0,0.8-0.1
		c0.2,0,0.7,0.2,0.7-0.3c-0.3,0.2-0.5,0.2-0.7,0.2c0,0,0,0,0-0.1c0,0,0-0.1,0.2-0.2c-0.1,0.1-0.3,0.1-0.5,0.1V37.5z M113.5,30.4
		L113.5,30.4c-0.2,0.4-0.4,0-0.7-0.1v0.3h0.1v0.1c-0.1,0-0.3,0.1-0.4,0.1v0.2c0.1,0,0.4-0.3,0.6,0c-0.2,0.1-0.3,0.3-0.3,0.4
		c0.2,0,0.3-0.1,0.3-0.3l0.1,0.1c0,0,0.1,0,0.2,0c0.2-0.3,0.5-0.3,0.6-0.3c0,0,0.1,0,0.1-0.1c0,0,0,0,0-0.1h-0.3c0-0.1,0-0.1,0-0.2
		l0.1-0.1l0.1,0.1l0.2,0.2l-0.1-0.5l0.3-0.1c0.1,0.3,0.1,0.5,0.3,0.6v0.3v-0.3h0.3c-0.3,0-0.6-0.3-0.5-0.6h-0.1
		c-0.1,0-0.1,0-0.2-0.1c-0.1,0.1-0.3,0.3-0.5,0.5c0-0.1,0-0.2,0-0.3l0.1-0.2c-0.2,0-0.3,0.1-0.3,0.3
		C113.6,30.5,113.5,30.5,113.5,30.4z M113.1,19.1 M113.2,30.9 M113.6,22.9V23h0.1l-0.1,0.2c0.4,0.3-0.6,0.9,0.1,0.9v0.3h0.1
		c0,0.3,0,0.4,0.1,0.8c0.3-0.1,0.5-0.5,0.8-0.5c-0.5-0.1,0.1-0.9-0.2-1.1c-0.3-0.1-0.1-0.3-0.1-0.6c-0.1,0.1-0.3,0.2-0.6,0.2
		L113.6,22.9z M113.6,35.9c0,0.2,0.6,0.2,0.4-0.1c-0.1,0-0.3-0.3-0.4-0.3V35.9z M113.9,29.7c-0.3,0.1-0.3-0.3-0.1-0.5
		C114.1,29,113.9,29.5,113.9,29.7z M113.9,34.6c-0.1,0.1-0.3,0.6,0.1,0.6c-0.1,0.3,0.6,0.5,0.6,0l-0.4,0.2c0.2-0.2,0.3-0.4,0.3-0.5
		c-0.1,0.1-0.3,0.3-0.6,0.1c0.3-0.1,0.2-0.6-0.1-0.6L113.9,34.6z M113.7,37.9v0.4c0.1,0,0.1,0,0.2,0l0.1-0.1c0-0.2,0-0.3-0.1-0.5
		L113.7,37.9z M113.9,33.2v0.3V33.2z M113.9,33.7 M114.6,28.9c-0.1,0.1-0.2,0.8-0.6,0.5l0.1-0.1c0,0,0.1-0.1,0.1-0.2
		c-0.2,0-0.5,0-0.2-0.3c0.2-0.2,0.2-0.6,0.2-1C114.5,28.1,114.6,28.4,114.6,28.9z M114.8,32.2c0-0.1-0.2-0.3-0.2-0.4
		c-0.4,0-0.1,0.4-0.1,0.6C114.6,32.4,114.6,32.2,114.8,32.2l0.3,0.3v-0.5c0.1-0.1,0.5,0,0.5,0.1v-0.4c-0.1,0.1-0.3,0.1-0.6,0.3
		c0-0.3,0.5-0.4,0.5-0.8h0.3v0.1c0.1-0.1,0.3-0.1,0.3-0.3c-0.2,0.2-0.5,0.1-0.8-0.2c-0.1,0.3-0.3,0.5-0.3,0.8
		C115.1,31.9,115,32,114.8,32.2z M115.3,35.6l0.2-0.1c0.1-0.5-0.5-0.2-0.5,0.1H115.3z M117,31.3c0,0.1-0.3,0.5,0,0.5
		c0.1-0.2,0.1-0.3,0.3-0.5l-0.1-0.1c0,0-0.1-0.1-0.1-0.2c0,0-0.1,0-0.1,0c-0.1,0-0.1,0.1-0.1,0.1L117,31.3z M117.2,42.2l0.2,0.1
		c0,0,0.1,0,0.3,0c0,0,0,0.1-0.1,0.2c0,0,0,0,0,0.1h0.3c0-0.1-0.2-0.3-0.3-0.6C117.4,42,117.3,42.1,117.2,42.2L117.2,42.2z
		 M118.5,37.3v0.6c-0.2,0-0.3-0.2-0.5-0.2v0.5c0,0,0.2-0.1,0.5-0.3v0.1c0-0.3,0-0.4,0.1-0.8H118.5z M119.3,41c0,0,0.2,0.1,0.5,0.3
		c-0.5,0.1-0.9,0-1.5,0c0.2,0.1,0.6,0.1,0.8,0.5c0.3-0.1,0.6,0.5,1.1,0.3c-0.3-0.1-0.6-0.3-0.9-0.6h0.6c-0.3-0.3-0.2-0.4,0.1-0.6
		c-0.2,0-0.3,0-0.5-0.1C119.4,40.8,119.4,41,119.3,41z M118.6,35.9 M119.1,42.4h-0.3V42h-0.1c0,0.1,0.1,0.3,0.3,0.5
		c0.1-0.1,0.3-0.1,0.6-0.1v0.1c0-0.1-0.1-0.5-0.1-0.6c-0.1,0.1-0.2,0.1-0.5,0.1L119.1,42.4z M118.8,38.1h0.3c0.1-0.1,0-0.5-0.2-0.5
		C118.8,37.7,118.8,37.8,118.8,38.1z M119.8,38.9 M120.2,43.5c0,0-0.1,0-0.2,0.1c0,0,0,0-0.1,0c0.1,0,0.3,0.1,0.5,0.1
		c-0.2,0.2-0.2,0.3,0,0.5c0.1,0,0.3-0.3,0.3-0.5h0.1l0.2-0.1h-0.6v-0.3L120.2,43.5z M120,39.7 M120.5,41.1"/>
</g>
</svg>
