<?xml version="1.0" encoding="utf-8"?>
<!-- Generator: Adobe Illustrator 19.2.1, SVG Export Plug-In . SVG Version: 6.00 Build 0)  -->
<svg version="1.1" id="Layer_1" xmlns="http://www.w3.org/2000/svg" xmlns:xlink="http://www.w3.org/1999/xlink" x="0px" y="0px"
	 viewBox="0 0 299.3 57.9" style="enable-background:new 0 0 299.3 57.9;" xml:space="preserve">
<style type="text/css">
	.st0{fill:#22262A;}
</style>
<g>
	<path class="st0" d="M82.5,9.2v9.6c-4.4,0.1-8.3,3.8-9.2,8.1c-0.5,2.5-0.2,5,0.8,7.6c1.3,2.6,3.5,4.9,6.4,5.6
		c2.6,0.8,5.4,0.1,7.8-1.4c2.1-1.6,3.5-4.1,4.2-6.6c0.5-2.3,0.5-4.5-0.4-6.6c-1.3-3.5-4.9-6.4-8.7-6.6V9.2c5.5,0,10.8,2.6,14.4,6.8
		c1.9,2.4,3.4,5.1,4,8.2c0.8,3.3,0.6,6.7,0,10c-0.5,2.6-1.4,5-2.9,7.2c-0.2,0-0.4,0-0.5,0.1v0.5c-0.3,0.3-0.4,0.8-0.8,1.1
		c-0.2-0.3,0.1-0.8-0.2-1.1c-0.3-0.5-0.9-0.1-1.3-0.3v0.6c-0.1-0.1-0.3-0.3-0.6-0.5c-0.5,0.1-0.7,0.5-1.3,0.6v0.6
		c-0.2-0.2-0.4-0.3-0.6-0.3c-0.1,0.3-0.1,0.6-0.1,0.9l-0.2-0.1C93.1,43.9,93,43.9,93,44v0.1c-0.1-0.4,0.1-1.1-0.3-1.4
		c0,0.1-0.2,0.3-0.2,0.5h-1.1v1.1c-0.2-0.8-0.2-1.6-0.2-2.4h-0.8v-0.3v0.3c-0.4-0.1-0.8-0.1-1.3,0v2.9c-0.1,0-0.1,0-0.3,0.2
		c-0.1-0.3-0.1-0.5-0.3-0.6c0-0.3-0.1-0.6-0.1-1c-0.3,0.1-0.5,0.3-0.5,0.6c0.1-0.8-0.3-1.5-0.6-2.3c-0.1,0.8-0.6,1.8-0.5,2.8
		c-0.1,0.1,0.1,0.6-0.3,0.6c0-1.1,0.1-2.4-0.5-3.6l-0.5,1h-0.6c-0.3,0.3-0.6,0.4-0.8,0.8c0.1,0.1,0.3,0.6,0,1c-0.3,0-0.8,0-1.1,0.1
		c0-0.8,0.3-1.7-0.5-2.3c-0.3,0.6-0.3,1.1-0.3,1.8c-0.2-0.1-0.5-0.1-0.6-0.3h-0.1c0,0-0.1,0-0.1,0.1c-0.6-0.1-1.3,0-1.9,0v0.3
		c-0.3,0-0.1,0.6-0.5,0.6v0.6c-0.6-0.1-0.9-0.7-1.1-1.3c-0.2,0.3-0.2,0.5-0.3,0.8l-0.3-0.8h-1.1v-0.9c-1,0.1-1.9-0.5-3.1-0.3
		c-0.1,0.2-0.5,0.2-0.5,0.6H72c-0.6,0.6-0.8,1.6-0.6,2.4c0.2,0.3-0.1,0.1-0.3,0.1v-1.4c-0.2-0.2-0.3-0.3-0.5-0.3l-0.1-0.1
		c0,0,0-0.1,0-0.2c-0.5,0-1,0-1.4,0.1c-4.1-4.5-5.7-11-5.3-16.9c0.5-5.3,3.1-10.3,7.3-13.7C74.1,10.8,78.3,9.2,82.5,9.2z M66.6,32
		c-0.2-0.1-0.5-0.1-0.5-0.3v0.5h-0.6c0.1,0.1,0.5,0.3,0.6,0.5c-0.1,0.3,0,0.8,0.1,1.1c0-0.3,0-0.5-0.1-0.8l0.3-0.3h-0.3l0.1-0.3
		c0.2,0,0.5,0.1,0.6,0.5v-0.6h0.3v-0.5c-0.3,0-0.6-0.1-0.8-0.3C66.4,31.5,66.6,31.8,66.6,32z M66.7,26.2c-0.2,0-0.3,0.1-0.3,0.3
		c-0.2-0.2-0.3-0.3-0.3-0.5c0,0.2-0.3,0.5-0.1,0.6c0.1,0,0.2,0,0.3,0l0.1-0.1v-0.1h0.2c0,0.1,0.1,0.3,0.1,0.5
		c0.1-0.2,0.1-0.3,0.3-0.5c-0.1-0.1-0.3-0.1-0.3-0.5V26.2z M67.4,37.5c-0.1-0.4-1.3,0-0.8,0.4C66.9,37.8,67,37.6,67.4,37.5z
		 M67,38.4c0.2-0.1,0-0.5-0.1-0.3C66.7,38.3,66.9,38.6,67,38.4z M67.5,19.5h0.1c0,0.1,0.2,0.5,0.2,0.6c0,0,0.1-0.1,0.3-0.5l0.1,0.1
		v-0.1c-0.3,0-0.4-0.3-0.3-0.6l-0.1,0.1c0,0-0.1,0-0.2,0c0,0,0,0-0.1,0c0,0-0.1-0.1-0.2-0.1C67.4,19.2,67.5,19.4,67.5,19.5z
		 M67.7,30.3 M67.9,29.4C68,29.7,68,30,68,30.3c0.1,0.2,0.4,0.3,0.8,0.2c-0.1-0.3,0-0.8-0.5-0.8v0.5v-0.6c0-0.2,0-0.3,0.2-0.3
		c0,0,0,0,0.1,0c0,0,0.1-0.1,0.2-0.1c-0.3,0-0.6-0.1-0.8-0.1C67.9,29,67.9,29.2,67.9,29.4z M68.2,38.1c0.1,0,0.3,0.1,0.5,0.3
		c0-0.4-0.1-0.8-0.5-1.1C68.3,37.6,68.3,37.9,68.2,38.1z M68.3,35.5v0.6c0.2,0,0.2-0.2,0.3-0.3h-0.3c0-0.2,0-0.3,0.2-0.3H68.3z
		 M69.3,29.2c0,0.2-0.1,0.3-0.1,0.5c-0.2-0.2-0.4-0.3-0.6-0.3c0,0.1,0.3,0.3,0.3,0.6h0.3L69,30.3l0.1-0.1v0.1h0.3v0.3h-0.3
		c0.1,0.1,0.8,0.3,0.3,0.6c0.1,0.1,0.3,0,0.5-0.1c-0.1-0.3-0.3-0.5-0.3-0.8h-0.3l0.1-0.3l0.1,0.1c0,0,0.1,0,0.2,0
		c0-0.1,0-0.6-0.3-0.6l0.2-0.1C69.5,29.4,69.4,29.3,69.3,29.2L69.3,29.2z M68.8,18.8c-0.1,0-0.1,0.4,0,0.4
		C69,19.2,69,18.9,68.8,18.8z M69.6,35.3v-0.1c-0.2-0.1-0.5-0.3-0.5-0.6L69,34.6c0,0-0.1,0-0.2,0C69.1,35,69.4,35.2,69.6,35.3z
		 M69.4,16.3c0,0.1,0,0.1,0.1,0.1h0.1h0.3c0-0.1,0-0.3-0.3-0.5l0.1-0.1c-0.1,0-0.3-0.1-0.5,0C69.3,16,69.6,16.1,69.4,16.3z
		 M69.4,23.3l0.2,0.1c0.1,0,0.6-0.2,0.6,0.1h-0.2c0.2,0.2,0.3,0.7,0.6,0.3v0.3h0.2l-0.2,0.1c-0.1,0-0.2,0.1-0.3,0.1
		c0.3,0,0.6,0,0.8,0.1c0.1-0.3,0.1-0.6,0.3-1c-0.2-0.1-0.5-0.3-0.6-0.4c-0.2,0.1-0.3,0.1-0.5,0.3c0.1-0.3-0.3-0.4-0.5-0.8
		c-0.3-0.1-0.5,0.3-0.5,0.5V23.3z M70.1,40.2h-0.4c0.3,0.3,0.3,0.9,0,1.3c0,0.1,0.1,0.3,0.1,0.5l0.3-0.1c0,0-0.1,0-0.2-0.1l-0.1-0.1
		c0.5,0,0.4-0.4,0.8-0.6h-0.6c0-0.3,0.5-0.2,0.3-0.8c0.3,0.1,0.4,0.5,0.6,0.6c0-0.3-0.2-0.6,0.1-0.8h-0.1c-0.2,0-0.3,0.1-0.5,0.1
		c0.1-0.1,0.1-0.2,0.1-0.5c-0.2-0.1-0.4,0-0.6,0.2C69.9,40,70.1,40,70.1,40.2z M69.9,33.6c0.3-0.1,0.1-0.4,0-0.4
		C69.6,33.1,69.8,33.6,69.9,33.6z M70.9,29.9c-0.2,0-0.3-0.2-0.5-0.3v0.1l-0.1,0.2h-0.2c0,0.2,0,0.3,0.2,0.4c0-0.4,0.3-0.3,0.6-0.3
		c-0.5,0.1-0.3,0.6-0.2,0.9v-0.4c0.1,0,0.2,0,0.2,0.1c0,0,0,0,0.1,0c-0.4-0.1-0.4-0.4,0-0.8c0.1,0.6,0.3,0,0.3-0.2
		c0-0.3-0.3-0.5-0.4-0.6c-0.2,0.1,0,0.3,0.3,0.3C71.1,29.5,71.1,29.7,70.9,29.9z M70.1,31.8c0.2,0,0.5,0.3,0.6,0.4
		c0.1-0.3-0.4-0.6-0.1-0.9c-0.3,0-0.1,0.3-0.1,0.5H70.1z M70.7,23.6c0.3-0.1,0.5,0.3,0.2,0.3C70.6,23.8,70.4,23.4,70.7,23.6z
		 M71.9,38.8c-0.3,0-0.6,0.1-0.8,0.1c0.1,0.3,0.1,0.6,0.1,1c-0.1-0.2-0.3-0.3-0.5-0.3l0.2-0.3c0-0.2-0.2-0.2-0.3-0.3v0.1h0.1v0.8
		h0.5v0.6c0-0.2,0.1-0.2,0.1-0.3L71.3,40c0,0,0-0.2,0-0.3c0.1,0.2,0.3,0.5,0.6,0.5c0.1-0.3,0.1-0.5,0.3-0.6v-0.5
		c0.2,0,0.3,0.1,0.3,0.3v-0.5c0.1,0,0.2-0.1,0.2-0.3c-0.1,0-0.2,0-0.2,0.1c0,0,0,0-0.1,0v0.3c-0.3-0.1-0.5-0.3-0.5-0.6V38.8z
		 M70.7,33.1 M70.9,14.8c0.3,0.2,0.4,0.2,0.6,0.3c0-0.1,0-0.2,0-0.2l0.1-0.1H70.9z M71.2,26.2v0.1c0.1-0.1,0.3-0.1,0.3-0.3
		c0-0.1-0.1-0.1-0.3-0.1V26.2z M71.7,39.7c-0.3,0-0.5-0.4-0.3-0.6C71.6,38.9,71.7,39.3,71.7,39.7z M71.9,24.5v0.1v-0.5
		c0.3,0.2,0.3,0.6,0.8,0.6c-0.1,0-0.2,0-0.2-0.1c0,0,0-0.1,0-0.1c-0.3,0-0.3-0.3-0.3-0.6c-0.1,0.1-0.3,0.1-0.5,0.1
		C71.7,24.2,71.9,24.4,71.9,24.5z M71.7,35.5v0.3h0.1c0.1,0.3,0.4,0.5,0.6,0.3c0-0.3-0.1-0.6-0.3-0.2c-0.2-0.1-0.3-0.3,0-0.4H71.7z
		 M71.7,40.5 M71.9,38.9c0.5,0,0.1,0.7,0,0.1V38.9z M72.4,40.3c0.1-0.1,0-0.6-0.3-0.4C71.9,40,72.2,40.3,72.4,40.3z M73,33.6h0.1
		c0-0.1-0.1-0.4-0.3-0.8C72.9,33.1,72.9,33.2,73,33.6z M74.9,21.6c-0.3,0-0.3,0.5,0,0.5C75.3,22,75.1,21.5,74.9,21.6z M75.7,18.9
		h-0.1v0.1h-0.5c0.2,0.1,0.5,0.1,0.6,0.1v0.3c0-0.1,0.1-0.1,0.3-0.1c-0.1,0.1,0.1,0.3,0.3,0.4c-0.1-0.4,0.3-0.6,0.2-0.9
		c0,0.5-0.5,0.3-0.5,0c0.1-0.1,0.3-0.1,0.5-0.3h-0.5c0-0.3-0.1-0.4-0.1-0.6c-0.2,0-0.3,0.2-0.5,0.2C75.4,18.5,75.7,18.6,75.7,18.9z
		 M75.3,20.7c0.1,0.1,0.3,0.1,0.6,0c-0.2,0.1-0.2,0.4-0.2,0.6c0.3-0.3,0.2-0.6,0.2-1c0.2,0.2,0.3,0.3,0.3,0.5c0-0.2,0.1-0.3,0.3-0.3
		c-0.3-0.1-0.6-0.1-0.8-0.3c-0.1,0-0.1-0.1-0.1-0.3C75.6,20.2,75.4,20.3,75.3,20.7z M76.9,42.6c0.2,0.1,0.5,0.3,0.6,0.5
		c0.3,0,0.6-0.3,0.8,0c0.2-0.2,0.2-0.3,0.1-0.5L78.3,43c-0.2-0.2-0.3-0.4-0.3-0.5l-0.1,0.1c0,0.1,0,0.2,0,0.2L78,43
		c-0.3,0-0.6-0.3-0.9-0.5C77.1,42.6,77,42.6,76.9,42.6L76.9,42.6z M77.1,19.4c0.3,0.1,0.3-0.5,0-0.3V19.4z M78.3,18.6l-0.2,0.2
		c0.2,0.1,0.2,0.3,0.3,0.4l0.9-0.4c-0.1,0-0.4,0.1-0.6,0.1v-0.3H78.3z M78.6,15.8c-0.1-0.1-0.5,0.1-0.3,0.3
		C78.5,16.3,78.8,16.2,78.6,15.8z M78.8,16.5l-0.3-0.1c0.2,0.2,0.3,0.3,0.5,0.4c-0.3,0-0.5,0.2-0.6,0.2l0.1-0.2h0.1v-0.3
		c-0.3,0.1-0.3,0.4-0.3,0.8v-0.1C78.7,17,78.8,17,79,17c0.3,0,0.4,0.2,0.4,0.6c0.2-0.1,0.2-0.5,0-0.6h0.2l-0.2-0.2
		c0.1,0,0.2,0,0.2-0.1c-0.2,0-0.2-0.1-0.3-0.5c0.3,0,0.4,0.2,0.8,0.2c-0.1,0-0.1-0.2-0.3-0.3c0,0.1,0,0.1-0.2,0.1h-0.1
		c0-0.2,0-0.3,0.2-0.4l-0.2-0.2c0,0.2-0.1,0.3-0.3,0.3c-0.2,0-0.3-0.1-0.3-0.3C79,15.8,79.1,16.1,78.8,16.5z M79,16.5 M81.7,16.3
		c0.1-0.2-0.1-0.5-0.3-0.3C81.2,16.1,81.6,16.5,81.7,16.3z M82.4,41 M82.7,41.3c0.1,0.1,0.3,0.5,0.4,0.6v-0.5l0.2,0.1
		c0,0.3,0,0.8,0.1,1.1c0-0.1,0.1-0.1,0.1-0.3c0.5-0.1,0.7-0.8,1.5-0.8c0-0.1,0.1-0.3,0.1-0.4h-0.1c0,0.1,0,0.3-0.3,0.4
		c0-0.1,0-0.4,0.1-0.6c-0.3,0.2-0.8,0-1.1-0.1v0.6c-0.1,0.1-0.2,0-0.4-0.1C83,41.9,83.3,41,83,41C82.9,41,82.9,41.2,82.7,41.3z
		 M86.2,11.3c0,0.1-0.1,0.4-0.1,0.8c-0.1,0-0.1-0.2-0.2-0.2l-0.1-0.1h0.3l-0.1-0.3c-0.1,0-0.3,0.1-0.5,0.1c0,0.1,0.1,0.3,0.3,0.5V12
		c0.1,0.1,0.4,0.3,0.8,0.4c-0.1,0-0.1,0-0.1,0.1v0.1c0.1,0.1,0.4,0.3,0.6,0.4c0-0.3,0-0.4-0.3-0.6c0-0.1-0.1-0.2-0.3-0.4v-0.5h-0.2
		V11.3z M86.2,15.5v-0.3h0.5c-0.1-0.1-0.5-0.3-0.6-0.3C86.1,15,86.2,15.3,86.2,15.5z M87.2,13.3h0.3v0.5c0.2-0.2,0.3-0.3,0.5,0h0.5
		c-0.1-0.5-0.4-0.8-0.6-1C88,13.4,87.2,12.8,87.2,13.3z M88,40.8h-0.6h0.5V41c0.3,0.2,0.1,0.5,0.1,0.8c0,0.3,0.3,0.4,0.5,0.8v-0.5
		c-0.1-0.1-0.3-0.4-0.5-0.8c0.3,0,0.7-0.1,1.1-0.3c-0.3,0-0.6,0.2-0.6-0.1v0.3c-0.3,0-0.5-0.2-0.6-0.3c0,0,0.1,0,0.2-0.1l0.1-0.1
		L88,40.7c-0.2,0-0.3-0.1-0.3-0.3C87.7,40.5,87.8,40.6,88,40.8z M88,19.1h-0.1h0.3v0.3c0.3-0.3,0.2-0.8-0.1-1V19.1z M88.6,17.6h0.1
		c0.2,0,0.4,0,0.5,0.1v-0.1c-0.3-0.1-0.4-0.5-0.8-0.5C88.5,17.4,88.5,17.5,88.6,17.6z M89.6,38.9v-0.6c-0.1,0.1-0.1,0.3-0.3,0.5
		C89.4,38.8,89.5,38.8,89.6,38.9z M91.4,36.6c-0.5,0-0.6,0.5-0.8,0.8c0.2,0.1,0.3,0.3,0.3,0.4l0.1-0.3c0.1,0.1,0.1,0.3,0,0.6
		c-0.1,0.1-0.3-0.1-0.5-0.3l-0.3-0.3c-0.1,0.1-0.3,0.3-0.5,0.5c0.5-0.2,0.6,0.4,0.6,0.8l0.3-0.3c-0.2,0-0.2-0.2-0.3-0.2
		c0.1,0,0.5,0,0.6-0.1c-0.1,0.3,0,0.5,0.1,0.6c0.3,0.1,0.5-0.1,0.8,0l-0.2-0.1h-0.3c0.1-0.1,0.3-0.3,0.5-0.6
		c0.1,0.1,0.3,0.1,0.3,0.3l0.1-0.1c-0.2-0.2-0.3-0.4-0.3-0.6h-0.3c0.2-0.1,0.3-0.3,0.5-0.5v0.3c0-0.2,0.3-0.2,0.5-0.2v0.3
		c0.2,0,0.3,0,0.5-0.1v0.1h0.3l0.2,0.1c0.1,0.1,0.3,0.3,0,0.5l-0.2-0.1l-0.1-0.2c-0.2-0.2-0.4-0.3-0.6-0.3c0.1,0.3,0.1,0.6,0.1,1
		h-0.5c0.3,0.1,0.8,0.4,1.3,0.4c0.1-0.3,0.3-0.6,0.6-0.9c0.1-0.2,0.3-0.1,0.4-0.5h-0.1c0,0,0,0-0.1,0c0,0-0.1-0.1-0.2-0.1
		c0.1,0,0.1,0.1,0.1,0.3h-0.1l-0.2,0.1c-0.1-0.3,0-0.8-0.3-0.8c-0.3,0.1-0.5-0.3-0.8-0.3c0,0.1,0.2,0.4,0.2,0.6
		c-0.2-0.2-0.5-0.3-0.6-0.5v-0.3h-0.3c-0.1-0.3-0.6-0.1-0.9-0.3V36.6z M90.1,38.8c0.1,0,0-0.5-0.2-0.3
		C89.8,38.6,89.9,38.9,90.1,38.8z M91.2,38.3c0.2,0,0.2-0.3,0.3-0.3C92.1,37.8,91.8,38.8,91.2,38.3z M92.2,35.3l0.1,0.3
		c-0.1,0-0.2,0-0.3,0l-0.2-0.1c-0.1,0.1-0.1,0.3-0.3,0.3c0,0.1,0,0.2,0,0.2l0.1,0.1c0.3,0,0.6,0.1,1,0.3l-0.3-0.1
		c0-0.1,0.1-0.1,0.1-0.3v-0.4l-0.1,0.1c0-0.3-0.1-0.6-0.5-0.5L92.2,35.3z M92.2,37c-0.1,0.1-0.5,0-0.3-0.1
		C92.1,36.5,92.6,36.8,92.2,37z M92.1,36.2V36V36.2z M92.5,35.5l0.3-0.2v0.5c0,0,0,0,0-0.1c0,0,0.1-0.1,0.1-0.2l-0.3-0.2
		c0.2,0,0.3-0.1,0.3-0.3c0,0.3,0.1,0.6,0.1,0.9h0.3c-0.1-0.3,0-0.8-0.3-0.9v-0.5c-0.1,0.1-0.3,0.3-0.4,0.3c-0.2-0.2-0.2-0.5-0.3-0.6
		c0,0.3-0.2,0.6,0.1,0.6C93.1,34.9,92.5,35.3,92.5,35.5z M92.4,12.9 M93.3,33.1h-0.5c0,0.2,0,0.3,0.1,0.3c-0.1,0.1-0.3,0.3-0.5,0.3
		H93c-0.1,0.1-0.1,0.3-0.3,0.3c0.3,0.2,0.4,0.3,0.3,0.5h0.3v-0.6v0.1H93c0.1-0.1,0.3-0.3,0.5-0.5c0,0.1,0,0.2,0,0.2l0.1,0.1
		c-0.1,0.5,0.5,0.6,0.8,0.6c-0.2-0.1-0.3-0.3-0.6-0.5h0.4c-0.1-0.1-0.1-0.2-0.1-0.5c-0.1,0.2-0.3,0.2-0.3,0.3c0-0.1,0-0.2-0.1-0.2
		l-0.1-0.1H94c-0.1-0.3,0.3-0.6,0.3-0.9c-0.1,0-0.3,0.1-0.4,0.1c0.1,0,0-0.7-0.2-0.5c-0.1,0-0.1,0.1-0.1,0.3c-0.1,0-0.1-0.1-0.1-0.2
		v-0.1c0,0,0-0.1-0.1-0.2L93.1,32C93,32.3,93,32.4,93,32.8C93,33,93.1,33.1,93.3,33.1z M93.1,24.2l-0.3-0.3l-0.1,0.1
		c0.1,0.1,0.3,0.5,0.6,0.3c0.1-0.2,0.3,0.1,0.5,0.3v-0.3h-0.2c-0.1,0-0.1,0-0.2-0.1l-0.1-0.2h0.5c-0.3-0.1-0.5-0.3-0.7-0.3V24.2z
		 M92.9,36.5 M96.4,22c-0.2,0-0.3-0.1-0.5-0.1c0,0.3,0,0.4-0.1,0.8c0.2,0,0.3,0.1,0.3,0.3h-0.1c0.3,0,0.3,0.1,0.3,0.5h-0.4
		c0.3,0.5,0.7,0.4,1.1,0.8l-0.1-0.3h0.6c-0.3,0.3-0.6,0.4-0.8,0.8c0-0.1-0.3-0.7-0.3-0.1c-0.1,0-0.1,0.1-0.3,0.1
		c0-0.1,0.6-0.6,0-0.6c-0.1,0.3-0.3,0.6-0.6,0.5c-0.1,0-0.5-0.1-0.6-0.3c0.1,0,0.5,0,0.6-0.1c-0.1-0.1,0-0.5-0.3-0.3
		c-0.1-0.1-0.1-0.2-0.1-0.2v-0.1c0,0.1,0,0.2-0.1,0.2c0,0,0,0,0,0.1c-0.1,0-0.3-0.2-0.5-0.2c0.1,0.3,0.4,0.2,0.8,0.3h0.2
		c-0.2,0.1-0.5,0.1-0.6,0.3c0,0.2-0.1,0.3-0.3,0.3c0,0.1,0.1,0.4,0.1,0.8H94c0.1,0,0.1,0.1,0.1,0.3h-0.3c0.2,0,0.3,0,0.4,0.1
		C94.1,26,94,26.2,94,26.3h-1c0.1,0.3,0.1,0.6,0.3,0.8c-0.2,0.3,0.3,0.6,0.5,1h0.4c0,0,0,0,0,0.1c0,0,0,0,0.2,0
		c0.1,0,0.2,0.1,0.4,0.3c-0.1,0-0.3,0.2-0.4,0.2c-0.3-0.2-0.5-0.3-0.6-0.3c-0.2-0.1-0.3-0.3-0.3-0.5v2.4h0.1
		c-0.1,0.2-0.3,0.2-0.5,0.3c0.2,0.1,0.3,0.3,0.5,0.5c-0.3,0-0.1,0.3-0.1,0.4c0.1,0.2,0.3,0.2,0.3,0.3l0.1-0.1l0.2-0.2
		c0,0.2,0.1,0.3,0.3,0.3v-0.2c0-0.1,0-0.2,0.1-0.3l0.1,0.1c0,0,0.1,0,0.2,0V32c0.2-0.3,0.5-0.5,0.8-0.6c0.1,0.2,0.3,0.3,0.6,0.1
		l-0.1,0.2c0,0.1-0.1,0.2-0.1,0.3v-0.3h0.2c0.3,0.6,0.9,0,1.3-0.3v1.1c-0.1,0.1-0.3,0.1-0.5,0.3h-0.3h0.3c0,0.3,0,0.6-0.1,1
		c0.1,0.1,0.1,0.6,0.5,0.5c0.3,0-0.3-0.3-0.3-0.5c0.1-0.2,0.3-0.3,0.5-0.6h0.1c-0.1,0.3,0.1,0.4,0.3,0.8c0.1-0.6-0.5-0.8-0.8-1
		c0.2-0.1,0.3-0.1,0.5-0.3l0.1,0.3l-0.1-0.1c0,0,0-0.1,0-0.2h-0.1c0-0.3,0-0.6,0.5-0.8c0.3,0.1,0.1,0.4-0.2,0.6
		c0.3,0,0.3,0.1,0.5,0.3c0.1,0,0.3-0.1,0.6,0c0,0,0-0.1-0.1-0.2c0,0,0,0,0-0.1v0.1c-0.1,0-0.3,0-0.6-0.1l0.5-0.2h-0.3v-0.8h-0.3v0.3
		h-0.3v-0.5c-0.3,0.1-0.5,0-0.3-0.3c-0.2,0-0.5,0-0.5-0.3h0.5c0-0.3,0.1-0.6,0.1-1h0.1c-0.1-0.1-0.1-0.4-0.3-0.8
		c-0.2,0-0.3,0.1-0.5,0.1l0.5-0.5c-0.3,0.2-0.5,0-0.5-0.1s0.1-0.1,0.3-0.3v0.3v-0.6l-0.1,0.1v0.2h-0.6c-0.1-0.2-0.3-0.3-0.3-0.5
		c0,0.2,0,0.3-0.1,0.5c0.1,0.1,0.5,0.1,0.6,0.3c-0.1,0-0.5,0.1-0.6,0.1c0.1,0,0.1,0.1,0.1,0.3l-0.3-0.3c-0.3,0.2-0.4,0.3-0.8,0.3
		c0,0,0,0,0-0.1c0,0,0-0.1-0.1-0.2v-0.3v-0.1c-0.1-0.1-0.3-0.1-0.6,0c0-0.6,0.5-0.2,0.8-0.2v0.3c0.3-0.1,0.4,0,0.8,0.1
		c-0.1-0.3-0.4-0.8,0.1-0.9h-0.1v0.1c-0.4-0.1-0.8-0.1-1.1,0v-0.5c-0.2,0-0.3,0-0.3-0.1c0-0.1,0.1-0.3,0.3-0.6
		c0.3,0.3,0.6,0.4,1,0.8c0-0.1-0.2-0.5-0.2-0.6h-0.1c-0.1,0-0.2,0-0.3-0.1h0.6c0-0.3,0-0.6-0.2-0.8c0.2-0.3,0.5-0.1,0.6-0.1
		c-0.1,0.3-0.7,1-0.1,1c-0.3,0.3,0,0.4,0,0.8c0.1,0,0.3,0.1,0.5,0.1c0,0.2,0,0.3,0.1,0.6c0-0.3,0.1-0.4,0.3-0.6
		c0,0.2-0.2,0.5-0.2,0.8c0.3-0.2,0.3-0.5,0.3-0.6c0.1-0.2,0.3-0.2,0.5-0.3c-0.1,0-0.2,0-0.2,0L97.4,27c0.5-0.3-0.1-0.5-0.3-0.5
		c0-0.1,0.1-0.1,0.3-0.3l-0.1-0.1c0,0-0.1-0.1-0.2-0.1c-0.2,0.2-0.3,0-0.6,0c0,0,0,0,0-0.1c0,0,0.1-0.1,0.1-0.2l-0.1-0.2h0.4
		c-0.3-0.1-0.6-0.3-0.6-0.6c0.2,0,0.4,0,0.5-0.1v0.5c0.1,0,0.1-0.1,0.1-0.5h0.2v0.1h0.5c-0.2,0.2-0.4,0.3-0.5,0.3
		c0,0.3,0,0.8,0.5,0.5c-0.1,0-0.2,0-0.2-0.1l-0.1-0.1l0.1-0.1l-0.1-0.1c0.3,0,0.3-0.1,0.3-0.3c0.1,0,0.1,0,0.2,0l0.1-0.1
		c-0.3-0.3,0-0.6,0.1-0.9c-0.3-0.1-0.7-0.4-1.1-0.8c0-0.1,0.3-0.1,0.5-0.1c-0.1-0.1-0.5-0.1-0.5-0.3c0-0.2,0.3-0.3,0.2-0.5
		c-0.2-0.1-0.5-0.3-0.6-0.3V22z M93,25.2c0.1,0.1,0.3,0.5,0.5,0.6L93,25.7c0.1,0.1,0.1,0.3,0.3,0.5c0.3-0.2,0.3-0.5,0.3-0.8h0.2
		h-0.1c0,0-0.1,0-0.1-0.1c0,0.2-0.1,0.3-0.3,0.3v-0.3H93z M94.1,40.8c-0.3-0.1-0.8,0.3-1.1,0c0.3,0.1,0.5,0.8,0.8,0.5l0.1,0.1h0.1
		v-0.3c0.2,0,0.4,0,0.5,0.1v-0.5l-0.1,0.1c0,0-0.1,0-0.2,0l-0.1-0.3V40.8z M93.5,38.8c-0.1,0.1-0.7,0-0.3-0.3
		C93.3,38.3,93.6,38.6,93.5,38.8z M93.6,36.3c0,0.1,0,0.5,0.2,0.6c0.1-0.1,0.1-0.6-0.2-0.8c-0.1,0-0.5,0-0.5,0.3
		C93.3,36.5,93.5,36.3,93.6,36.3z M93.3,15.3 M93.6,28.8v-0.2c0.2-0.1,0.3,0,0.2,0.2H94l-0.1,0.3c0.1-0.1,0.3-0.1,0.4-0.3v0.4
		c0,0,0-0.1,0.1-0.2l0.1-0.1c0.1,0,0.3-0.1,0.4-0.1l-0.1,0.3l0.5-0.1l-0.1,0.3c-0.1-0.1-0.3-0.1-0.5-0.1v0.5h0.5v-0.1
		c0.2,0.5,0.3-0.5,0.6-0.6c0,0.2,0.1,0.3,0.3,0.3c-0.5,0.1-0.3,0.5-0.1,0.8l-0.2-0.1c-0.1,0-0.2-0.1-0.3-0.1c0,0.1,0.2,0.2,0.2,0.2
		l0.1,0.1c0,0.1-0.2,0.3-0.2,0.5h-0.1c0.1,0.1,0.4,0.6-0.1,0.8c0-0.2,0-0.4-0.1-0.5v0.3c-0.6,0-0.3-0.6,0-0.8h-0.3c0,0,0,0,0-0.1
		c0,0,0.1-0.1,0.1-0.2l0.2,0.1l0.1-0.1l0.1,0.1v-0.5c-0.1,0.2-0.3,0-0.5,0h-0.1c-0.3,0-0.8,0.2-1.1,0.2
		C93.7,29.5,93.1,28.9,93.6,28.8z M93.5,26.6 M93.6,29.9c0,0,0.1,0,0.3,0.1c0,0,0.1,0,0.2,0c0.1,0.3,0.3,0.3,0.5,0.6L94.5,31
		c-0.5,0.2-0.6-0.3-0.8-0.6l0.2,0.2v-0.3h-0.2V29.9z M94.3,34.9c0-0.2-0.2-0.3-0.6-0.3C93.8,34.7,93.9,35,94.3,34.9z M93.8,27
		 M94.6,31.2l0.1,0.1c-0.3,0-0.8,0-0.9-0.1C94,31,94.5,31.2,94.6,31.2z M94.3,26c0,0.2,0,0.3-0.1,0.3C94,26,94.1,26,94.3,26z
		 M94.5,27.6c-0.2,0.1-0.5-0.1-0.3-0.3C94.3,27.3,94.6,27.5,94.5,27.6z M94.5,25.3c-0.2-0.1-0.2-0.3,0-0.5
		C94.6,24.7,94.8,25.3,94.5,25.3z M94.5,25.7h0.1v0.1h-0.1V25.7z M95.3,34.6c0,0,0.1,0.1,0.1,0.2c0-0.1,0.1-0.3,0.3-0.5
		c-0.2,0.3-0.2,0.6-0.2,0.8c0.2,0,0.5-0.1,0.5-0.3c-0.2-0.2-0.3-0.4-0.3-0.5c0.1-0.3,0.3-0.5,0.4-0.6h-0.6v-0.5h-0.1l-0.1-0.1
		c0,0,0-0.1,0-0.2c-0.1,0.3-0.3,0.6-0.3,1h-0.4c0,0.1,0.1,0.3,0.1,0.5c0,0.3,0.3,0.4,0.1,0.8c-0.1,0.1,0,0.3,0,0.6
		c0,0-0.1,0-0.2,0.1c0,0,0,0-0.1,0v0.2h0.3c0.2,0,0.3,0,0.3,0.1c0-0.2,0-0.4-0.2-0.5c0-0.3,0.5,0,0.6-0.1v-0.1c-0.1-0.2,0-0.2,0-0.3
		h-0.1c-0.1,0-0.1,0-0.1-0.1c0,0.2,0,0.3,0.1,0.5c-0.3,0-0.5-0.2-0.6-0.3C95.1,35,95.3,34.8,95.3,34.6
		C95.3,34.6,95.3,34.6,95.3,34.6z M94.6,32.3 M95.8,38.3c0.1,0,0.4-0.2,0.3,0.1c0,0.2,0.3,0.2,0.3,0.3h-0.3l0.1,0.3
		c-0.3,0-0.3-0.1-0.4-0.3c-0.2,0.1-0.3,0.8-0.6,0.5c0-0.1,0.1-0.2,0.1-0.2v-0.1c-0.1,0.1-0.3,0.3-0.6,0.1l0.1,0.1c0,0,0,0.2,0.2,0.2
		h-0.3v0.1l0.3-0.1c-0.1,0.1-0.1,0.2-0.1,0.5c0.1-0.2,0.3-0.3,0.5-0.3c0.1,0.1,0,0.3-0.1,0.5c0.1,0.1,0.3,0.1,0.4,0.3
		c0-0.1-0.1-0.4-0.1-0.6c0.3-0.3,0.6-0.6,1.1-0.4v-0.5c0.3-0.5,0.7-0.3,1.3,0c-0.1-0.1-0.3-0.3-0.5-0.5c-0.1,0-0.3,0.1-0.5,0.1
		l0.1-0.1c0,0,0.1-0.1,0.1-0.2h-0.3c0-0.1,0-0.2,0-0.3c0-0.1,0-0.1,0,0c-0.1,0.3-0.5,0.1-0.6,0c-0.3,0.1-0.3-0.1-0.5-0.1
		c0,0-0.1,0-0.2,0.1c0,0,0,0-0.1,0C95.4,37.9,95.8,38.1,95.8,38.3z M94.9,24.7c0.2,0.1,0.2,0.3,0,0.5C94.6,25.2,94.6,24.5,94.9,24.7
		z M95.3,33.8v0.5l-0.1-0.2v0.3l0.1,0.1c0,0,0.1,0,0.3,0c0.2-0.3,0-0.6,0-1.1c-0.1-0.1-0.4,0.3-0.6,0.3H95.3z M95.8,24.7L95.4,25
		c0.3-0.3,0.6-0.2,0.8,0.3c-0.3-0.1-0.6-0.1-0.9-0.1c0-0.1-0.4-0.5,0.1-0.5H95.8z M95.4,26c-0.1,0-0.3-0.3-0.1-0.5
		C95.6,25.5,95.6,25.8,95.4,26z M96.1,35.7c-0.1,0-0.1,0-0.1,0.1V36l-0.1-0.3c-0.2,0.1-0.3,0.3-0.5,0.6c0.1-0.1,0.3-0.1,0.3-0.3
		c0.2,0,0.5,0.2,0.6,0.2l-0.1,0.1c0,0,0,0.1,0,0.2c0.1-0.1,0.3-0.1,0.6-0.1c0.1,0.3-0.2,0.8,0.1,0.9c0-0.2,0-0.3-0.1-0.4
		c0.1-0.2,0.3-0.2,0.5-0.3h-0.1v0.1h-0.3c0-0.2,0-0.9-0.5-0.3l0.2-0.3h-0.2c0-0.3-0.1-0.4-0.1-0.8c0,0.1-0.3,0.3-0.3,0.5H96.1z
		 M95.6,32.8c0.2,0,0.3,0.1,0.5,0.1v-0.1c-0.2,0-0.4-0.1-0.6-0.3C95.4,32.7,95.5,32.8,95.6,32.8z M95.8,41.3
		c0.1-0.1,0.3-0.1,0.8-0.1v-0.1c0,0,0-0.1-0.1-0.1h-0.2c-0.1-0.3-0.6,0-0.8,0C95.4,41.2,95.6,41.2,95.8,41.3z M96.1,34.5
		c0,0-0.1-0.1-0.2-0.1c0.1,0.3,0.3,0.3,0.6,0.5L96.5,35c0,0,0,0.1,0,0.2c0.1-0.1,0.3-0.3,0.6-0.3c0,0.3,0,0.5,0.1,0.6v-0.2
		c-0.1,0-0.3-0.6,0-0.6c-0.1,0-0.3,0.2-0.5,0.2c0-0.3-0.1-0.6,0-0.8v-0.5C96.4,33.9,96.4,34.2,96.1,34.5
		C96.2,34.5,96.2,34.5,96.1,34.5z M97.2,17c-0.3,0-0.6,0.1-0.8,0.1v0.3c0.1,0.1,0.4,0.3,0.4,0.6h0.5v0.1h-0.6l0.1,0.1h0.3l0.1,0.1
		h-0.5c0.2,0.2,0.4,0.3,0.5,0.3c-0.4,0.1-0.6,0-0.6-0.3l-0.1,0.2c0.2,0.2,0.3,0.3,0.3,0.4h-0.4c0.1,0,0.3,0.2,0.4,0.2
		c-0.2,0.2-0.3,0.2-0.4,0.1v0.3l-0.3-0.1c0.3,0.1,0.6,0.5,1,0.6c0.1,0,0.3-0.1,0.5-0.5c-0.2,0.2-0.2,0.5-0.2,0.6
		c-0.1,0.3-0.3,0.6-0.6,0.8c0-0.3,0.5-0.4,0.3-1l-0.2,0.1c0,0-0.1,0-0.3,0v-0.1c0.3,0.4-0.3,0.8,0.1,1.1c0.1,0,0.1,0.5,0.5,0.3
		c0-0.3,0.1-0.6,0.1-1h0.2c-0.2-0.6,0.7-1,1.1-0.5c-0.3,0.3-0.8,0.1-0.9,0.6H98v-0.3c0.2,0,0.3,0,0.5,0.3H98
		c0.1,0.1,0.3,0.1,0.5,0.1c0.1,0,0.1,0.1,0.1,0.3c0,0.2,0,0.4-0.1,0.5h0.3v-0.3c0.3,0,0.3,0.3,0.4,0.6V22c0.2,0,0.3,0.1,0.3,0.3
		v-0.4c0.1,0.1,0.3,0.3,0.5,0.6c-0.1,0.1-0.2,0.2-0.2,0.4c0.2,0.2,0.2,0.3,0.3,0.5h0.1c-0.1-0.1-0.1-0.3-0.3-0.3
		c0-0.4,0.1-0.6,0.4-0.6c-0.1-0.2-0.1-0.3-0.3-0.6c-0.1,0-0.5-0.2-0.6-0.2l0.5-0.5c-0.2-0.1-0.3-0.3-0.5-0.6c0-0.1,0-0.3-0.3-0.3
		c0.3-0.3,0-0.5-0.3-0.6c-0.3,0.1-0.6,0.1-1,0.1c0.2,0.3-0.3,0.5-0.4,0.3c0-0.1,0.1-0.2,0.1-0.2v-0.1c-0.1,0-0.5,0.2-0.6-0.1
		c0.3,0,0.6,0,0.6-0.5c0.1,0,0.3-0.1,0.6-0.1c-0.3,0.5,0.1,0.6,0.5,0.5c-0.6-0.3,0.2-0.3,0-0.8c-0.3,0.1-0.6,0.1-0.8,0l0.2,0.3
		c-0.3,0-0.8,0.2-0.8-0.1c0.2-0.3,0.3-0.5,0.3-0.8c0.1,0,0.1,0,0.1,0.1v0.1C98,18,98,17.8,98,17.6c-0.3-0.3-0.4-1-1.1-1
		C97,16.7,97.1,16.8,97.2,17z M97.2,40.2c0.1,0,0.3,0,0.6,0.1c-0.3,0.2-0.8,0.3-1,0c-0.3,0.2-0.6,0-0.8,0v0.2h0.6
		c0.1,0.3,0.5,0.4,0.6,0.6c0.2,0.4,0.5,0,0.5-0.3c0.6,0.3,1-0.4,0.8-0.8l0.2-0.1c-0.4,0-0.6,0.7-1,0.1c0-0.1,0.1-0.1,0.5-0.1
		c-0.1-0.2-0.3-0.2-0.5-0.3c0,0.5-0.8,0.5-1,0c-0.2,0.1,0.1,1,0,0.3C97.4,39.7,97.4,40,97.2,40.2z M96.5,23.5L96.5,23.5
		c0.6-0.1-0.2,0.4-0.2,0C96.4,23.6,96.4,23.6,96.5,23.5z M96.2,26.6l0.2,0.2c0.1,0,0.4,0,0.8,0.1c-0.1,0.1-0.3,0.3-0.5,0.5
		C96.6,27.1,96.2,27,96.2,26.6z M97.4,29.1L97.4,29.1l0.3,0.3c-0.3,0.1-0.6,0.3-0.6,0.6h0.5c0.1,0.3-0.1,0.5-0.5,0.3
		c0,0.2,0,0.4-0.2,0.5c0.2-0.3-0.1-0.6-0.3-0.9c0,0.1,0.1,0.1,0.3,0.3C96.9,29.6,97,29.4,97.4,29.1z M96.6,34.5v-0.1V34.5z
		 M96.7,22.9 M97.1,24.2h0.6c0,0.2,0,0.5-0.1,0.6c-0.1-0.1-0.3-0.2-0.5-0.4V24.2z M97.7,23.4H98c0-0.3-0.1-0.6-0.3-0.8
		c-0.1,0-0.3,0.1-0.5,0.3C97.4,23.1,97.6,23.3,97.7,23.4z M97.7,21.5c0,0.1,0.1,0.2,0.2,0.3c-0.1-0.1-0.1-0.1-0.2-0.1
		C97.6,21.7,97.6,21.7,97.7,21.5c-0.2,0.2-0.3,0.4-0.3,0.7c0.2,0,0.3,0.3,0.6,0.3v0.3c0.5,0.2,0.3,0.8,0.2,1.1
		c-0.2,0.5,0,0.8,0.1,1.1c0.1,0.1,0.1,0.3,0.3,0.5h-0.1c0-0.4-0.3,0.1-0.5,0.1c0.3,0,0.2,0.5,0.2,0.6L98,26.3l-0.1-0.1
		c0,0.6-0.1,1.1,0,1.7h-0.3c0.1,0,0.3,0.5,0.4,0.2c0.4-0.1-0.4-0.8,0.2-0.6l0.1-0.2v-0.1c0.1,0,0.1-0.1,0.3-0.3
		c0.2,0.1,0.3,0.3,0.3,0.4l-0.3-0.1c0,0.1-0.1,0.1-0.1,0.3c0.2,0,0.4,0,0.5,0.1c0-0.1,0.1-0.3,0.1-0.5h0.3c0.1-0.1,0-0.6,0.4-0.6
		c-0.1,0.3-0.1,0.5,0.2,0.6v-0.3h0.1c0.1,0,0.1,0,0.1,0.1c-0.1-0.3,0-0.6-0.3-0.8c0.4,0.1,0.3-0.3,0.3-0.7l0.3,0.2l-1-1h-0.1
		l-0.1-0.3c0.3,0.1,0.6,0.3,0.9,0l-0.1-0.2v0.2h-0.5l0.1-0.3c-0.3,0-0.5,0-0.6-0.1v0.3c-0.3-0.1-1.3,0.2-0.6-0.4
		c-0.1,0-0.1-0.2-0.3-0.3h0.3c-0.2-0.2-0.3-0.4-0.3-0.8c0.1,0,0.1,0,0.2,0l0.1-0.1v0.3h0.2v-0.5c-0.3,0-0.3-0.4-0.5-0.6h0.3
		c-0.2-0.2-0.3-0.3-0.4-0.3v0.5H98c0-0.3-0.1-0.5-0.4-0.5L97.7,21.5z M97.7,40.7v0.5c0,0,0,0-0.1,0c0,0-0.1,0-0.2-0.2
		C97.4,40.8,97.6,40.5,97.7,40.7z M97.6,28.4 M98.5,38.4c0.1,0.1,0.2,0.2,0.3,0.3c-0.3,0-1.1-0.1-0.8,0.3c0,0.1-0.1,0.2-0.3,0.2
		c0.1,0,0.8,0,0.6,0.3c0.3,0,0.4,0.1,0.8,0.1c-0.2-0.2-0.3-0.3-0.5-0.4c0.2,0,0.4,0,0.5,0.1c0.3-0.1,0.3-0.4,0.5-0.8
		c-0.2,0-0.4,0-0.5,0.1c0-0.3,0.1-0.6,0-1c-0.1,0.1-0.5,0.3-0.3,0.6H98.5z M97.9,30.6C97.9,30.6,97.9,30.6,97.9,30.6
		c0.1,0.4,0.1,0.6,0.4,0.7c0-0.1,0.1-0.1,0.1-0.3c-0.1,0-0.1-0.1,0-0.4h0.3l0.1-0.3h-0.6c-0.1,0-0.2,0-0.2,0.1c0,0,0,0-0.1,0
		C98,30.4,98,30.5,97.9,30.6z M99,36h0.3v0.1c0,0,0,0.1-0.1,0.2h-0.3c0.3,0,0.4,0.1,0.4,0.3c-0.3,0-0.6,0-0.6-0.3
		c0,0.3-0.3,0.6-0.6,0.3c0.2-0.2,0.2-0.4,0-0.6c0,0.3,0,0.5-0.1,0.8c0.1,0.1,0.1,0.6,0.6,0.4c0,0-0.1,0-0.2,0.1l-0.1,0.1
		c0.1,0,0.4,0.1,0.8,0.3c-0.1-0.1-0.3-0.1-0.3-0.3c0.2,0,0.5,0,0.6-0.2c-0.1-0.1-0.4-0.3-0.6-0.4c0.2,0,0.5-0.2,0.6,0
		c0.2,0,0.2-0.2,0.3-0.2v0.5c0,0.1,0,0.2-0.1,0.2c0,0,0,0,0,0.1l-0.3,0.1c0.1,0,0.4,0.1,0.8,0.1c-0.2-0.5,0.5-0.6,0.3-1.1
		c0,0,0,0,0-0.1c0,0,0.1-0.1,0.1-0.2c-0.1,0.1-0.6-0.1-0.5,0.3h-0.3c0-0.2-0.1-0.3-0.3-0.3c0.3-0.3,0-0.5-0.3-0.5V36z M98.5,18.4
		c0.1-0.2-0.5-0.6-0.5-0.1C98.2,18.3,98.3,18.4,98.5,18.4z M98.5,24.7c-0.1,0-0.3-0.3-0.3-0.5c0.3,0,0.6,0.1,0.6,0.5
		c0,0.1-0.2,0.3-0.3,0.6c0-0.3-0.1-0.5-0.1-0.6H98.5z M98.8,36.2c0.1-0.2-0.2-0.5-0.3-0.3C98.3,36,98.6,36.3,98.8,36.2z M99,33.1
		l0.1,0.1L99,33.6l-0.2-0.2l-0.1-0.1c-0.3,0.1,0,0.3,0.2,0.5h0.4l-0.1,0.1h0.3v0.3c0-0.2,0.1-0.2,0.1-0.3c0-0.1-0.1-0.1-0.3-0.3
		c0-0.3-0.1-0.4-0.1-0.6L99,33.1z M99.1,31l0.1,0.3c-0.1,0-0.4-0.1-0.6-0.1l0.2,0.1H99c0,0,0,0,0,0.1c0,0,0,0,0,0
		c0,0.2,0.1,0.4,0.3,0.6v0.5V32c-0.1-0.1-0.3-0.5,0-0.5c0.2,0.1,0.2,0.3,0.3,0.3c0,0,0,0,0.1,0c0,0,0,0,0.2-0.2v0.5
		c0.2,0,0.2-0.3,0.2-0.5h-0.5l0.3-0.3h-0.4l0.1-0.3h-0.1c0,0-0.1,0-0.2-0.1c0.1-0.5-0.8-0.2-0.6,0.1H99.1z M99,30
		c0.1-0.3-0.3-0.5-0.3-0.1C98.6,30.2,98.8,30.2,99,30z M99.1,24.4l0.5,0.4c0.1,0.3,0,0.8,0.3,1.1c-0.1,0-0.4,0.2-0.6,0.2
		c0.5,0.1-0.1,0.8-0.3,0.9v-0.5c0.1,0,0.3-0.1,0.5-0.1c-0.2-0.1-0.3-0.1-0.3-0.3c0.1-0.2,0.5-0.3,0.6-0.7c-0.3,0-0.4,0-0.8-0.1
		c0-0.3,0-0.8-0.1-1.1C98.9,24.3,99,24.4,99.1,24.4z M99.6,28.6c0,0.3-0.3,0.3-0.6,0.5v-0.3h-0.1c0,0.3,0.1,0.4,0.3,0.6
		c0.3-0.2,0.6-0.5,0.8-0.2l-0.1,0.1c-0.1,0-0.1,0.1-0.1,0.2c0.1,0.1,0.5,0.3,0.6,0.1c-0.3-0.1-0.3-0.4-0.3-0.8l-0.1-0.1L99.6,28.6z
		 M99.5,20.3c0.3,0,0,0.7-0.2,0.1L99.5,20.3z M99.8,35.2h-0.3v-0.5h0.1V35h0.3c-0.1-0.3,0-0.6-0.4-0.5c0,0.3-0.3,0.8,0,1.1
		C99.7,35.5,99.8,35.3,99.8,35.2z M99.8,21c0.1,0.3-0.1,0.5-0.3,0.3C99.3,21,99.6,21,99.8,21z M100.3,35.8l-0.1,0.3
		c0.1-0.2,0.3-0.2,0.4-0.3H100.3c0-0.1,0-0.5,0.1-0.6c-0.3,0.1-0.5,0.5-0.6,0.6H100.3z M100.8,32c0,0.2-0.1,0.3-0.3,0.3h1
		c-0.2,0-0.3,0-0.3-0.3c-0.3-0.1-0.5-0.1-0.6,0H100.8z"/>
	<path class="st0" d="M102.5,10.6h9.2v29.8c1.6,0,3.2,0,4.9-0.3c2.3-0.5,4.3-1.9,5.6-4.1c1.4-2.2,1.8-5.1,1.4-7.9
		c-0.1-2.4-1.1-4.9-2.9-6.6c-1.6-1.6-3.7-2.4-6-2.6h-2.4v-8.4c2.1,0,4.1-0.1,6,0.2c4.6,0.8,8.7,3.5,11.3,7.4
		c3.9,5.7,4.7,13.1,2.1,19.4v-1c-0.5-0.2-1.1-0.3-1.6-0.1c0,0.5,0,0.8-0.1,1.1c-0.2,0.3-0.3,0.4-0.3,0.6v2.2H129v-0.8h-0.5
		c-0.9,0.1-1.8,0-2.7,0.1v1.1c-0.5,0.1-0.9-0.3-1.5,0c-0.3,0-0.6,0.1-1.1,0.1v-0.8h-0.6V40c-0.3-0.3-0.6,0.1-0.6,0.3h-2v5.1h-0.6
		c-0.1,0.2-0.1,0.3-0.3,0.5h-0.3c-0.1,0.1-0.1,0.3-0.3,0.6h-1.3c-0.1,0.3,0,0.8-0.1,1.1c-0.2-1.4,0-2.9,0-4.4c-1-0.3-2-0.1-2.8,0
		v0.5h-1.9v2.9c-0.3,0-1,0.3-0.8-0.3c-0.3,0-0.6,0-1-0.1c-0.6,0-1.2-0.2-1.8,0.1H108c-0.3,0.3-0.4,0.5-0.8,0.5
		c-0.1-1.3-0.1-2.7-0.1-4.1h-3.6v4.4h-0.8c0-0.5,0.1-1.1,0-1.6c-0.2-0.3-0.2-0.8-0.2-1.1V10.6z M103.4,18.2h-0.2
		c0,0.1,0,0.2,0.1,0.2l0.1,0.1c0.1-0.1,0.1-0.3,0.3-0.5c0.1,0.1,0.1,0.2,0.1,0.5c0.2,0,0.3-0.1,0.5-0.1c0-0.2-0.5-0.2-0.3-0.3
		c0.1-0.1,0.5-0.1,0.5-0.3c-0.2,0-0.4,0-0.5,0.1C103.6,17.5,103.4,17.8,103.4,18.2z M108.2,21.7H108v0.8c-0.1-0.1-0.5-0.3-0.6-0.4
		c-0.1,0.1-0.1,0.3-0.3,0.4c0-0.3-0.3-0.3-0.5-0.1c0-0.1,0-0.5,0.1-0.5s0.3,0.2,0.5,0.2l0.3-0.3c-0.3,0.1-0.4,0.3-0.8,0.1
		c0.1-0.3,0.1-0.6,0.1-0.8c-0.3,0-0.1,0.5-0.1,0.6c-0.1,0-0.3,0.1-0.5,0.1c-0.3,0-0.4,0.2-0.6,0c-0.3-0.1-0.8,0-0.8-0.4h0.1
		c0-0.2-0.1-0.2-0.1-0.3c-0.2,0.2-0.3,0.4-0.3,0.8c-0.2-0.1-0.3-0.1-0.5-0.3c0,0.1,0.1,0.1,0.1,0.3c-0.1,0-0.3,0.2-0.5,0.2
		c0-0.3-0.1-0.5-0.3-0.8c0,0.8,0,1.5-0.2,2.1c0.2,0,0.3-0.1,0.5-0.1c0-0.2-0.1-0.3-0.3-0.3c0.1-0.1,0.2-0.1,0.3-0.1
		c-0.1-0.2-0.1-0.3-0.3-0.3c0.3-0.1,0.9,0,0.9-0.5l0.2,0.2c0.2,0,0.3-0.1,0.3-0.3c0,0.3-0.1,0.6-0.1,0.8c0.1,0,0.3-0.1,0.6-0.1
		l-0.3-0.3c0.2,0,0.5,0.1,0.6,0.1c-0.1,0-0.2,0.1-0.4,0.3c0.1,0,0.3,0.2,0.4,0.2c0,0,0,0.1-0.1,0.2c0,0,0,0,0,0.1
		c0-0.1-0.1-0.1-0.1-0.3c-0.1,0-0.2,0-0.2,0.1c0,0,0,0-0.1,0l-0.4,0.5h0.1v0.3l-0.1-0.1c0,0.1,0,0.2,0,0.2l0.1,0.1
		c0.1,0,0.5-0.2,0.6-0.2l0.1,0.2c-0.1,0-0.3,0.1-0.6,0.3h0.5c-0.1,0.1-0.4,0.5,0.1,0.3c-0.3-0.3,0-0.6,0.3-0.8h-0.3v-0.1
		c0,0,0-0.1,0.1-0.2c0.2,0,0.4,0,0.5-0.1c0.1-0.2,0.3-0.5,0.6-0.7v0.3v-0.3c0.1,0,0.6,0,0.8,0.2c-0.1,0.1-0.4,0.3-0.6,0.5
		c0.3,0.3,0.8,0,1-0.3c0.1,0,0.6,0,0.6,0.3v-0.3c0.1,0.1,0.2,0.1,0.5,0.1v-0.3c-0.1,0.1-0.2,0.1-0.5,0.1v-1c0.1,0.1,0.1,0.2,0.3,0.2
		c0.1,0,0.1,0,0.2,0l-0.1,0.1c-0.6,0.5,0.3,0,0.3,0.5v-0.5c0.1,0,0.3,0.1,0.5,0.1v-0.3c0.1,0,0.3-0.2,0.5-0.3c-0.3-0.1-0.6,0-1,0.1
		v-0.4c-0.1-0.2-0.5,0-0.6,0.1v-0.3h0.3l-0.2-0.3c-0.2,0.2-0.3,0.3-0.4,0.3V21.7z M103.8,24C103.7,24.1,103.7,24.1,103.8,24
		c0,0.1,0,0.2,0.2,0.3c-0.1,0-0.3,0-0.3,0l-0.1-0.1c-0.1,0.3-0.1,0.5,0,0.8v0.2h-0.1c0,0.4-0.4,1.3,0.1,1.4c-0.1-0.5,0-0.9,0.1-1.3
		c0.1,0.3-0.2,0.8,0.3,0.8c0,0.1,0,0.5,0.1,0.6c-0.6,0.1-0.3,0.8-0.3,1.3c0-0.1-0.1-0.1-0.1-0.1h-0.1v-0.3v0.3h-0.1
		c0.1,0.1,0.3,0.3,0.1,0.5c0.3,0.1-0.1,0.3-0.3,0.5c0,0,0,0.1,0.1,0.2l0.1,0.1c0.1-0.1,0.6-0.5,0.6,0c-0.2,0.1-0.5,0.3-0.8,0.3
		c0.2,0.4,0.2,0.7,0.2,1.1c0,0.2,0.3,0.5,0.3,0.7l-0.3-0.2c0,0.3,0,0.6-0.2,1c0.1-0.1,0.3-0.1,0.5-0.1l-0.1-0.2
		c0.3-0.3,0.5-0.7,0.5-1.1c0.1,0,0.3,0.2,0.5,0c0.1-0.1,0-0.3,0-0.6c0.3-0.1,0.6-0.4,0.9-0.6c-0.3-0.2-0.7,0.3-0.9,0
		c0.2,0,0.3-0.1,0.3-0.3c-0.1,0.1-0.3,0.1-0.6,0.1c-0.1-0.1-0.1-0.5-0.5-0.3v-0.5c0.3,0.3,0.6,0,0.8-0.1c-0.2-0.6,0.3-1.3,0-2
		c0.1-0.1,0.3-0.1,0.6-0.1c-0.2-0.3,0.3-0.6,0.3-1.1l-0.3,0.3v-0.5c-0.2,0-0.3-0.1-0.5-0.1l-0.1,0.1v-0.1H104l-0.2-0.1
		c0.3,0,0.5,0,0.8-0.2H104V24l0.1,0.1V24H103.8z M103.6,41.3c-0.1-0.2-0.3-0.2-0.5,0C103.4,41.6,103.5,41.6,103.6,41.3z M103.6,17.5
		c0.1-0.1-0.1-0.6-0.3-0.4C103.2,17.2,103.3,17.7,103.6,17.5z M104.1,35.9c-0.1,0.1-0.3,0.1-0.5,0.3c-0.2,0-0.3-0.1-0.3-0.3
		c0,0.1,0.1,0.3,0.1,0.5c-0.1,0.1-0.3,0.3-0.1,0.6c0-0.3,0.3-0.6,0.6-0.8c0,0.1,0.1,0.3,0.1,0.4c-0.2,0-0.3,0.1-0.3,0.3l0.2,0.1
		c0.1,0.5-0.5,0-0.6,0c0,0,0.1,0,0.2,0.1c0,0,0,0,0.1,0c0.1,0.1,0.1,0.3,0.1,0.5h-0.3c0,0.1,0,0.1,0,0.1h0.1c0.3,0.3,0.6,0,0.8-0.1
		V38c0-0.1,0.1-0.1,0.3-0.1c0,0.1,0.1,0.8,0.1,0.1c0.5,0.2,0.2,0.5,0,0.8L105,39c0.1,0,0.1,0,0.2,0c-0.3,0.1-0.6,0.2-0.6-0.1
		c-0.5,0.1-0.8-0.2-1.1,0c-0.1,0.3,0,0.8-0.1,1.1c-0.2,0.3,0,0.9,0.4,0.9v1h-0.3h0.1v0.3h1.1v-0.5h0.3l-0.3,0.2
		c0.3,0.3,0.9,0.4,1.3,0v0.3h1.1c0-0.5-0.5-0.3-0.6-0.6h-0.1c-0.1,0-0.2,0-0.2,0l-0.1-0.1c-0.1,0-0.3,0.1-0.5,0.1
		c-0.3-0.1-0.6-0.1-0.9,0l0.5-0.5v-0.4h0.3c-0.3-0.2-0.6-0.5-0.9-0.3c0-0.1,0.1-0.1,0.3-0.3c-0.3-0.3-0.7-0.2-1.3-0.3v-0.3h1
		c-0.1,0-0.2-0.1-0.2-0.1h-0.1c0.3-0.4,0.6,0.1,1,0.1v-0.1c0,0,0-0.1,0.1-0.2c0.1,0,0.3,0,0.5,0.3c0.2,0,0.3,0,0.4,0.2v0.3
		c0.2,0.2,0.5,0.2,0.8,0c-0.3-0.1-0.5-0.1-0.6-0.3c0,0,0-0.1,0.1-0.2c0-0.1,0.1-0.2,0.1-0.3c0.3-0.1,0.5-0.3,0.6-0.6h0.1l0.1,0.3
		c0,0,0-0.1,0.1-0.2l0.1-0.1c-0.1-0.3-0.1-0.5,0-0.8c-0.2,0-0.2-0.1,0-0.5h-0.3c0,0.3,0.1,0.4,0.1,0.8c-0.1,0.1-0.1,0.3-0.3,0.3
		l-0.1-0.1c-0.1,0-0.1-0.1-0.1-0.2c0,0.1-0.2,0.5-0.2,0.6c-0.3-0.1-0.4,0-0.6,0v0.1l0.3-0.1c-0.1,0.3-0.3,0.5-0.6,0.5l-0.3-0.3v-0.3
		c0-0.1-0.1-0.5-0.1-0.6l0.1,0.1c0-0.1-0.1-0.1-0.1-0.3c-0.1,0.1-0.1,0.2-0.1,0.4c0-0.1-0.1-0.3-0.3-0.4l-0.3,0.3
		c0-0.2-0.1-0.3-0.3-0.3v0.3c-0.1-0.1-0.3-0.3-0.3-0.6l0.5,0.1c0-0.3-0.2-0.6-0.3-0.8c0-0.1,0.1-0.3,0.1-0.5c0-0.1-0.1-0.3-0.1-0.4
		V35.9z M104.1,33c-0.1,0.5-1,0.3-0.8,0.8c0.1-0.1,0.3-0.2,0.6-0.2c0-0.2,0.1-0.3,0.3-0.3l-0.3-0.8c-0.2,0.1-0.2,0.4-0.2,0.6
		L104.1,33z M104,18.9c-0.2-0.3-0.5-0.3-0.6-0.2C103.4,19,103.8,19.2,104,18.9z M104.6,40.4c0,0.3,0.1,0.5,0.3,0.6
		c-0.2,0-0.3,0-0.4,0.2c0.1,0.3-0.3,0.3-0.7,0.4c0-0.3,0.2-0.6,0.2-0.9c0.3,0.1,0.5,0,0.5-0.3H104.6z M104.3,20.4
		c-0.1-0.1-0.6,0.1-0.3,0.5C104.1,20.9,104.3,20.6,104.3,20.4z M104.1,27.4 M104.8,19.2c0.1-0.1-0.1-0.3-0.3-0.3
		C104.1,19.2,104.6,19.5,104.8,19.2z M104.6,33.2h-0.1H104.6c0,0,0,0.1,0.1,0.1V34h0.3c0,0.3-0.5,0.6-0.5,0.9c0.1,0.3,0.5,0.6,0.3,1
		c0-0.1,0.2-0.1,0.2-0.3c-0.2-0.3-0.2-0.5-0.2-0.8h0.6h-0.6v-0.5c0.1,0,0.2,0,0.2,0.1l0.1,0.1c-0.1-0.3,0-0.6,0.3-0.8
		c0,0.2,0.2,0.3,0.2,0.5v-0.3c0.3,0,0.6,0.1,0.9,0.3c0.1-0.3-0.1-0.6,0-0.9c0-0.2,0.4-0.6-0.1-0.6l0.1,0.3c-0.5,0.1-1.1,0.1-1.1-0.3
		c-0.1,0-0.1,0.1-0.1,0.3c-0.5,0.5-0.6-0.1-0.8-0.3V33.2z M104.8,23.5c0.1,0.1,0.3,0,0.5,0c-0.1-0.1-0.1-0.5-0.3-0.6
		C104.8,23,104.6,23.4,104.8,23.5z M105.8,29.6l-0.2-0.1c0.3,0.4-0.4,0.6-0.8,0.8c0,0.1,0.1,0.1,0.1,0.3c0,0,0,0,0.1,0
		c0.1,0,0.1,0.1,0.1,0.1c0-0.2,0-0.4-0.2-0.5c0.6-0.1,1.1,0,1.6-0.5c-0.1,0-0.3-0.1-0.5-0.1c0.1-0.1,0.3-0.3,0.5-0.3
		c-0.1,0-0.4,0-0.8-0.1V29.6z M105.3,36.9v0.1c-0.1,0-0.2,0-0.2,0.1c0,0,0,0-0.1,0h0.3c0,0.5-0.1-0.3,0.1-0.3
		c-0.1-0.2-0.6-0.5-0.6,0H105.3z M107.7,33.7c-0.3,0-0.5-0.1-0.6-0.1v0.1h0.3V34h0.3l-0.1,0.1c-0.1,0-0.1,0.1-0.1,0.2l0.2,0.2
		c-0.3,0-0.6,0.1-1,0.1v0.3c-0.1-0.1-0.3-0.1-0.5-0.3h0.3c0-0.1-0.1-0.3-0.1-0.5h-0.2c0,0.2,0.1,0.3,0.3,0.3
		c-0.1,0.1-0.2,0.1-0.3,0.1h-0.2l0.1,0.3c-0.3-0.1-0.7-0.1-1.1,0.2c0.4,0,0.4,0.1,0.3,0.6c0.1,0,0.5-0.1,0.6-0.1v0.3
		c0.3,0,0.5-0.1,0.5-0.5c0.5,0.2,0.7,0.3,1.3,0.2v-0.2l-0.1-0.1l-0.2,0.1l-0.1-0.1c0,0.1-0.1,0.1-0.3,0.1c-0.2-0.4,0.4-1.3,0.6-0.5
		c0.1-0.1,0.1-0.3,0.3-0.4c0.1,0.1,0.3,0.2,0.5,0.4H108v0.3c0-0.1,0.1-0.1,0.1-0.1h0.1v0.1h-0.1c0,0-0.1,0-0.2,0.1
		c0.1,0,0.1,0,0.1,0.1v0.1c-0.1,0.1-0.3,0.5-0.5,0.1c0,0-0.1,0.2-0.3,0.5v0.4h0.6v-0.6c0.3,0.1,0.3,0.3,0.1,0.5h1v0.8h-0.3
		c0.2,0.2,0.2,0.3,0.3,0.5c0-0.3,0.3-0.5,0.5-0.6c-0.2-0.1-0.2-0.5,0-0.6h-0.3c-0.1-0.2-0.3-0.3-0.6-0.1c0-0.1,0.1-0.3,0.1-0.5
		c0.2,0,0.3-0.3,0.5-0.5c0-0.1,0-0.5-0.1-0.6c0,0.3-0.1,0.3-0.3,0.3c0-0.3,0.1-0.5,0.3-0.5c0-0.5-0.4-0.7-0.8-0.3
		c0.1,0,0.3,0.2,0.6,0.2c-0.3,0.2-0.6,0.1-1-0.2l0.5-0.4c0-0.3,0-0.5,0.5-0.6c-0.3-0.3-0.5,0.1-0.6,0.3c0-0.3-0.3-0.3-0.5-0.5V33.7z
		 M106.6,11.1c-0.1,0.1-0.1,0.2-0.1,0.2v0.1c-0.3,0.4-0.5,0-0.6-0.2c-0.3,0.2-0.5,0.6-0.5,1c0.1,0,0.3-0.1,0.5-0.1
		c0,0.3,0.1,0.4,0.3,0.6l0.1-0.2h0.8c-0.2,0.2-0.3,0.3-0.6,0.3h0.1v0.3h0.1V13c0.5,0.1,1-0.3,1.1,0.1v-0.3h1.1l-0.1,0.1
		c0,0,0,0.1,0,0.2c0.1,0,0.3,0.2,0.4,0.2c-0.1,0.1-0.3,0.1-0.3,0.3h0.6c0,0,0.1-0.2,0.3-0.5v1.3c0.2,0,0.3-0.1,0.5-0.1v0.3
		c0.1-0.2,0.5-0.3,0.6-0.6c-0.1-0.2-0.1-0.5,0-0.8c-0.3-0.3-0.3-0.6,0-0.9l-0.3,0.1v-0.3l-0.1,0.1c0,0-0.1,0-0.2,0h-0.3
		c0,0,0.1,0.2,0.3,0.5c0.1,0,0.1,0.1,0.3,0.3c-0.3-0.1-0.5-0.1-0.5,0.1h0.3v0.3c-0.1,0-0.1-0.1-0.3-0.1h-0.1v-0.2
		c-0.1-0.1-0.3-0.1-0.5-0.1c0.1-0.1,0.5-0.3,0.3-0.6c0.3-0.2,0.2-0.5-0.1-0.6c-0.1,0.6-0.7,0.6-1.3,0.5c-0.1-0.3,0.1-1-0.5-1
		c0,0.1-0.1,0.3-0.3,0.5l-0.5,0.1c0.1-0.1,0.3-0.4,0.5-0.6h-0.5c0,0.2-0.1,0.5,0,0.8c-0.2,0-0.3,0-0.3-0.2l-0.1-0.1v0.3
		c-0.1,0-0.5,0.1-0.6,0.1c0.1-0.3,0.3-0.5,0.5-0.6V11.1z M105.8,20.6c0-0.3,0-0.3-0.3-0.3C105.4,20.4,105.4,20.6,105.8,20.6z
		 M105.8,40.9c0.1-0.3,0.1-0.8-0.2-0.9C105.4,40.3,105.5,40.7,105.8,40.9z M105.6,11.9 M107.6,30.8L107.6,30.8l-0.5,0.1
		c0,0.4,0.1,0.7,0.1,0.8h-0.3v-0.1c-0.1-0.1-0.3-0.1-0.6-0.1c0.2,0,0.5-0.1,0.6-0.1l-0.1-0.2c-0.1,0.2-0.5,0-0.6-0.1h-0.1
		c0.1,0.1,0.3,0.1,0.5,0.3c-0.2,0.3-0.3,0.4-0.5,0.6c0.1-0.2,0.3-0.3,0.5-0.3c0.1,0.1,0.1,0.3,0.3,0.5c-0.2,0-0.3,0-0.5-0.1v0.6
		c-0.2,0-0.3,0-0.3-0.2c0,0.3,0.3,0.3,0.5,0.5v-0.8l0.3,0.3c0-0.1,0.1-0.1,0.3-0.1v0.5l0.1,0.1c0,0,0.1,0,0.2,0V33l-0.5-0.1l0.3,0.5
		h0.3c-0.1-0.5,0.3-0.8,0.2-1.1v0.5c-0.2,0-0.3-0.1-0.5-0.1c0.1-0.1,0.1-0.3,0.1-0.5h0.5l-0.1-0.1c-0.1,0-0.1-0.1-0.1-0.2
		c0.1,0,0.2,0,0.3-0.1c-0.1,0-0.1-0.1-0.3-0.1c0.1-0.1,0.3-0.1,0.5-0.3c-0.1,0-0.2,0-0.3-0.1c0.3,0,0.5-0.1,0.6-0.5
		c-0.3,0-0.4,0.1-0.8,0.1C107.7,30.7,107.7,30.8,107.6,30.8z M106.1,36.9c0.1,0,0.3,0,0.6,0.1c-0.5,0-0.6,0.3-0.8,0.6
		c0.1,0,0.3-0.1,0.6-0.1c-0.2,0-0.3-0.1-0.3-0.3c0.2,0,0.3-0.1,0.5-0.1v0.3l0.1-0.1c0,0,0-0.1,0-0.2c-0.4-0.1-0.2-0.6,0.3-0.5
		c-0.1,0-0.3-0.1-0.5-0.3c-0.1,0.1-0.3,0.4-0.5,0.4c0-0.3,0.2-0.6-0.3-0.9C106.1,36.1,106.1,36.4,106.1,36.9z M106,38.1
		c0.1,0,0.1,0.1,0.1,0.2c0.3-0.1,0.3-0.5,0.5-0.6C106.4,37.9,106.1,37.9,106,38.1C105.9,38.1,105.9,38.1,106,38.1z M106.1,40.1
		c0.1,0.1,0.1,0.3,0.3,0.5v0.4l0.1-0.1l0.1-0.3l0.1,0.1c0,0,0.1,0,0.2,0c-0.1,0-0.2,0-0.2,0l-0.1-0.1l0.1-0.1l0.2-0.2
		c-0.2,0-0.5,0-0.6,0.1l0.1-0.3H106.1z M106.2,16.4c0.1,0,0.3,0.1,0.5,0.3c0.1-0.1,0.3-0.3,0.3-0.5c0-0.1,0-0.2-0.2-0.3
		C106.7,16.3,106.6,16.2,106.2,16.4z M106.6,35.9c0,0.1,0,0.2-0.1,0.2c-0.1,0-0.1,0-0.1,0.1h0.1V35.9z M107.1,41.7
		c0.1-0.3-0.2-0.6-0.2-0.9c-0.2,0.2-0.3,0.3-0.3,0.5C106.8,41.5,106.9,41.6,107.1,41.7z M107.2,26.1v0.5c0.1,0,0.1,0.1,0.3,0.1
		c0,0.5-0.6,0.1-0.8,0.1c0,0.5,0,0.8,0.3,1.1h0.6c-0.2,0.3-0.6,0.2-1,0.3c0.1,0.1,0.1,0.3,0.3,0.5V29h0.3l0.1-0.1
		c0.3,0,0.8-0.3,0.8-0.6c0.3,0,0.5,0.3,0.6,0.4c0,0.2,0,0.5-0.1,0.6h0.4c0-0.3,0.2-0.6,0-0.9c0.2,0.2,0.4,0.3,0.5,0.3V29l0.1-0.1
		c0.1,0.2,0.4,0.2,0.6,0c-0.1,0.1-0.1,0.3-0.3,0.4c0.1,0.2,0.2,0.6-0.1,0.6c-0.3,0.2-0.5,0-0.6,0.3c0.2-0.2,0.4-0.2,0.6,0
		c0.1-0.1,0.1-0.3,0.3-0.5c0.1,0,0.5,0.1,0.6,0c-0.1,0-0.3-0.1-0.5-0.1v-0.1c0.5,0.1-0.2-0.5,0.2-0.6c0-0.2-0.3-0.3-0.3-0.6
		c0.2,0,0.4,0.1,0.6,0.3v-0.1l-0.1-0.1c-0.1,0-0.1-0.3-0.1-0.5h0.3c-0.1-0.1-0.1-0.3-0.5-0.3v-0.1v0.1l0.1,0.1c0,0,0.1,0.1,0.1,0.2
		c0,0.1-0.2,0.1-0.2,0.3c-0.3-0.1-0.3-0.4-0.3-0.8c0,0.3-0.1,0.5-0.3,0.5c0,0.1,0.2,0.1,0.2,0.3c-0.1,0-0.2,0-0.2,0.1l-0.1,0.1h0.3
		v0.1c-0.5,0.1-0.6-0.5-1-0.6c-0.1,0.1-0.5,0.1-0.6,0.1c-0.3,0.1-0.6,0.3-0.8,0.5c0-0.2,0.1-0.4,0.1-0.5v-0.1c0,0-0.1,0-0.1-0.2h0.3
		v0.3c0.2-0.1,0.3-0.3,0.6-0.5c-0.1-0.1-0.4,0-0.4-0.1c0-0.2,0.1-0.3,0.3-0.3c0-0.1-0.1-0.2-0.3-0.4c0.2,0.1,0.9,0.3,0.6-0.2
		c-0.3,0.2-0.6,0-0.5-0.4c-0.3,0-0.6,0.1-0.5,0.6C107.7,26.2,107.6,25.9,107.2,26.1z M107.2,36.1c0-0.3-0.1-0.3-0.3-0.3
		C106.9,36.1,106.9,36.1,107.2,36.1z M107.1,13.6C107.1,13.6,107.1,13.6,107.1,13.6l0.1,0.3l0.1,0.1c0.1-0.2,0.3-0.3,0.3-0.5
		c-0.1-0.1-0.3-0.1-0.5-0.1C107.2,13.4,107.2,13.5,107.1,13.6z M107.1,28.5 M107.5,21.4c0,0.2,0,0.3-0.1,0.3c0.3,0,1,0,0.6-0.5
		c-0.1-0.6-1.3,0.3-0.5,0.3V21.4z M108.2,29c0.3,0.1,0,0.5-0.3,0.6l-0.5-0.5c0.1,0.3,0.4,0.5,0.8,0.5v0.5c0.1,0.1,0.3,0.3,0.6,0.1
		v0.5c0.4-0.4-0.2-1,0.3-1.3l-0.5,0.3v-0.3h-0.3c0.1-0.3,0.5-0.8,0.1-1C108.5,28.9,108.5,29,108.2,29z M107.5,31.4
		c0.3,0,0,0.5-0.1,0.1L107.5,31.4z M107.5,16.7 M108.4,26.9c-0.5,0-0.7,0.1-0.3,0.5h-0.5c0.3-0.1,0.2-0.4,0-0.8
		C107.9,26.6,108,26.7,108.4,26.9z M107.5,36.1 M108,30.1c-0.1,0-0.5,0.1-0.3,0.3C107.9,30.6,108.2,30.5,108,30.1z M108,18.9
		c0.2,0,0-0.5-0.1-0.5C107.5,18.5,107.7,18.9,108,18.9z M108,12.2c0,0.3-0.1,0.3-0.3,0.3C107.7,12.4,107.7,12.2,108,12.2z M108,42.7
		h-0.1c-0.1,0.1-0.1,0.3-0.1,0.6c0.1-0.1,0.2-0.1,0.3-0.1c0,0.1,0.2,0.3,0.2,0.5v-0.5h0.4l-0.1-0.1c-0.1,0-0.1-0.1-0.2-0.1
		c0.1,0,0.1-0.1,0.1-0.3c-0.1-0.1-0.6,0-0.3,0.3C108.1,43,108,42.9,108,42.7z M108,37.6h0.5c-0.3-0.2-0.5-0.5-0.6-0.6
		C107.7,37.3,107.9,37.4,108,37.6z M107.9,19.8c0.1,0.1,0.5,0.1,0.6,0.1c0,0.3-0.2,0.6,0.3,0.8l-0.2-0.3h0.5c-0.1,0-0.1,0-0.1-0.1
		v-0.1h0.3c-0.1-0.2-0.3-0.7-0.6-0.3c0-0.3,0.2-0.6,0.6-0.3c-0.1-0.6-0.6,0-0.8,0.1C108.6,18.9,108.4,19.9,107.9,19.8z M108.2,20.9
		c0.1-0.1,0.3-0.6,0-0.6C107.9,20.4,108,20.9,108.2,20.9z M108.2,33c0.1-0.1,0.4-0.1,0.6-0.1c-0.2-0.1-0.1-0.6-0.5-0.6
		c0-0.2,0.1-0.4,0.3-0.6c-0.1-0.3-0.6-0.2-0.6,0.1C108.5,32.1,108.4,32.6,108.2,33z M108.6,31.4c0,0.1,0.2,0.5,0.3,0.6h0.1
		c0,0,0.1,0,0.1-0.1c-0.1-0.2-0.1-0.5-0.3-0.6c0.3,0,0.6-0.2,0.9,0.1c0-0.1-0.1-0.5,0-0.6h-0.5c-0.1,0-0.2,0-0.3,0.1
		C108.6,30.8,108.2,31.3,108.6,31.4z M108.5,29.8 M108.6,27.6h0.5v-0.2c0-0.2,0.1-0.3,0.3-0.3H109c-0.1-0.2-0.3-0.2-0.3-0.3
		c0,0.3,0,0.3,0.2,0.5L108.6,27.6z M108.8,25.3v0.1c0.1,0,0.6-0.2,0.3,0.3c0,0.2,0.1,0.3,0.1,0.4H109c0,0.2,0.1,0.3,0.3,0.3
		c0.2-0.2,0.5-0.3,0.8-0.5c-0.2,0-0.3,0-0.3-0.1v-0.1h0.3c0-0.2-0.2-0.3-0.2-0.5c0.1,0.7-0.8,0.6-0.6,0H108.8z M109.3,43
		c0-0.3-0.3-0.3-0.4-0.3C108.8,43.1,109.1,43,109.3,43z M109.9,29.8c0-0.1-0.1-0.3-0.1-0.5v0.5c0-0.1,0-0.1-0.1-0.1h-0.1l0.1-0.3
		c-0.1,0.2-0.5,0.3-0.6,0.5H109.9z M109.5,13c-0.3,0.1-0.5,0-0.3-0.1C109.5,12.7,109.5,12.7,109.5,13z M109.8,33.2h0.1
		c-0.2,0.2-0.3,0.3-0.3,0.4c-0.1,0-0.2,0-0.2,0l-0.1-0.1v0.6h-0.1c0,0.1,0.1,0.3,0.3,0.6v-0.3h-0.2v-0.8c0.2,0.2,0.4,0.3,0.6,0.3
		c0-0.3,0.1-0.5,0.2-0.6c-0.2-0.1-0.2-0.3-0.3-0.5V33.2z M109.8,37.2h0.3l0.1,0.1c-0.3,0-0.5,0.3-0.6,0.6l-0.1-0.1c0,0,0-0.1,0-0.2
		c-0.2,0.3-0.2,0.6-0.3,0.9h0.3l-0.1,0.1c0,0-0.1,0.1-0.1,0.2h0.2v0.3c0,0,0,0,0-0.1c0,0,0.1-0.1,0.1-0.2c0.1,0.1,0.1,0.3,0.3,0.5
		c0.2-0.2,0.4-0.3,0.5-0.3c0.3-0.1,0.6,0,0.6-0.5c-0.3,0.2-0.4,0.2-0.8,0.2v-0.5h0.3c-0.1,0-0.1-0.1-0.2-0.1h-0.1v0.1h-0.3
		c0.2,0.3,0.2,0.6,0.2,0.9c-0.2-0.1-0.3-0.3-0.6-0.4c0.1-0.1,0.2-0.3,0.4-0.5c0-0.1,0.1-0.2,0.1-0.2l0.1-0.1h0.3c-0.1,0-0.1,0-0.2,0
		l-0.1-0.1c0.1-0.3,0.4-0.6,0.3-0.9c-0.1-0.3,0.1-0.3,0.3-0.5c-0.3,0.1-0.8,0.2-1.1-0.1C110,36.6,110.1,36.9,109.8,37.2z M109.3,45
		c0.2,0.1,0.5-0.5,0.2-0.5C109.3,44.5,108.9,44.8,109.3,45z M109.5,25.9h0.1v-0.1h-0.1V25.9z M109.5,34.9c0,0.2,0.1,0.3,0.1,0.5
		h-0.1v0.2h0.3v-0.2c0-0.1,0.1-0.2,0.3-0.5H109.5z M110.4,41.7c0,0.5-0.4,0.3-0.8,0.3c0,0.1,0.1,0.1,0.1,0.3
		c0.1-0.1,0.2-0.1,0.5-0.1c-0.1,0-0.3,0.3-0.3,0.5v-0.3c-0.1,0.2-0.4,0.3-0.4,0.5s0.1,0.1,0.1,0.3c0.1,0,0.3-0.2,0.5-0.2
		c-0.2,0.2-0.3,0.2-0.3,0.3h0.3c0-0.5,0.6-0.3,0.8-0.5h-0.3v-0.5v-0.6H110.4z M109.6,18.9c0.3,0,0.6,0,0.9,0.1
		c0.3-0.1,0.5-0.1,0.5-0.5c-0.3,0.1-0.6,0.1-0.8,0.3v-0.5c-0.1-0.3-0.5,0-0.3,0.3C109.7,18.7,109.6,18.7,109.6,18.9z M109.8,34.3
		 M110.9,13.8c-0.1,0.3-0.6,0.3-0.8,0.5c0-0.3,0-0.4,0.1-0.8C110.4,13.4,110.8,13.8,110.9,13.8z M110.9,40.8h-0.2
		c-0.1,0-0.1,0-0.1-0.1v0.3c-0.2,0-0.3,0-0.4,0.1h0.4c0.2,0.2,0.3,0.2,0.6,0.3c0,0.1,0,0.3,0.3,0.3c0.1,0,0.3-0.3,0.5-0.4
		c-0.2,0-0.5,0.1-0.6,0.1c0-0.1,0-0.2,0-0.2l0.1-0.1c-0.3-0.1-0.5-0.3-0.6-0.6V40.8z M110.9,44.1c0.1-0.3-0.6-0.8-0.8-0.4
		C110.5,43.9,110.6,44,110.9,44.1z M110.4,40.1c0.1,0,0.1-0.1,0.1-0.5c0.1,0,0.3-0.1,0.5-0.3c-0.3,0-0.5,0.2-0.6,0.2V40.1z
		 M110.6,25.4v0.1l0.2-0.1H110.6z M111.7,42.4c0.1-0.1,0.3-0.1,0.5-0.3c-0.1-0.1-0.5-0.1-0.6-0.1C111.4,42.1,111.7,42.2,111.7,42.4z
		 M112.7,42.4c0-0.2,0-0.3-0.1-0.3C112.4,42.4,112.6,42.4,112.7,42.4z M113.2,11.6c0.2,0,0.3-0.1,0.3-0.3h-0.1
		c-0.1,0.2-0.1,0.3-0.3,0.3c0.2,0.3,0.5,0.3,0.6,0.5c0.2-0.2,0.2-0.3,0.3-0.3h0.1h0.3c-0.2-0.1-0.2-0.3-0.3-0.6
		C114.1,11.6,113.5,11.6,113.2,11.6z M113,13.7c0.3,0.1,0,0.5,0.2,0.6c0.2,0,0.3-0.1,0.3-0.3l0.1,0.1v-0.3c-0.1-0.1-0.2-0.1-0.4-0.1
		H113z M113.6,41.4l-0.1-0.1c0.1,0.1,0.4,0.4,0.8,0.4v-0.6h0.2c0,0.3,0,0.5-0.2,0.8c-0.4,0,0,0.4,0.2,0.8c0.1-0.1,0.1-0.2,0.1-0.3
		h-0.3c-0.1-0.1,0.2-0.4,0.3-0.6c-0.2-0.2-0.2-0.4,0-0.6c-0.3-0.1-0.6,0-1,0.2V41.4z M113.8,41.4v-0.1V41.4z M114.6,14.4
		c-0.1-0.1-0.3-0.1-0.5,0C113.8,15,114.6,14.7,114.6,14.4z M114.1,18 M115.3,18.2L115.3,18.2c-0.1,0-0.2,0-0.3-0.1
		c-0.1,0.1-0.3,0.1-0.3,0.3h0.8c0-0.2,0.1-0.3,0.1-0.5c-0.1-0.1-0.3-0.1-0.3-0.3V18.2z M115.6,11.7c-0.1,0-0.3,0-0.1,0.3
		C115.6,12.1,115.8,11.9,115.6,11.7z M115.9,12.7c0.1-0.3-0.3-0.6-0.5-0.5C115.3,12.6,115.8,12.7,115.9,12.7z M117.1,18.9
		c0.1-0.2-0.1-0.5-0.3-0.5C116.2,18.7,116.9,19,117.1,18.9z M117.2,42.6h0.3c0,0-0.1,0.1-0.1,0.2l-0.1,0.1c0.2,0,0.5,0,0.8-0.1
		L118,43h0.2c0-0.2-0.1-0.3-0.2-0.4h-0.3l0.1-0.1l0.2-0.2c-0.3,0.1-0.6,0.1-0.8,0.1V42.6z M118,18.4l-0.1,0.1c0,0-0.1,0-0.3,0
		c0.3,0,0.4,0,0.8-0.1v0.3c0.3,0,0.6-0.1,0.9,0c-0.3-0.1,0-0.4,0-0.8c-0.1,0.1-0.3,0.5-0.6,0.5v-0.6c0,0.4-0.4,0.1-0.9,0.3
		C117.9,18.2,118,18.2,118,18.4z M118.6,13.2v0.2c-0.3,0-0.4,0.1-0.6,0.1c0.3,0,0.8,0.2,1-0.3H118.6z M119.1,13.2
		c0.1-0.1,0-0.6-0.1-0.6C118.6,12.7,118.8,13,119.1,13.2z M119,13.8h0.5v-0.3c0.4-0.1,0.9,0,1.3,0.1c-0.1-0.1-0.3-0.3-0.3-0.5h0.3
		h-0.1c0-0.1,0-0.1-0.2-0.1h-0.1c-0.1,0-0.5,0-0.6,0.1c0-0.1,0.3-0.3,0.5-0.3c-0.1-0.1-0.2-0.2-0.2-0.3c-0.1,0.1-0.2,0.3-0.4,0.5
		C119.6,13.4,119.3,13.5,119,13.8z M119.8,16.4c0.3-0.2,0-0.7-0.1-0.3C119.5,16.1,119.6,16.6,119.8,16.4z M119.6,13.2h0.3v0.2h-0.3
		V13.2z M120.9,19.6v0.3c-0.1,0-0.1,0-0.1,0c0,0-0.1-0.1-0.2-0.1c-0.2,0-0.3-0.1-0.5-0.1c0,0.2-0.1,0.3-0.3,0.3
		c0.3,0.3,0.6,0.5,1,0.6c0.1-0.1,0.1-0.3,0.5-0.4v-0.5H120.9z M120.8,18c0,0.1,0,0.1-0.1,0.1c-0.2,0-0.3,0.2-0.5,0.3h1.4
		c0.1-0.3-0.1-0.5-0.3-0.3v0.2c-0.3,0-0.3-0.3-0.5-0.5V18z M120.4,15.4c0.2,0,0.2-0.1,0-0.3C120.3,15.3,120.1,15.4,120.4,15.4z
		 M120.4,12.7 M121.9,14.4c-0.3,0-0.5,0.2-0.6,0.3l-0.2-0.3c-0.1,0-0.1-0.1-0.3-0.1h-0.1c0,0,0,0,0,0.1c0,0,0,0,0.1,0
		c0,0,0,0,0.2,0.1c0,0.3,0.5,0,0.6,0.3c-0.1,0-0.5,0.2-0.6,0c0,0.1,0,0.2,0,0.2l0.1,0.1l-0.3,0.1c0.1,0,0.5,0,0.6-0.1
		c0.1-0.3,0.2-0.8,0.8-0.6c0-0.2-0.3-1-0.3-0.3h-0.3V14c-0.1,0.1-0.5,0.1-0.6,0.1C121.3,14.2,121.6,14.3,121.9,14.4z M121.3,17
		c0.1,0,0.1,0.1,0.1,0.2c-0.2,0-0.4,0.1-0.6,0.3c0.1,0.2,0.4,0.2,0.8,0.3c0,0.1,0.1,0.1,0.3,0.3c0-0.1,0-0.1,0-0.1h0.1
		c0-0.1,0-0.1-0.1-0.1h0c0.4-0.1,0-0.3-0.2-0.5v0.3l-0.1-0.1c-0.1,0-0.2-0.1-0.3-0.1c0.1-0.1,0.4-0.1,0.3-0.3
		C121.6,17,121.5,16.9,121.3,17C121.3,16.9,121.3,16.9,121.3,17z M121.1,39.3v-0.4c-0.1,0.1-0.1,0.3-0.3,0.4
		C120.8,39.5,120.9,39.5,121.1,39.3z M121.6,13.5c-0.1,0.1-0.3,0.1-0.5,0.3c0.3,0,0.5,0,0.8-0.1c0,0,0,0,0-0.1c-0.1,0,0,0-0.1-0.2
		L121.6,13.5z M121.4,39.3l0.3,0.2V39c-0.3,0-0.3,0.3-0.4,0.6C121.4,39.6,121.6,39.6,121.4,39.3z M125.4,15.9
		c0.2,0.2,0.4,0.3,0.5,0.3v0.2l-0.1-0.2v0.3c-0.1,0-0.2-0.1-0.2-0.1h-0.1c-0.3,0.3-0.4,0.7-0.6,1.1h0.5c-0.3,0.2-0.5,0.2-0.6,0.2
		c-0.1,0.3-0.6,0.1-0.6,0.4c0,0.1,0,0.2-0.2,0.2c0,0-0.1,0-0.1,0v-0.2h-0.1V18v-0.1l-0.1-0.1H123c0-0.2,0.2-0.2,0.3-0.3
		c-0.1-0.3-0.3-0.6-0.5-0.8c0,0.1,0,0.1,0,0.2l0.1,0.1c-0.3-0.1-0.6,0.2-0.8,0.2h0.3l-0.2,0.3c0.3,0.1,0.6,0.6,1,0.8
		c0.1,0.2,0.1,0.3,0,0.5c0.5-0.1,1.1,0,1.8,0c0,0,0,0,0.1-0.1c0,0,0.1-0.1,0.1-0.2c0.1,0.1,0.1,0.3,0.3,0.3c0.1-0.1,0.3-0.1,0.6-0.1
		c0-0.3,0.1-0.6,0.1-0.8c0.3-0.3,0.5-0.2,0.5,0.1c-0.2,0-0.3,0.1-0.3,0.3c0,0,0,0,0.1,0c0,0,0.1,0.1,0.1,0.1c0-0.1-0.1-0.2-0.3-0.2
		v0.5c0.3,0,0.8,0.2,1.1,0.2c0.1,0,0.3-0.2,0.4-0.2c0-0.3,0.1-0.5,0.2-0.6h0.1v-0.1c-0.1,0-0.6-0.4-0.6,0.1l-0.1-0.1v0.3
		c-0.5,0.2-0.1-0.4-0.5-0.6v-0.8c-0.1,0.1-0.3,0.3-0.3,0.5c-0.1-0.1-0.4-0.3-0.3-0.6c-0.1,0-0.2,0-0.2,0.1c0,0,0,0-0.1,0l-0.1-0.1
		c0.3,0,0.5-0.1,0.6-0.1c0,0.4,0.6,0,0.8-0.2c0,0.1,0,0.2-0.1,0.2c0,0-0.1,0-0.1,0c0-0.2-0.1-0.5-0.3-0.6l-0.1,0.1
		c-0.1-0.1-0.1-0.3-0.3-0.5c0,0.1-0.2,0.1-0.2,0.3C125.9,15.8,125.6,15.9,125.4,15.9z M123,21.7v-0.5c0.2,0.2,0.5,0.2,0.8,0.3
		c-0.2,0-0.5,0-0.6,0.1c0,0.1,0.1,0.6-0.2,0.8c0-0.3-0.1-0.4-0.1-0.6v0.5h-0.1c0,0,0,0.1,0,0.2c0,0.1,0,0.1,0,0.1h0.1v0.5
		c0-0.2,0.1-0.3,0.3-0.3c0,0.1,0.1,0.4,0.1,0.8h-0.1c0,0.3,0.1,0.5,0.3,0.8v-0.3l0.1,0.1c0,0,0.1,0,0.2,0h0.3c0.1-0.1,0.5,0,0.6,0
		c-0.1-0.3-0.5-0.4-0.3-0.6h0.6c-0.1-0.1-0.3-0.3-0.3-0.4h0.5l-0.2-0.2l-0.1-0.1c0.2-0.6-1-0.1-0.8-0.8c0.3,0.3,0.6,0,0.8-0.2v-0.4
		c-0.2,0.3-0.5,0.1-0.8,0l-0.1,0.1c0,0,0,0.1,0,0.2c0-0.2-0.1-0.3-0.3-0.3c-0.3-0.2-0.7-0.2-1.3,0C122.7,21.6,122.9,21.7,123,21.7z
		 M123.2,20.6c-0.1,0.1-0.2,0.3-0.2,0.5h0.6c0.3,0,0.6,0.3,0.6,0c-0.1-0.1-0.4-0.1-0.6-0.1c0.2-0.1,0.3-0.1,0.5-0.3
		c-0.3,0-0.6,0.2-0.6-0.1c-0.1-0.1-0.3-0.1-0.5-0.3C123.2,20.2,123.2,20.4,123.2,20.6z M123.6,22.9c-0.3,0.1-0.6-0.1-0.6-0.3
		C123.2,22.5,123.6,22.7,123.6,22.9z M123.5,23.5c0.1,0.1,0.4,0.1,0.8,0.1c0.3,0.2,0,0.5-0.1,0.6c-0.1-0.3-0.3-0.4-0.5-0.6v0.5
		l-0.3-0.3h0.1V23.5z M124.3,38.7c-0.1,0.3-0.4,0.5-0.8,0.6c0,0.2,0.1,0.3,0.1,0.5c0.1-0.2,0.4-0.2,0.6,0c-0.1,0.1-0.2,0.2-0.3,0.2
		c0,0-0.1,0-0.1,0h0.1v0.3c0.1,0,0.3-0.1,0.5-0.1c0-0.2-0.1-0.3-0.3-0.3c0.1-0.3,0.3-0.5,0.5-0.6c-0.1,0-0.1,0.1-0.3,0.1
		c0,0,0-0.1-0.1-0.2c0,0,0,0,0-0.1h0.5L124.3,38.7z M124,17.7c0.1-0.1,0-0.2-0.1-0.2C123.6,17.7,123.8,17.9,124,17.7z M124.1,39.2
		L124.1,39.2c-0.1,0.1-0.1,0.2-0.1,0.3C123.6,39.6,123.8,39,124.1,39.2z M124.1,34.6c0.1-0.3,0-0.3-0.1-0.3
		C123.8,34.6,124,34.8,124.1,34.6z M124.5,23.5c-0.3,0.1-0.3,0-0.3-0.1C124.5,23.2,124.5,23.4,124.5,23.5z M124.6,15.4
		c0.1-0.1,0.4-0.1,0.8-0.5c-0.3,0.2-0.4,0-0.8,0V15.4z M124.9,39.6h-0.1c0,0,0,0.1-0.1,0.3c-0.1,0-0.1,0.1-0.1,0.2l0.1-0.1
		c0.3,0.4,0.3-0.1,0.3-0.5C125.1,39.6,125.1,39.6,124.9,39.6z M125.1,26.1c-0.3-0.1-0.5,0.3-0.3,0.5C125,26.7,125.3,26.2,125.1,26.1
		z M125.1,18.4c0,0.1-0.1,0.1-0.3,0.1C124.8,18.4,124.8,18.2,125.1,18.4z M125.4,39.3c0.2-0.3-0.3-0.4-0.4-0.3
		C124.8,39.3,125.3,39.5,125.4,39.3z M126.3,22.5c-0.5-0.2-0.8,0.7-0.3,0.8h-0.6c0.1,0.1,0.3,0.6,0.6,0.5c0,0.3-0.1,0.4-0.3,0.6
		h-0.3v-0.6c0,0.1-0.1,0.1-0.1,0.3c0.1,0.3,0.5,0.6,0.6,1.1v-0.3h0.3c-0.1-0.1-0.3-0.1-0.6-0.3c0.2-0.1,0.3-0.3,0.5-0.5
		c0-0.1,0.1-0.2,0.3-0.5c0.3-0.1,0.6,0,0.8,0V24c0.3-0.1,0.6-0.3,0.8-0.6h-0.5v-0.1h0.3l-0.1-0.2l-0.2,0.2l-0.1-0.3
		c-0.3,0.1-0.6-0.3-0.9-0.5h0.6c-0.2-0.1-0.3-0.5-0.6-0.3V22.5z M125.6,22.7c0-0.2,0-0.4-0.2-0.5c-0.3-0.1-0.3,0.3-0.1,0.5
		C125.3,22.9,125.6,23.1,125.6,22.7z M126.4,23.9v0.3h-0.3c0.1,0.1,0.2,0.2,0.3,0.3c0.1-0.2,0.6-0.3,0.5-0.6H126.4z M126.3,23
		 M126.3,37.6c0.3,0,0.5-0.5,0.1-0.5C126.3,37.2,126.3,37.3,126.3,37.6z M126.9,27.1c0-0.2-0.1-0.3-0.2-0.2
		C126.6,27,126.7,27.1,126.9,27.1z M127.7,24.5c-0.1-0.2-0.3-0.3-0.5-0.3c0,0.1-0.1,0.3-0.1,0.5c0.1,0,0.1,0.1,0.3,0.1
		c0,0,0-0.1-0.1-0.2c-0.1,0-0.1,0-0.1-0.1c0.1,0,0.5,0.1,0.5,0.3c0.1,0,0.1,0,0.1,0v-0.1c-0.1-0.1,0-0.5-0.1-0.6V24.5z M128,34
		c0.2-0.1-0.1-0.3-0.3-0.3C127.4,34,127.9,34.2,128,34z M128.2,26.6c-0.2,0-0.3,0.1-0.3,0.3c0,0,0,0,0.1,0c0,0,0.1,0,0.2,0.1v0.1
		l0.1-0.1c0-0.2-0.1-0.5-0.3-0.6c0.2-0.2,0.5-0.2,0.6-0.2v-0.1c-0.3,0-0.8,0-0.9,0.1C127.9,26.4,127.9,26.6,128.2,26.6z M128.3,23.4
		c-0.1,0-0.5,0.3-0.3,0.5C128.2,24,128.5,23.7,128.3,23.4z M128.3,33.7h0.1h0.5c-0.1-0.1-0.1-0.3-0.3-0.3h0.5
		c-0.1-0.1-0.3-0.3-0.5-0.3C128.6,33.4,128.7,33.7,128.3,33.7z M130.6,35.1c0-0.3-0.3-0.3-0.5-0.2C130,35.3,130.6,35.5,130.6,35.1z
		 M130.9,24c-0.1,0-0.1,0.1-0.1,0.3c0.1-0.1,0.3-0.3,0.6-0.1l0.3-0.3c-0.4,0.1-0.7-0.2-1.1-0.3C130.8,23.7,130.8,23.9,130.9,24z"/>
	<path class="st0" d="M133.6,10.5h9v34.8l-0.1,0.1c0,0-0.1,0.1-0.2,0.1v-0.5h-1.8v0.5c-0.3,0-0.9-0.3-0.8,0.3h-1.1
		c0,0.1-0.1,0.3-0.3,0.5v-0.8c-0.4-0.2-1.1-0.5-1.7,0v-0.3c0,0.5-0.5,0.1-0.6,0.3c-0.2,0.9,0,1.9-0.2,2.9c-0.1,0-0.4,0-0.8,0.2
		c0-0.3,0-0.5-0.1-0.8h-1v-2.7c-0.1-0.5-0.1-1.1-0.1-1.6V10.5z M134.7,23.6c0.3-0.1,0-0.6-0.2-0.4C134.3,23.3,134.5,23.6,134.7,23.6
		z M135.8,31.2c-0.2-0.2-0.5,0-0.7,0C135.1,31.6,135.8,31.6,135.8,31.2z M136.8,21.7v0.2c0,0.1-0.1,0.1-0.1,0.3
		c0.1-0.1,0.3-0.3,0.6-0.3c0.1,0-0.1,0.3-0.1,0.4c-0.3,0.2-0.6,0.7-1,0.3c0-0.1,0.1-0.3,0.1-0.5c0,0.1-0.1,0.1-0.3,0.3v-0.2
		l-0.1,0.1c0,0,0,0.1,0,0.2h-0.2c0,0-0.1,0.2-0.3,0.5c0.1-0.2,0.5-0.2,0.6-0.3V23h0.1c-0.1,0.6,0.3,0.2,0.5,0
		c0.1-0.4,0.4-0.6,0.8-0.8v-0.5H136.8z M136.8,14.7c0.5-0.1,0.5,0.3,0.5,0.6c0.1-0.1,0.3-0.1,0.3-0.3c0.5,0.3,0.9,0,1.3-0.3
		c0.4,0.1-0.1,0.4-0.1,0.6c0.3-0.1,0.5-0.1,0.8-0.1c0.1,0,0.3-0.1,0.4-0.1c-0.1-0.1-0.1-0.3-0.1-0.5h-0.1l0.1,0.3H139l0.1-0.3
		c-0.5,0-0.6,0.5-1.1,0.3c0.1,0,0.1-0.1,0.3-0.3c-0.2,0-0.4,0-0.5,0.1h0.1c0,0.2-0.1,0.3-0.3,0.3v-0.3c-0.2,0-0.3,0.1-0.5,0.1
		c0-0.2,0-0.3-0.1-0.4l-0.1,0.1L136.8,14.7z M137.4,13.2c-0.1-0.2-0.5,0.3-0.1,0.4C137.4,13.6,137.6,13.3,137.4,13.2z M137.8,15.9
		c0.1-0.3,0-0.3-0.2-0.3C137.4,15.9,137.6,15.9,137.8,15.9z M139.2,16.8c0.3,0.2,0.1,0.5,0,0.7l-0.1-0.1c-0.1,0-0.1-0.1-0.1-0.2v0.3
		h-0.3l0.1-0.2h-0.3l0.1,0.2l-0.5,0.1l0.2-0.3l-0.5,0.5c0.1,0,0.2,0,0.3,0l0.2-0.1c0,0.1-0.2,0.3-0.2,0.5c0.2,0,0.4,0,0.5-0.2
		c0,0.4,0,0.7,0.1,0.8v-0.3h0.5c-0.1,0-0.3-0.1-0.5-0.1c0-0.5,0.6-0.3,1-0.6c-0.6-0.5,0.5-0.3,0.1-0.8c0,0.2-0.1,0.3-0.3,0.3
		c0-0.1-0.4-0.5,0.1-0.5c-0.1,0-0.1,0-0.1,0v-0.1h0.1c0,0,0.1,0,0.1-0.1c0,0.1-0.1,0.1-0.3,0.1C139.3,16.5,139.3,16.7,139.2,16.8z
		 M138.8,15.9V16c0.2,0,0.3-0.1,0.5-0.1c-0.1-0.1-0.3-0.1-0.3-0.3c-0.3,0.2-1-0.2-1,0.3H138.8z M138.1,20.7c0,0.1,0,0.1,0,0.2
		l0.1,0.1l0.2-0.1v0.6l0.1-0.3l0.3,0.3c0,0-0.1,0-0.2,0.2l-0.1,0.1l0.1,0.1l-0.1,0.1c0.2-0.2,0.3-0.4,0.3-0.6c0.1,0,0.2,0,0.2,0.1
		c0,0,0,0,0.1,0v-0.3c0.1,0.1,0.2,0.1,0.5,0.1V21c-0.3,0.3-0.8,0.3-1.1,0.1c0.1-0.1,0.3-0.3,0.6-0.3h-0.5c-0.1-0.1-0.1-0.3-0.3-0.3
		c0.3-0.1,0.6-0.1,0.9,0c-0.1-0.1-0.5-0.1-0.6-0.3C138.5,20.4,138.2,20.5,138.1,20.7z M138.4,14.3h0.6c-0.1,0-0.2-0.1-0.2-0.1h-0.1
		c0-0.2,0-0.3,0.1-0.5c-0.1,0-0.3,0.2-0.4,0.2V14.3z M139.2,31.5c-0.1,0.1-0.3,0.3-0.3,0.5c-0.1,0.1-0.3,0.1-0.3,0.3
		c0,0.1,0.1,0.3,0.3,0.5c0-0.3,0.3-0.3,0.7-0.3h-0.7c0-0.3,0.5-0.5,0.3-0.8V31.5c0,0,0.1,0,0.1-0.1c0.2,0,0.3-0.3,0.3-0.5
		c-0.1,0-0.5,0.1-0.6,0.1C138.8,31.2,139,31.4,139.2,31.5z M139.8,37.2c0-0.1-0.1-0.3-0.3-0.1C139.5,37.3,139.6,37.4,139.8,37.2z
		 M140.5,14.6c0-0.1-0.5-0.3-0.5,0C140,14.7,140.5,15.1,140.5,14.6z M141,34.4c0,0.5,0.6,0.3,0.8,0H141z M141.6,43.8
		c0-0.3,0.1-0.5,0.5-0.5c-0.3-0.1-0.5,0.1-0.8,0.1C141.5,43.7,141.6,43.7,141.6,43.8z M141.9,25.4c-0.1,0-0.3,0.2-0.1,0.3
		C141.9,25.9,142.1,25.7,141.9,25.4z M143.4,10.5h10V19h-10V10.5z M143.4,25.4h9.5v8.4h-9.5V25.4z M143.4,40.4h10
		c0,1.5,0.1,2.7,0,4.1c-0.3-0.3-0.3-1-0.3-1.4c-0.1,0-0.4,0-0.6-0.2c-0.4,0-0.8-0.1-1.1-0.3c-0.5,0.3-1,0.5-1.4,0.5v1.9h-1.1
		c0-0.2-0.1-0.3-0.1-0.6h-0.3c0,0.3,0,0.6-0.2,0.8h-0.6v1.8l-0.1-0.1l-0.2-0.2h-1.9c-0.4,0.1-0.6,0.4-0.6,0.8c-0.3,0.1-0.6,0-1,0
		c0-0.5,0.2-0.9-0.1-1.5V40.4z M144.5,27.8v0.3c0,0,0,0,0,0.1c0.1,0,0.1,0.1,0.1,0.2c-0.1,0.1-0.1,0.2-0.1,0.5
		c0.2-0.2,0.3-0.4,0.3-0.8c-0.6,0,0-0.3,0.1-0.5c-0.2,0.1-0.5,0.1-0.6,0c-0.3,0-0.3,0.3-0.3,0.5C144.2,27.9,144.4,27.8,144.5,27.8z
		 M144.3,13.6c0-0.3,0-0.3-0.3-0.3C144,13.7,144,13.8,144.3,13.6z M144.2,31.7C144.2,31.7,144.2,31.7,144.2,31.7
		c0.1,0.1,0.1,0.1,0.1,0.2c0.2-0.3,0.5-0.5,0.8-0.3c-0.2,0.1-0.3,0.3-0.5,0.6c-0.2,0-0.4,0-0.5-0.1c0.3,0.1,0.5,0.3,0.5,0.6v-0.3
		h0.3V32l0.2,0.1c-0.2-0.5,0.3-0.6,0.6-0.8c-0.3,0.1-0.6,0.1-0.8,0c-0.2,0-0.3,0-0.4,0.1C144.3,31.5,144.2,31.6,144.2,31.7z
		 M144.4,30L144.4,30c-0.1,0.2,0.1,0.5,0.1,0.8c0.1-0.3,0.4-0.5,0.6-0.5c-0.2-0.1-0.3-0.1-0.5-0.3c0.3,0,0.6-0.1,0.8,0
		c0.1,0,0.3-0.1,0.5-0.1c-0.1-0.1-0.2-0.2-0.3-0.3c-0.1,0.3-0.4,0-0.6-0.1v0.3c-0.4,0-0.5-0.5-0.1-0.6c-0.5,0-0.3,0.6-0.1,1
		C144.5,30.1,144.5,30.1,144.4,30z M144.7,17.8c0.1,0.1,0.6-0.3,0.5-0.5C145,17.5,144.7,17.7,144.7,17.8z M145.8,26.2
		c0,0.1-0.2,0.3-0.3,0.4c0.1-0.1,0.8,0,0.5,0.3c-0.1,0.5-1-0.3-0.8,0.5c0.2,0,0.3,0,0.4-0.2c0,0.2-0.1,0.2-0.1,0.3l-0.3-0.1
		c0,0.6,0.6,0.6,0.9,0.6v0.1c0.3-0.1,0.4-0.3,0.8-0.3h0.2c-0.2-0.1-0.3-0.1-0.5-0.3c0-0.3,0.1-0.5,0.1-0.6c-0.3,0-0.7-0.5-0.1-0.6
		v0.3h0.3c-0.1-0.1-0.1-0.3-0.1-0.6c-0.1,0.1-0.2,0.2-0.5,0.2H145.8z M145.6,14.4v-0.6c-0.1,0.1-0.3,0.3-0.4,0.6
		C145.3,14.4,145.5,14.6,145.6,14.4z M145.8,29.1c-0.1-0.1-0.3-0.1-0.5-0.1C145.2,29.3,145.8,29.4,145.8,29.1z M145.5,15.9
		c0-0.1-0.1-0.3-0.1-0.5V16c0.1-0.1,0.2-0.1,0.5-0.1v0.3L146,16v0.6c0.1,0,0.1,0.1,0.3,0.3l-0.1,0.1c0.1,0,0.1-0.1,0.3-0.3h0.4v0
		c0,0,0-0.1-0.1-0.1c0.1-0.1,0.1-0.3,0.3-0.5c-0.2,0.2-0.5,0.2-0.6,0.3c0.1-0.3,0.4-0.5,0.8-0.5c0.3,0.1,0.5,0.1,0.6,0
		c-0.1-0.1-0.5-0.1-0.6-0.1c0-0.5-0.6-0.3-0.8-0.5c0,0,0,0,0,0.1c0.1,0,0.1,0.1,0.1,0.2c-0.2,0.2-0.4,0.3-0.8,0.3
		c0.2-0.2,0.3-0.3,0.3-0.5c0,0,0,0-0.1,0c0,0-0.1,0-0.2,0.1c0-0.2-0.2-0.3-0.2-0.5C145.6,15.4,145.5,15.7,145.5,15.9z M146,26.2
		l0.1,0.1v0.1H146v0c0,0,0-0.1-0.1-0.1L146,26.2z M146.9,13.3c-0.4-0.1-0.4,0.3-0.8,0.5c0.3,0,0.3,0.3,0.3,0.6
		c-0.1,0-0.3,0.1-0.5,0.3c0.5-0.1,0.9-0.1,1.3-0.1c0.1,0,0.7-0.1,0.1-0.3c0,0,0,0,0-0.1c0.1,0,0.1-0.1,0.1-0.2
		c0.2,0,0.3-0.1,0.3-0.3c-0.2-0.2-0.4-0.2-0.6-0.1v-0.3c-0.1,0-0.5-0.2-0.6-0.3C146.6,13,146.7,13.1,146.9,13.3z M146.6,30.2
		c-0.1,0.1-0.3,0.3-0.1,0.3c0,0.1,0.1,0.1,0.1,0.2v0.1c0,0.3,0.5,0.3,0.1,0.6l-0.3-0.3c-0.2,0.1-0.3,0.1-0.3,0.3h0.5
		c0.3,0.1,0.6,0,0.9-0.1c0,0.1,0.2,0.5,0.2,0.6h0.3c-0.2,0-0.3-0.1-0.3-0.3h0.9c-0.3-0.1-0.6,0-0.9-0.1v-0.1h0.1c0,0,0.1,0,0.2-0.1
		c-0.1,0.1-0.2,0.1-0.3,0.1h-0.2c0-0.1,0.2-0.3,0.2-0.5c-0.2,0.1-0.8-0.1-0.6,0.3c-0.6,0-0.2-0.5,0.1-0.6h-0.6V30.2z M146.6,12.3
		c-0.1,0.1-0.1,0.2-0.1,0.2v0.1c0.3,0,0.1-0.3,0.3-0.6c-0.1,0.1-0.5,0-0.5,0.1C146.3,12.3,146.4,12.3,146.6,12.3z M147.1,17.3
		c0,0.4,0.6-0.2,0.4,0.3c-0.4,0-0.7-0.1-1.1-0.1V18c0.1,0,0.1,0,0.2,0l0.1-0.1c0.1,0.6,0.6-0.2,1,0.1v-0.6h-0.2
		c0-0.3-0.3-0.1-0.6-0.3L147.1,17.3z M146.9,14.3c0.1,0,0.2,0,0.2,0l0.1-0.1c0.3,0.1,0,0.5-0.1,0.3L146.9,14.3z M147.3,29.4
		c-0.3,0-0.5,0.5-0.1,0.6C147.3,30.1,147.4,29.6,147.3,29.4z M147.6,18c-0.1,0-0.6,0-0.4,0.3C147.3,18.5,147.6,18.3,147.6,18z
		 M147.8,15.2c-0.2,0-0.6-0.2-0.6,0.1C147.3,15.5,147.8,15.6,147.8,15.2z M147.1,27.2v0.5c0.1,0,0.3,0,0.6-0.1h-0.3
		c0-0.2,0.1-0.3,0.3-0.3H147.1z M147.1,32v0.5h0.4v-0.3c-0.1,0-0.3,0.1-0.4,0.1V32z M150.3,29.6h-1v-0.1c-0.3,0-0.9,0.3-0.9-0.2
		c-0.1,0.3-0.5,0.3-0.8,0.2v0.6c0.2,0,0.5-0.1,0.7-0.1c0.1,0.7-0.7,0.2-1,0.8c0.5-0.1,0.8-0.1,1-0.5h0.6c-0.2-0.1-0.3-0.1-0.5-0.3
		h0.8c0.3-0.3,0.6-0.2,1-0.2c0.1,0.2,0.3,0.3,0.3,0.6c0.1-0.3,0.4-0.3,0.8-0.3c-0.3-0.3-0.6-0.5-0.9-0.6c0.1-0.2,0.5-0.2,0.5-0.3
		c-0.3,0-0.8,0.3-1.1,0c-0.1,0.1-0.1,0.2-0.1,0.3C149.7,29.4,150.3,29.1,150.3,29.6z M147.4,29.9v0.1V29.9z M147.6,33h0.7l0.1,0.2
		c0-0.2,0.1-0.2,0.1-0.3h-0.3c-0.2,0-0.3-0.1-0.3-0.3C147.8,32.7,147.6,32.8,147.6,33z M147.9,41.5c0.1-0.1,0.4,0,0.8,0
		c-0.2-0.2-0.3-0.3-0.4-0.3h-0.1c-0.1,0-0.1,0-0.2,0.1V41.5z M148.4,28c0.1,0.2,0.3,0.2,0.5,0.3v-0.8c0,0.1-0.2,0.3-0.2,0.4H148.4z
		 M148.4,29.6h0.1v0.1h-0.1V29.6z M150.3,28.3c-0.3-0.1-0.7-0.6-0.3-1c-0.3,0.2-0.6,0.3-0.9,0.6C149.6,28.2,149.8,28.2,150.3,28.3z
		 M152.3,14.4c-0.1,0-0.3,0.1-0.5,0.1c-0.1,0-0.1,0-0.3,0.1c-0.1,0-0.1,0-0.2,0l-0.1-0.3c-0.1,0.1-0.4,0.1-0.8,0.1v0.1
		c0.3,0,0.5,0,0.6,0.3c-0.2,0-0.4,0-0.5,0.1l-0.1,0.1c0,0,0,0.1,0,0.2c0.1-0.1,0.3-0.1,0.5-0.3c0,0.2,0.1,0.3,0.4,0.3v0.2h0.3v-0.3
		h0.1v0.3h0.3c-0.1,0.3-0.6,0.3-1,0.1c0.1,0.1,0.5,0.1,0.5,0.5v-0.2c0.3-0.1,0.5-0.1,0.6-0.1c-0.1-0.2-0.1-0.4,0.1-0.6
		c-0.3,0-0.5-0.5-0.1-0.6c0.1,0.3,0.7,0.4,0.1-0.1h0.5c-0.3-0.1-0.6-0.3-0.6-0.6V14.4z M150.3,15.9c0.3,0.3,0.1,0.3,0,0.5
		c0.3,0.1,0.6,0.1,0.9,0c-0.1-0.2-0.4-0.3-0.4-0.6C150.7,15.8,150.5,15.9,150.3,15.9z M151.6,15.2c-0.1,0.1-0.3,0.2-0.3-0.1
		C151.5,15.1,151.6,15.1,151.6,15.2z M152.3,41.7c0-0.1-0.5,0-0.5,0.2C151.8,42,152.3,41.9,152.3,41.7z"/>
	<path class="st0" d="M154.3,10.5h9v33.2H163v2.9c-0.3,0-1.1,0.3-1-0.3c-0.3,0-0.6,0.2-0.8-0.1c-0.6,0-1.1-0.1-1.8,0l-0.1,0.1h-0.6
		c-0.1,0.3-0.4,0.5-0.8,0.5v-4h-3.6V10.5z M158.8,21.1c-0.5,0.5-1.3,0-1.6,0.6c-0.4,0.1-0.8,0-1.1-0.3l-0.1,0.3v-0.3
		c-0.2,0.2-0.3,0.2-0.5,0.3c0.1-0.5-0.1-0.5-0.5-0.6c-0.1,0.3-0.1,0.6,0.3,0.8h-0.5c0.1,0.5,0.8,0,0.8,0.5l-0.1,0.1h-0.5
		c0.3,0.3,0.6,0.3,1,0.5c-0.3,0.3,0.3,0.4,0.3,0.8c-0.3,0-0.5-0.1-0.6-0.1c0.1,0.1,0.1,0.2,0.1,0.5l0.2-0.2c0.3-0.1,1.1-0.1,1.1,0.5
		c-0.2,0-0.2,0.9-0.4,0.3c-0.5,0-0.5,0.4-0.5,0.8c-0.1,0-0.8,0.3-0.1,0.1c0,0.2,0,0.4,0.1,0.5c-0.1-0.5,0.4-0.4,0.8-0.8
		c-0.1,0.1-0.1,0.5-0.1,0.6c0-0.3,0.1-0.5,0.1-0.6c0.1,0.1,0.3,0.3,0.3,0.5h-0.3l0.1,0.1c0-0.1,0.3-0.1,0.5-0.1h-0.3
		c0-0.1,0-0.2,0.1-0.2l0.1-0.1c-0.1-0.3-0.3-0.4,0-0.8c0-0.1,0-0.5,0.1-0.6c0.2,0,0.3,0.1,0.3,0.3c0,0.2-0.2,0.3-0.2,0.6V25h0.2
		c0.2,0,0.3,0,0.3-0.1c0-0.1-0.1-0.5-0.1-0.6c-0.1-0.2-0.4-0.3-0.8-0.3l0.3,0.3h-0.3v-0.5c-0.1,0-0.2,0-0.2,0c0,0,0,0,0-0.1v-0.3
		l0.2-0.1v0.5c0-0.1,0.1-0.2,0.1-0.2h0.1c0.1,0,0.1,0,0.1-0.1h-0.1v-0.5c0.1,0.1,0.2,0.2,0.3,0.3c0,0.2,0.1,0.4,0.3,0.6
		c-0.1-0.1-0.3-0.1-0.5,0c0.3,0.1,0.5,0.3,0.8,0.5l-0.2,0.1c0,0.1,0,0.1,0.1,0.1h0.2l0.1,0.2c0.1,0,0.5,0,0.6,0.1
		c0.1,0,0.2-0.1,0.2-0.3c0.1,0.5,0.4,0.2,0.8,0.2v0.1h0.3c0.2,0,0.2-0.1,0.3-0.1h-0.8c0-0.5,0.6-0.2,0.9-0.2
		c-0.3-0.1-0.5-0.3-0.6-0.5c0.1,0,0.5,0,0.6,0.2V24h-0.1c-0.1-0.3-0.1-0.6,0-0.8c-0.3-0.1-0.4-0.6-0.8-0.8v-0.1c0,0.1-0.3,0.4,0,0.6
		c0.1,0.3-0.2,0.6-0.3,1.1c0.2-0.2,0.4-0.3,0.6-0.3c-0.1,0.3-0.1,0.8-0.5,1v-0.5h-0.1c0-0.2-0.1-0.2-0.1-0.3v0.5h-0.1
		c-0.2-0.8-1-1.1-1.6-1.3c0.1-0.1,0.1-0.2,0.1-0.5h0.3c0.2,0,0.3,0,0.4-0.1v0.5c0,0,0,0,0-0.1c0,0,0-0.1,0.2-0.2h0.1
		c0,0,0.1,0,0.1,0.1c-0.1-0.1,0-0.3,0-0.4c-0.4,0-0.7,0-0.8,0.1c-0.2-0.3,0-0.5,0-0.6c0.1,0,0.1,0.1,0.3,0.1c0.1,0,0.5,0,0.8,0.1
		c-0.3-0.1-0.7-0.3-0.8-0.4c0.4-0.4,0.8-0.4,1.1,0c0,0.1,0.1,0.3,0.3,0.4c0.1-0.1,0.1-0.6-0.2-0.4c-0.3-0.3-0.3-0.8-0.6-1.1
		c-0.1,0-0.1,0.1-0.3,0.1v-0.3c-0.1,0.1-0.2,0.2-0.3,0.2V21.1z M154.9,34.5c0.1,0,0.5,0,0.5-0.1s-0.1-0.3-0.1-0.5
		c0.3,0.2,0.2,0.6,0.8,0.6c0.1,0.2,0.1,0.5,0.5,0.5c-0.2-0.1-0.3-0.5,0-0.6c0.2,0,0.4,0.1,0.6,0.3c-0.2-0.2-0.5-0.3-0.3-0.6h0.1
		c0,0,0,0-0.1-0.1l-0.2-0.1v0.5c-0.5-0.3-1.3-0.6-1.1-1.3c-0.1,0.1-0.5,0.1-0.6,0.1C154.9,33.8,154.8,34.2,154.9,34.5z M155.1,36.8
		c0.2-0.3,0-0.3-0.1-0.3C154.8,36.8,154.9,36.8,155.1,36.8z M155.4,15.3c0-0.2-0.1-0.3-0.5-0.3c-0.1,0-0.1,0-0.1,0.1
		c0,0.1,0,0.2,0.1,0.2C155.1,15.3,155.3,15.5,155.4,15.3z M154.9,11.1c0,0.1,0.1,0.3,0.3,0.4h-0.3l0.1,0.1c0.1,0,0.1,0.1,0.2,0.1
		c-0.2,0.1-0.2,0.5-0.3,0.5v0.8c0.1-0.1,0.5-0.2,0.6,0.1h-0.5c-0.1,0.3-0.3,0.9,0,1.3c0-0.3,0-0.8-0.1-1.1l0.3,0.3
		c0.1-0.3,0.3-0.5,0.6-0.5c0.1,0.1,0,0.3-0.2,0.5l0.3-0.3l-0.1,0.5c0-0.1,0.1-0.1,0.3-0.3c-0.1-0.2-0.1-0.3-0.3-0.5
		c0.3,0.1,0.7,0,1.1-0.1c0.2-0.2,0.5,0,0.3,0.3c-0.2,0-0.4,0-0.5,0.1c-0.1,0-0.3-0.1-0.5-0.1c0.1,0,0.2,0,0.2,0.1c0.1,0,0.1,0,0.1,0
		v0.3c0.1-0.1,0.5-0.3,0.6-0.5c0,0.3,0.1,0.6,0.5,0.5c0,0.1,0,0.1,0.1,0.2L158,14c-0.1,0-0.5,0.2-0.6,0.2c0.5,0.1-0.3,0.8-0.5,0.3
		l-0.1,0.3h0.3c0.1,0.1,0.3,0.2,0.5,0.4c0-0.3,0-0.4,0.3-0.4c0.3,0,0.3,0.3,0.3,0.6c0.5-0.5-0.2-1.3-0.6-0.6c0-0.3,0-0.5,0.3-0.6
		c0.1-0.1,0.2-0.3,0.4-0.5c0.4,0.5,0.6-0.3,1-0.3c-0.1,0.2-0.3,0.3-0.3,0.5l0.2,0.1c0.1,0,0.1,0,0.3,0c-0.1,0.1-0.2,0.2-0.5,0.2v0.1
		h-0.3c0,0.3,0.1,0.4,0.3,0.8h0.2c-0.2-0.1-0.2-0.3-0.3-0.5c0.3,0,0.5,0.2,0.6,0.3c0,0.1-0.1,0.3-0.1,0.5l-0.1-0.2v0.5l-0.2-0.2
		l-0.1-0.1c-0.3,0.1-0.7,0.1-1.1,0c0.1,0.2,0.3,0.3,0.5,0.1v0.8c0-0.1-0.3-0.1-0.5-0.3c0.3,0.5,0.8,0.5,1.3,0.6
		c-0.1-0.3-0.4-0.5-0.4-0.8c0.3,0,0.6,0,0.8,0.2c0.3-0.2,0.5-0.5,0.1-0.6l0.3-0.3l-0.3,0.1v-0.4l-0.1-0.1c-0.1,0-0.1-0.1-0.1-0.2
		h0.3c0,0.5,0.3,0.3,0.4,0.5c-0.1-0.1-0.3-0.3-0.4-0.3l0.4-0.3v0.3v-0.4c-0.1,0-0.3-0.2-0.4-0.2c0-0.2,0-0.3-0.2-0.4
		c0.5-0.2,0.6-0.6,1.1-0.8v0.8c0,0.1,0,0.4-0.1,0.4c-0.1-0.1-0.1-0.3-0.3-0.4l-0.1-0.1c-0.1,0-0.2-0.1-0.3-0.1
		c0.3,0.3,0.6,0.6,0.8,1c0.2-0.2,0.3-0.4,0.3-0.6c0,0.1,0.2,0.5,0.2,0.6c0.1,0,0.1,0,0.1,0v-0.1c-0.3-0.3-0.3-0.9-0.3-1.5h0.3v-0.1
		l0.1,0.1c0.1,0,0.2,0,0.3,0c-0.2-0.1-0.2-0.3-0.3-0.3c-0.3,0-0.8,0.3-0.9-0.1c-0.2,0-0.3,0.1-0.5,0.1c-0.1,0.1-0.3,0.3-0.5,0.5
		c-0.1-0.2-0.1-0.3-0.3-0.5c-0.1,0.1-0.3,0.1-0.3,0.3c-0.1,0-0.1-0.1-0.1-0.3c-0.3-0.1-0.5,0.3-0.8,0.1c-0.1-0.1,0.2-0.3,0.2-0.5
		c-0.3-0.5-0.8,0.3-1-0.3c0-0.3-0.5-0.3-0.6-0.6H154.9z M154.9,23.6v0.3c0.1,0,0.2,0,0.3,0.1c0-0.1-0.2-0.4-0.2-0.6
		c0.2,0,0.3-0.1,0.6-0.1c-0.3-0.1-0.6-0.1-0.8-0.1V23.6z M154.9,26.8v1.4h0.5c0-0.3,0-0.5,0.1-0.6h-0.5v-0.1
		c0.2-0.1,0.5-0.1,0.6-0.5c-0.1,0-0.4,0.1-0.6,0.1l0.1-0.1c0.1,0,0.1-0.1,0.1-0.2H154.9z M155.3,12.4 M155.7,11.4
		c0,0.1-0.1,0.5-0.1,0.6h0.6l-0.1,0.3c0.2,0,0.3-0.1,0.3-0.5v0.5h0.2c0.1-0.5,0.8,0.1,0.3,0.3c-0.1-0.1-0.4-0.1-0.8,0
		c-0.1-0.1-0.5-0.3-0.6-0.4C155.4,11.9,155.1,11.4,155.7,11.4z M155.7,13.1c-0.2,0-0.3-0.1-0.3-0.3
		C155.6,12.6,155.9,12.7,155.7,13.1z M156.1,31.1c-0.3,0-0.5,0.1-0.6,0.3v0.1c0,0.1,0,0.2,0.1,0.2h0.5c-0.1-0.1-0.3-0.3-0.5-0.3
		c0.3-0.1,0.4-0.3,0.8-0.1l-0.1-0.3c0.2,0,0.4,0,0.5,0.1c-0.1-0.3-0.5-0.3-0.6-0.5V31.1z M156.1,27.4c0.1,0.3-0.1,0.5-0.5,0.3
		c0.1,0.3,0.3,0.3,0.6,0.3c-0.1,0.1-0.2,0.1-0.5,0.1v0.1h0.6v0.3c0.2-0.1,0.5,0,0.6-0.3c-0.3,0.3-0.6-0.1-0.4-0.4h0.3
		c-0.1-0.1-0.3-0.2-0.6-0.2v-0.3h0.3c-0.2-0.1-0.3-0.3-0.5-0.5c0.2,0,0.3-0.1,0.3-0.3c-0.1,0.1-0.4,0.1-0.8,0
		C155.9,26.8,156.1,27,156.1,27.4z M156.4,36.1h-0.3c0,0.1,0.1,0.1,0.2,0.1h0.1v0.5c-0.1-0.1-0.3-0.1-0.4-0.3c0,0.1,0.1,0.3,0.3,0.5
		l0.1,0.2c-0.3-0.2-0.6-0.3-0.8,0c0.1,0.1,0.4,0.3,0.8,0.1h0.1c0.1,0,0.1,0.1,0.2,0.1v-0.3v0.3c0.3-0.1,0.6-0.3,0.8-0.5
		c-0.2,0-0.3,0-0.5-0.1c0.1-0.1,0.4-0.1,0.6,0c-0.1-0.3-0.1-0.5-0.1-0.6h-0.1v-0.3l-0.1,0.2c0-0.5-0.5-0.3-0.6-0.3
		C156.9,35.8,156.6,36,156.4,36.1z M155.7,41.5c0.2-0.2,0-0.3-0.1-0.2C155.6,41.5,155.6,41.6,155.7,41.5z M156.1,32.6
		c0,0.3,0.3,0.1,0.5,0.1c0-0.3,0-0.8-0.2-0.9C156.4,32.1,156.2,32.2,156.1,32.6z M156.4,23.4c-0.1,0.2-0.3-0.3-0.1-0.4
		C156.4,22.7,156.6,23.2,156.4,23.4z M156.7,25.6h-0.3c-0.4-0.1,0.2-0.3,0.2-0.5C156.9,25.1,156.7,25.5,156.7,25.6z M156.4,11.1
		c0.3,0.1,0.6,0.4,1,0.6c0.2,0,0.4,0.1,0.6,0.3v-0.5l0.1,0.2c0.1-0.2,0.1-0.5,0.3-0.6H156.4z M157,14.2c-0.1-0.3-0.4-0.3-0.6-0.3
		c0.2,0.1,0.3,0.1,0.5,0.3c-0.1,0.1-0.1,0.3-0.3,0.3c0.3-0.1,0.6-0.3,0.9-0.6c-0.2,0-0.3,0-0.5-0.1V14.2z M156.7,35.6
		c0.1,0.1,0.5,0.3,0.6,0.5c0,0.1-0.3,0.3-0.5,0.5c-0.3-0.2-0.6-0.5,0-0.6L156.7,35.6z M159.3,27.1c-0.1,0-0.5,0-0.6,0.2v-0.3
		c-0.4-0.5-0.7,0.4-1.3,0c0,0.5-0.5,0.1-0.6,0.1l0.3,0.3c0.3,0.1,0.6,0.3,1,0.3v-0.3h0.5c-0.1,0.1-0.2,0.2-0.2,0.5
		c-0.4,0-0.7,0.1-1.1,0.1c0,0.1,0,0.5-0.2,0.6c0.3,0.1,0.8,0,1.1,0v0.1h-0.3c0.1,0.2,0.4,0.2,0.6,0.3c0-0.1,0.1-0.3,0.1-0.5
		l-0.1-0.1l0.1-0.2c0,0.2,0.1,0.5,0.1,0.7c-0.1,0.1-0.1,0.3-0.3,0.3c0.3,0,0.6,0,0.9-0.1c-0.1-0.1-0.1-0.2-0.1-0.5h0.8
		c-0.1-0.5-0.8-0.4-0.9-0.8c0.1-0.2,0.3-0.3,0.5-0.3c0,0,0,0,0.1,0.1c0,0,0.1,0.1,0.1,0.2v-0.3h0.3c-0.1-0.1-0.1-0.2-0.1-0.5
		c0.1,0,0.5,0.3,0.5,0c-0.3,0-0.5-0.1-0.6-0.4c0,0.1-0.1,0.3-0.1,0.4c0-0.1-0.2-0.4-0.2-0.6C159.4,26.6,159.4,26.7,159.3,27.1z
		 M157.7,17.3c0.2-0.3,0.5-0.5,0.3-0.6c-0.3,0.1-0.6,0.3-1,0.6C157.3,17.1,157.5,17.1,157.7,17.3z M158.3,36.4l-0.1,0.2v0.1
		c0.1,0,0.5-0.2,0.5,0.1c-0.1-0.1-0.5-0.1-0.6-0.1c-0.3,0.1-0.5,0.3-0.6,0.5h0.5c0.4,0.1,0.7,0,1.3,0l-0.2-0.1l-0.1-0.1
		c-0.1-0.1-0.1-0.2-0.2-0.2c0.1-0.1,0.3-0.3,0.5-0.3c0,0-0.1,0-0.2,0c-0.1,0-0.2-0.1-0.3-0.1h0.3v-0.5c0.2,0,0.3-0.1,0.5-0.1
		c-0.3,0-0.6,0-0.6,0.5C158.7,36.1,158.5,36.2,158.3,36.4z M157.9,12.9l0.1,0.1h0.5c0.1-0.1,0.3-0.1,0.6-0.3c0,0.2-0.2,0.5-0.2,0.6
		c-0.1,0-0.4,0-0.8-0.1c0,0.3-0.3,0.5-0.6,0.3C157.5,13.2,157.3,12.7,157.9,12.9z M158,27.4c-0.1,0.1-0.6-0.1-0.5-0.3
		C157.7,26.9,158.2,27.1,158,27.4z M158.3,33.6H158c0,0.1-0.1,0.1-0.1,0.3c0.1,0,0.4-0.1,0.6-0.1l0.1,0.1c0,0,0.1,0,0.2,0
		c-0.1-0.1-0.1-0.3-0.3-0.6L158.3,33.6z M158.6,32.9c-0.1-0.2-0.8-0.2-0.5,0.1C158.3,33.2,158.6,33.1,158.6,32.9z M158.5,14
		c-0.2,0.2-0.5,0.5-0.3,0.5S158.6,14.2,158.5,14z M158.5,16.6c-0.3,0-0.3-0.5-0.2-0.7C158.5,15.9,158.6,16.3,158.5,16.6z
		 M158.3,25.1C158.4,25.2,158.4,25.2,158.3,25.1c0.1,0.1,0.2,0,0.3,0.2v-0.2c-0.1,0-0.1-0.1-0.3-0.1V25.1z M158.8,45.6v-0.1
		c-0.2-0.2-0.3-0.1-0.3,0.1H158.8z M158.6,14 M158.6,15.8h0.1v0.1h-0.1V15.8z M158.6,27.3h0.3v0.1h-0.3V27.3z M158.8,24.2
		 M158.8,26.1c0.1,0,0.2,0,0.2,0l0.1-0.1c-0.3,0.1-0.5-0.6,0-0.3v-0.3c0.1,0.3,0.3,0.3,0.5,0c0.1,0,0.3,0.1,0.3-0.2
		c-0.1-0.3-0.6-0.1-1-0.3c-0.1,0.1-0.1,0.2-0.1,0.5V26.1z M158.9,33.6c0.2,0.3,0.2,0.6,0.3,0.9v-0.4c0-0.2-0.1-0.5-0.1-0.6
		L158.9,33.6z M159.3,21.1c-0.1,0-0.3,0-0.1-0.3C159.3,20.8,159.3,20.8,159.3,21.1z M159.4,15.9c-0.3,0-0.3,0-0.3-0.3
		C159.5,15.5,159.6,15.6,159.4,15.9z M159.6,27.4c-0.2,0.1-0.3,0.1-0.5,0C159.3,27.3,159.4,27.3,159.6,27.4z M159.6,40.3V40h0.1
		v-0.1c0.1,0,0.1,0,0.1,0c0,0,0.1-0.1,0.2-0.1h-0.3l-0.1,0.3c0-0.1-0.2-0.3-0.2-0.5c-0.2,0.2-0.3,0.4-0.3,0.5
		C159.3,40.1,159.4,40.3,159.6,40.3z M159.6,20c0.1-0.1,0-0.3-0.2-0.3C159.3,19.8,159.4,20.1,159.6,20z M160.9,38.1
		c-0.3-0.1-0.9,0-0.3,0.3C160.7,38.4,160.7,38.2,160.9,38.1z M160.6,37.4c-0.1,0-0.3,0-0.1,0.3C160.5,37.8,160.6,37.7,160.6,37.4z
		 M161.1,11.1v0.3c-0.1,0-0.1,0-0.1,0c0,0-0.1-0.1-0.2-0.1v0.5c-0.2,0-0.3,0.1-0.3,0.3c0.1,0,0.4,0.2,0.8,0.2c0.1-0.4,0.1-0.7-0.1-1
		c0.3,0,0.5,0,0.6-0.1H161.1z M162.2,43.9h0.1c-0.3-0.1-0.1-0.4-0.1-0.6c-0.2,0-0.2,0.2-0.3,0.2C162,43.6,162.2,43.7,162.2,43.9z
		 M162.4,18.6c-0.1,0-0.1,0.4,0,0.4V18.6z M180.1,10.5h9v27.1v2.8h-2.7V41h-0.2v-2.4c-0.4,0-0.7-0.1-1.3-0.1v-0.2
		c-0.1,0-0.3,0.2-0.4,0.3v-0.3l-0.1,0.1c-0.1,0-0.1,0.1-0.1,0.2h-0.5c0,1.6-0.1,3.4-0.1,5c-0.1,0-0.3,0-0.6,0.1v-2.1
		c-0.3-0.5,0-1.1-0.3-1.6c-0.2-0.6,0-1.4,0-2.1c-0.5-0.3-0.3-0.9-0.3-1.5c-0.5-0.1-0.9-0.1-1.6-0.1c0,0.5,0.2,1.1-0.3,1.5
		c-0.1,0.8-0.1,1.7-0.1,2.6c-0.1,0-0.3,0.1-0.5,0.1v-1c-1.1,0-2.3,0.2-3.2,0.2v1.1c-0.5,0-0.8-0.1-1.3-0.1c-0.1,0.1-0.4,0.1-0.8,0.1
		c-3.4-4.8-6.9-9.7-10.3-14.7V11.6c3.8,5.2,7.5,10.5,11.3,15.8c1.6,2.1,3.1,4.3,4.7,6.4V21.1V10.5z M164.8,19c0.1,0,0.3-0.1,0.5-0.1
		v-0.1c-0.1-0.1-0.3-0.1-0.5-0.1V19z M165.4,19.8V20h0.1c0,0,0.1,0,0.2-0.1c-0.1-0.2-0.3-0.5-0.6-0.2v-0.4c-0.1,0.1-0.1,0.3-0.3,0.6
		H165.4z M166.2,20h0.1v-0.3h0.3c0-0.1-0.1-0.1-0.1-0.3c-0.1,0.1-0.3,0.1-0.5,0.1C166.2,19.6,166.2,19.6,166.2,20z M167.5,23.6
		L167.5,23.6c-0.1-0.1-0.1-0.2-0.1-0.3c-0.1,0-0.3,0.1-0.5,0.1c0.6-0.1,0.5,0.6,0.6,1l-0.1-0.1l-0.2-0.2c-0.2,0-0.2,0.2-0.3,0.2
		v-0.3h-0.1c0,0.1,0,0.2,0.1,0.2l0.1,0.1h-0.3c0,0.1,0.1,0.1,0.3,0.3c0-0.1,0.1-0.1,0.3-0.3c0.1,0.1,0.3,0.5,0.6,0.3l-0.1,0.2h0.3
		V25v-0.3c0.1-0.2,0.3-0.2,0.5-0.3c-0.1,0-0.3-0.1-0.5-0.1c0-0.2-0.1-0.5-0.1-0.6c0.3,0.1,0.5,0.3,0.6,0.3c-0.1-0.1-0.3-0.4-0.5-0.8
		c0,0.1-0.1,0.3-0.1,0.5H167.5z M167,27.9c-0.3,0.1-0.4,0.3-0.4,0.4c0.2,0.2,0.3,0.4,0.3,0.5v-0.3c0.3,0,0.5,0.1,0.5,0.5
		c0.1-0.2,0.3-0.3,0.5-0.5v0.6h0.1c0-0.3,0-0.5-0.1-0.6c0.1-0.2,0.1-0.3,0.3-0.3c0.2-0.5-0.4-0.5-0.4-0.9c-0.5-0.2-1,0.1-1,0.6H167z
		 M167.2,24.8c0.1-0.1-0.2-0.3-0.3-0.1C166.7,24.8,167,25,167.2,24.8z M168,25.5c0.1,0,0.5-0.2,0.5,0.1v-0.1l0.1-0.1h-0.1l-0.1-0.2
		c-0.3,0.2-0.6,0-0.8-0.1C167.7,25.1,167.9,25.3,168,25.5z M167.7,28.2 M169.3,28.4c-0.3-0.1-0.5,0.1-0.5,0.5h0.6v-0.5
		c0.2,0.2,0.5,0.3,0.6,0.5c0.1-0.1,0.3-0.1,0.6-0.1c0-0.1,0-0.1-0.1-0.1h0c-0.2-0.4-0.3,0.3-0.5,0c0-0.5,0.8-0.6,0.8,0
		c0.1-0.2,0.3-0.2,0.3-0.3c-0.1,0-0.3-0.1-0.5-0.1c0-0.2,0-0.3-0.1-0.3c-0.1,0.2-0.5,0.3-0.6,0.6C169.8,28,169.3,28,169.3,28.4z
		 M169.4,22.4h-0.3v0.3l-0.1-0.1c0,0.1,0.1,0.3,0.1,0.6c0,0,0,0,0.1-0.1c0,0,0.1-0.1,0.1-0.2c0.1,0.3,0.3,0.1,0.5,0.1
		c0.3,0.1,0.6,0.5,1.1,0.3c-0.2-0.3-0.3-0.3-0.5,0c-0.5-0.4,0.3-1,0.6-0.8c0-0.3-0.1-0.5-0.5-0.6c-0.1,0.1-0.3,0.3-0.6,0.5v-0.6
		c-0.2,0.2-0.3,0.3-0.5,0.3V22.4z M170.3,27.4c-0.2-0.3-0.8,0.1-0.6,0.5C169.8,27.9,170.1,27.6,170.3,27.4z M169.8,29.3h0.5h0.1
		c-0.3-0.1-0.4-0.3-0.8-0.6C169.8,29.1,169.8,29.2,169.8,29.3z M169.8,21.1v0.5c0.1,0,0.5,0.1,0.3,0.3l0.1,0.1c0,0,0.1,0,0.2,0
		c0-0.3,0-0.6-0.1-0.8l-0.1,0.1c0,0-0.1,0-0.2,0V21L169.8,21.1z M171.6,26.6c-0.1,0-0.2,0-0.2,0.1c-0.1,0-0.1,0,0,0
		c0.2,0.5,0.6,0.4,1,0.8v0.3h-0.1c0.1,0.3,0.4,0.4,0.8,0.6v-0.3c-0.1,0.1-0.6,0-0.3-0.1l0.1-0.1c0.1-0.2,0.1-0.5,0-0.5
		c0-0.1,0-0.2,0-0.2l0.1-0.1c-0.1-0.1-0.5-0.1-0.6,0v-0.8c-0.1,0.1-0.3,0.5-0.6,0.5c0-0.1,0.1-0.1,0.1-0.3c-0.1,0-0.1,0-0.2,0
		l-0.1-0.1c-0.2,0-0.3,0.1-0.3,0.3H171.6z M172.1,27.7c0-0.3-0.5-0.6-0.7-0.4C171.4,27.6,171.9,27.7,172.1,27.7z M173.3,26.1H173
		c0,0.1,0.1,0.1,0.2,0.1h0.1h0.1c0,0,0,0,0,0.1c0.1,0,0.1,0.1,0.1,0.2c0-0.4,0-0.7-0.1-0.8L173.3,26.1z M173.3,29.2
		c0.1,0,0-0.3-0.2-0.3C173,29.1,173.2,29.3,173.3,29.2z M173.8,28.1c-0.1-0.1-0.4-0.3-0.6-0.3l0.2,0.3c0.1,0.1,0.4,0,0.4,0.3
		c0,0.2,0.2,0.2,0.2,0.3v-0.6c0.3,0,0.4,0.2,0.4,0.6c0.2-0.3,0.2-0.4,0.3-0.8c-0.1,0-0.3-0.2-0.5-0.2l0.1,0.3
		c-0.3-0.1-0.6-0.3-0.8-0.5L173.8,28.1z M175.3,28.4c0.1-0.1-0.2-0.3-0.3-0.3C174.8,28.2,175.1,28.6,175.3,28.4z M175.7,29.2
		c-0.2-0.2-0.4-0.2-0.6,0C175.1,29.5,175.7,29.3,175.7,29.2z M177.2,33.9h0.3v0.3c0.2,0.1,0.3,0.1,0.3-0.1v-0.2L178,34
		c0.1,0.1,0.1,0.2,0.1,0.2v-0.6c-0.3,0.1-0.6,0-1.1-0.1C177.2,33.5,177.2,33.7,177.2,33.9z M181.7,12.6c0.1,0.1,0.3,0.1,0.6,0.3
		c-0.1,0-0.6,0-0.8,0.1h0.5c-0.3,0.6-0.9,0.3-1.5,0.3c0.3,0.2,0.6,0.2,1,0.2c0.1,0,0.8-0.4,0.6,0.1h-0.3v0.1h0.3
		c-0.1,0.1-0.1,0.3-0.3,0.5c-0.1-0.1-0.1-0.5-0.3-0.6c-0.1,0.1-0.3,0.5,0,0.6c0.3,0.1,0.7,0,1.3,0.1h0.1c0-0.3-0.1-0.5-0.1-0.6
		c0,0.2,0,0.4-0.1,0.5h-0.5c0-0.5,0.3-0.6,0.3-1.1c0.1,0,0.3,0.1,0.5,0.3h-0.5c0.3,0,0.5,0,0.6-0.3c-0.3,0.1-0.6,0-0.6-0.1
		c0.1,0,0.4-0.1,0.8-0.3c0.1,0.2,0.3,0.2,0.4,0.3c-0.1-0.1-0.4-0.3-0.6-0.3c-0.1,0.1-0.3,0.2-0.6,0.2c-0.1-0.2-0.3-0.3-0.4-0.3
		c-0.2-0.1-0.3-0.1-0.3-0.3V12.6z M181.1,25.8c0.1,0,0.3-0.1,0.5-0.1c-0.3-0.1-0.6-0.1-1-0.3C180.7,25.4,180.9,25.6,181.1,25.8z
		 M181.9,29.2v-0.3c-0.1,0-0.4,0.2-0.6,0.2c-0.1-0.3-0.3-0.5-0.6-0.7c0.3,0.5,0.6,1,1.3,1.1c0,0,0,0,0.1,0c0.1,0,0.1,0.1,0.1,0.1
		c0.1-0.5,0.1-0.9,0.1-1.5C182.1,28.6,181.9,28.9,181.9,29.2z M180.9,18.2c0.3-0.1,0.6-0.2,0.8,0.1c-0.3,0-0.6,0.2-0.9-0.1v1.4h0.3
		c0-0.3,0.1-0.6-0.3-0.8h0.6c-0.2-0.1-0.3-0.3-0.3-0.5c0.3,0.2,0.6,0.2,1,0.3c0,0,0,0.1,0,0.2c0.1,0.1,0.1,0.2,0.1,0.3
		c-0.1-0.2-0.1-0.3-0.3-0.5c-0.1,0.1-0.2,0.1-0.4,0.1c0,0,0.1,0,0.2,0.1c0.1,0,0.1,0,0.1,0c0,0.1,0,0.3,0,0.3l0.1,0.1h-0.3v-0.3
		c-0.1,0-0.3,0.1-0.5,0.3c0.3,0,0.6,0.1,0.8,0.1c0,0.2-0.1,0.3-0.1,0.5l-0.1-0.3l-0.3,0.1v0.3c-0.1,0-0.2-0.1-0.4-0.3v1.1
		c0.3,0.1,0.4,0.8,0.8,0.9c0.1,0.2,0.4,0,0.8-0.1c-0.1-0.1-0.2-0.1-0.5-0.1v-0.3v0.1c0,0-0.1,0.1-0.1,0.1c-0.1,0-0.1-0.2-0.3-0.3
		c0.1,0,0.1,0,0.2,0l0.1-0.1h-0.1c-0.1-0.1-0.1-0.5-0.3-0.6c0.1,0,0.2,0,0.2,0.1c0.1,0,0.1,0,0.1,0c0.5-0.3,0.3-1,0.6-1.4
		c0-0.3,0.3-0.6,0.5-1h-0.2c0,0.3-0.3,0.5-0.4,0.3c0-0.1,0.1-0.3,0.3-0.5c-0.3,0.3-0.8,0.3-0.8-0.3l0.3,0.2c0.1,0,0.2,0,0.2-0.1
		l0.1-0.1h-0.6c0.1,0.6-0.3,0-0.5,0C181.2,17.9,181.2,18.1,180.9,18.2z M181.1,26.9v-0.1c0.1,0,0.5,0,0.6,0.1
		c-0.1,0.1-0.3,0.1-0.5,0.3l0.2,0.2l0.1,0.1c0.1,0,0.8,0,0.5,0.5h0.1c0-0.3,0.1-0.6,0.1-0.8c0-0.2-0.1-0.2-0.1-0.3v0.1v0.5
		c-0.1,0-0.3-0.1-0.5-0.3c0.1,0,0.1-0.2,0.3-0.3c-0.5-0.3-0.9-0.3-1.3-0.3L181.1,26.9z M181.7,26.3c0,0.5,0.5,0.5,0.6,0.6l0.1-0.1
		c0.1-0.1,0.3-0.1,0.5-0.1c0.1,0,0.1,0,0.1,0.1v0.1c-0.1,0-0.4,0-0.6,0.1h0.6v0.3c-0.1,0-0.2,0-0.3,0l-0.1-0.1v0.3h0.1v0.1l0.5,0.2
		c-0.6-0.5,0.3-0.3,0.4-0.8c0.2,0.2,0.2,0.3,0.3,0.5v-0.3c0.3-0.3,0.6,0,1,0.1l-0.2,0.1h0.2v-0.3c0.2,0.2,0.4,0.3,0.6,0.3
		c-0.2-0.2-0.4-0.3-0.5-0.3c0.1-0.5,0.5-0.2,0.6,0c0-0.2-0.1-0.2-0.1-0.3c-0.3,0-0.5,0-0.8-0.1v0.5c-0.1-0.5-0.9-0.2-0.8-0.6H184
		c0,0.1,0,0.2-0.2,0.3l-0.1-0.1c0,0,0-0.1,0-0.2h-0.1c0,0,0,0,0,0.1c-0.3-0.3-0.6-0.3-1-0.3C182.2,26.8,182.1,26.6,181.7,26.3z
		 M182.5,35.3c0.2,0,0.4,0,0.5,0.1c-0.2-0.2-0.3-0.4-0.3-0.6h-0.2v-0.1c-0.4,0-0.8,0.4-0.8,0.8C182.1,35.4,183.2,36.1,182.5,35.3z
		 M182.7,29.3c-0.2,0-0.2,0.1-0.3,0.3c0.3,0,0.3,0.3,0.6,0.3c-0.1-0.1-0.3-0.6,0-0.8l-0.3-0.1c0.3-0.2,0.6,0.1,0.6,0.4h0.1
		c-0.1-0.4-0.4-0.6-0.8-0.8c-0.2,0.1-0.2,0.3-0.3,0.6H182.7z M182.7,28.1l-0.2,0.1c-0.1,0.3,0.5,0.1,0.5,0
		C182.9,28.2,182.9,28.2,182.7,28.1L182.7,28.1z M183.6,28.1c-0.1,0-0.3-0.1-0.5-0.1c0.3,0.1,0.5,0.3,0.8,0.3l-0.2-0.3L184,28
		c0.1,0,0.1,0,0.3,0c-0.1-0.1-0.4-0.3-0.8-0.3L183.6,28.1z M183.3,14.2h0.4c0.1-0.3,0.4-0.5,0.7-0.6c-0.5-0.1-0.3,0.4-0.7,0.3
		C183.4,13.9,183.5,13.9,183.3,14.2z M183.6,11.9c0.1,0.1,0.3,0,0.5,0c0,0.1,0.3,0.3,0.3,0c-0.2-0.1-0.7-0.3-0.8-0.1V11.9z
		 M184.5,32.1c-0.2,0.2-0.5,0.3-0.7,0.5c0.2,0.3,0.5,0.1,0.7,0h0.1c0,0,0,0.1,0.2,0.1c-0.1-0.3-0.3-0.4-0.1-0.8l-0.1-0.1V32.1z
		 M185.4,16.8L185.4,16.8c-0.1-0.1-0.1-0.2-0.1-0.3c-0.1,0.2-0.6,0-0.6,0.3C184.9,16.6,185.2,16.6,185.4,16.8z M186.7,35.1
		c0,0-0.1,0-0.2,0.1l-0.1,0.1c0.1,0.1,0,0.3,0,0.4V36v0.1h-0.3c0.3,0,0.5,0.1,0.5,0.5c0.1-0.2,0.3-0.2,0.3-0.3
		c0-0.3-0.3-0.5-0.3-0.6l0.1-0.1c0.1,0.3,0.3,0.1,0.5,0c-0.1,0-0.1,0-0.1,0c0,0-0.1-0.1-0.2-0.1c0.5,0,0.8-0.2,0.5-0.6
		c-0.3,0.3-0.6,0-0.9-0.2C186.6,34.7,186.6,35,186.7,35.1z M186.4,27.6h0.1c0.1,0,0.1,0,0.1,0v-0.1c0-0.2-0.1-0.3-0.3-0.3V27.6z
		 M187.5,39.3c-0.1-0.1-0.4,0.1-0.3,0.3C187.4,39.8,187.7,39.5,187.5,39.3z M187.9,27.4c-0.3,0-0.5,0.3-0.3,0.6
		c0.2,0.3,0.3,0.8,0.6,1.1v0.1c0-0.3,0.2-0.4,0.3-0.8v-0.3h-0.3c0.3-0.3,0.3-0.6,0.3-0.9c-0.1,0-0.3,0.1-0.5,0.1
		c0.1-0.1,0.3-0.3,0.3-0.5c-0.5,0-0.6-0.5-1.1-0.5C187.4,26.8,187.7,26.9,187.9,27.4z M188.1,33.1c0.2,0,0.2-0.1,0.3-0.3l-0.1-0.1
		c-0.2,0.1-0.5,0.3-0.8,0.1C187.7,33.1,188,32.9,188.1,33.1z M188.1,24.8c0.2-0.1,0.3-0.1,0.3-0.5c-0.1,0-0.3,0.1-0.5,0.3
		C188,24.8,188.1,24.8,188.1,24.8z"/>
	<path class="st0" d="M208.5,10.1c1.9,0.5,3.9,1.3,5.5,2.4c-1.1,2.6-2.4,5.1-3.6,7.8c-1.1-1.1-2.6-2-4.2-2.4
		c-1.5-0.3-2.9-0.3-4.2,0.4c-1.1,0.6-1.8,1.9-1.4,3.1c0.1,1.3,1.4,2.1,2.6,2.6c2.2,0.9,4.7,1.4,6.8,2.6c2.1,1.1,4,2.7,4.8,5
		c0.5,1.4,0.8,3.1,0.7,4.7c0,1.8-0.2,3.7-0.8,5.5c-0.3-0.9,0-1.9-0.1-2.7c-1-0.7-0.4-2-0.6-2.9c-0.1,0.8-0.1,1.4-0.1,2.3
		c-0.2,0.3-0.3,0.4-0.5,0.8c0,1.8-0.1,3.6-0.1,5.5c0,0.1-0.2,0.3-0.3,0.5c0.1-0.6-0.3-1.3-0.3-2v-1.4c-0.2-0.3-0.3-0.5-0.5-0.6
		c-0.5,0.1-0.7,0.3-1.3,0.5v2.6c-0.2,0.1-0.3,0.3-0.5,0.6h-0.3v-2.3c0-0.3-0.3-0.4-0.4-0.8h-1v0.6l-0.5-0.5
		c-0.4,0.2-1.1,0.5-1.4,0.8v0.4c-0.2-0.2-0.4-0.3-0.6-0.3c-0.1,0.3-0.1,0.4-0.1,0.8c-0.2,0-0.3,0.1-0.3,0.3c0-0.5,0.1-1.1-0.3-1.5
		c0,0.2-0.2,0.3-0.2,0.5h-1.1c0,0.3,0.1,0.8,0,1.1c-0.2-0.8-0.2-1.6-0.2-2.3c-0.1-0.1-0.3-0.1-0.8-0.1v-0.3v0.3h-1.3
		c0,1,0.2,2.1-0.3,3.1c-0.1-0.1-0.1-0.5-0.3-0.6c0-0.4,0-0.7-0.1-0.8c-0.3-0.2-0.5,0.1-0.5,0.4c0.1-0.9-0.5-1.6-0.6-2.4
		c0,0.3-0.1,0.6-0.3,1.1c-0.1,0.8-0.1,1.6-0.1,2.4h-0.3c0-1.1,0.1-2.4-0.5-3.5c-0.2,0.3-0.3,0.6-0.5,0.9h-0.6l-0.8,0.8
		c0.3,0.5-0.2,1.3,0,2c0,0.1,0.1,0.6-0.2,0.4c0,0-0.1-0.1-0.1-0.2c0,0,0,0,0-0.1h-0.1c0,0,0,0,0,0.1c-0.1-0.1-0.3-0.3-0.6-0.5
		c0-0.6,0.1-1.3,0-1.9c0-0.5-0.3-0.6-0.5-0.9c-0.3,0.6-0.3,1.1-0.3,1.7l-0.1-0.1c-0.1-0.8-0.1-1.4-0.1-2.2c-0.1-0.2-0.4-0.2-0.8-0.3
		c-0.2,0-0.6,0.1-1,0.3v2.4c0,0.5,0.1,1.3-0.3,1.6c0-0.6,0-1.7-0.6-2.3c-0.6,0.3-0.8,1.1-0.6,1.8c-0.3,0-0.7,0.2-0.8,0.3l0.5-1.1
		l3.4-6.8c1.6,1.6,3.7,3.1,6,3.7c1.6,0.3,3.5,0.3,4.9-0.6c1.4-1,1.9-2.9,1.3-4.4c-0.6-1.1-1.9-1.9-3.1-2.4c-2.4-0.8-4.8-1.3-6.9-2.4
		c-1.3-0.8-2.4-1.5-3.2-2.9c-1.3-2-1.5-4.3-1.5-6.6c0.2-2.8,0.8-5.6,2.6-7.9c1.5-1.9,3.7-3.4,6.1-4C202.8,9,205.6,9.4,208.5,10.1z
		 M192.4,20c0,0.3-0.3,0.3-0.4,0.3V21c0-0.2,0.1-0.5,0.3-0.5h0.5l-0.1,0.3h0.4v0.3c0-0.1-0.1-0.1-0.3-0.1c0,0.3-0.5,0.3-0.6,0.4
		v-0.3h-0.1c-0.2,0.3,0,0.8-0.2,0.9h0.3c-0.1,0.2-0.1,0.5-0.3,0.5h0.5c-0.1,0.3-0.6,0.4-0.3,1v-0.5c0.3,0,0.4,0,0.8-0.1
		c0,0.3,0.3,0.6,0,0.6c0,0.3,0,0.6-0.1,1.1h0.1v0.1l0.1,0.1v-0.9c0-0.2,0.1-0.4,0.1-0.5c0.2,0.3,0.3,0.1,0.5,0.3
		c-0.1-0.1-0.7-0.4-0.1-0.6c0.3-0.1,0.6-0.3,0.8-0.6c0.1,0.1,0.1,0.2,0.1,0.5c-0.2,0-0.3,0-0.4,0.1c0.1,0.3,0.4,0.2,0.8,0.3
		c-0.1-0.1-0.3-0.1-0.5-0.3c0.3,0,0.8-0.6,1,0c0.1,0,0.1,0,0.2,0l0.1-0.1c0,0.3,0,0.4-0.1,0.8c0.1,0,0.3-0.1,0.5-0.1
		c-0.2,0-0.3,0-0.3-0.1c0.2-0.1,0.3-0.3,0.5-0.5c-0.1,0-0.3-0.1-0.5-0.1c0.2-0.2,0.5-0.3,0.6-0.5l-0.1-0.1c0.1,0,0.5,0,0.6,0.1
		c0.1-0.3-0.1-0.4-0.3-0.8c0.1,0,0.4-0.2,0.6-0.2c-0.1,0-0.2,0-0.2,0.2l-0.1,0.1c0.6,0,0.1,0.4,0.1,0.8c-0.2,0-0.3,0-0.4,0.1
		c-0.2,0.5-0.2,1.1-0.6,1.3v0.1c0.1-0.1,0.2-0.1,0.4-0.1l0.1,0.1c0.1,0,0.1,0,0.2,0c0-0.3-0.3-0.6,0-0.8v-0.2c0.1,0,0.1,0.2,0.3,0.2
		c0.3-0.2,0.5,0,0.6,0.1c0,0-0.1,0.2-0.3,0.5c-0.1-0.3-0.1-0.5-0.5-0.6c0,0.3,0,0.5,0.1,0.6h0.3c0.1-0.2,0.5-0.2,0.6-0.2
		c-0.1-0.1-0.3-0.3-0.3-0.4c0.2-0.2,0.4-0.2,0.6,0c-0.1-0.2-0.3-0.3-0.3-0.7c0.1,0,0.3,0,0.5,0.2l-0.5-0.5c0.5-0.6-0.8,0-0.6-0.6
		c0.3,0.3,0.6,0,0.8-0.1v-0.5c-0.1,0.3-0.6,0-0.8,0l-0.1,0.1c0,0,0,0.1,0,0.2c-0.2-0.6-0.8-0.4-1.3-0.4l-0.1,0.1c0,0-0.1,0-0.2,0
		c0.3,0.1,0.5,0.5,0.6,0.3V21c0.1,0,0.4,0.1,0.8,0.3h-0.6c0,0.3,0.2,0.6-0.1,0.8c0-0.1-0.1-0.2-0.3-0.4l0.1,0.4l-0.1-0.1
		c0.3,0.1-0.4,0.6,0.1,0.5l-0.1,0.1c0,0,0,0.1,0,0.2c-0.2-0.2-0.4-0.3-0.5-0.3c0.1,0.1,0.1,0.3,0.3,0.5c-0.4,0-0.9-0.1-1.4-0.5
		c-0.2,0.2-0.5,0.3-1,0.3v0.3c0-0.3-0.1-0.5-0.1-0.6c0.3,0.1,0.6,0.5,1,0v0c0,0,0-0.1,0.1-0.1c0.2-0.2,0.3-0.4,0.3-0.5
		c-0.1-0.1-0.4-0.1-0.6-0.3l0.1-0.1l0.2-0.2c-0.1,0-0.3-0.5-0.5-0.1c-0.1,0-0.3-0.2-0.5-0.3c0.2-0.2,0.5-0.3,0.6-0.3
		c0.2-0.3,0.2-0.5,0.3-0.6v-0.1c0-0.1,0-0.2,0.1-0.2c-0.1,0-0.5,0.1-0.6,0.1c-0.1,0-0.6-0.3-0.6,0C192.7,19.7,192.4,19.6,192.4,20z
		 M192.1,25.3 M192.4,21.6v0.1c0.2,0,0.3-0.1,0.5-0.1c-0.1,0.3,0,0.4,0.3,0.4c0-0.2-0.1-0.3-0.2-0.3h0.5c-0.2,0.2-0.3,0.3-0.3,0.5
		c-0.3,0-0.6,0-0.5-0.3C192.4,21.9,192.4,21.8,192.4,21.6z M193.6,17.7c0,0-0.1,0.1-0.1,0.2c-0.2,0-0.3,0-0.5,0.1
		c0.5,0.1,0.9,0,1.5,0c0-0.1-0.3-0.1-0.3-0.3l-0.1,0.3C193.8,17.9,193.8,17.7,193.6,17.7L193.6,17.7z M193.4,21.1
		c0.1,0.1,0.1,0.3,0,0.5C193,21.4,193,21.3,193.4,21.1z M193.8,39.8c0.1-0.1,0.1-0.2,0-0.3C193.5,39.7,193.5,39.7,193.8,39.8z
		 M194,39.1c0.2-0.4-0.5-0.3-0.3,0H194z M194.3,16.8c-0.1,0.1-0.4,0.3-0.6,0.5l1.1,0.4h0.1c0,0,0.1,0,0.1-0.1h-0.2l0.1-0.1
		c0,0,0.1-0.1,0.1-0.2l-0.3-0.3v0.5c-0.1-0.1-0.3-0.1-0.5-0.3c0.1,0,0.5,0,0.3-0.3c-0.2,0-0.2-0.1-0.3-0.1L194.3,16.8z M194,21.7
		c0.1,0,0.1,0.1,0.1,0.2c-0.3,0.1-0.5,0-0.3-0.3L194,21.7z M194.6,13.9v0.3c-0.2,0-0.4,0-0.5,0.1c0,0.1,0.1,0.1,0.3,0.3H194
		c0,0.2-0.1,0.3-0.1,0.5c0,0,0,0,0.1,0c0.1,0,0.1-0.1,0.2-0.1v-0.1l0.1,0.1c0.2-0.3,0.3-1,0.8-0.8c-0.1,0-0.1-0.2-0.3-0.3v-0.1
		L194.6,13.9z M198.4,15.6c0.1,0.1,0.3,0.3,0.5,0.1V16h-0.1v0.1h-0.5c-0.2,0.2-0.3,0.6-0.5,1.1h0.5c-0.3,0-0.5,0.1-0.8,0.1v0.1
		c-0.3,0-0.4,0.1-0.4,0.3h-0.3l-0.1-0.2v-0.1l-0.1-0.1h-0.3c0-0.1,0.1-0.3,0.3-0.5c-0.2-0.1-0.3-0.5-0.5-0.6l0.1,0.3
		c-0.3-0.3-0.6,0.1-0.9,0.1h0.4l-0.1,0.3c0.3,0.2,0.6,0.6,1,0.6c0.1,0.3,0.1,0.5,0,0.6c0.6-0.3,1.3,0,1.9-0.1c0-0.3,0.1,0,0.3,0.1
		c0.1-0.1,0.3-0.1,0.6-0.1c0-0.3,0.2-0.6,0.2-0.9c0.3-0.2,0.4-0.1,0.4,0.1c-0.2,0.2-0.3,0.3-0.3,0.5h0.1h-0.3c0,0.1-0.2,0.3-0.2,0.4
		c0.5-0.1,0.8,0,1.3,0.2c0.2-0.2,0.6-0.3,0.5-0.6h0.1l-0.1-0.1c-0.1,0-0.1-0.1-0.1-0.2h0.5c-0.3,0-0.6-0.3-1,0v0.3
		c-0.4,0.1-0.2-0.5-0.4-0.6c0-0.3,0-1-0.3-0.8v0.5c0-0.2-0.1-0.3-0.3-0.3v-0.3c-0.2,0-0.3,0.1-0.5,0.1v-0.1c0.3-0.1,0.4-0.1,0.8-0.1
		l-0.1,0.3c0.1,0,0.3-0.1,0.5-0.1l-0.2-0.5c0.2,0.2,0.3,0.2,0.5,0.3v-0.5c-0.1,0.1-0.3,0-0.3-0.3c-0.1,0-0.3,0.1-0.5,0.3
		c-0.1-0.1-0.1-0.3-0.3-0.5v0.1c0,0,0,0.1-0.1,0.1C198.8,15.5,198.5,15.5,198.4,15.6z M195.3,21.9 M195.9,19.8l0.1,0.1v0.3
		c-0.1,0.1-0.1,0.1-0.1,0.2v0.1c0.3,0.1,0.8-0.2,1.1,0.1l0.1-0.1h-0.6c0.1-0.1,0.3-0.1,0.5-0.3c-0.4,0-0.7,0-0.8-0.2L195.9,19.8
		L195.9,19.8z M197.1,40.6c-0.3-0.1-0.8,0.1-0.6,0.5C196.6,41.1,196.9,40.8,197.1,40.6z M196.9,17.4c0-0.1,0-0.3-0.2-0.1
		C196.6,17.4,196.6,17.6,196.9,17.4z M197.4,23.2c-0.3,0-0.4,0-0.3-0.3C197.4,22.9,197.4,22.9,197.4,23.2z M197.7,41
		c-0.3,0-0.5,0.1-0.6,0.3C197.2,41.5,197.7,41.5,197.7,41z M197.6,11.8l0.3-0.3h0.5c-0.1-0.1-0.1-0.2-0.1-0.3
		C197.8,11.1,197.6,11.3,197.6,11.8z M197.6,15.1c0.1-0.1,0.4-0.3,0.8-0.5h-0.8V15.1z M197.9,18.2c-0.3-0.1-0.3-0.1,0-0.3
		C198,18,198,18.1,197.9,18.2z M198,25.8c-0.3-0.1-0.4,0.1-0.3,0.5C197.9,26.3,198,26,198,25.8z M198.2,11.6v0.1h0.1l-0.3,0.1
		c0,0.3,0,0.5,0.2,0.6h0.1c0-0.1,0.1-0.3,0.1-0.5c0.1-0.1-0.5-0.4,0-0.3v-0.1H198.2z M199.1,22.1c-0.4-0.3-0.8,0.8-0.3,0.8
		c-0.1,0-0.5,0-0.6,0.1c0.1,0.1,0.3,0.5,0.6,0.5c0,0.1-0.1,0.5-0.5,0.6c0-0.1-0.1-0.5-0.1-0.6l-0.2,0.1c0.2,0.1,0.2,0.4,0.3,0.8
		c0,0,0,0,0.1,0c0,0,0.1,0,0.2,0.1V25v-0.3c0.1,0,0.1,0,0.2-0.1l0.1-0.1c-0.1,0-0.6,0.2-0.6-0.3h0.3c0-0.3,0.1-0.6,0.3-0.8
		c0.3-0.3,0.6,0,1,0v0.3c0.1-0.1,0.6-0.3,0.8-0.6h-0.5v-0.1h0.1v-0.2h-0.1c0-0.4-0.7,0.1-0.6-0.4h-0.1c-0.1-0.3,0-0.3,0.3-0.2
		c-0.1-0.3-0.4-0.4-0.6-0.4V22.1z M198.4,22.6c0.3,0,0.1-0.5,0-0.6c-0.3-0.1-0.3,0.3-0.1,0.3C198.2,22.4,198.4,22.4,198.4,22.6z
		 M199.3,12.1v-0.4c-0.1,0.1-0.3,0.1-0.5,0.1C199,11.9,199.1,11.9,199.3,12.1z M199,14.6C199,14.6,199,14.6,199,14.6
		c0.1-0.1,0.1-0.2,0.1-0.3c0-0.1,0.2-1-0.3-0.8C198.8,14,198.8,14.3,199,14.6z M199.3,23.6v0.3H199c0.1,0,0.1,0.2,0.3,0.2
		c0.1-0.2,0.6-0.1,0.4-0.5H199.3z M199.1,22.7 M199.6,11.3v-0.5c-0.1,0-0.1,0.2-0.3,0.2C199.1,11.3,199.5,11.4,199.6,11.3z
		 M199.8,26.8c0-0.3,0-0.3-0.1-0.3C199.5,26.8,199.6,26.8,199.8,26.8z M200,15c0.3,0,0.3,0.1,0.3,0.5h0.8c-0.1,0.1-0.1,0.5-0.3,0.5
		c0,0.1,0.1,0.2,0.1,0.3c-0.1,0-0.1,0.1-0.3,0.3c0.3-0.2,0.4-0.5,0.8-0.5c0.2-0.2,0.3-0.3,0.3-0.5c-0.3,0-0.6-0.6-1.1-0.3V15H200z
		 M200.6,24.1c-0.2,0-0.3-0.2-0.5-0.2c0,0.2-0.1,0.3-0.1,0.5h0.3l-0.1-0.1c-0.1,0-0.1-0.1-0.1-0.2c0.1,0,0.5,0.1,0.5,0.4
		c0.3-0.3,0-0.6,0-0.9V24.1z M200.6,25.8c0,0.1,0.1,0.3,0.3,0.5l-0.1,0.1c0,0.1,0.1,0.2,0.3,0.2v0.3v-0.3l0.2,0.1
		c0-0.3-0.2-0.6-0.2-0.8c0.2,0,0.3-0.2,0.5-0.2H200.6z M201.3,17.1h-0.3c0,0.1,0.1,0.2,0.1,0.3c0.2,0,0.4,0,0.5-0.1
		c0.1-0.2-0.1-0.5-0.1-0.6v0.3c-0.2-0.2-0.3-0.3-0.5-0.3C201.1,16.8,201.3,16.9,201.3,17.1z M203.7,17.3c-0.2-0.2-0.2-0.5-0.3-0.6
		v-0.3c-0.1,0.1-0.2,0.1-0.5,0.1C203.1,16.8,203.4,16.9,203.7,17.3z M203.4,11.1c-0.1-0.1-0.5,0.1-0.3,0.3
		C203.2,11.6,203.5,11.5,203.4,11.1z M204.8,15.8c-0.3,0-0.4,0.2-0.6,0.2l0.3,0.1c-0.1,0-0.1,0-0.1,0.1v0.1
		c-0.2,0.2-0.5,0.3-0.5,0.6c0.7-0.1,1.4,0.3,2.1-0.1v0.1c0.1,0.1,0.2,0.2,0.3,0.3v-0.6h0.1l-0.1,0.3h0.4l-0.1,0.3
		c0.5,0.1,0.9,0.3,1.5,0.3c0-0.2,0.1-0.3,0.1-0.4c-0.3,0.1-0.5,0-0.5-0.2h0.3c0.1-0.1,0.1-0.4,0.1-0.6h-0.1c0,0.1,0,0.2-0.1,0.2
		l-0.1,0.1c-0.1,0.1-0.4-0.3,0-0.3l-0.1-0.1c0,0,0-0.1,0-0.3h0.3c-0.2-0.2-0.5-0.1-0.5-0.5v-0.1V15v0.1c-0.3,0-1,0.4-1.1-0.1h0.3
		v-0.1c-0.3,0-0.6,0.1-1.1,0.1c0-0.1,0-0.2-0.1-0.2l-0.1-0.1l-0.1-0.3c-0.1,0.1-0.5,1-0.8,0.5C204.5,15.2,204.3,15.6,204.8,15.8z
		 M205.1,15.8c0.6,0,0,0.6,0.1,1.1c-0.1-0.4-0.3-0.4-0.5,0v-0.3v-0.5C204.9,16.1,205,15.9,205.1,15.8L205.1,15.8z M207.4,16.4v0.8
		c-0.2,0-0.3-0.1-0.3-0.3c-0.3-0.1-0.5-0.3-0.5-0.5C206.9,16.4,207.1,16.6,207.4,16.4z M207.6,34.1 M209.3,16.6h-0.2l-0.1-0.3
		c-0.1,0.1-0.1,0.2-0.1,0.5c-0.1,0-0.5,0.1-0.5,0.3h0.6c0.1-0.1,0.5-0.1,0.5-0.4c0.3-0.3-0.1-0.5-0.3-0.5
		C209.1,16.3,209.3,16.4,209.3,16.6z M208.5,16.8c0.5-0.1,0.2-0.6,0-1c0,0.2-0.3,0.5,0.2,0.6L208.5,16.8z M208.5,37.3 M209,17.4
		c0,0.1,0.1,0.1,0.1,0.3v0.5c0-0.2,0-0.3,0.2-0.5l0.1,0.2c0.3-0.2,0.5-0.3,0.5-0.8c0.3,0.2,0.8,0.3,1.1,0.2v-0.1c0,0,0-0.1,0.1-0.1
		l-0.1,0.2c-0.3-0.2-0.5-0.1-0.5-0.5l-0.2,0.2l-0.1,0.1H210l0.1-0.3c-0.2,0-0.3-0.1-0.3-0.3c-0.1,0.3-0.3,0.5-0.3,0.6
		C209.6,17.6,209.3,17.4,209,17.4z M209.3,28.6 M210.1,18.2c-0.1,0.1-0.3,0.1-0.6,0.1c0.1,0.1,0.1,0.2,0.2,0.2c0,0,0,0,0.1,0
		l0.2,0.3c0.1-0.1,0.3-0.3,0.4-0.6H210.1z M210.6,15.1l-0.2-0.3l-0.3-0.2h0.5c-0.3-0.1-0.3-0.3-0.2-0.4c-0.3,0-0.3,0.6-0.3,0.9
		H210.6z M210.3,35.8h0.6v1.1v0.3c-0.3,0-0.5,0-0.6,0.1h0.3c0.3,0,0.6,0,0.6,0.5c0-0.1,0-0.5-0.1-0.6l0.4,0.3h0.3
		c-0.1,0.2-0.3,0.3-0.3,0.5c0.2,0,0.2,0.1,0.3,0.1v-0.1h-0.1v-0.3c0.1-0.1,0.2-0.2,0.4-0.2c0.2,0,0.3-0.1,0.3-0.3h-0.3v-0.1
		c-0.1,0-0.4,0.1-0.6,0.3c0.2-0.1,0.3-0.5,0.3-0.6l-0.1,0.1h-0.2l-0.1,0.1c0,0,0,0.1,0,0.2c-0.1-0.1-0.1-0.3-0.3-0.3
		c0.1-0.1,0.1-0.3,0.3-0.3c-0.1-0.1-0.1-0.3,0-0.5h-0.5c0.1,0,0.3-0.1,0.5-0.3H210.3z M210.4,40c0.3,0,0.5,0,0.7-0.1
		c-0.4,0-0.7-0.1-0.8-0.3C210.3,39.7,210.4,39.8,210.4,40z M210.8,38.2c0-0.2-0.1-0.3-0.3-0.1C210.4,38.2,210.5,38.2,210.8,38.2z
		 M210.9,38.4c-0.1-0.2-0.3,0.3-0.1,0.4C210.9,38.8,210.9,38.6,210.9,38.4z M210.9,35.3 M211.8,36c0-0.3,0-0.3-0.2-0.3
		C211.4,36,211.6,36,211.8,36z M212.4,30.6c0-0.3,0.3-0.5,0.4-0.6h-0.4V30.6z M212.4,35.3h0.3c0-0.3-0.1-0.4-0.3-0.2V35.3z"/>
	<path class="st0" d="M215.8,10.5h9v34.8l-0.1,0.1c0,0-0.1,0.1-0.2,0.1v-0.5h-1.8v0.5c-0.3,0-0.9-0.3-0.8,0.3h-1.1
		c0,0.1-0.1,0.3-0.3,0.5v-0.8c-0.4-0.2-1.1-0.5-1.7,0v-0.3c0,0.5-0.5,0.1-0.6,0.3c-0.2,0.9,0,1.9-0.2,2.9c-0.1,0-0.4,0-0.8,0.2
		c0-0.3,0-0.5-0.1-0.8h-1v-2.7c-0.1-0.5-0.1-1.1-0.1-1.6V10.5z M216.9,23.6c0.3-0.1,0-0.6-0.2-0.4C216.6,23.3,216.7,23.6,216.9,23.6
		z M218.1,31.2c-0.2-0.2-0.5,0-0.7,0C217.4,31.6,218.1,31.6,218.1,31.2z M219,21.7v0.2c0,0.1-0.1,0.1-0.1,0.3
		c0.1-0.1,0.3-0.3,0.6-0.3c0.1,0-0.1,0.3-0.1,0.4c-0.3,0.2-0.6,0.7-1,0.3c0-0.1,0.1-0.3,0.1-0.5c0,0.1-0.1,0.1-0.3,0.3v-0.2
		l-0.1,0.1c-0.1,0-0.1,0.1-0.1,0.2h-0.2c0,0-0.1,0.2-0.3,0.5c0.1-0.2,0.5-0.2,0.6-0.3V23h0.1c-0.1,0.6,0.3,0.2,0.5,0
		c0.1-0.4,0.4-0.6,0.8-0.8v-0.5H219z M219,14.7c0.5-0.1,0.5,0.3,0.5,0.6c0.1-0.1,0.3-0.1,0.3-0.3c0.5,0.3,0.9,0,1.3-0.3
		c0.4,0.1-0.1,0.4-0.1,0.6c0.3-0.1,0.5-0.1,0.8-0.1c0.1,0,0.3-0.1,0.4-0.1c-0.1-0.1-0.1-0.3-0.1-0.5h-0.1l0.1,0.3h-0.8l0.1-0.3
		c-0.5,0-0.6,0.5-1.1,0.3c0.1,0,0.1-0.1,0.3-0.3c-0.2,0-0.4,0-0.5,0.1h0.1c0,0.2-0.1,0.3-0.3,0.3v-0.3c-0.2,0-0.3,0.1-0.5,0.1
		c0-0.2,0-0.3-0.1-0.4l-0.1,0.1L219,14.7z M219.6,13.2c-0.1-0.2-0.5,0.3-0.1,0.4C219.6,13.6,219.8,13.3,219.6,13.2z M220,15.9
		c0.1-0.3,0-0.3-0.2-0.3C219.6,15.9,219.8,15.9,220,15.9z M221.4,16.8c0.3,0.2,0.1,0.5,0,0.7l-0.1-0.1c0,0,0-0.1,0-0.2v0.3h-0.3
		l0.1-0.2h-0.3l0.1,0.2l-0.5,0.1l0.2-0.3l-0.5,0.5c0.1,0,0.2,0,0.3,0l0.2-0.1c0,0.1-0.2,0.3-0.2,0.5c0.2,0,0.4,0,0.5-0.2
		c0,0.4,0.1,0.7,0.1,0.8v-0.3h0.5c-0.1,0-0.3-0.1-0.5-0.1c0-0.5,0.6-0.3,1-0.6c-0.6-0.5,0.5-0.3,0.1-0.8c0,0.2-0.1,0.3-0.3,0.3
		c0-0.1-0.4-0.5,0.1-0.5c-0.1,0-0.1,0-0.1,0v-0.1h0c0,0,0.1,0,0.1-0.1c0,0.1-0.1,0.1-0.3,0.1C221.6,16.5,221.6,16.7,221.4,16.8z
		 M221.1,15.9V16c0.2,0,0.3-0.1,0.5-0.1c-0.1-0.1-0.3-0.1-0.3-0.3c-0.3,0.2-1-0.2-1,0.3H221.1z M220.3,20.7c0,0.1,0,0.1,0.1,0.2
		l0.1,0.1l0.2-0.1v0.6l0.1-0.3l0.3,0.3c0,0-0.1,0-0.2,0.2l-0.1,0.1l0.1,0.1l-0.1,0.1c0.2-0.2,0.3-0.4,0.3-0.6c0.1,0,0.2,0,0.2,0.1
		c0,0,0,0,0.1,0v-0.3c0.1,0.1,0.2,0.1,0.5,0.1V21c-0.3,0.3-0.8,0.3-1.1,0.1c0.1-0.1,0.3-0.3,0.6-0.3h-0.5c-0.1-0.1-0.1-0.3-0.3-0.3
		c0.3-0.1,0.6-0.1,0.9,0c-0.1-0.1-0.5-0.1-0.6-0.3C220.8,20.4,220.4,20.5,220.3,20.7z M220.6,14.3h0.6c-0.1,0-0.2-0.1-0.2-0.1h-0.1
		c0-0.2,0.1-0.3,0.1-0.5c-0.1,0-0.3,0.2-0.4,0.2V14.3z M221.4,31.5c-0.1,0.1-0.3,0.3-0.3,0.5c-0.1,0.1-0.3,0.1-0.3,0.3
		c0,0.1,0.1,0.3,0.3,0.5c0-0.3,0.3-0.3,0.7-0.3h-0.7c0-0.3,0.5-0.5,0.3-0.8V31.5c0,0,0,0,0.1-0.1c0.2,0,0.3-0.3,0.3-0.5
		c-0.1,0-0.5,0.1-0.6,0.1C221.1,31.2,221.3,31.4,221.4,31.5z M222.1,37.2c0-0.1-0.1-0.3-0.3-0.1C221.8,37.3,221.9,37.4,222.1,37.2z
		 M222.7,14.6c0-0.1-0.5-0.3-0.5,0C222.2,14.7,222.7,15.1,222.7,14.6z M223.2,34.4c0,0.5,0.6,0.3,0.8,0H223.2z M223.8,43.8
		c0-0.3,0.1-0.5,0.5-0.5c-0.3-0.1-0.5,0.1-0.8,0.1C223.7,43.7,223.8,43.7,223.8,43.8z M224.1,25.4c-0.1,0-0.3,0.2-0.1,0.3
		C224.1,25.9,224.3,25.7,224.1,25.4z M225.6,10.5h10V19h-10V10.5z M225.6,25.4h9.5v8.4h-9.5V25.4z M225.6,40.4h10
		c0,1.5,0.1,2.7,0,4.1c-0.3-0.3-0.3-1-0.3-1.4c-0.1,0-0.4,0-0.6-0.2c-0.4,0-0.8-0.1-1.1-0.3c-0.5,0.3-1,0.5-1.4,0.5v1.9h-1.1
		c0-0.2-0.1-0.3-0.1-0.6h-0.3c0,0.3,0,0.6-0.2,0.8h-0.6v1.8l-0.1-0.1l-0.2-0.2h-1.9c-0.4,0.1-0.6,0.4-0.6,0.8c-0.3,0.1-0.6,0-1,0
		c0-0.5,0.2-0.9-0.1-1.5V40.4z M226.8,27.8v0.3c0,0,0,0,0.1,0.1c0,0,0.1,0.1,0.1,0.2c-0.1,0.1-0.1,0.2-0.1,0.5
		c0.2-0.2,0.3-0.4,0.3-0.8c-0.6,0,0-0.3,0.1-0.5c-0.2,0.1-0.5,0.1-0.6,0c-0.3,0-0.3,0.3-0.3,0.5C226.4,27.9,226.6,27.8,226.8,27.8z
		 M226.6,13.6c0-0.3,0-0.3-0.3-0.3C226.3,13.7,226.2,13.8,226.6,13.6z M226.4,31.7C226.4,31.7,226.4,31.7,226.4,31.7
		c0.1,0.1,0.1,0.1,0.1,0.2c0.2-0.3,0.5-0.5,0.8-0.3c-0.2,0.1-0.3,0.3-0.5,0.6c-0.2,0-0.4,0-0.5-0.1c0.3,0.1,0.5,0.3,0.5,0.6v-0.3
		h0.3V32l0.2,0.1c-0.2-0.5,0.3-0.6,0.6-0.8c-0.3,0.1-0.6,0.1-0.8,0c-0.2,0-0.3,0-0.4,0.1C226.5,31.5,226.4,31.6,226.4,31.7z
		 M226.7,30L226.7,30c-0.1,0.2,0.1,0.5,0.1,0.8c0.1-0.3,0.4-0.5,0.6-0.5c-0.2-0.1-0.3-0.1-0.5-0.3c0.3,0,0.6-0.1,0.8,0
		c0.1,0,0.3-0.1,0.5-0.1c-0.1-0.1-0.2-0.2-0.3-0.3c-0.1,0.3-0.4,0-0.6-0.1v0.3c-0.4,0-0.5-0.5-0.1-0.6c-0.5,0-0.3,0.6-0.1,1
		C226.8,30.1,226.7,30.1,226.7,30z M226.9,17.8c0.1,0.1,0.6-0.3,0.5-0.5C227.2,17.5,226.9,17.7,226.9,17.8z M228.1,26.2
		c0,0.1-0.2,0.3-0.3,0.4c0.1-0.1,0.8,0,0.5,0.3c-0.1,0.5-1-0.3-0.8,0.5c0.2,0,0.3,0,0.4-0.2c0,0.2-0.1,0.2-0.1,0.3l-0.3-0.1
		c0,0.6,0.6,0.6,0.9,0.6v0.1c0.3-0.1,0.4-0.3,0.8-0.3h0.2c-0.2-0.1-0.3-0.1-0.5-0.3c0-0.3,0.1-0.5,0.1-0.6c-0.3,0-0.7-0.5-0.1-0.6
		v0.3h0.3c-0.1-0.1-0.1-0.3-0.1-0.6c-0.1,0.1-0.2,0.2-0.5,0.2H228.1z M227.9,14.4v-0.6c-0.1,0.1-0.3,0.3-0.4,0.6
		C227.6,14.4,227.7,14.6,227.9,14.4z M228.1,29.1c-0.1-0.1-0.3-0.1-0.5-0.1C227.4,29.3,228.1,29.4,228.1,29.1z M227.7,15.9
		c0-0.1-0.1-0.3-0.1-0.5V16c0.1-0.1,0.2-0.1,0.5-0.1v0.3l0.1-0.1v0.6c0.1,0,0.1,0.1,0.3,0.3l-0.1,0.1c0.1,0,0.1-0.1,0.3-0.3h0.4v0
		c0,0,0-0.1-0.1-0.1c0.1-0.1,0.1-0.3,0.3-0.5c-0.2,0.2-0.5,0.2-0.6,0.3c0.1-0.3,0.4-0.5,0.8-0.5c0.3,0.1,0.5,0.1,0.6,0
		c-0.1-0.1-0.5-0.1-0.6-0.1c0-0.5-0.6-0.3-0.8-0.5c0,0,0,0,0.1,0.1c0,0,0.1,0.1,0.1,0.2c-0.2,0.2-0.4,0.3-0.8,0.3
		c0.2-0.2,0.3-0.3,0.3-0.5c0,0,0,0-0.1,0c-0.1,0-0.1,0-0.2,0.1c0-0.2-0.2-0.3-0.2-0.5C227.9,15.4,227.7,15.7,227.7,15.9z
		 M228.2,26.2l0.1,0.1v0.1h-0.1v0c0,0,0-0.1-0.1-0.1L228.2,26.2z M229.1,13.3c-0.4-0.1-0.4,0.3-0.8,0.5c0.3,0,0.3,0.3,0.3,0.6
		c-0.1,0-0.3,0.1-0.5,0.3c0.5-0.1,0.9-0.1,1.3-0.1c0.1,0,0.7-0.1,0.1-0.3c0,0,0,0,0.1-0.1c0,0,0.1-0.1,0.1-0.2
		c0.2,0,0.3-0.1,0.3-0.3c-0.2-0.2-0.4-0.2-0.6-0.1v-0.3c-0.1,0-0.5-0.2-0.6-0.3C228.8,13,228.9,13.1,229.1,13.3z M228.8,30.2
		c-0.1,0.1-0.3,0.3-0.1,0.3c0.1,0.1,0.1,0.1,0.1,0.2v0.1c0,0.3,0.5,0.3,0.1,0.6l-0.3-0.3c-0.2,0.1-0.3,0.1-0.3,0.3h0.5
		c0.3,0.1,0.6,0,0.9-0.1c0,0.1,0.2,0.5,0.2,0.6h0.3c-0.2,0-0.3-0.1-0.3-0.3h0.9c-0.3-0.1-0.6,0-0.9-0.1v-0.1h0.1c0,0,0.1,0,0.2-0.1
		c-0.1,0.1-0.2,0.1-0.3,0.1h-0.2c0-0.1,0.2-0.3,0.2-0.5c-0.2,0.1-0.8-0.1-0.6,0.3c-0.6,0-0.2-0.5,0.1-0.6h-0.6V30.2z M228.8,12.3
		c-0.1,0.1-0.1,0.2-0.1,0.2v0.1c0.3,0,0.1-0.3,0.3-0.6c-0.1,0.1-0.5,0-0.5,0.1C228.5,12.3,228.6,12.3,228.8,12.3z M229.3,17.3
		c0,0.4,0.6-0.2,0.4,0.3c-0.4,0-0.7-0.1-1.1-0.1V18c0.1,0,0.1,0,0.2,0l0.1-0.1c0.1,0.6,0.6-0.2,1,0.1v-0.6h-0.2
		c0-0.3-0.3-0.1-0.6-0.3L229.3,17.3z M229.1,14.3c0.1,0,0.2,0,0.2,0l0.1-0.1c0.3,0.1,0,0.5-0.1,0.3L229.1,14.3z M229.5,29.4
		c-0.3,0-0.5,0.5-0.1,0.6C229.5,30.1,229.6,29.6,229.5,29.4z M229.8,18c-0.1,0-0.6,0-0.4,0.3C229.5,18.5,229.8,18.3,229.8,18z
		 M230,15.2c-0.2,0-0.6-0.2-0.6,0.1C229.5,15.5,230,15.6,230,15.2z M229.3,27.2v0.5c0.1,0,0.3,0,0.6-0.1h-0.3c0-0.2,0.1-0.3,0.3-0.3
		H229.3z M229.3,32v0.5h0.4v-0.3c-0.1,0-0.3,0.1-0.4,0.1V32z M232.6,29.6h-1v-0.1c-0.3,0-0.9,0.3-0.9-0.2c-0.1,0.3-0.5,0.3-0.8,0.2
		v0.6c0.2,0,0.5-0.1,0.7-0.1c0.1,0.7-0.7,0.2-1,0.8c0.5-0.1,0.8-0.1,1-0.5h0.6c-0.2-0.1-0.3-0.1-0.5-0.3h0.8c0.3-0.3,0.6-0.2,1-0.2
		c0.1,0.2,0.3,0.3,0.3,0.6c0.1-0.3,0.4-0.3,0.8-0.3c-0.3-0.3-0.6-0.5-0.9-0.6c0.1-0.2,0.5-0.2,0.5-0.3c-0.3,0-0.8,0.3-1.1,0
		c-0.1,0.1-0.1,0.2-0.1,0.3C231.9,29.4,232.6,29.1,232.6,29.6z M229.6,29.9v0.1V29.9z M229.8,33h0.7l0.1,0.2c0-0.2,0.1-0.2,0.1-0.3
		h-0.3c-0.2,0-0.3-0.1-0.3-0.3C230,32.7,229.8,32.8,229.8,33z M230.1,41.5c0.1-0.1,0.4,0,0.8,0c-0.2-0.2-0.3-0.3-0.4-0.3h-0.1
		c0,0-0.1,0-0.2,0.1V41.5z M230.6,28c0.1,0.2,0.3,0.2,0.5,0.3v-0.8c0,0.1-0.2,0.3-0.2,0.4H230.6z M230.6,29.6h0.1v0.1h-0.1V29.6z
		 M232.6,28.3c-0.3-0.1-0.7-0.6-0.3-1c-0.3,0.2-0.6,0.3-0.9,0.6C231.8,28.2,232,28.2,232.6,28.3z M234.5,14.4
		c-0.1,0-0.3,0.1-0.5,0.1c0,0-0.1,0-0.3,0.1c0,0-0.1,0-0.2,0l-0.1-0.3c-0.1,0.1-0.4,0.1-0.8,0.1v0.1c0.3,0,0.5,0,0.6,0.3
		c-0.2,0-0.4,0-0.5,0.1l-0.1,0.1c0,0,0,0.1,0,0.2c0.1-0.1,0.3-0.1,0.5-0.3c0,0.2,0.1,0.3,0.4,0.3v0.2h0.3v-0.3h0.1v0.3h0.3
		c-0.1,0.3-0.6,0.3-1,0.1c0.1,0.1,0.5,0.1,0.5,0.5v-0.2c0.3-0.1,0.5-0.1,0.6-0.1c-0.1-0.2,0-0.4,0.1-0.6c-0.3,0-0.5-0.5-0.1-0.6
		c0.1,0.3,0.7,0.4,0.1-0.1h0.5c-0.3-0.1-0.6-0.3-0.6-0.6V14.4z M232.6,15.9c0.3,0.3,0.1,0.3,0,0.5c0.3,0.1,0.6,0.1,0.9,0
		c-0.1-0.2-0.4-0.3-0.4-0.6C232.9,15.8,232.8,15.9,232.6,15.9z M233.8,15.2c-0.1,0.1-0.3,0.2-0.3-0.1
		C233.7,15.1,233.8,15.1,233.8,15.2z M234.5,41.7c0-0.1-0.5,0-0.5,0.2C234,42,234.5,41.9,234.5,41.7z"/>
</g>
</svg>
